G04*
G04 #@! TF.GenerationSoftware,Altium Limited,Altium Designer,20.1.11 (218)*
G04*
G04 Layer_Color=128*
%FSLAX25Y25*%
%MOIN*%
G70*
G04*
G04 #@! TF.SameCoordinates,9421AAF7-A1CE-47F4-AB83-8062CB6876A7*
G04*
G04*
G04 #@! TF.FilePolarity,Positive*
G04*
G01*
G75*
%ADD77C,0.00200*%
D77*
X227374Y143535D02*
X228949D01*
X228161Y142748D02*
Y144323D01*
X238595Y149441D02*
X240169D01*
X239382Y148653D02*
Y150228D01*
X245583Y184972D02*
X247158D01*
X246370Y184185D02*
Y185760D01*
X244697Y188024D02*
X246272D01*
X245484Y187236D02*
Y188811D01*
X274028Y187536D02*
X275603D01*
X274815Y186748D02*
Y188323D01*
X273142Y197079D02*
X274716D01*
X273929Y196291D02*
Y197866D01*
X243614Y120307D02*
X245189D01*
X244402Y119520D02*
Y121095D01*
X302374Y112138D02*
X303949D01*
X303161Y111350D02*
Y112925D01*
X294303Y127984D02*
X295878D01*
X295091Y127197D02*
Y128772D01*
X314314Y116811D02*
X315889D01*
X315102Y116024D02*
Y117598D01*
X314314Y128716D02*
X315889D01*
X315102Y127929D02*
Y129504D01*
X302374Y119913D02*
X303949D01*
X303161Y119126D02*
Y120701D01*
X305031Y129165D02*
X306606D01*
X305819Y128378D02*
Y129953D01*
X314314Y122764D02*
X315889D01*
X315102Y121976D02*
Y123551D01*
X283279Y110563D02*
X284854D01*
X284067Y109776D02*
Y111350D01*
X275898Y128673D02*
X277472D01*
X276685Y127886D02*
Y129461D01*
X320484Y135760D02*
X322059D01*
X321272Y134972D02*
Y136547D01*
X293713Y160465D02*
X295287D01*
X294500Y159677D02*
Y161252D01*
X288988Y160661D02*
X290563D01*
X289776Y159874D02*
Y161449D01*
X275610Y160646D02*
X277185D01*
X276398Y159858D02*
Y161433D01*
X273535Y162827D02*
X275110D01*
X274323Y162039D02*
Y163614D01*
X272748Y159776D02*
X274323D01*
X273535Y158988D02*
Y160563D01*
X243614Y197079D02*
X245189D01*
X244402Y196291D02*
Y197866D01*
X243417Y210268D02*
X244992D01*
X244205Y209480D02*
Y211055D01*
X307923Y161885D02*
X309498D01*
X308710Y161097D02*
Y162672D01*
X273930Y149739D02*
X275504D01*
X274717Y148951D02*
Y150526D01*
X305819Y149638D02*
X307394D01*
X306606Y148850D02*
Y150425D01*
X263201Y151902D02*
X264776D01*
X263988Y151114D02*
Y152689D01*
X272551Y154165D02*
X274126D01*
X273339Y153378D02*
Y154953D01*
X260346Y149933D02*
X261921D01*
X261134Y149146D02*
Y150721D01*
X269697Y146095D02*
X271272D01*
X270484Y145307D02*
Y146882D01*
X221764Y163319D02*
X223339D01*
X222551Y162531D02*
Y164106D01*
X258082Y132513D02*
X259657D01*
X258870Y131726D02*
Y133301D01*
X221075Y166961D02*
X222650D01*
X221862Y166173D02*
Y167748D01*
X225602Y165091D02*
X227177D01*
X226390Y164303D02*
Y165878D01*
X223337Y169031D02*
X224911D01*
X224124Y168243D02*
Y169818D01*
X319308Y194741D02*
X320883D01*
X320096Y193953D02*
Y195528D01*
X261626Y133693D02*
X263201D01*
X262413Y132905D02*
Y134480D01*
X233870Y196390D02*
X235445D01*
X234658Y195602D02*
Y197177D01*
X243516Y153575D02*
X245091D01*
X244303Y152787D02*
Y154362D01*
X238634Y168253D02*
X240209D01*
X239421Y167465D02*
Y169040D01*
X255164Y177335D02*
X256739D01*
X255952Y176547D02*
Y178122D01*
X251587Y193043D02*
X253161D01*
X252374Y192256D02*
Y193831D01*
X235642Y136547D02*
X237216D01*
X236429Y135760D02*
Y137335D01*
X262315Y167456D02*
X263890D01*
X263102Y166668D02*
Y168243D01*
X250012Y140484D02*
X251587D01*
X250799Y139697D02*
Y141272D01*
X248634Y171980D02*
X250209D01*
X249421Y171193D02*
Y172768D01*
X223339Y154067D02*
X224913D01*
X224126Y153279D02*
Y154854D01*
X238004Y177591D02*
X239579D01*
X238791Y176803D02*
Y178378D01*
X294811Y252590D02*
X296386D01*
X295598Y251803D02*
Y253378D01*
X297370Y254165D02*
X298945D01*
X298158Y253378D02*
Y254953D01*
X292055Y250721D02*
X293630D01*
X292843Y249933D02*
Y251508D01*
X254441Y252590D02*
X256016D01*
X255228Y251803D02*
Y253378D01*
X251685Y250721D02*
X253260D01*
X252472Y249933D02*
Y251508D01*
X257000Y254165D02*
X258575D01*
X257787Y253378D02*
Y254953D01*
X251838Y258300D02*
X253413D01*
X252625Y257513D02*
Y259087D01*
X274323Y239008D02*
X275898D01*
X275110Y238221D02*
Y239795D01*
X256838Y258300D02*
X258413D01*
X257625Y257513D02*
Y259087D01*
X251838Y244100D02*
X253413D01*
X252625Y243313D02*
Y244887D01*
X211468Y248900D02*
X213042D01*
X212255Y248113D02*
Y249687D01*
X298339Y221587D02*
X299913D01*
X299126Y220799D02*
Y222374D01*
X317630Y187630D02*
X319205D01*
X318417Y186843D02*
Y188417D01*
X315268Y169972D02*
X316843D01*
X316055Y169185D02*
Y170760D01*
X311231Y187190D02*
X312806D01*
X312018Y186402D02*
Y187977D01*
X227321Y131509D02*
X228896D01*
X228108Y130722D02*
Y132297D01*
X222256Y146095D02*
X223831D01*
X223043Y145307D02*
Y146882D01*
X284559Y181527D02*
X286134D01*
X285346Y180740D02*
Y182315D01*
X284756Y173752D02*
X286331D01*
X285543Y172965D02*
Y174539D01*
X294393Y183590D02*
X295968D01*
X295180Y182802D02*
Y184377D01*
X308772Y148358D02*
X310346D01*
X309559Y147571D02*
Y149146D01*
X309794Y140136D02*
X311369D01*
X310581Y139348D02*
Y140923D01*
X290661Y120209D02*
X292236D01*
X291449Y119421D02*
Y120996D01*
X283968Y114697D02*
X285543D01*
X284756Y113909D02*
Y115484D01*
X287118Y123161D02*
X288693D01*
X287906Y122374D02*
Y123949D01*
X270386Y114205D02*
X271961D01*
X271173Y113417D02*
Y114992D01*
X264382Y114106D02*
X265957D01*
X265169Y113319D02*
Y114894D01*
X263890Y119815D02*
X265465D01*
X264677Y119027D02*
Y120602D01*
X263791Y124441D02*
X265366D01*
X264579Y123653D02*
Y125228D01*
X248437Y115189D02*
X250012D01*
X249224Y114402D02*
Y115976D01*
X249520Y119224D02*
X251095D01*
X250307Y118437D02*
Y120012D01*
X248929Y123949D02*
X250504D01*
X249716Y123161D02*
Y124736D01*
X256803Y119717D02*
X258378D01*
X257591Y118929D02*
Y120504D01*
X257394Y115386D02*
X258968D01*
X258181Y114598D02*
Y116173D01*
X257591Y123653D02*
X259165D01*
X258378Y122866D02*
Y124441D01*
X229441Y114795D02*
X231016D01*
X230228Y114008D02*
Y115583D01*
X232689Y117453D02*
X234264D01*
X233476Y116665D02*
Y118240D01*
X221915Y115583D02*
X223490D01*
X222703Y114795D02*
Y116370D01*
X232591Y186744D02*
X234165D01*
X233378Y185957D02*
Y187531D01*
X267630Y178181D02*
X269205D01*
X268417Y177394D02*
Y178969D01*
X271075Y188221D02*
X272650D01*
X271862Y187433D02*
Y189008D01*
X257634Y188171D02*
X259209D01*
X258421Y187383D02*
Y188958D01*
X284756Y144421D02*
X286331D01*
X285543Y143634D02*
Y145209D01*
X289382Y140583D02*
X290957D01*
X290169Y139795D02*
Y141370D01*
X294402Y135169D02*
X295976D01*
X295189Y134382D02*
Y135957D01*
X315366Y134185D02*
X316941D01*
X316154Y133398D02*
Y134972D01*
X314573Y176272D02*
X316148D01*
X315360Y175484D02*
Y177059D01*
X317206Y178363D02*
X318781D01*
X317994Y177575D02*
Y179150D01*
X304891Y188122D02*
X306466D01*
X305679Y187335D02*
Y188909D01*
X313595Y203772D02*
X315169D01*
X314382Y202984D02*
Y204559D01*
X317531Y203083D02*
X319106D01*
X318319Y202295D02*
Y203870D01*
X304146Y195799D02*
X305720D01*
X304933Y195012D02*
Y196587D01*
X301291Y192551D02*
X302866D01*
X302079Y191764D02*
Y193339D01*
X301222Y197742D02*
X302797D01*
X302009Y196955D02*
Y198530D01*
X284953Y196095D02*
X286527D01*
X285740Y195307D02*
Y196882D01*
X243516Y221488D02*
X245091D01*
X244303Y220701D02*
Y222276D01*
X243417Y217650D02*
X244992D01*
X244205Y216862D02*
Y218437D01*
X270462Y182253D02*
X272037D01*
X271249Y181465D02*
Y183040D01*
X209658Y263811D02*
X211232D01*
X210445Y263024D02*
Y264598D01*
X209854Y273358D02*
X211429D01*
X210642Y272571D02*
Y274146D01*
X209756Y280937D02*
X211331D01*
X210543Y280150D02*
Y281724D01*
X210051Y289894D02*
X211626D01*
X210839Y289106D02*
Y290681D01*
X210248Y295898D02*
X211823D01*
X211035Y295110D02*
Y296685D01*
X216744Y290779D02*
X218319D01*
X217531Y289992D02*
Y291567D01*
X216744Y295799D02*
X218319D01*
X217531Y295012D02*
Y296587D01*
X239573Y229773D02*
X241148D01*
X240361Y228986D02*
Y230561D01*
X240366Y238417D02*
X241941D01*
X241154Y237630D02*
Y239205D01*
X241252Y265386D02*
X242827D01*
X242039Y264598D02*
Y266173D01*
X240760Y276803D02*
X242335D01*
X241547Y276016D02*
Y277590D01*
X240563Y284776D02*
X242138D01*
X241350Y283988D02*
Y285563D01*
X248535Y265189D02*
X250110D01*
X249323Y264402D02*
Y265976D01*
X248535Y276705D02*
X250110D01*
X249323Y275917D02*
Y277492D01*
X248240Y284382D02*
X249815D01*
X249027Y283594D02*
Y285169D01*
X233476Y290779D02*
X235051D01*
X234264Y289992D02*
Y291567D01*
X233378Y295898D02*
X234953D01*
X234165Y295110D02*
Y296685D01*
X239185Y290189D02*
X240760D01*
X239972Y289402D02*
Y290976D01*
X239382Y295898D02*
X240957D01*
X240169Y295110D02*
Y296685D01*
X248339Y290189D02*
X249913D01*
X249126Y289402D02*
Y290976D01*
X248240Y295799D02*
X249815D01*
X249027Y295012D02*
Y296587D01*
X256114Y290090D02*
X257689D01*
X256902Y289303D02*
Y290878D01*
X256114Y295602D02*
X257689D01*
X256902Y294815D02*
Y296390D01*
X256705Y238417D02*
X258279D01*
X257492Y237630D02*
Y239205D01*
X250504Y238319D02*
X252079D01*
X251291Y237531D02*
Y239106D01*
X251095Y224342D02*
X252669D01*
X251882Y223555D02*
Y225130D01*
X251291Y218437D02*
X252866D01*
X252079Y217650D02*
Y219224D01*
X250898Y210760D02*
X252472D01*
X251685Y209972D02*
Y211547D01*
X284559Y229658D02*
X286134D01*
X285346Y228870D02*
Y230445D01*
X284756Y219618D02*
X286331D01*
X285543Y218831D02*
Y220406D01*
X284854Y210661D02*
X286429D01*
X285642Y209874D02*
Y211449D01*
X287413Y238811D02*
X288988D01*
X288201Y238024D02*
Y239598D01*
X279736Y238909D02*
X281311D01*
X280524Y238122D02*
Y239697D01*
X296229Y238039D02*
X297804D01*
X297017Y237251D02*
Y238826D01*
X281016Y263811D02*
X282591D01*
X281803Y263024D02*
Y264598D01*
X289382Y263417D02*
X290957D01*
X290169Y262630D02*
Y264205D01*
X281606Y276902D02*
X283181D01*
X282394Y276114D02*
Y277689D01*
X285445Y266370D02*
X287020D01*
X286232Y265583D02*
Y267158D01*
X285346Y280248D02*
X286921D01*
X286134Y279461D02*
Y281035D01*
X289185Y276705D02*
X290760D01*
X289972Y275917D02*
Y277492D01*
X281803Y284382D02*
X283378D01*
X282591Y283594D02*
Y285169D01*
X289185Y284382D02*
X290760D01*
X289972Y283594D02*
Y285169D01*
X273339Y291075D02*
X274913D01*
X274126Y290287D02*
Y291862D01*
X273732Y295898D02*
X275307D01*
X274520Y295110D02*
Y296685D01*
X281114Y289894D02*
X282689D01*
X281902Y289106D02*
Y290681D01*
X281016Y295898D02*
X282591D01*
X281803Y295110D02*
Y296685D01*
X289480Y290090D02*
X291055D01*
X290268Y289303D02*
Y290878D01*
X288988Y295898D02*
X290563D01*
X289776Y295110D02*
Y296685D01*
X297256Y290287D02*
X298831D01*
X298043Y289500D02*
Y291075D01*
X296961Y295504D02*
X298535D01*
X297748Y294717D02*
Y296291D01*
X320976Y245996D02*
X322551D01*
X321764Y245209D02*
Y246783D01*
X320878Y230740D02*
X322453D01*
X321665Y229953D02*
Y231528D01*
X320878Y220307D02*
X322453D01*
X321665Y219520D02*
Y221094D01*
X320976Y212728D02*
X322551D01*
X321764Y211941D02*
Y213516D01*
X320779Y252590D02*
X322354D01*
X321567Y251803D02*
Y253378D01*
X315268Y255740D02*
X316843D01*
X316055Y254953D02*
Y256528D01*
X320779Y259579D02*
X322354D01*
X321567Y258791D02*
Y260366D01*
X320878Y268043D02*
X322453D01*
X321665Y267256D02*
Y268831D01*
X320878Y274835D02*
X322453D01*
X321665Y274047D02*
Y275622D01*
X320779Y282217D02*
X322354D01*
X321567Y281429D02*
Y283004D01*
X314382Y290484D02*
X315957D01*
X315169Y289697D02*
Y291272D01*
X320976Y290189D02*
X322551D01*
X321764Y289402D02*
Y290976D01*
X314283Y295799D02*
X315858D01*
X315071Y295012D02*
Y296587D01*
X320878Y295602D02*
X322453D01*
X321665Y294815D02*
Y296390D01*
X318024Y293339D02*
X319598D01*
X318811Y292551D02*
Y294126D01*
X268713Y119126D02*
X270287D01*
X269500Y118339D02*
Y119913D01*
X276882Y123457D02*
X278457D01*
X277669Y122669D02*
Y124244D01*
X277866Y184465D02*
X279441D01*
X278654Y183678D02*
Y185252D01*
X299913Y139598D02*
X301487D01*
X300700Y138811D02*
Y140386D01*
X265366Y184874D02*
X266941D01*
X266154Y184087D02*
Y185661D01*
X257984Y152295D02*
X259559D01*
X258772Y151508D02*
Y153083D01*
X250110Y195799D02*
X251685D01*
X250898Y195012D02*
Y196587D01*
X225307Y202295D02*
X226882D01*
X226095Y201508D02*
Y203083D01*
X246567Y105150D02*
X248142D01*
X247354Y104362D02*
Y105937D01*
X310445Y177689D02*
X312020D01*
X311232Y176902D02*
Y178476D01*
X308014Y204474D02*
X309589D01*
X308802Y203687D02*
Y205261D01*
X256902Y203279D02*
X258476D01*
X257689Y202492D02*
Y204067D01*
X302571Y203575D02*
X304146D01*
X303358Y202787D02*
Y204362D01*
X320318Y128716D02*
X321893D01*
X321106Y127929D02*
Y129504D01*
X320318Y122764D02*
X321893D01*
X321106Y121976D02*
Y123551D01*
X320318Y116811D02*
X321893D01*
X321106Y116024D02*
Y117598D01*
X299913Y143732D02*
X301488D01*
X300701Y142945D02*
Y144520D01*
X282984Y138319D02*
X284559D01*
X283772Y137531D02*
Y139106D01*
X242574Y134807D02*
X244149D01*
X243361Y134020D02*
Y135594D01*
X257492Y105051D02*
X259067D01*
X258279Y104264D02*
Y105839D01*
X268417Y105150D02*
X269992D01*
X269205Y104362D02*
Y105937D01*
X226728Y117583D02*
X228302D01*
X227515Y116795D02*
Y118370D01*
X246665Y134972D02*
X248240D01*
X247453Y134185D02*
Y135760D01*
X250307Y135071D02*
X251882D01*
X251095Y134283D02*
Y135858D01*
X252220Y110594D02*
X253794D01*
X253007Y109807D02*
Y111382D01*
X280917Y123260D02*
X282492D01*
X281705Y122472D02*
Y124047D01*
X317827Y238909D02*
X319402D01*
X318614Y238122D02*
Y239697D01*
X269303Y219028D02*
X270878D01*
X270091Y218240D02*
Y219815D01*
X285150Y190976D02*
X286724D01*
X285937Y190189D02*
Y191764D01*
X239972Y223850D02*
X241547D01*
X240760Y223063D02*
Y224638D01*
X233772Y238319D02*
X235346D01*
X234559Y237531D02*
Y239106D01*
X263693Y170307D02*
X265268D01*
X264480Y169520D02*
Y171095D01*
X292208Y244100D02*
X293783D01*
X292995Y243313D02*
Y244887D01*
X297208Y258300D02*
X298783D01*
X297995Y257513D02*
Y259087D01*
X292208Y258300D02*
X293783D01*
X292995Y257513D02*
Y259087D01*
X216468Y253900D02*
X218042D01*
X217255Y253113D02*
Y254687D01*
X211468Y258300D02*
X213042D01*
X212255Y257513D02*
Y259087D01*
X216468Y258300D02*
X218042D01*
X217255Y257513D02*
Y259087D01*
X211468Y244100D02*
X213042D01*
X212255Y243313D02*
Y244887D01*
X211468Y253900D02*
X213042D01*
X212255Y253113D02*
Y254687D01*
X345484Y143535D02*
X347059D01*
X346272Y142748D02*
Y144323D01*
X356705Y149441D02*
X358279D01*
X357492Y148653D02*
Y150228D01*
X363693Y184972D02*
X365268D01*
X364480Y184185D02*
Y185760D01*
X362807Y188024D02*
X364382D01*
X363595Y187236D02*
Y188811D01*
X392138Y187536D02*
X393713D01*
X392926Y186748D02*
Y188323D01*
X391252Y197079D02*
X392827D01*
X392039Y196291D02*
Y197866D01*
X361724Y120307D02*
X363299D01*
X362512Y119520D02*
Y121095D01*
X420484Y112138D02*
X422059D01*
X421272Y111350D02*
Y112925D01*
X412413Y127984D02*
X413988D01*
X413201Y127197D02*
Y128772D01*
X432424Y116811D02*
X433999D01*
X433212Y116024D02*
Y117598D01*
X432424Y128716D02*
X433999D01*
X433212Y127929D02*
Y129504D01*
X420484Y119913D02*
X422059D01*
X421272Y119126D02*
Y120701D01*
X423142Y129165D02*
X424717D01*
X423929Y128378D02*
Y129953D01*
X432424Y122764D02*
X433999D01*
X433212Y121976D02*
Y123551D01*
X401390Y110563D02*
X402965D01*
X402177Y109776D02*
Y111350D01*
X394008Y128673D02*
X395583D01*
X394795Y127886D02*
Y129461D01*
X438594Y135760D02*
X440169D01*
X439382Y134972D02*
Y136547D01*
X411823Y160465D02*
X413398D01*
X412610Y159677D02*
Y161252D01*
X407098Y160661D02*
X408673D01*
X407886Y159874D02*
Y161449D01*
X393720Y160646D02*
X395295D01*
X394508Y159858D02*
Y161433D01*
X391646Y162827D02*
X393220D01*
X392433Y162039D02*
Y163614D01*
X390858Y159776D02*
X392433D01*
X391646Y158988D02*
Y160563D01*
X361724Y197079D02*
X363299D01*
X362512Y196291D02*
Y197866D01*
X361528Y210268D02*
X363102D01*
X362315Y209480D02*
Y211055D01*
X426033Y161885D02*
X427608D01*
X426821Y161097D02*
Y162672D01*
X392040Y149739D02*
X393615D01*
X392827Y148951D02*
Y150526D01*
X423929Y149638D02*
X425504D01*
X424717Y148850D02*
Y150425D01*
X381311Y151902D02*
X382886D01*
X382098Y151114D02*
Y152689D01*
X390661Y154165D02*
X392236D01*
X391449Y153378D02*
Y154953D01*
X378457Y149933D02*
X380031D01*
X379244Y149146D02*
Y150721D01*
X387807Y146095D02*
X389382D01*
X388595Y145307D02*
Y146882D01*
X339874Y163319D02*
X341449D01*
X340661Y162531D02*
Y164106D01*
X376192Y132513D02*
X377767D01*
X376980Y131726D02*
Y133301D01*
X339185Y166961D02*
X340760D01*
X339972Y166173D02*
Y167748D01*
X343713Y165091D02*
X345287D01*
X344500Y164303D02*
Y165878D01*
X341447Y169031D02*
X343022D01*
X342234Y168243D02*
Y169818D01*
X437419Y194741D02*
X438994D01*
X438206Y193953D02*
Y195528D01*
X379736Y133693D02*
X381311D01*
X380524Y132905D02*
Y134480D01*
X351980Y196390D02*
X353555D01*
X352768Y195602D02*
Y197177D01*
X361626Y153575D02*
X363201D01*
X362413Y152787D02*
Y154362D01*
X356744Y168253D02*
X358319D01*
X357532Y167465D02*
Y169040D01*
X373275Y177335D02*
X374849D01*
X374062Y176547D02*
Y178122D01*
X369697Y193043D02*
X371272D01*
X370484Y192256D02*
Y193831D01*
X353752Y136547D02*
X355327D01*
X354539Y135760D02*
Y137335D01*
X380425Y167456D02*
X382000D01*
X381212Y166668D02*
Y168243D01*
X368122Y140484D02*
X369697D01*
X368910Y139697D02*
Y141272D01*
X366744Y171980D02*
X368319D01*
X367531Y171193D02*
Y172768D01*
X341449Y154067D02*
X343024D01*
X342236Y153279D02*
Y154854D01*
X356114Y177591D02*
X357689D01*
X356902Y176803D02*
Y178378D01*
X412921Y252590D02*
X414496D01*
X413709Y251803D02*
Y253378D01*
X415480Y254165D02*
X417055D01*
X416268Y253378D02*
Y254953D01*
X410165Y250721D02*
X411740D01*
X410953Y249933D02*
Y251508D01*
X372551Y252590D02*
X374126D01*
X373339Y251803D02*
Y253378D01*
X369795Y250721D02*
X371370D01*
X370583Y249933D02*
Y251508D01*
X375110Y254165D02*
X376685D01*
X375898Y253378D02*
Y254953D01*
X369948Y258300D02*
X371523D01*
X370735Y257513D02*
Y259087D01*
X392433Y239008D02*
X394008D01*
X393220Y238221D02*
Y239795D01*
X374948Y258300D02*
X376523D01*
X375735Y257513D02*
Y259087D01*
X369948Y244100D02*
X371523D01*
X370735Y243313D02*
Y244887D01*
X329578Y248900D02*
X331153D01*
X330365Y248113D02*
Y249687D01*
X416449Y221587D02*
X418024D01*
X417236Y220799D02*
Y222374D01*
X435740Y187630D02*
X437315D01*
X436527Y186843D02*
Y188417D01*
X433378Y169972D02*
X434953D01*
X434165Y169185D02*
Y170760D01*
X429341Y187190D02*
X430916D01*
X430129Y186402D02*
Y187977D01*
X345431Y131509D02*
X347006D01*
X346219Y130722D02*
Y132297D01*
X340366Y146095D02*
X341941D01*
X341154Y145307D02*
Y146882D01*
X402669Y181527D02*
X404244D01*
X403457Y180740D02*
Y182315D01*
X402866Y173752D02*
X404441D01*
X403653Y172965D02*
Y174539D01*
X412503Y183590D02*
X414078D01*
X413290Y182802D02*
Y184377D01*
X426882Y148358D02*
X428457D01*
X427669Y147571D02*
Y149146D01*
X427904Y140136D02*
X429479D01*
X428692Y139348D02*
Y140923D01*
X408772Y120209D02*
X410346D01*
X409559Y119421D02*
Y120996D01*
X402079Y114697D02*
X403653D01*
X402866Y113909D02*
Y115484D01*
X405228Y123161D02*
X406803D01*
X406016Y122374D02*
Y123949D01*
X388496Y114205D02*
X390071D01*
X389283Y113417D02*
Y114992D01*
X382492Y114106D02*
X384067D01*
X383279Y113319D02*
Y114894D01*
X382000Y119815D02*
X383575D01*
X382787Y119027D02*
Y120602D01*
X381902Y124441D02*
X383476D01*
X382689Y123653D02*
Y125228D01*
X366547Y115189D02*
X368122D01*
X367335Y114402D02*
Y115976D01*
X367630Y119224D02*
X369205D01*
X368417Y118437D02*
Y120012D01*
X367039Y123949D02*
X368614D01*
X367827Y123161D02*
Y124736D01*
X374913Y119717D02*
X376488D01*
X375701Y118929D02*
Y120504D01*
X375504Y115386D02*
X377079D01*
X376291Y114598D02*
Y116173D01*
X375701Y123653D02*
X377276D01*
X376488Y122866D02*
Y124441D01*
X347551Y114795D02*
X349126D01*
X348339Y114008D02*
Y115583D01*
X350799Y117453D02*
X352374D01*
X351587Y116665D02*
Y118240D01*
X340026Y115583D02*
X341600D01*
X340813Y114795D02*
Y116370D01*
X350701Y186744D02*
X352276D01*
X351488Y185957D02*
Y187531D01*
X385740Y178181D02*
X387315D01*
X386527Y177394D02*
Y178969D01*
X389185Y188221D02*
X390760D01*
X389972Y187433D02*
Y189008D01*
X375744Y188171D02*
X377319D01*
X376532Y187383D02*
Y188958D01*
X402866Y144421D02*
X404441D01*
X403653Y143634D02*
Y145209D01*
X407492Y140583D02*
X409067D01*
X408280Y139795D02*
Y141370D01*
X412512Y135169D02*
X414087D01*
X413299Y134382D02*
Y135957D01*
X433476Y134185D02*
X435051D01*
X434264Y133398D02*
Y134972D01*
X432683Y176272D02*
X434258D01*
X433471Y175484D02*
Y177059D01*
X435317Y178363D02*
X436892D01*
X436104Y177575D02*
Y179150D01*
X423001Y188122D02*
X424576D01*
X423789Y187335D02*
Y188909D01*
X431705Y203772D02*
X433280D01*
X432492Y202984D02*
Y204559D01*
X435642Y203083D02*
X437217D01*
X436429Y202295D02*
Y203870D01*
X422256Y195799D02*
X423831D01*
X423043Y195012D02*
Y196587D01*
X419402Y192551D02*
X420976D01*
X420189Y191764D02*
Y193339D01*
X419332Y197742D02*
X420907D01*
X420120Y196955D02*
Y198530D01*
X403063Y196095D02*
X404638D01*
X403850Y195307D02*
Y196882D01*
X361626Y221488D02*
X363201D01*
X362413Y220701D02*
Y222276D01*
X361528Y217650D02*
X363102D01*
X362315Y216862D02*
Y218437D01*
X388572Y182253D02*
X390147D01*
X389360Y181465D02*
Y183040D01*
X327768Y263811D02*
X329343D01*
X328555Y263024D02*
Y264598D01*
X327965Y273358D02*
X329539D01*
X328752Y272571D02*
Y274146D01*
X327866Y280937D02*
X329441D01*
X328654Y280150D02*
Y281724D01*
X328161Y289894D02*
X329736D01*
X328949Y289106D02*
Y290681D01*
X328358Y295898D02*
X329933D01*
X329146Y295110D02*
Y296685D01*
X334854Y290779D02*
X336429D01*
X335642Y289992D02*
Y291567D01*
X334854Y295799D02*
X336429D01*
X335642Y295012D02*
Y296587D01*
X357684Y229773D02*
X359258D01*
X358471Y228986D02*
Y230561D01*
X358476Y238417D02*
X360051D01*
X359264Y237630D02*
Y239205D01*
X359362Y265386D02*
X360937D01*
X360150Y264598D02*
Y266173D01*
X358870Y276803D02*
X360445D01*
X359658Y276016D02*
Y277590D01*
X358673Y284776D02*
X360248D01*
X359461Y283988D02*
Y285563D01*
X366646Y265189D02*
X368220D01*
X367433Y264402D02*
Y265976D01*
X366646Y276705D02*
X368220D01*
X367433Y275917D02*
Y277492D01*
X366350Y284382D02*
X367925D01*
X367138Y283594D02*
Y285169D01*
X351587Y290779D02*
X353161D01*
X352374Y289992D02*
Y291567D01*
X351488Y295898D02*
X353063D01*
X352276Y295110D02*
Y296685D01*
X357295Y290189D02*
X358870D01*
X358083Y289402D02*
Y290976D01*
X357492Y295898D02*
X359067D01*
X358279Y295110D02*
Y296685D01*
X366449Y290189D02*
X368024D01*
X367236Y289402D02*
Y290976D01*
X366350Y295799D02*
X367925D01*
X367138Y295012D02*
Y296587D01*
X374224Y290090D02*
X375799D01*
X375012Y289303D02*
Y290878D01*
X374224Y295602D02*
X375799D01*
X375012Y294815D02*
Y296390D01*
X374815Y238417D02*
X376390D01*
X375602Y237630D02*
Y239205D01*
X368614Y238319D02*
X370189D01*
X369402Y237531D02*
Y239106D01*
X369205Y224342D02*
X370779D01*
X369992Y223555D02*
Y225130D01*
X369402Y218437D02*
X370976D01*
X370189Y217650D02*
Y219224D01*
X369008Y210760D02*
X370583D01*
X369795Y209972D02*
Y211547D01*
X402669Y229658D02*
X404244D01*
X403457Y228870D02*
Y230445D01*
X402866Y219618D02*
X404441D01*
X403653Y218831D02*
Y220406D01*
X402965Y210661D02*
X404539D01*
X403752Y209874D02*
Y211449D01*
X405524Y238811D02*
X407098D01*
X406311Y238024D02*
Y239598D01*
X397846Y238909D02*
X399421D01*
X398634Y238122D02*
Y239697D01*
X414339Y238039D02*
X415914D01*
X415127Y237251D02*
Y238826D01*
X399126Y263811D02*
X400701D01*
X399913Y263024D02*
Y264598D01*
X407492Y263417D02*
X409067D01*
X408280Y262630D02*
Y264205D01*
X399716Y276902D02*
X401291D01*
X400504Y276114D02*
Y277689D01*
X403555Y266370D02*
X405130D01*
X404343Y265583D02*
Y267158D01*
X403457Y280248D02*
X405031D01*
X404244Y279461D02*
Y281035D01*
X407295Y276705D02*
X408870D01*
X408083Y275917D02*
Y277492D01*
X399913Y284382D02*
X401488D01*
X400701Y283594D02*
Y285169D01*
X407295Y284382D02*
X408870D01*
X408083Y283594D02*
Y285169D01*
X391449Y291075D02*
X393024D01*
X392236Y290287D02*
Y291862D01*
X391843Y295898D02*
X393417D01*
X392630Y295110D02*
Y296685D01*
X399224Y289894D02*
X400799D01*
X400012Y289106D02*
Y290681D01*
X399126Y295898D02*
X400701D01*
X399913Y295110D02*
Y296685D01*
X407590Y290090D02*
X409165D01*
X408378Y289303D02*
Y290878D01*
X407098Y295898D02*
X408673D01*
X407886Y295110D02*
Y296685D01*
X415366Y290287D02*
X416941D01*
X416153Y289500D02*
Y291075D01*
X415071Y295504D02*
X416646D01*
X415858Y294717D02*
Y296291D01*
X439087Y245996D02*
X440661D01*
X439874Y245209D02*
Y246783D01*
X438988Y230740D02*
X440563D01*
X439776Y229953D02*
Y231528D01*
X438988Y220307D02*
X440563D01*
X439776Y219520D02*
Y221094D01*
X439087Y212728D02*
X440661D01*
X439874Y211941D02*
Y213516D01*
X438890Y252590D02*
X440464D01*
X439677Y251803D02*
Y253378D01*
X433378Y255740D02*
X434953D01*
X434165Y254953D02*
Y256528D01*
X438890Y259579D02*
X440464D01*
X439677Y258791D02*
Y260366D01*
X438988Y268043D02*
X440563D01*
X439776Y267256D02*
Y268831D01*
X438988Y274835D02*
X440563D01*
X439776Y274047D02*
Y275622D01*
X438890Y282217D02*
X440464D01*
X439677Y281429D02*
Y283004D01*
X432492Y290484D02*
X434067D01*
X433280Y289697D02*
Y291272D01*
X439087Y290189D02*
X440661D01*
X439874Y289402D02*
Y290976D01*
X432394Y295799D02*
X433968D01*
X433181Y295012D02*
Y296587D01*
X438988Y295602D02*
X440563D01*
X439776Y294815D02*
Y296390D01*
X436134Y293339D02*
X437709D01*
X436921Y292551D02*
Y294126D01*
X386823Y119126D02*
X388398D01*
X387610Y118339D02*
Y119913D01*
X394992Y123457D02*
X396567D01*
X395779Y122669D02*
Y124244D01*
X395976Y184465D02*
X397551D01*
X396764Y183678D02*
Y185252D01*
X418023Y139598D02*
X419598D01*
X418810Y138811D02*
Y140386D01*
X383476Y184874D02*
X385051D01*
X384264Y184087D02*
Y185661D01*
X376095Y152295D02*
X377669D01*
X376882Y151508D02*
Y153083D01*
X368220Y195799D02*
X369795D01*
X369008Y195012D02*
Y196587D01*
X343417Y202295D02*
X344992D01*
X344205Y201508D02*
Y203083D01*
X364677Y105150D02*
X366252D01*
X365465Y104362D02*
Y105937D01*
X428555Y177689D02*
X430130D01*
X429343Y176902D02*
Y178476D01*
X426125Y204474D02*
X427699D01*
X426912Y203687D02*
Y205261D01*
X375012Y203279D02*
X376587D01*
X375799Y202492D02*
Y204067D01*
X420681Y203575D02*
X422256D01*
X421468Y202787D02*
Y204362D01*
X438428Y128716D02*
X440003D01*
X439216Y127929D02*
Y129504D01*
X438428Y122764D02*
X440003D01*
X439216Y121976D02*
Y123551D01*
X438428Y116811D02*
X440003D01*
X439216Y116024D02*
Y117598D01*
X418024Y143732D02*
X419598D01*
X418811Y142945D02*
Y144520D01*
X401094Y138319D02*
X402669D01*
X401882Y137531D02*
Y139106D01*
X360684Y134807D02*
X362259D01*
X361472Y134020D02*
Y135594D01*
X375602Y105051D02*
X377177D01*
X376390Y104264D02*
Y105839D01*
X386528Y105150D02*
X388102D01*
X387315Y104362D02*
Y105937D01*
X344838Y117583D02*
X346413D01*
X345625Y116795D02*
Y118370D01*
X364776Y134972D02*
X366350D01*
X365563Y134185D02*
Y135760D01*
X368417Y135071D02*
X369992D01*
X369205Y134283D02*
Y135858D01*
X370330Y110594D02*
X371905D01*
X371117Y109807D02*
Y111382D01*
X399028Y123260D02*
X400602D01*
X399815Y122472D02*
Y124047D01*
X435937Y238909D02*
X437512D01*
X436724Y238122D02*
Y239697D01*
X387413Y219028D02*
X388988D01*
X388201Y218240D02*
Y219815D01*
X403260Y190976D02*
X404835D01*
X404047Y190189D02*
Y191764D01*
X358083Y223850D02*
X359658D01*
X358870Y223063D02*
Y224638D01*
X351882Y238319D02*
X353457D01*
X352669Y237531D02*
Y239106D01*
X381803Y170307D02*
X383378D01*
X382591Y169520D02*
Y171095D01*
X410318Y244100D02*
X411893D01*
X411105Y243313D02*
Y244887D01*
X415318Y258300D02*
X416893D01*
X416106Y257513D02*
Y259087D01*
X410318Y258300D02*
X411893D01*
X411105Y257513D02*
Y259087D01*
X334578Y253900D02*
X336153D01*
X335365Y253113D02*
Y254687D01*
X329578Y258300D02*
X331153D01*
X330365Y257513D02*
Y259087D01*
X334578Y258300D02*
X336153D01*
X335365Y257513D02*
Y259087D01*
X329578Y244100D02*
X331153D01*
X330365Y243313D02*
Y244887D01*
X329578Y253900D02*
X331153D01*
X330365Y253113D02*
Y254687D01*
X463594Y143535D02*
X465169D01*
X464382Y142748D02*
Y144323D01*
X474815Y149441D02*
X476390D01*
X475602Y148653D02*
Y150228D01*
X481803Y184972D02*
X483378D01*
X482590Y184185D02*
Y185760D01*
X480917Y188024D02*
X482492D01*
X481705Y187236D02*
Y188811D01*
X510248Y187536D02*
X511823D01*
X511036Y186748D02*
Y188323D01*
X509362Y197079D02*
X510937D01*
X510150Y196291D02*
Y197866D01*
X479835Y120307D02*
X481409D01*
X480622Y119520D02*
Y121095D01*
X538594Y112138D02*
X540169D01*
X539382Y111350D02*
Y112925D01*
X530524Y127984D02*
X532098D01*
X531311Y127197D02*
Y128772D01*
X550535Y116811D02*
X552109D01*
X551322Y116024D02*
Y117598D01*
X550535Y128716D02*
X552109D01*
X551322Y127929D02*
Y129504D01*
X538594Y119913D02*
X540169D01*
X539382Y119126D02*
Y120701D01*
X541252Y129165D02*
X542827D01*
X542039Y128378D02*
Y129953D01*
X550535Y122764D02*
X552109D01*
X551322Y121976D02*
Y123551D01*
X519500Y110563D02*
X521075D01*
X520287Y109776D02*
Y111350D01*
X512118Y128673D02*
X513693D01*
X512906Y127886D02*
Y129461D01*
X556705Y135760D02*
X558280D01*
X557492Y134972D02*
Y136547D01*
X529933Y160465D02*
X531508D01*
X530721Y159677D02*
Y161252D01*
X525209Y160661D02*
X526783D01*
X525996Y159874D02*
Y161449D01*
X511831Y160646D02*
X513406D01*
X512618Y159858D02*
Y161433D01*
X509756Y162827D02*
X511331D01*
X510543Y162039D02*
Y163614D01*
X508968Y159776D02*
X510543D01*
X509756Y158988D02*
Y160563D01*
X479835Y197079D02*
X481409D01*
X480622Y196291D02*
Y197866D01*
X479638Y210268D02*
X481213D01*
X480425Y209480D02*
Y211055D01*
X544143Y161885D02*
X545718D01*
X544931Y161097D02*
Y162672D01*
X510150Y149739D02*
X511725D01*
X510937Y148951D02*
Y150526D01*
X542039Y149638D02*
X543614D01*
X542827Y148850D02*
Y150425D01*
X499421Y151902D02*
X500996D01*
X500209Y151114D02*
Y152689D01*
X508772Y154165D02*
X510346D01*
X509559Y153378D02*
Y154953D01*
X496567Y149933D02*
X498142D01*
X497354Y149146D02*
Y150721D01*
X505917Y146095D02*
X507492D01*
X506705Y145307D02*
Y146882D01*
X457984Y163319D02*
X459559D01*
X458772Y162531D02*
Y164106D01*
X494303Y132513D02*
X495878D01*
X495090Y131726D02*
Y133301D01*
X457295Y166961D02*
X458870D01*
X458083Y166173D02*
Y167748D01*
X461823Y165091D02*
X463398D01*
X462610Y164303D02*
Y165878D01*
X459557Y169031D02*
X461132D01*
X460344Y168243D02*
Y169818D01*
X555529Y194741D02*
X557104D01*
X556316Y193953D02*
Y195528D01*
X497847Y133693D02*
X499421D01*
X498634Y132905D02*
Y134480D01*
X470090Y196390D02*
X471665D01*
X470878Y195602D02*
Y197177D01*
X479736Y153575D02*
X481311D01*
X480524Y152787D02*
Y154362D01*
X474855Y168253D02*
X476429D01*
X475642Y167465D02*
Y169040D01*
X491385Y177335D02*
X492960D01*
X492172Y176547D02*
Y178122D01*
X487807Y193043D02*
X489382D01*
X488594Y192256D02*
Y193831D01*
X471862Y136547D02*
X473437D01*
X472650Y135760D02*
Y137335D01*
X498535Y167456D02*
X500110D01*
X499323Y166668D02*
Y168243D01*
X486232Y140484D02*
X487807D01*
X487020Y139697D02*
Y141272D01*
X484854Y171980D02*
X486429D01*
X485642Y171193D02*
Y172768D01*
X459559Y154067D02*
X461134D01*
X460347Y153279D02*
Y154854D01*
X474224Y177591D02*
X475799D01*
X475012Y176803D02*
Y178378D01*
X531032Y252590D02*
X532606D01*
X531819Y251803D02*
Y253378D01*
X533591Y254165D02*
X535165D01*
X534378Y253378D02*
Y254953D01*
X528276Y250721D02*
X529850D01*
X529063Y249933D02*
Y251508D01*
X490661Y252590D02*
X492236D01*
X491449Y251803D02*
Y253378D01*
X487906Y250721D02*
X489480D01*
X488693Y249933D02*
Y251508D01*
X493221Y254165D02*
X494795D01*
X494008Y253378D02*
Y254953D01*
X488058Y258300D02*
X489633D01*
X488846Y257513D02*
Y259087D01*
X510543Y239008D02*
X512118D01*
X511331Y238221D02*
Y239795D01*
X493058Y258300D02*
X494633D01*
X493846Y257513D02*
Y259087D01*
X488058Y244100D02*
X489633D01*
X488846Y243313D02*
Y244887D01*
X447688Y248900D02*
X449263D01*
X448476Y248113D02*
Y249687D01*
X534559Y221587D02*
X536134D01*
X535347Y220799D02*
Y222374D01*
X553850Y187630D02*
X555425D01*
X554638Y186843D02*
Y188417D01*
X551488Y169972D02*
X553063D01*
X552276Y169185D02*
Y170760D01*
X547451Y187190D02*
X549026D01*
X548239Y186402D02*
Y187977D01*
X463541Y131509D02*
X465116D01*
X464329Y130722D02*
Y132297D01*
X458476Y146095D02*
X460051D01*
X459264Y145307D02*
Y146882D01*
X520780Y181527D02*
X522354D01*
X521567Y180740D02*
Y182315D01*
X520976Y173752D02*
X522551D01*
X521764Y172965D02*
Y174539D01*
X530613Y183590D02*
X532188D01*
X531400Y182802D02*
Y184377D01*
X544992Y148358D02*
X546567D01*
X545780Y147571D02*
Y149146D01*
X546015Y140136D02*
X547589D01*
X546802Y139348D02*
Y140923D01*
X526882Y120209D02*
X528457D01*
X527669Y119421D02*
Y120996D01*
X520189Y114697D02*
X521764D01*
X520976Y113909D02*
Y115484D01*
X523339Y123161D02*
X524913D01*
X524126Y122374D02*
Y123949D01*
X506606Y114205D02*
X508181D01*
X507394Y113417D02*
Y114992D01*
X500602Y114106D02*
X502177D01*
X501390Y113319D02*
Y114894D01*
X500110Y119815D02*
X501685D01*
X500898Y119027D02*
Y120602D01*
X500012Y124441D02*
X501587D01*
X500799Y123653D02*
Y125228D01*
X484657Y115189D02*
X486232D01*
X485445Y114402D02*
Y115976D01*
X485740Y119224D02*
X487315D01*
X486527Y118437D02*
Y120012D01*
X485150Y123949D02*
X486724D01*
X485937Y123161D02*
Y124736D01*
X493024Y119717D02*
X494598D01*
X493811Y118929D02*
Y120504D01*
X493614Y115386D02*
X495189D01*
X494402Y114598D02*
Y116173D01*
X493811Y123653D02*
X495386D01*
X494598Y122866D02*
Y124441D01*
X465661Y114795D02*
X467236D01*
X466449Y114008D02*
Y115583D01*
X468909Y117453D02*
X470484D01*
X469697Y116665D02*
Y118240D01*
X458136Y115583D02*
X459711D01*
X458923Y114795D02*
Y116370D01*
X468811Y186744D02*
X470386D01*
X469598Y185957D02*
Y187531D01*
X503850Y178181D02*
X505425D01*
X504638Y177394D02*
Y178969D01*
X507295Y188221D02*
X508870D01*
X508083Y187433D02*
Y189008D01*
X493855Y188171D02*
X495429D01*
X494642Y187383D02*
Y188958D01*
X520976Y144421D02*
X522551D01*
X521764Y143634D02*
Y145209D01*
X525602Y140583D02*
X527177D01*
X526390Y139795D02*
Y141370D01*
X530622Y135169D02*
X532197D01*
X531409Y134382D02*
Y135957D01*
X551587Y134185D02*
X553161D01*
X552374Y133398D02*
Y134972D01*
X550794Y176272D02*
X552368D01*
X551581Y175484D02*
Y177059D01*
X553427Y178363D02*
X555002D01*
X554214Y177575D02*
Y179150D01*
X541112Y188122D02*
X542687D01*
X541899Y187335D02*
Y188909D01*
X549815Y203772D02*
X551390D01*
X550602Y202984D02*
Y204559D01*
X553752Y203083D02*
X555327D01*
X554539Y202295D02*
Y203870D01*
X540366Y195799D02*
X541941D01*
X541153Y195012D02*
Y196587D01*
X537512Y192551D02*
X539087D01*
X538299Y191764D02*
Y193339D01*
X537442Y197742D02*
X539017D01*
X538230Y196955D02*
Y198530D01*
X521173Y196095D02*
X522748D01*
X521961Y195307D02*
Y196882D01*
X479736Y221488D02*
X481311D01*
X480524Y220701D02*
Y222276D01*
X479638Y217650D02*
X481213D01*
X480425Y216862D02*
Y218437D01*
X506682Y182253D02*
X508257D01*
X507470Y181465D02*
Y183040D01*
X445878Y263811D02*
X447453D01*
X446665Y263024D02*
Y264598D01*
X446075Y273358D02*
X447650D01*
X446862Y272571D02*
Y274146D01*
X445976Y280937D02*
X447551D01*
X446764Y280150D02*
Y281724D01*
X446272Y289894D02*
X447846D01*
X447059Y289106D02*
Y290681D01*
X446468Y295898D02*
X448043D01*
X447256Y295110D02*
Y296685D01*
X452965Y290779D02*
X454539D01*
X453752Y289992D02*
Y291567D01*
X452965Y295799D02*
X454539D01*
X453752Y295012D02*
Y296587D01*
X475794Y229773D02*
X477369D01*
X476581Y228986D02*
Y230561D01*
X476587Y238417D02*
X478161D01*
X477374Y237630D02*
Y239205D01*
X477472Y265386D02*
X479047D01*
X478260Y264598D02*
Y266173D01*
X476980Y276803D02*
X478555D01*
X477768Y276016D02*
Y277590D01*
X476784Y284776D02*
X478358D01*
X477571Y283988D02*
Y285563D01*
X484756Y265189D02*
X486331D01*
X485543Y264402D02*
Y265976D01*
X484756Y276705D02*
X486331D01*
X485543Y275917D02*
Y277492D01*
X484461Y284382D02*
X486035D01*
X485248Y283594D02*
Y285169D01*
X469697Y290779D02*
X471272D01*
X470484Y289992D02*
Y291567D01*
X469598Y295898D02*
X471173D01*
X470386Y295110D02*
Y296685D01*
X475406Y290189D02*
X476980D01*
X476193Y289402D02*
Y290976D01*
X475602Y295898D02*
X477177D01*
X476390Y295110D02*
Y296685D01*
X484559Y290189D02*
X486134D01*
X485347Y289402D02*
Y290976D01*
X484461Y295799D02*
X486035D01*
X485248Y295012D02*
Y296587D01*
X492335Y290090D02*
X493909D01*
X493122Y289303D02*
Y290878D01*
X492335Y295602D02*
X493909D01*
X493122Y294815D02*
Y296390D01*
X492925Y238417D02*
X494500D01*
X493713Y237630D02*
Y239205D01*
X486724Y238319D02*
X488299D01*
X487512Y237531D02*
Y239106D01*
X487315Y224342D02*
X488890D01*
X488102Y223555D02*
Y225130D01*
X487512Y218437D02*
X489087D01*
X488299Y217650D02*
Y219224D01*
X487118Y210760D02*
X488693D01*
X487906Y209972D02*
Y211547D01*
X520780Y229658D02*
X522354D01*
X521567Y228870D02*
Y230445D01*
X520976Y219618D02*
X522551D01*
X521764Y218831D02*
Y220406D01*
X521075Y210661D02*
X522650D01*
X521862Y209874D02*
Y211449D01*
X523634Y238811D02*
X525209D01*
X524421Y238024D02*
Y239598D01*
X515957Y238909D02*
X517531D01*
X516744Y238122D02*
Y239697D01*
X532450Y238039D02*
X534025D01*
X533237Y237251D02*
Y238826D01*
X517236Y263811D02*
X518811D01*
X518024Y263024D02*
Y264598D01*
X525602Y263417D02*
X527177D01*
X526390Y262630D02*
Y264205D01*
X517827Y276902D02*
X519402D01*
X518614Y276114D02*
Y277689D01*
X521665Y266370D02*
X523240D01*
X522453Y265583D02*
Y267158D01*
X521567Y280248D02*
X523142D01*
X522354Y279461D02*
Y281035D01*
X525406Y276705D02*
X526980D01*
X526193Y275917D02*
Y277492D01*
X518024Y284382D02*
X519598D01*
X518811Y283594D02*
Y285169D01*
X525406Y284382D02*
X526980D01*
X526193Y283594D02*
Y285169D01*
X509559Y291075D02*
X511134D01*
X510347Y290287D02*
Y291862D01*
X509953Y295898D02*
X511527D01*
X510740Y295110D02*
Y296685D01*
X517335Y289894D02*
X518909D01*
X518122Y289106D02*
Y290681D01*
X517236Y295898D02*
X518811D01*
X518024Y295110D02*
Y296685D01*
X525701Y290090D02*
X527276D01*
X526488Y289303D02*
Y290878D01*
X525209Y295898D02*
X526783D01*
X525996Y295110D02*
Y296685D01*
X533476Y290287D02*
X535051D01*
X534264Y289500D02*
Y291075D01*
X533181Y295504D02*
X534756D01*
X533968Y294717D02*
Y296291D01*
X557197Y245996D02*
X558772D01*
X557984Y245209D02*
Y246783D01*
X557098Y230740D02*
X558673D01*
X557886Y229953D02*
Y231528D01*
X557098Y220307D02*
X558673D01*
X557886Y219520D02*
Y221094D01*
X557197Y212728D02*
X558772D01*
X557984Y211941D02*
Y213516D01*
X557000Y252590D02*
X558575D01*
X557787Y251803D02*
Y253378D01*
X551488Y255740D02*
X553063D01*
X552276Y254953D02*
Y256528D01*
X557000Y259579D02*
X558575D01*
X557787Y258791D02*
Y260366D01*
X557098Y268043D02*
X558673D01*
X557886Y267256D02*
Y268831D01*
X557098Y274835D02*
X558673D01*
X557886Y274047D02*
Y275622D01*
X557000Y282217D02*
X558575D01*
X557787Y281429D02*
Y283004D01*
X550602Y290484D02*
X552177D01*
X551390Y289697D02*
Y291272D01*
X557197Y290189D02*
X558772D01*
X557984Y289402D02*
Y290976D01*
X550504Y295799D02*
X552079D01*
X551291Y295012D02*
Y296587D01*
X557098Y295602D02*
X558673D01*
X557886Y294815D02*
Y296390D01*
X554244Y293339D02*
X555819D01*
X555031Y292551D02*
Y294126D01*
X504933Y119126D02*
X506508D01*
X505721Y118339D02*
Y119913D01*
X513102Y123457D02*
X514677D01*
X513890Y122669D02*
Y124244D01*
X514087Y184465D02*
X515661D01*
X514874Y183678D02*
Y185252D01*
X536133Y139598D02*
X537708D01*
X536920Y138811D02*
Y140386D01*
X501587Y184874D02*
X503161D01*
X502374Y184087D02*
Y185661D01*
X494205Y152295D02*
X495780D01*
X494992Y151508D02*
Y153083D01*
X486331Y195799D02*
X487906D01*
X487118Y195012D02*
Y196587D01*
X461527Y202295D02*
X463102D01*
X462315Y201508D02*
Y203083D01*
X482787Y105150D02*
X484362D01*
X483575Y104362D02*
Y105937D01*
X546665Y177689D02*
X548240D01*
X547453Y176902D02*
Y178476D01*
X544235Y204474D02*
X545810D01*
X545022Y203687D02*
Y205261D01*
X493122Y203279D02*
X494697D01*
X493909Y202492D02*
Y204067D01*
X538791Y203575D02*
X540366D01*
X539579Y202787D02*
Y204362D01*
X556539Y128716D02*
X558113D01*
X557326Y127929D02*
Y129504D01*
X556539Y122764D02*
X558113D01*
X557326Y121976D02*
Y123551D01*
X556539Y116811D02*
X558113D01*
X557326Y116024D02*
Y117598D01*
X536134Y143732D02*
X537709D01*
X536921Y142945D02*
Y144520D01*
X519205Y138319D02*
X520780D01*
X519992Y137531D02*
Y139106D01*
X478794Y134807D02*
X480369D01*
X479582Y134020D02*
Y135594D01*
X493713Y105051D02*
X495287D01*
X494500Y104264D02*
Y105839D01*
X504638Y105150D02*
X506213D01*
X505425Y104362D02*
Y105937D01*
X462948Y117583D02*
X464523D01*
X463735Y116795D02*
Y118370D01*
X482886Y134972D02*
X484461D01*
X483673Y134185D02*
Y135760D01*
X486527Y135071D02*
X488102D01*
X487315Y134283D02*
Y135858D01*
X488440Y110594D02*
X490015D01*
X489227Y109807D02*
Y111382D01*
X517138Y123260D02*
X518713D01*
X517925Y122472D02*
Y124047D01*
X554047Y238909D02*
X555622D01*
X554835Y238122D02*
Y239697D01*
X505524Y219028D02*
X507098D01*
X506311Y218240D02*
Y219815D01*
X521370Y190976D02*
X522945D01*
X522157Y190189D02*
Y191764D01*
X476193Y223850D02*
X477768D01*
X476980Y223063D02*
Y224638D01*
X469992Y238319D02*
X471567D01*
X470780Y237531D02*
Y239106D01*
X499913Y170307D02*
X501488D01*
X500701Y169520D02*
Y171095D01*
X528428Y244100D02*
X530003D01*
X529216Y243313D02*
Y244887D01*
X533428Y258300D02*
X535003D01*
X534216Y257513D02*
Y259087D01*
X528428Y258300D02*
X530003D01*
X529216Y257513D02*
Y259087D01*
X452688Y253900D02*
X454263D01*
X453476Y253113D02*
Y254687D01*
X447688Y258300D02*
X449263D01*
X448476Y257513D02*
Y259087D01*
X452688Y258300D02*
X454263D01*
X453476Y257513D02*
Y259087D01*
X447688Y244100D02*
X449263D01*
X448476Y243313D02*
Y244887D01*
X447688Y253900D02*
X449263D01*
X448476Y253113D02*
Y254687D01*
X227374Y340386D02*
X228949D01*
X228161Y339598D02*
Y341173D01*
X238595Y346291D02*
X240169D01*
X239382Y345504D02*
Y347079D01*
X245583Y381823D02*
X247158D01*
X246370Y381035D02*
Y382610D01*
X244697Y384874D02*
X246272D01*
X245484Y384087D02*
Y385661D01*
X274028Y384386D02*
X275603D01*
X274815Y383599D02*
Y385174D01*
X273142Y393929D02*
X274716D01*
X273929Y393142D02*
Y394717D01*
X243614Y317158D02*
X245189D01*
X244402Y316370D02*
Y317945D01*
X302374Y308988D02*
X303949D01*
X303161Y308201D02*
Y309776D01*
X294303Y324835D02*
X295878D01*
X295091Y324047D02*
Y325622D01*
X314314Y313661D02*
X315889D01*
X315102Y312874D02*
Y314449D01*
X314314Y325567D02*
X315889D01*
X315102Y324779D02*
Y326354D01*
X302374Y316764D02*
X303949D01*
X303161Y315976D02*
Y317551D01*
X305031Y326016D02*
X306606D01*
X305819Y325228D02*
Y326803D01*
X314314Y319614D02*
X315889D01*
X315102Y318827D02*
Y320402D01*
X283279Y307413D02*
X284854D01*
X284067Y306626D02*
Y308201D01*
X275898Y325524D02*
X277472D01*
X276685Y324736D02*
Y326311D01*
X320484Y332610D02*
X322059D01*
X321272Y331823D02*
Y333398D01*
X293713Y357315D02*
X295287D01*
X294500Y356528D02*
Y358102D01*
X288988Y357512D02*
X290563D01*
X289776Y356724D02*
Y358299D01*
X275610Y357496D02*
X277185D01*
X276398Y356709D02*
Y358283D01*
X273535Y359677D02*
X275110D01*
X274323Y358890D02*
Y360465D01*
X272748Y356626D02*
X274323D01*
X273535Y355839D02*
Y357413D01*
X243614Y393929D02*
X245189D01*
X244402Y393142D02*
Y394717D01*
X243417Y407118D02*
X244992D01*
X244205Y406331D02*
Y407905D01*
X307923Y358735D02*
X309498D01*
X308710Y357948D02*
Y359523D01*
X273930Y346589D02*
X275504D01*
X274717Y345801D02*
Y347376D01*
X305819Y346488D02*
X307394D01*
X306606Y345701D02*
Y347276D01*
X263201Y348752D02*
X264776D01*
X263988Y347965D02*
Y349539D01*
X272551Y351016D02*
X274126D01*
X273339Y350228D02*
Y351803D01*
X260346Y346783D02*
X261921D01*
X261134Y345996D02*
Y347571D01*
X269697Y342945D02*
X271272D01*
X270484Y342158D02*
Y343732D01*
X221764Y360169D02*
X223339D01*
X222551Y359382D02*
Y360957D01*
X258082Y329364D02*
X259657D01*
X258870Y328576D02*
Y330151D01*
X221075Y363811D02*
X222650D01*
X221862Y363024D02*
Y364598D01*
X225602Y361941D02*
X227177D01*
X226390Y361154D02*
Y362728D01*
X223337Y365881D02*
X224911D01*
X224124Y365094D02*
Y366669D01*
X319308Y391591D02*
X320883D01*
X320096Y390804D02*
Y392378D01*
X261626Y330543D02*
X263201D01*
X262413Y329756D02*
Y331331D01*
X233870Y393240D02*
X235445D01*
X234658Y392453D02*
Y394027D01*
X243516Y350425D02*
X245091D01*
X244303Y349638D02*
Y351213D01*
X238634Y365103D02*
X240209D01*
X239421Y364316D02*
Y365890D01*
X255164Y374185D02*
X256739D01*
X255952Y373398D02*
Y374972D01*
X251587Y389894D02*
X253161D01*
X252374Y389106D02*
Y390681D01*
X235642Y333398D02*
X237216D01*
X236429Y332610D02*
Y334185D01*
X262315Y364306D02*
X263890D01*
X263102Y363519D02*
Y365094D01*
X250012Y337335D02*
X251587D01*
X250799Y336547D02*
Y338122D01*
X248634Y368831D02*
X250209D01*
X249421Y368043D02*
Y369618D01*
X223339Y350917D02*
X224913D01*
X224126Y350130D02*
Y351705D01*
X238004Y374441D02*
X239579D01*
X238791Y373654D02*
Y375228D01*
X294811Y449441D02*
X296386D01*
X295598Y448654D02*
Y450228D01*
X297370Y451016D02*
X298945D01*
X298158Y450228D02*
Y451803D01*
X292055Y447571D02*
X293630D01*
X292843Y446783D02*
Y448358D01*
X254441Y449441D02*
X256016D01*
X255228Y448654D02*
Y450228D01*
X251685Y447571D02*
X253260D01*
X252472Y446783D02*
Y448358D01*
X257000Y451016D02*
X258575D01*
X257787Y450228D02*
Y451803D01*
X251838Y455150D02*
X253413D01*
X252625Y454363D02*
Y455938D01*
X274323Y435858D02*
X275898D01*
X275110Y435071D02*
Y436646D01*
X256838Y455150D02*
X258413D01*
X257625Y454363D02*
Y455938D01*
X251838Y440950D02*
X253413D01*
X252625Y440163D02*
Y441738D01*
X211468Y445750D02*
X213042D01*
X212255Y444963D02*
Y446538D01*
X298339Y418437D02*
X299913D01*
X299126Y417650D02*
Y419224D01*
X317630Y384480D02*
X319205D01*
X318417Y383693D02*
Y385268D01*
X315268Y366823D02*
X316843D01*
X316055Y366035D02*
Y367610D01*
X311231Y384040D02*
X312806D01*
X312018Y383253D02*
Y384827D01*
X227321Y328360D02*
X228896D01*
X228108Y327572D02*
Y329147D01*
X222256Y342945D02*
X223831D01*
X223043Y342158D02*
Y343732D01*
X284559Y378378D02*
X286134D01*
X285346Y377590D02*
Y379165D01*
X284756Y370602D02*
X286331D01*
X285543Y369815D02*
Y371390D01*
X294393Y380440D02*
X295968D01*
X295180Y379653D02*
Y381228D01*
X308772Y345209D02*
X310346D01*
X309559Y344421D02*
Y345996D01*
X309794Y336986D02*
X311369D01*
X310581Y336199D02*
Y337773D01*
X290661Y317059D02*
X292236D01*
X291449Y316272D02*
Y317846D01*
X283968Y311547D02*
X285543D01*
X284756Y310760D02*
Y312335D01*
X287118Y320012D02*
X288693D01*
X287906Y319224D02*
Y320799D01*
X270386Y311055D02*
X271961D01*
X271173Y310268D02*
Y311842D01*
X264382Y310957D02*
X265957D01*
X265169Y310169D02*
Y311744D01*
X263890Y316665D02*
X265465D01*
X264677Y315878D02*
Y317453D01*
X263791Y321291D02*
X265366D01*
X264579Y320504D02*
Y322079D01*
X248437Y312039D02*
X250012D01*
X249224Y311252D02*
Y312827D01*
X249520Y316075D02*
X251095D01*
X250307Y315287D02*
Y316862D01*
X248929Y320799D02*
X250504D01*
X249716Y320012D02*
Y321587D01*
X256803Y316567D02*
X258378D01*
X257591Y315779D02*
Y317354D01*
X257394Y312236D02*
X258968D01*
X258181Y311449D02*
Y313024D01*
X257591Y320504D02*
X259165D01*
X258378Y319717D02*
Y321291D01*
X229441Y311646D02*
X231016D01*
X230228Y310858D02*
Y312433D01*
X232689Y314303D02*
X234264D01*
X233476Y313516D02*
Y315090D01*
X221915Y312433D02*
X223490D01*
X222703Y311646D02*
Y313220D01*
X232591Y383594D02*
X234165D01*
X233378Y382807D02*
Y384382D01*
X267630Y375031D02*
X269205D01*
X268417Y374244D02*
Y375819D01*
X271075Y385071D02*
X272650D01*
X271862Y384283D02*
Y385858D01*
X257634Y385021D02*
X259209D01*
X258421Y384234D02*
Y385808D01*
X284756Y341272D02*
X286331D01*
X285543Y340484D02*
Y342059D01*
X289382Y337433D02*
X290957D01*
X290169Y336646D02*
Y338221D01*
X294402Y332020D02*
X295976D01*
X295189Y331232D02*
Y332807D01*
X315366Y331035D02*
X316941D01*
X316154Y330248D02*
Y331823D01*
X314573Y373122D02*
X316148D01*
X315360Y372335D02*
Y373909D01*
X317206Y375213D02*
X318781D01*
X317994Y374426D02*
Y376001D01*
X304891Y384972D02*
X306466D01*
X305679Y384185D02*
Y385760D01*
X313595Y400622D02*
X315169D01*
X314382Y399835D02*
Y401409D01*
X317531Y399933D02*
X319106D01*
X318319Y399146D02*
Y400721D01*
X304146Y392650D02*
X305720D01*
X304933Y391862D02*
Y393437D01*
X301291Y389402D02*
X302866D01*
X302079Y388614D02*
Y390189D01*
X301222Y394592D02*
X302797D01*
X302009Y393805D02*
Y395380D01*
X284953Y392945D02*
X286527D01*
X285740Y392158D02*
Y393732D01*
X243516Y418339D02*
X245091D01*
X244303Y417551D02*
Y419126D01*
X243417Y414500D02*
X244992D01*
X244205Y413713D02*
Y415287D01*
X270462Y379103D02*
X272037D01*
X271249Y378316D02*
Y379891D01*
X209658Y460661D02*
X211232D01*
X210445Y459874D02*
Y461449D01*
X209854Y470209D02*
X211429D01*
X210642Y469421D02*
Y470996D01*
X209756Y477787D02*
X211331D01*
X210543Y477000D02*
Y478575D01*
X210051Y486744D02*
X211626D01*
X210839Y485957D02*
Y487532D01*
X210248Y492748D02*
X211823D01*
X211035Y491961D02*
Y493535D01*
X216744Y487630D02*
X218319D01*
X217531Y486842D02*
Y488417D01*
X216744Y492650D02*
X218319D01*
X217531Y491862D02*
Y493437D01*
X239573Y426624D02*
X241148D01*
X240361Y425836D02*
Y427411D01*
X240366Y435268D02*
X241941D01*
X241154Y434480D02*
Y436055D01*
X241252Y462236D02*
X242827D01*
X242039Y461449D02*
Y463024D01*
X240760Y473654D02*
X242335D01*
X241547Y472866D02*
Y474441D01*
X240563Y481626D02*
X242138D01*
X241350Y480839D02*
Y482413D01*
X248535Y462039D02*
X250110D01*
X249323Y461252D02*
Y462827D01*
X248535Y473555D02*
X250110D01*
X249323Y472768D02*
Y474342D01*
X248240Y481232D02*
X249815D01*
X249027Y480445D02*
Y482020D01*
X233476Y487630D02*
X235051D01*
X234264Y486842D02*
Y488417D01*
X233378Y492748D02*
X234953D01*
X234165Y491961D02*
Y493535D01*
X239185Y487039D02*
X240760D01*
X239972Y486252D02*
Y487827D01*
X239382Y492748D02*
X240957D01*
X240169Y491961D02*
Y493535D01*
X248339Y487039D02*
X249913D01*
X249126Y486252D02*
Y487827D01*
X248240Y492650D02*
X249815D01*
X249027Y491862D02*
Y493437D01*
X256114Y486941D02*
X257689D01*
X256902Y486154D02*
Y487728D01*
X256114Y492453D02*
X257689D01*
X256902Y491665D02*
Y493240D01*
X256705Y435268D02*
X258279D01*
X257492Y434480D02*
Y436055D01*
X250504Y435169D02*
X252079D01*
X251291Y434382D02*
Y435957D01*
X251095Y421193D02*
X252669D01*
X251882Y420405D02*
Y421980D01*
X251291Y415287D02*
X252866D01*
X252079Y414500D02*
Y416075D01*
X250898Y407610D02*
X252472D01*
X251685Y406823D02*
Y408398D01*
X284559Y426508D02*
X286134D01*
X285346Y425721D02*
Y427295D01*
X284756Y416468D02*
X286331D01*
X285543Y415681D02*
Y417256D01*
X284854Y407512D02*
X286429D01*
X285642Y406724D02*
Y408299D01*
X287413Y435661D02*
X288988D01*
X288201Y434874D02*
Y436449D01*
X279736Y435760D02*
X281311D01*
X280524Y434972D02*
Y436547D01*
X296229Y434889D02*
X297804D01*
X297017Y434102D02*
Y435677D01*
X281016Y460661D02*
X282591D01*
X281803Y459874D02*
Y461449D01*
X289382Y460268D02*
X290957D01*
X290169Y459480D02*
Y461055D01*
X281606Y473752D02*
X283181D01*
X282394Y472964D02*
Y474539D01*
X285445Y463221D02*
X287020D01*
X286232Y462433D02*
Y464008D01*
X285346Y477098D02*
X286921D01*
X286134Y476311D02*
Y477886D01*
X289185Y473555D02*
X290760D01*
X289972Y472768D02*
Y474342D01*
X281803Y481232D02*
X283378D01*
X282591Y480445D02*
Y482020D01*
X289185Y481232D02*
X290760D01*
X289972Y480445D02*
Y482020D01*
X273339Y487925D02*
X274913D01*
X274126Y487138D02*
Y488713D01*
X273732Y492748D02*
X275307D01*
X274520Y491961D02*
Y493535D01*
X281114Y486744D02*
X282689D01*
X281902Y485957D02*
Y487532D01*
X281016Y492748D02*
X282591D01*
X281803Y491961D02*
Y493535D01*
X289480Y486941D02*
X291055D01*
X290268Y486154D02*
Y487728D01*
X288988Y492748D02*
X290563D01*
X289776Y491961D02*
Y493535D01*
X297256Y487138D02*
X298831D01*
X298043Y486350D02*
Y487925D01*
X296961Y492354D02*
X298535D01*
X297748Y491567D02*
Y493142D01*
X320976Y442846D02*
X322551D01*
X321764Y442059D02*
Y443634D01*
X320878Y427591D02*
X322453D01*
X321665Y426803D02*
Y428378D01*
X320878Y417158D02*
X322453D01*
X321665Y416370D02*
Y417945D01*
X320976Y409579D02*
X322551D01*
X321764Y408791D02*
Y410366D01*
X320779Y449441D02*
X322354D01*
X321567Y448654D02*
Y450228D01*
X315268Y452591D02*
X316843D01*
X316055Y451803D02*
Y453378D01*
X320779Y456429D02*
X322354D01*
X321567Y455642D02*
Y457217D01*
X320878Y464894D02*
X322453D01*
X321665Y464106D02*
Y465681D01*
X320878Y471685D02*
X322453D01*
X321665Y470898D02*
Y472472D01*
X320779Y479067D02*
X322354D01*
X321567Y478279D02*
Y479854D01*
X314382Y487335D02*
X315957D01*
X315169Y486547D02*
Y488122D01*
X320976Y487039D02*
X322551D01*
X321764Y486252D02*
Y487827D01*
X314283Y492650D02*
X315858D01*
X315071Y491862D02*
Y493437D01*
X320878Y492453D02*
X322453D01*
X321665Y491665D02*
Y493240D01*
X318024Y490189D02*
X319598D01*
X318811Y489402D02*
Y490976D01*
X268713Y315976D02*
X270287D01*
X269500Y315189D02*
Y316764D01*
X276882Y320307D02*
X278457D01*
X277669Y319520D02*
Y321094D01*
X277866Y381315D02*
X279441D01*
X278654Y380528D02*
Y382103D01*
X299913Y336449D02*
X301487D01*
X300700Y335661D02*
Y337236D01*
X265366Y381724D02*
X266941D01*
X266154Y380937D02*
Y382512D01*
X257984Y349146D02*
X259559D01*
X258772Y348358D02*
Y349933D01*
X250110Y392650D02*
X251685D01*
X250898Y391862D02*
Y393437D01*
X225307Y399146D02*
X226882D01*
X226095Y398358D02*
Y399933D01*
X246567Y302000D02*
X248142D01*
X247354Y301213D02*
Y302787D01*
X310445Y374539D02*
X312020D01*
X311232Y373752D02*
Y375327D01*
X308014Y401325D02*
X309589D01*
X308802Y400537D02*
Y402112D01*
X256902Y400130D02*
X258476D01*
X257689Y399342D02*
Y400917D01*
X302571Y400425D02*
X304146D01*
X303358Y399638D02*
Y401213D01*
X320318Y325567D02*
X321893D01*
X321106Y324779D02*
Y326354D01*
X320318Y319614D02*
X321893D01*
X321106Y318827D02*
Y320402D01*
X320318Y313661D02*
X321893D01*
X321106Y312874D02*
Y314449D01*
X299913Y340583D02*
X301488D01*
X300701Y339795D02*
Y341370D01*
X282984Y335169D02*
X284559D01*
X283772Y334382D02*
Y335957D01*
X242574Y331658D02*
X244149D01*
X243361Y330870D02*
Y332445D01*
X257492Y301902D02*
X259067D01*
X258279Y301114D02*
Y302689D01*
X268417Y302000D02*
X269992D01*
X269205Y301213D02*
Y302787D01*
X226728Y314433D02*
X228302D01*
X227515Y313646D02*
Y315220D01*
X246665Y331823D02*
X248240D01*
X247453Y331035D02*
Y332610D01*
X250307Y331921D02*
X251882D01*
X251095Y331134D02*
Y332709D01*
X252220Y307445D02*
X253794D01*
X253007Y306658D02*
Y308232D01*
X280917Y320110D02*
X282492D01*
X281705Y319323D02*
Y320898D01*
X317827Y435760D02*
X319402D01*
X318614Y434972D02*
Y436547D01*
X269303Y415878D02*
X270878D01*
X270091Y415091D02*
Y416665D01*
X285150Y387827D02*
X286724D01*
X285937Y387039D02*
Y388614D01*
X239972Y420701D02*
X241547D01*
X240760Y419913D02*
Y421488D01*
X233772Y435169D02*
X235346D01*
X234559Y434382D02*
Y435957D01*
X263693Y367158D02*
X265268D01*
X264480Y366370D02*
Y367945D01*
X292208Y440950D02*
X293783D01*
X292995Y440163D02*
Y441738D01*
X297208Y455150D02*
X298783D01*
X297995Y454363D02*
Y455938D01*
X292208Y455150D02*
X293783D01*
X292995Y454363D02*
Y455938D01*
X216468Y450750D02*
X218042D01*
X217255Y449963D02*
Y451538D01*
X211468Y455150D02*
X213042D01*
X212255Y454363D02*
Y455938D01*
X216468Y455150D02*
X218042D01*
X217255Y454363D02*
Y455938D01*
X211468Y440950D02*
X213042D01*
X212255Y440163D02*
Y441738D01*
X211468Y450750D02*
X213042D01*
X212255Y449963D02*
Y451538D01*
X345484Y340386D02*
X347059D01*
X346272Y339598D02*
Y341173D01*
X356705Y346291D02*
X358279D01*
X357492Y345504D02*
Y347079D01*
X363693Y381823D02*
X365268D01*
X364480Y381035D02*
Y382610D01*
X362807Y384874D02*
X364382D01*
X363595Y384087D02*
Y385661D01*
X392138Y384386D02*
X393713D01*
X392926Y383599D02*
Y385174D01*
X391252Y393929D02*
X392827D01*
X392039Y393142D02*
Y394717D01*
X361724Y317158D02*
X363299D01*
X362512Y316370D02*
Y317945D01*
X420484Y308988D02*
X422059D01*
X421272Y308201D02*
Y309776D01*
X412413Y324835D02*
X413988D01*
X413201Y324047D02*
Y325622D01*
X432424Y313661D02*
X433999D01*
X433212Y312874D02*
Y314449D01*
X432424Y325567D02*
X433999D01*
X433212Y324779D02*
Y326354D01*
X420484Y316764D02*
X422059D01*
X421272Y315976D02*
Y317551D01*
X423142Y326016D02*
X424717D01*
X423929Y325228D02*
Y326803D01*
X432424Y319614D02*
X433999D01*
X433212Y318827D02*
Y320402D01*
X401390Y307413D02*
X402965D01*
X402177Y306626D02*
Y308201D01*
X394008Y325524D02*
X395583D01*
X394795Y324736D02*
Y326311D01*
X438594Y332610D02*
X440169D01*
X439382Y331823D02*
Y333398D01*
X411823Y357315D02*
X413398D01*
X412610Y356528D02*
Y358102D01*
X407098Y357512D02*
X408673D01*
X407886Y356724D02*
Y358299D01*
X393720Y357496D02*
X395295D01*
X394508Y356709D02*
Y358283D01*
X391646Y359677D02*
X393220D01*
X392433Y358890D02*
Y360465D01*
X390858Y356626D02*
X392433D01*
X391646Y355839D02*
Y357413D01*
X361724Y393929D02*
X363299D01*
X362512Y393142D02*
Y394717D01*
X361528Y407118D02*
X363102D01*
X362315Y406331D02*
Y407905D01*
X426033Y358735D02*
X427608D01*
X426821Y357948D02*
Y359523D01*
X392040Y346589D02*
X393615D01*
X392827Y345801D02*
Y347376D01*
X423929Y346488D02*
X425504D01*
X424717Y345701D02*
Y347276D01*
X381311Y348752D02*
X382886D01*
X382098Y347965D02*
Y349539D01*
X390661Y351016D02*
X392236D01*
X391449Y350228D02*
Y351803D01*
X378457Y346783D02*
X380031D01*
X379244Y345996D02*
Y347571D01*
X387807Y342945D02*
X389382D01*
X388595Y342158D02*
Y343732D01*
X339874Y360169D02*
X341449D01*
X340661Y359382D02*
Y360957D01*
X376192Y329364D02*
X377767D01*
X376980Y328576D02*
Y330151D01*
X339185Y363811D02*
X340760D01*
X339972Y363024D02*
Y364598D01*
X343713Y361941D02*
X345287D01*
X344500Y361154D02*
Y362728D01*
X341447Y365881D02*
X343022D01*
X342234Y365094D02*
Y366669D01*
X437419Y391591D02*
X438994D01*
X438206Y390804D02*
Y392378D01*
X379736Y330543D02*
X381311D01*
X380524Y329756D02*
Y331331D01*
X351980Y393240D02*
X353555D01*
X352768Y392453D02*
Y394027D01*
X361626Y350425D02*
X363201D01*
X362413Y349638D02*
Y351213D01*
X356744Y365103D02*
X358319D01*
X357532Y364316D02*
Y365890D01*
X373275Y374185D02*
X374849D01*
X374062Y373398D02*
Y374972D01*
X369697Y389894D02*
X371272D01*
X370484Y389106D02*
Y390681D01*
X353752Y333398D02*
X355327D01*
X354539Y332610D02*
Y334185D01*
X380425Y364306D02*
X382000D01*
X381212Y363519D02*
Y365094D01*
X368122Y337335D02*
X369697D01*
X368910Y336547D02*
Y338122D01*
X366744Y368831D02*
X368319D01*
X367531Y368043D02*
Y369618D01*
X341449Y350917D02*
X343024D01*
X342236Y350130D02*
Y351705D01*
X356114Y374441D02*
X357689D01*
X356902Y373654D02*
Y375228D01*
X412921Y449441D02*
X414496D01*
X413709Y448654D02*
Y450228D01*
X415480Y451016D02*
X417055D01*
X416268Y450228D02*
Y451803D01*
X410165Y447571D02*
X411740D01*
X410953Y446783D02*
Y448358D01*
X372551Y449441D02*
X374126D01*
X373339Y448654D02*
Y450228D01*
X369795Y447571D02*
X371370D01*
X370583Y446783D02*
Y448358D01*
X375110Y451016D02*
X376685D01*
X375898Y450228D02*
Y451803D01*
X369948Y455150D02*
X371523D01*
X370735Y454363D02*
Y455938D01*
X392433Y435858D02*
X394008D01*
X393220Y435071D02*
Y436646D01*
X374948Y455150D02*
X376523D01*
X375735Y454363D02*
Y455938D01*
X369948Y440950D02*
X371523D01*
X370735Y440163D02*
Y441738D01*
X329578Y445750D02*
X331153D01*
X330365Y444963D02*
Y446538D01*
X416449Y418437D02*
X418024D01*
X417236Y417650D02*
Y419224D01*
X435740Y384480D02*
X437315D01*
X436527Y383693D02*
Y385268D01*
X433378Y366823D02*
X434953D01*
X434165Y366035D02*
Y367610D01*
X429341Y384040D02*
X430916D01*
X430129Y383253D02*
Y384827D01*
X345431Y328360D02*
X347006D01*
X346219Y327572D02*
Y329147D01*
X340366Y342945D02*
X341941D01*
X341154Y342158D02*
Y343732D01*
X402669Y378378D02*
X404244D01*
X403457Y377590D02*
Y379165D01*
X402866Y370602D02*
X404441D01*
X403653Y369815D02*
Y371390D01*
X412503Y380440D02*
X414078D01*
X413290Y379653D02*
Y381228D01*
X426882Y345209D02*
X428457D01*
X427669Y344421D02*
Y345996D01*
X427904Y336986D02*
X429479D01*
X428692Y336199D02*
Y337773D01*
X408772Y317059D02*
X410346D01*
X409559Y316272D02*
Y317846D01*
X402079Y311547D02*
X403653D01*
X402866Y310760D02*
Y312335D01*
X405228Y320012D02*
X406803D01*
X406016Y319224D02*
Y320799D01*
X388496Y311055D02*
X390071D01*
X389283Y310268D02*
Y311842D01*
X382492Y310957D02*
X384067D01*
X383279Y310169D02*
Y311744D01*
X382000Y316665D02*
X383575D01*
X382787Y315878D02*
Y317453D01*
X381902Y321291D02*
X383476D01*
X382689Y320504D02*
Y322079D01*
X366547Y312039D02*
X368122D01*
X367335Y311252D02*
Y312827D01*
X367630Y316075D02*
X369205D01*
X368417Y315287D02*
Y316862D01*
X367039Y320799D02*
X368614D01*
X367827Y320012D02*
Y321587D01*
X374913Y316567D02*
X376488D01*
X375701Y315779D02*
Y317354D01*
X375504Y312236D02*
X377079D01*
X376291Y311449D02*
Y313024D01*
X375701Y320504D02*
X377276D01*
X376488Y319717D02*
Y321291D01*
X347551Y311646D02*
X349126D01*
X348339Y310858D02*
Y312433D01*
X350799Y314303D02*
X352374D01*
X351587Y313516D02*
Y315090D01*
X340026Y312433D02*
X341600D01*
X340813Y311646D02*
Y313220D01*
X350701Y383594D02*
X352276D01*
X351488Y382807D02*
Y384382D01*
X385740Y375031D02*
X387315D01*
X386527Y374244D02*
Y375819D01*
X389185Y385071D02*
X390760D01*
X389972Y384283D02*
Y385858D01*
X375744Y385021D02*
X377319D01*
X376532Y384234D02*
Y385808D01*
X402866Y341272D02*
X404441D01*
X403653Y340484D02*
Y342059D01*
X407492Y337433D02*
X409067D01*
X408280Y336646D02*
Y338221D01*
X412512Y332020D02*
X414087D01*
X413299Y331232D02*
Y332807D01*
X433476Y331035D02*
X435051D01*
X434264Y330248D02*
Y331823D01*
X432683Y373122D02*
X434258D01*
X433471Y372335D02*
Y373909D01*
X435317Y375213D02*
X436892D01*
X436104Y374426D02*
Y376001D01*
X423001Y384972D02*
X424576D01*
X423789Y384185D02*
Y385760D01*
X431705Y400622D02*
X433280D01*
X432492Y399835D02*
Y401409D01*
X435642Y399933D02*
X437217D01*
X436429Y399146D02*
Y400721D01*
X422256Y392650D02*
X423831D01*
X423043Y391862D02*
Y393437D01*
X419402Y389402D02*
X420976D01*
X420189Y388614D02*
Y390189D01*
X419332Y394592D02*
X420907D01*
X420120Y393805D02*
Y395380D01*
X403063Y392945D02*
X404638D01*
X403850Y392158D02*
Y393732D01*
X361626Y418339D02*
X363201D01*
X362413Y417551D02*
Y419126D01*
X361528Y414500D02*
X363102D01*
X362315Y413713D02*
Y415287D01*
X388572Y379103D02*
X390147D01*
X389360Y378316D02*
Y379891D01*
X327768Y460661D02*
X329343D01*
X328555Y459874D02*
Y461449D01*
X327965Y470209D02*
X329539D01*
X328752Y469421D02*
Y470996D01*
X327866Y477787D02*
X329441D01*
X328654Y477000D02*
Y478575D01*
X328161Y486744D02*
X329736D01*
X328949Y485957D02*
Y487532D01*
X328358Y492748D02*
X329933D01*
X329146Y491961D02*
Y493535D01*
X334854Y487630D02*
X336429D01*
X335642Y486842D02*
Y488417D01*
X334854Y492650D02*
X336429D01*
X335642Y491862D02*
Y493437D01*
X357684Y426624D02*
X359258D01*
X358471Y425836D02*
Y427411D01*
X358476Y435268D02*
X360051D01*
X359264Y434480D02*
Y436055D01*
X359362Y462236D02*
X360937D01*
X360150Y461449D02*
Y463024D01*
X358870Y473654D02*
X360445D01*
X359658Y472866D02*
Y474441D01*
X358673Y481626D02*
X360248D01*
X359461Y480839D02*
Y482413D01*
X366646Y462039D02*
X368220D01*
X367433Y461252D02*
Y462827D01*
X366646Y473555D02*
X368220D01*
X367433Y472768D02*
Y474342D01*
X366350Y481232D02*
X367925D01*
X367138Y480445D02*
Y482020D01*
X351587Y487630D02*
X353161D01*
X352374Y486842D02*
Y488417D01*
X351488Y492748D02*
X353063D01*
X352276Y491961D02*
Y493535D01*
X357295Y487039D02*
X358870D01*
X358083Y486252D02*
Y487827D01*
X357492Y492748D02*
X359067D01*
X358279Y491961D02*
Y493535D01*
X366449Y487039D02*
X368024D01*
X367236Y486252D02*
Y487827D01*
X366350Y492650D02*
X367925D01*
X367138Y491862D02*
Y493437D01*
X374224Y486941D02*
X375799D01*
X375012Y486154D02*
Y487728D01*
X374224Y492453D02*
X375799D01*
X375012Y491665D02*
Y493240D01*
X374815Y435268D02*
X376390D01*
X375602Y434480D02*
Y436055D01*
X368614Y435169D02*
X370189D01*
X369402Y434382D02*
Y435957D01*
X369205Y421193D02*
X370779D01*
X369992Y420405D02*
Y421980D01*
X369402Y415287D02*
X370976D01*
X370189Y414500D02*
Y416075D01*
X369008Y407610D02*
X370583D01*
X369795Y406823D02*
Y408398D01*
X402669Y426508D02*
X404244D01*
X403457Y425721D02*
Y427295D01*
X402866Y416468D02*
X404441D01*
X403653Y415681D02*
Y417256D01*
X402965Y407512D02*
X404539D01*
X403752Y406724D02*
Y408299D01*
X405524Y435661D02*
X407098D01*
X406311Y434874D02*
Y436449D01*
X397846Y435760D02*
X399421D01*
X398634Y434972D02*
Y436547D01*
X414339Y434889D02*
X415914D01*
X415127Y434102D02*
Y435677D01*
X399126Y460661D02*
X400701D01*
X399913Y459874D02*
Y461449D01*
X407492Y460268D02*
X409067D01*
X408280Y459480D02*
Y461055D01*
X399716Y473752D02*
X401291D01*
X400504Y472964D02*
Y474539D01*
X403555Y463221D02*
X405130D01*
X404343Y462433D02*
Y464008D01*
X403457Y477098D02*
X405031D01*
X404244Y476311D02*
Y477886D01*
X407295Y473555D02*
X408870D01*
X408083Y472768D02*
Y474342D01*
X399913Y481232D02*
X401488D01*
X400701Y480445D02*
Y482020D01*
X407295Y481232D02*
X408870D01*
X408083Y480445D02*
Y482020D01*
X391449Y487925D02*
X393024D01*
X392236Y487138D02*
Y488713D01*
X391843Y492748D02*
X393417D01*
X392630Y491961D02*
Y493535D01*
X399224Y486744D02*
X400799D01*
X400012Y485957D02*
Y487532D01*
X399126Y492748D02*
X400701D01*
X399913Y491961D02*
Y493535D01*
X407590Y486941D02*
X409165D01*
X408378Y486154D02*
Y487728D01*
X407098Y492748D02*
X408673D01*
X407886Y491961D02*
Y493535D01*
X415366Y487138D02*
X416941D01*
X416153Y486350D02*
Y487925D01*
X415071Y492354D02*
X416646D01*
X415858Y491567D02*
Y493142D01*
X439087Y442846D02*
X440661D01*
X439874Y442059D02*
Y443634D01*
X438988Y427591D02*
X440563D01*
X439776Y426803D02*
Y428378D01*
X438988Y417158D02*
X440563D01*
X439776Y416370D02*
Y417945D01*
X439087Y409579D02*
X440661D01*
X439874Y408791D02*
Y410366D01*
X438890Y449441D02*
X440464D01*
X439677Y448654D02*
Y450228D01*
X433378Y452591D02*
X434953D01*
X434165Y451803D02*
Y453378D01*
X438890Y456429D02*
X440464D01*
X439677Y455642D02*
Y457217D01*
X438988Y464894D02*
X440563D01*
X439776Y464106D02*
Y465681D01*
X438988Y471685D02*
X440563D01*
X439776Y470898D02*
Y472472D01*
X438890Y479067D02*
X440464D01*
X439677Y478279D02*
Y479854D01*
X432492Y487335D02*
X434067D01*
X433280Y486547D02*
Y488122D01*
X439087Y487039D02*
X440661D01*
X439874Y486252D02*
Y487827D01*
X432394Y492650D02*
X433968D01*
X433181Y491862D02*
Y493437D01*
X438988Y492453D02*
X440563D01*
X439776Y491665D02*
Y493240D01*
X436134Y490189D02*
X437709D01*
X436921Y489402D02*
Y490976D01*
X386823Y315976D02*
X388398D01*
X387610Y315189D02*
Y316764D01*
X394992Y320307D02*
X396567D01*
X395779Y319520D02*
Y321094D01*
X395976Y381315D02*
X397551D01*
X396764Y380528D02*
Y382103D01*
X418023Y336449D02*
X419598D01*
X418810Y335661D02*
Y337236D01*
X383476Y381724D02*
X385051D01*
X384264Y380937D02*
Y382512D01*
X376095Y349146D02*
X377669D01*
X376882Y348358D02*
Y349933D01*
X368220Y392650D02*
X369795D01*
X369008Y391862D02*
Y393437D01*
X343417Y399146D02*
X344992D01*
X344205Y398358D02*
Y399933D01*
X364677Y302000D02*
X366252D01*
X365465Y301213D02*
Y302787D01*
X428555Y374539D02*
X430130D01*
X429343Y373752D02*
Y375327D01*
X426125Y401325D02*
X427699D01*
X426912Y400537D02*
Y402112D01*
X375012Y400130D02*
X376587D01*
X375799Y399342D02*
Y400917D01*
X420681Y400425D02*
X422256D01*
X421468Y399638D02*
Y401213D01*
X438428Y325567D02*
X440003D01*
X439216Y324779D02*
Y326354D01*
X438428Y319614D02*
X440003D01*
X439216Y318827D02*
Y320402D01*
X438428Y313661D02*
X440003D01*
X439216Y312874D02*
Y314449D01*
X418024Y340583D02*
X419598D01*
X418811Y339795D02*
Y341370D01*
X401094Y335169D02*
X402669D01*
X401882Y334382D02*
Y335957D01*
X360684Y331658D02*
X362259D01*
X361472Y330870D02*
Y332445D01*
X375602Y301902D02*
X377177D01*
X376390Y301114D02*
Y302689D01*
X386528Y302000D02*
X388102D01*
X387315Y301213D02*
Y302787D01*
X344838Y314433D02*
X346413D01*
X345625Y313646D02*
Y315220D01*
X364776Y331823D02*
X366350D01*
X365563Y331035D02*
Y332610D01*
X368417Y331921D02*
X369992D01*
X369205Y331134D02*
Y332709D01*
X370330Y307445D02*
X371905D01*
X371117Y306658D02*
Y308232D01*
X399028Y320110D02*
X400602D01*
X399815Y319323D02*
Y320898D01*
X435937Y435760D02*
X437512D01*
X436724Y434972D02*
Y436547D01*
X387413Y415878D02*
X388988D01*
X388201Y415091D02*
Y416665D01*
X403260Y387827D02*
X404835D01*
X404047Y387039D02*
Y388614D01*
X358083Y420701D02*
X359658D01*
X358870Y419913D02*
Y421488D01*
X351882Y435169D02*
X353457D01*
X352669Y434382D02*
Y435957D01*
X381803Y367158D02*
X383378D01*
X382591Y366370D02*
Y367945D01*
X410318Y440950D02*
X411893D01*
X411105Y440163D02*
Y441738D01*
X415318Y455150D02*
X416893D01*
X416106Y454363D02*
Y455938D01*
X410318Y455150D02*
X411893D01*
X411105Y454363D02*
Y455938D01*
X334578Y450750D02*
X336153D01*
X335365Y449963D02*
Y451538D01*
X329578Y455150D02*
X331153D01*
X330365Y454363D02*
Y455938D01*
X334578Y455150D02*
X336153D01*
X335365Y454363D02*
Y455938D01*
X329578Y440950D02*
X331153D01*
X330365Y440163D02*
Y441738D01*
X329578Y450750D02*
X331153D01*
X330365Y449963D02*
Y451538D01*
X463594Y340386D02*
X465169D01*
X464382Y339598D02*
Y341173D01*
X474815Y346291D02*
X476390D01*
X475602Y345504D02*
Y347079D01*
X481803Y381823D02*
X483378D01*
X482590Y381035D02*
Y382610D01*
X480917Y384874D02*
X482492D01*
X481705Y384087D02*
Y385661D01*
X510248Y384386D02*
X511823D01*
X511036Y383599D02*
Y385174D01*
X509362Y393929D02*
X510937D01*
X510150Y393142D02*
Y394717D01*
X479835Y317158D02*
X481409D01*
X480622Y316370D02*
Y317945D01*
X538594Y308988D02*
X540169D01*
X539382Y308201D02*
Y309776D01*
X530524Y324835D02*
X532098D01*
X531311Y324047D02*
Y325622D01*
X550535Y313661D02*
X552109D01*
X551322Y312874D02*
Y314449D01*
X550535Y325567D02*
X552109D01*
X551322Y324779D02*
Y326354D01*
X538594Y316764D02*
X540169D01*
X539382Y315976D02*
Y317551D01*
X541252Y326016D02*
X542827D01*
X542039Y325228D02*
Y326803D01*
X550535Y319614D02*
X552109D01*
X551322Y318827D02*
Y320402D01*
X519500Y307413D02*
X521075D01*
X520287Y306626D02*
Y308201D01*
X512118Y325524D02*
X513693D01*
X512906Y324736D02*
Y326311D01*
X556705Y332610D02*
X558280D01*
X557492Y331823D02*
Y333398D01*
X529933Y357315D02*
X531508D01*
X530721Y356528D02*
Y358102D01*
X525209Y357512D02*
X526783D01*
X525996Y356724D02*
Y358299D01*
X511831Y357496D02*
X513406D01*
X512618Y356709D02*
Y358283D01*
X509756Y359677D02*
X511331D01*
X510543Y358890D02*
Y360465D01*
X508968Y356626D02*
X510543D01*
X509756Y355839D02*
Y357413D01*
X479835Y393929D02*
X481409D01*
X480622Y393142D02*
Y394717D01*
X479638Y407118D02*
X481213D01*
X480425Y406331D02*
Y407905D01*
X544143Y358735D02*
X545718D01*
X544931Y357948D02*
Y359523D01*
X510150Y346589D02*
X511725D01*
X510937Y345801D02*
Y347376D01*
X542039Y346488D02*
X543614D01*
X542827Y345701D02*
Y347276D01*
X499421Y348752D02*
X500996D01*
X500209Y347965D02*
Y349539D01*
X508772Y351016D02*
X510346D01*
X509559Y350228D02*
Y351803D01*
X496567Y346783D02*
X498142D01*
X497354Y345996D02*
Y347571D01*
X505917Y342945D02*
X507492D01*
X506705Y342158D02*
Y343732D01*
X457984Y360169D02*
X459559D01*
X458772Y359382D02*
Y360957D01*
X494303Y329364D02*
X495878D01*
X495090Y328576D02*
Y330151D01*
X457295Y363811D02*
X458870D01*
X458083Y363024D02*
Y364598D01*
X461823Y361941D02*
X463398D01*
X462610Y361154D02*
Y362728D01*
X459557Y365881D02*
X461132D01*
X460344Y365094D02*
Y366669D01*
X555529Y391591D02*
X557104D01*
X556316Y390804D02*
Y392378D01*
X497847Y330543D02*
X499421D01*
X498634Y329756D02*
Y331331D01*
X470090Y393240D02*
X471665D01*
X470878Y392453D02*
Y394027D01*
X479736Y350425D02*
X481311D01*
X480524Y349638D02*
Y351213D01*
X474855Y365103D02*
X476429D01*
X475642Y364316D02*
Y365890D01*
X491385Y374185D02*
X492960D01*
X492172Y373398D02*
Y374972D01*
X487807Y389894D02*
X489382D01*
X488594Y389106D02*
Y390681D01*
X471862Y333398D02*
X473437D01*
X472650Y332610D02*
Y334185D01*
X498535Y364306D02*
X500110D01*
X499323Y363519D02*
Y365094D01*
X486232Y337335D02*
X487807D01*
X487020Y336547D02*
Y338122D01*
X484854Y368831D02*
X486429D01*
X485642Y368043D02*
Y369618D01*
X459559Y350917D02*
X461134D01*
X460347Y350130D02*
Y351705D01*
X474224Y374441D02*
X475799D01*
X475012Y373654D02*
Y375228D01*
X531032Y449441D02*
X532606D01*
X531819Y448654D02*
Y450228D01*
X533591Y451016D02*
X535165D01*
X534378Y450228D02*
Y451803D01*
X528276Y447571D02*
X529850D01*
X529063Y446783D02*
Y448358D01*
X490661Y449441D02*
X492236D01*
X491449Y448654D02*
Y450228D01*
X487906Y447571D02*
X489480D01*
X488693Y446783D02*
Y448358D01*
X493221Y451016D02*
X494795D01*
X494008Y450228D02*
Y451803D01*
X488058Y455150D02*
X489633D01*
X488846Y454363D02*
Y455938D01*
X510543Y435858D02*
X512118D01*
X511331Y435071D02*
Y436646D01*
X493058Y455150D02*
X494633D01*
X493846Y454363D02*
Y455938D01*
X488058Y440950D02*
X489633D01*
X488846Y440163D02*
Y441738D01*
X447688Y445750D02*
X449263D01*
X448476Y444963D02*
Y446538D01*
X534559Y418437D02*
X536134D01*
X535347Y417650D02*
Y419224D01*
X553850Y384480D02*
X555425D01*
X554638Y383693D02*
Y385268D01*
X551488Y366823D02*
X553063D01*
X552276Y366035D02*
Y367610D01*
X547451Y384040D02*
X549026D01*
X548239Y383253D02*
Y384827D01*
X463541Y328360D02*
X465116D01*
X464329Y327572D02*
Y329147D01*
X458476Y342945D02*
X460051D01*
X459264Y342158D02*
Y343732D01*
X520780Y378378D02*
X522354D01*
X521567Y377590D02*
Y379165D01*
X520976Y370602D02*
X522551D01*
X521764Y369815D02*
Y371390D01*
X530613Y380440D02*
X532188D01*
X531400Y379653D02*
Y381228D01*
X544992Y345209D02*
X546567D01*
X545780Y344421D02*
Y345996D01*
X546015Y336986D02*
X547589D01*
X546802Y336199D02*
Y337773D01*
X526882Y317059D02*
X528457D01*
X527669Y316272D02*
Y317846D01*
X520189Y311547D02*
X521764D01*
X520976Y310760D02*
Y312335D01*
X523339Y320012D02*
X524913D01*
X524126Y319224D02*
Y320799D01*
X506606Y311055D02*
X508181D01*
X507394Y310268D02*
Y311842D01*
X500602Y310957D02*
X502177D01*
X501390Y310169D02*
Y311744D01*
X500110Y316665D02*
X501685D01*
X500898Y315878D02*
Y317453D01*
X500012Y321291D02*
X501587D01*
X500799Y320504D02*
Y322079D01*
X484657Y312039D02*
X486232D01*
X485445Y311252D02*
Y312827D01*
X485740Y316075D02*
X487315D01*
X486527Y315287D02*
Y316862D01*
X485150Y320799D02*
X486724D01*
X485937Y320012D02*
Y321587D01*
X493024Y316567D02*
X494598D01*
X493811Y315779D02*
Y317354D01*
X493614Y312236D02*
X495189D01*
X494402Y311449D02*
Y313024D01*
X493811Y320504D02*
X495386D01*
X494598Y319717D02*
Y321291D01*
X465661Y311646D02*
X467236D01*
X466449Y310858D02*
Y312433D01*
X468909Y314303D02*
X470484D01*
X469697Y313516D02*
Y315090D01*
X458136Y312433D02*
X459711D01*
X458923Y311646D02*
Y313220D01*
X468811Y383594D02*
X470386D01*
X469598Y382807D02*
Y384382D01*
X503850Y375031D02*
X505425D01*
X504638Y374244D02*
Y375819D01*
X507295Y385071D02*
X508870D01*
X508083Y384283D02*
Y385858D01*
X493855Y385021D02*
X495429D01*
X494642Y384234D02*
Y385808D01*
X520976Y341272D02*
X522551D01*
X521764Y340484D02*
Y342059D01*
X525602Y337433D02*
X527177D01*
X526390Y336646D02*
Y338221D01*
X530622Y332020D02*
X532197D01*
X531409Y331232D02*
Y332807D01*
X551587Y331035D02*
X553161D01*
X552374Y330248D02*
Y331823D01*
X550794Y373122D02*
X552368D01*
X551581Y372335D02*
Y373909D01*
X553427Y375213D02*
X555002D01*
X554214Y374426D02*
Y376001D01*
X541112Y384972D02*
X542687D01*
X541899Y384185D02*
Y385760D01*
X549815Y400622D02*
X551390D01*
X550602Y399835D02*
Y401409D01*
X553752Y399933D02*
X555327D01*
X554539Y399146D02*
Y400721D01*
X540366Y392650D02*
X541941D01*
X541153Y391862D02*
Y393437D01*
X537512Y389402D02*
X539087D01*
X538299Y388614D02*
Y390189D01*
X537442Y394592D02*
X539017D01*
X538230Y393805D02*
Y395380D01*
X521173Y392945D02*
X522748D01*
X521961Y392158D02*
Y393732D01*
X479736Y418339D02*
X481311D01*
X480524Y417551D02*
Y419126D01*
X479638Y414500D02*
X481213D01*
X480425Y413713D02*
Y415287D01*
X506682Y379103D02*
X508257D01*
X507470Y378316D02*
Y379891D01*
X445878Y460661D02*
X447453D01*
X446665Y459874D02*
Y461449D01*
X446075Y470209D02*
X447650D01*
X446862Y469421D02*
Y470996D01*
X445976Y477787D02*
X447551D01*
X446764Y477000D02*
Y478575D01*
X446272Y486744D02*
X447846D01*
X447059Y485957D02*
Y487532D01*
X446468Y492748D02*
X448043D01*
X447256Y491961D02*
Y493535D01*
X452965Y487630D02*
X454539D01*
X453752Y486842D02*
Y488417D01*
X452965Y492650D02*
X454539D01*
X453752Y491862D02*
Y493437D01*
X475794Y426624D02*
X477369D01*
X476581Y425836D02*
Y427411D01*
X476587Y435268D02*
X478161D01*
X477374Y434480D02*
Y436055D01*
X477472Y462236D02*
X479047D01*
X478260Y461449D02*
Y463024D01*
X476980Y473654D02*
X478555D01*
X477768Y472866D02*
Y474441D01*
X476784Y481626D02*
X478358D01*
X477571Y480839D02*
Y482413D01*
X484756Y462039D02*
X486331D01*
X485543Y461252D02*
Y462827D01*
X484756Y473555D02*
X486331D01*
X485543Y472768D02*
Y474342D01*
X484461Y481232D02*
X486035D01*
X485248Y480445D02*
Y482020D01*
X469697Y487630D02*
X471272D01*
X470484Y486842D02*
Y488417D01*
X469598Y492748D02*
X471173D01*
X470386Y491961D02*
Y493535D01*
X475406Y487039D02*
X476980D01*
X476193Y486252D02*
Y487827D01*
X475602Y492748D02*
X477177D01*
X476390Y491961D02*
Y493535D01*
X484559Y487039D02*
X486134D01*
X485347Y486252D02*
Y487827D01*
X484461Y492650D02*
X486035D01*
X485248Y491862D02*
Y493437D01*
X492335Y486941D02*
X493909D01*
X493122Y486154D02*
Y487728D01*
X492335Y492453D02*
X493909D01*
X493122Y491665D02*
Y493240D01*
X492925Y435268D02*
X494500D01*
X493713Y434480D02*
Y436055D01*
X486724Y435169D02*
X488299D01*
X487512Y434382D02*
Y435957D01*
X487315Y421193D02*
X488890D01*
X488102Y420405D02*
Y421980D01*
X487512Y415287D02*
X489087D01*
X488299Y414500D02*
Y416075D01*
X487118Y407610D02*
X488693D01*
X487906Y406823D02*
Y408398D01*
X520780Y426508D02*
X522354D01*
X521567Y425721D02*
Y427295D01*
X520976Y416468D02*
X522551D01*
X521764Y415681D02*
Y417256D01*
X521075Y407512D02*
X522650D01*
X521862Y406724D02*
Y408299D01*
X523634Y435661D02*
X525209D01*
X524421Y434874D02*
Y436449D01*
X515957Y435760D02*
X517531D01*
X516744Y434972D02*
Y436547D01*
X532450Y434889D02*
X534025D01*
X533237Y434102D02*
Y435677D01*
X517236Y460661D02*
X518811D01*
X518024Y459874D02*
Y461449D01*
X525602Y460268D02*
X527177D01*
X526390Y459480D02*
Y461055D01*
X517827Y473752D02*
X519402D01*
X518614Y472964D02*
Y474539D01*
X521665Y463221D02*
X523240D01*
X522453Y462433D02*
Y464008D01*
X521567Y477098D02*
X523142D01*
X522354Y476311D02*
Y477886D01*
X525406Y473555D02*
X526980D01*
X526193Y472768D02*
Y474342D01*
X518024Y481232D02*
X519598D01*
X518811Y480445D02*
Y482020D01*
X525406Y481232D02*
X526980D01*
X526193Y480445D02*
Y482020D01*
X509559Y487925D02*
X511134D01*
X510347Y487138D02*
Y488713D01*
X509953Y492748D02*
X511527D01*
X510740Y491961D02*
Y493535D01*
X517335Y486744D02*
X518909D01*
X518122Y485957D02*
Y487532D01*
X517236Y492748D02*
X518811D01*
X518024Y491961D02*
Y493535D01*
X525701Y486941D02*
X527276D01*
X526488Y486154D02*
Y487728D01*
X525209Y492748D02*
X526783D01*
X525996Y491961D02*
Y493535D01*
X533476Y487138D02*
X535051D01*
X534264Y486350D02*
Y487925D01*
X533181Y492354D02*
X534756D01*
X533968Y491567D02*
Y493142D01*
X557197Y442846D02*
X558772D01*
X557984Y442059D02*
Y443634D01*
X557098Y427591D02*
X558673D01*
X557886Y426803D02*
Y428378D01*
X557098Y417158D02*
X558673D01*
X557886Y416370D02*
Y417945D01*
X557197Y409579D02*
X558772D01*
X557984Y408791D02*
Y410366D01*
X557000Y449441D02*
X558575D01*
X557787Y448654D02*
Y450228D01*
X551488Y452591D02*
X553063D01*
X552276Y451803D02*
Y453378D01*
X557000Y456429D02*
X558575D01*
X557787Y455642D02*
Y457217D01*
X557098Y464894D02*
X558673D01*
X557886Y464106D02*
Y465681D01*
X557098Y471685D02*
X558673D01*
X557886Y470898D02*
Y472472D01*
X557000Y479067D02*
X558575D01*
X557787Y478279D02*
Y479854D01*
X550602Y487335D02*
X552177D01*
X551390Y486547D02*
Y488122D01*
X557197Y487039D02*
X558772D01*
X557984Y486252D02*
Y487827D01*
X550504Y492650D02*
X552079D01*
X551291Y491862D02*
Y493437D01*
X557098Y492453D02*
X558673D01*
X557886Y491665D02*
Y493240D01*
X554244Y490189D02*
X555819D01*
X555031Y489402D02*
Y490976D01*
X504933Y315976D02*
X506508D01*
X505721Y315189D02*
Y316764D01*
X513102Y320307D02*
X514677D01*
X513890Y319520D02*
Y321094D01*
X514087Y381315D02*
X515661D01*
X514874Y380528D02*
Y382103D01*
X536133Y336449D02*
X537708D01*
X536920Y335661D02*
Y337236D01*
X501587Y381724D02*
X503161D01*
X502374Y380937D02*
Y382512D01*
X494205Y349146D02*
X495780D01*
X494992Y348358D02*
Y349933D01*
X486331Y392650D02*
X487906D01*
X487118Y391862D02*
Y393437D01*
X461527Y399146D02*
X463102D01*
X462315Y398358D02*
Y399933D01*
X482787Y302000D02*
X484362D01*
X483575Y301213D02*
Y302787D01*
X546665Y374539D02*
X548240D01*
X547453Y373752D02*
Y375327D01*
X544235Y401325D02*
X545810D01*
X545022Y400537D02*
Y402112D01*
X493122Y400130D02*
X494697D01*
X493909Y399342D02*
Y400917D01*
X538791Y400425D02*
X540366D01*
X539579Y399638D02*
Y401213D01*
X556539Y325567D02*
X558113D01*
X557326Y324779D02*
Y326354D01*
X556539Y319614D02*
X558113D01*
X557326Y318827D02*
Y320402D01*
X556539Y313661D02*
X558113D01*
X557326Y312874D02*
Y314449D01*
X536134Y340583D02*
X537709D01*
X536921Y339795D02*
Y341370D01*
X519205Y335169D02*
X520780D01*
X519992Y334382D02*
Y335957D01*
X478794Y331658D02*
X480369D01*
X479582Y330870D02*
Y332445D01*
X493713Y301902D02*
X495287D01*
X494500Y301114D02*
Y302689D01*
X504638Y302000D02*
X506213D01*
X505425Y301213D02*
Y302787D01*
X462948Y314433D02*
X464523D01*
X463735Y313646D02*
Y315220D01*
X482886Y331823D02*
X484461D01*
X483673Y331035D02*
Y332610D01*
X486527Y331921D02*
X488102D01*
X487315Y331134D02*
Y332709D01*
X488440Y307445D02*
X490015D01*
X489227Y306658D02*
Y308232D01*
X517138Y320110D02*
X518713D01*
X517925Y319323D02*
Y320898D01*
X554047Y435760D02*
X555622D01*
X554835Y434972D02*
Y436547D01*
X505524Y415878D02*
X507098D01*
X506311Y415091D02*
Y416665D01*
X521370Y387827D02*
X522945D01*
X522157Y387039D02*
Y388614D01*
X476193Y420701D02*
X477768D01*
X476980Y419913D02*
Y421488D01*
X469992Y435169D02*
X471567D01*
X470780Y434382D02*
Y435957D01*
X499913Y367158D02*
X501488D01*
X500701Y366370D02*
Y367945D01*
X528428Y440950D02*
X530003D01*
X529216Y440163D02*
Y441738D01*
X533428Y455150D02*
X535003D01*
X534216Y454363D02*
Y455938D01*
X528428Y455150D02*
X530003D01*
X529216Y454363D02*
Y455938D01*
X452688Y450750D02*
X454263D01*
X453476Y449963D02*
Y451538D01*
X447688Y455150D02*
X449263D01*
X448476Y454363D02*
Y455938D01*
X452688Y455150D02*
X454263D01*
X453476Y454363D02*
Y455938D01*
X447688Y440950D02*
X449263D01*
X448476Y440163D02*
Y441738D01*
X447688Y450750D02*
X449263D01*
X448476Y449963D02*
Y451538D01*
M02*
