G04*
G04 #@! TF.GenerationSoftware,Altium Limited,Altium Designer,20.1.11 (218)*
G04*
G04 Layer_Color=16711935*
%FSLAX25Y25*%
%MOIN*%
G70*
G04*
G04 #@! TF.SameCoordinates,9421AAF7-A1CE-47F4-AB83-8062CB6876A7*
G04*
G04*
G04 #@! TF.FilePolarity,Positive*
G04*
G01*
G75*
G36*
X547846Y434087D02*
X546665D01*
Y437236D01*
X547846D01*
Y434087D01*
D02*
G37*
G36*
X542728D02*
X541547D01*
Y437236D01*
X542728D01*
Y434087D01*
D02*
G37*
G36*
X505622D02*
X504441D01*
Y437236D01*
X505622D01*
Y434087D01*
D02*
G37*
G36*
X500504D02*
X499323D01*
Y437236D01*
X500504D01*
Y434087D01*
D02*
G37*
G36*
X465268D02*
X464087D01*
Y437236D01*
X465268D01*
Y434087D01*
D02*
G37*
G36*
X460150D02*
X458968D01*
Y437236D01*
X460150D01*
Y434087D01*
D02*
G37*
G36*
X429736D02*
X428555D01*
Y437236D01*
X429736D01*
Y434087D01*
D02*
G37*
G36*
X424618D02*
X423437D01*
Y437236D01*
X424618D01*
Y434087D01*
D02*
G37*
G36*
X387512D02*
X386331D01*
Y437236D01*
X387512D01*
Y434087D01*
D02*
G37*
G36*
X382394D02*
X381213D01*
Y437236D01*
X382394D01*
Y434087D01*
D02*
G37*
G36*
X347158D02*
X345976D01*
Y437236D01*
X347158D01*
Y434087D01*
D02*
G37*
G36*
X342039D02*
X340858D01*
Y437236D01*
X342039D01*
Y434087D01*
D02*
G37*
G36*
X311626D02*
X310445D01*
Y437236D01*
X311626D01*
Y434087D01*
D02*
G37*
G36*
X306508D02*
X305327D01*
Y437236D01*
X306508D01*
Y434087D01*
D02*
G37*
G36*
X269402D02*
X268220D01*
Y437236D01*
X269402D01*
Y434087D01*
D02*
G37*
G36*
X264283D02*
X263102D01*
Y437236D01*
X264283D01*
Y434087D01*
D02*
G37*
G36*
X229047D02*
X227866D01*
Y437236D01*
X229047D01*
Y434087D01*
D02*
G37*
G36*
X223929D02*
X222748D01*
Y437236D01*
X223929D01*
Y434087D01*
D02*
G37*
G36*
X528949Y428083D02*
X525799D01*
Y429264D01*
X528949D01*
Y428083D01*
D02*
G37*
G36*
X518811D02*
X515661D01*
Y429264D01*
X518811D01*
Y428083D01*
D02*
G37*
G36*
X410839D02*
X407689D01*
Y429264D01*
X410839D01*
Y428083D01*
D02*
G37*
G36*
X400701D02*
X397551D01*
Y429264D01*
X400701D01*
Y428083D01*
D02*
G37*
G36*
X292728D02*
X289579D01*
Y429264D01*
X292728D01*
Y428083D01*
D02*
G37*
G36*
X282591D02*
X279441D01*
Y429264D01*
X282591D01*
Y428083D01*
D02*
G37*
G36*
X485642Y426508D02*
X482492D01*
Y427689D01*
X485642D01*
Y426508D01*
D02*
G37*
G36*
X367531D02*
X364382D01*
Y427689D01*
X367531D01*
Y426508D01*
D02*
G37*
G36*
X249421D02*
X246272D01*
Y427689D01*
X249421D01*
Y426508D01*
D02*
G37*
G36*
X528949Y422965D02*
X525799D01*
Y424146D01*
X528949D01*
Y422965D01*
D02*
G37*
G36*
X518811D02*
X515661D01*
Y424146D01*
X518811D01*
Y422965D01*
D02*
G37*
G36*
X410839D02*
X407689D01*
Y424146D01*
X410839D01*
Y422965D01*
D02*
G37*
G36*
X400701D02*
X397551D01*
Y424146D01*
X400701D01*
Y422965D01*
D02*
G37*
G36*
X292728D02*
X289579D01*
Y424146D01*
X292728D01*
Y422965D01*
D02*
G37*
G36*
X282591D02*
X279441D01*
Y424146D01*
X282591D01*
Y422965D01*
D02*
G37*
G36*
X485642Y421390D02*
X482492D01*
Y422571D01*
X485642D01*
Y421390D01*
D02*
G37*
G36*
X367531D02*
X364382D01*
Y422571D01*
X367531D01*
Y421390D01*
D02*
G37*
G36*
X249421D02*
X246272D01*
Y422571D01*
X249421D01*
Y421390D01*
D02*
G37*
G36*
X517531Y414008D02*
X516350D01*
Y417158D01*
X517531D01*
Y414008D01*
D02*
G37*
G36*
X512413D02*
X511232D01*
Y417158D01*
X512413D01*
Y414008D01*
D02*
G37*
G36*
X399421D02*
X398240D01*
Y417158D01*
X399421D01*
Y414008D01*
D02*
G37*
G36*
X394303D02*
X393122D01*
Y417158D01*
X394303D01*
Y414008D01*
D02*
G37*
G36*
X281311D02*
X280130D01*
Y417158D01*
X281311D01*
Y414008D01*
D02*
G37*
G36*
X276193D02*
X275012D01*
Y417158D01*
X276193D01*
Y414008D01*
D02*
G37*
G36*
X485642Y413319D02*
X482492D01*
Y414500D01*
X485642D01*
Y413319D01*
D02*
G37*
G36*
X478358D02*
X475209D01*
Y414500D01*
X478358D01*
Y413319D01*
D02*
G37*
G36*
X367531D02*
X364382D01*
Y414500D01*
X367531D01*
Y413319D01*
D02*
G37*
G36*
X360248D02*
X357098D01*
Y414500D01*
X360248D01*
Y413319D01*
D02*
G37*
G36*
X249421D02*
X246272D01*
Y414500D01*
X249421D01*
Y413319D01*
D02*
G37*
G36*
X242138D02*
X238988D01*
Y414500D01*
X242138D01*
Y413319D01*
D02*
G37*
G36*
X529047Y412138D02*
X525898D01*
Y413319D01*
X529047D01*
Y412138D01*
D02*
G37*
G36*
X410937D02*
X407787D01*
Y413319D01*
X410937D01*
Y412138D01*
D02*
G37*
G36*
X292827D02*
X289677D01*
Y413319D01*
X292827D01*
Y412138D01*
D02*
G37*
G36*
X536823Y411744D02*
X533673D01*
Y412925D01*
X536823D01*
Y411744D01*
D02*
G37*
G36*
X418713D02*
X415563D01*
Y412925D01*
X418713D01*
Y411744D01*
D02*
G37*
G36*
X300602D02*
X297453D01*
Y412925D01*
X300602D01*
Y411744D01*
D02*
G37*
G36*
X501488Y411547D02*
X500307D01*
Y414697D01*
X501488D01*
Y411547D01*
D02*
G37*
G36*
X496370D02*
X495189D01*
Y414697D01*
X496370D01*
Y411547D01*
D02*
G37*
G36*
X383378D02*
X382197D01*
Y414697D01*
X383378D01*
Y411547D01*
D02*
G37*
G36*
X378260D02*
X377079D01*
Y414697D01*
X378260D01*
Y411547D01*
D02*
G37*
G36*
X265268D02*
X264087D01*
Y414697D01*
X265268D01*
Y411547D01*
D02*
G37*
G36*
X260150D02*
X258968D01*
Y414697D01*
X260150D01*
Y411547D01*
D02*
G37*
G36*
X551094Y410957D02*
X549913D01*
Y414106D01*
X551094D01*
Y410957D01*
D02*
G37*
G36*
X545976D02*
X544795D01*
Y414106D01*
X545976D01*
Y410957D01*
D02*
G37*
G36*
X432984D02*
X431803D01*
Y414106D01*
X432984D01*
Y410957D01*
D02*
G37*
G36*
X427866D02*
X426685D01*
Y414106D01*
X427866D01*
Y410957D01*
D02*
G37*
G36*
X314874D02*
X313693D01*
Y414106D01*
X314874D01*
Y410957D01*
D02*
G37*
G36*
X309756D02*
X308575D01*
Y414106D01*
X309756D01*
Y410957D01*
D02*
G37*
G36*
X468122Y410169D02*
X466941D01*
Y413319D01*
X468122D01*
Y410169D01*
D02*
G37*
G36*
X463004D02*
X461823D01*
Y413319D01*
X463004D01*
Y410169D01*
D02*
G37*
G36*
X350012D02*
X348831D01*
Y413319D01*
X350012D01*
Y410169D01*
D02*
G37*
G36*
X344894D02*
X343713D01*
Y413319D01*
X344894D01*
Y410169D01*
D02*
G37*
G36*
X231902D02*
X230720D01*
Y413319D01*
X231902D01*
Y410169D01*
D02*
G37*
G36*
X226783D02*
X225602D01*
Y413319D01*
X226783D01*
Y410169D01*
D02*
G37*
G36*
X485642Y408201D02*
X482492D01*
Y409382D01*
X485642D01*
Y408201D01*
D02*
G37*
G36*
X478358D02*
X475209D01*
Y409382D01*
X478358D01*
Y408201D01*
D02*
G37*
G36*
X367531D02*
X364382D01*
Y409382D01*
X367531D01*
Y408201D01*
D02*
G37*
G36*
X360248D02*
X357098D01*
Y409382D01*
X360248D01*
Y408201D01*
D02*
G37*
G36*
X249421D02*
X246272D01*
Y409382D01*
X249421D01*
Y408201D01*
D02*
G37*
G36*
X242138D02*
X238988D01*
Y409382D01*
X242138D01*
Y408201D01*
D02*
G37*
G36*
X529047Y407020D02*
X525898D01*
Y408201D01*
X529047D01*
Y407020D01*
D02*
G37*
G36*
X410937D02*
X407787D01*
Y408201D01*
X410937D01*
Y407020D01*
D02*
G37*
G36*
X292827D02*
X289677D01*
Y408201D01*
X292827D01*
Y407020D01*
D02*
G37*
G36*
X536823Y406626D02*
X533673D01*
Y407807D01*
X536823D01*
Y406626D01*
D02*
G37*
G36*
X418713D02*
X415563D01*
Y407807D01*
X418713D01*
Y406626D01*
D02*
G37*
G36*
X300602D02*
X297453D01*
Y407807D01*
X300602D01*
Y406626D01*
D02*
G37*
G36*
X517630Y405839D02*
X516449D01*
Y408988D01*
X517630D01*
Y405839D01*
D02*
G37*
G36*
X512512D02*
X511331D01*
Y408988D01*
X512512D01*
Y405839D01*
D02*
G37*
G36*
X399520D02*
X398339D01*
Y408988D01*
X399520D01*
Y405839D01*
D02*
G37*
G36*
X394402D02*
X393220D01*
Y408988D01*
X394402D01*
Y405839D01*
D02*
G37*
G36*
X281409D02*
X280228D01*
Y408988D01*
X281409D01*
Y405839D01*
D02*
G37*
G36*
X276291D02*
X275110D01*
Y408988D01*
X276291D01*
Y405839D01*
D02*
G37*
G36*
X501390Y405248D02*
X500209D01*
Y408398D01*
X501390D01*
Y405248D01*
D02*
G37*
G36*
X496272D02*
X495090D01*
Y408398D01*
X496272D01*
Y405248D01*
D02*
G37*
G36*
X383279D02*
X382098D01*
Y408398D01*
X383279D01*
Y405248D01*
D02*
G37*
G36*
X378161D02*
X376980D01*
Y408398D01*
X378161D01*
Y405248D01*
D02*
G37*
G36*
X265169D02*
X263988D01*
Y408398D01*
X265169D01*
Y405248D01*
D02*
G37*
G36*
X260051D02*
X258870D01*
Y408398D01*
X260051D01*
Y405248D01*
D02*
G37*
G36*
X550996Y404953D02*
X549815D01*
Y408102D01*
X550996D01*
Y404953D01*
D02*
G37*
G36*
X545878D02*
X544697D01*
Y408102D01*
X545878D01*
Y404953D01*
D02*
G37*
G36*
X432886D02*
X431705D01*
Y408102D01*
X432886D01*
Y404953D01*
D02*
G37*
G36*
X427768D02*
X426587D01*
Y408102D01*
X427768D01*
Y404953D01*
D02*
G37*
G36*
X314776D02*
X313595D01*
Y408102D01*
X314776D01*
Y404953D01*
D02*
G37*
G36*
X309658D02*
X308476D01*
Y408102D01*
X309658D01*
Y404953D01*
D02*
G37*
G36*
X468122Y402689D02*
X466941D01*
Y405839D01*
X468122D01*
Y402689D01*
D02*
G37*
G36*
X463004D02*
X461823D01*
Y405839D01*
X463004D01*
Y402689D01*
D02*
G37*
G36*
X350012D02*
X348831D01*
Y405839D01*
X350012D01*
Y402689D01*
D02*
G37*
G36*
X344894D02*
X343713D01*
Y405839D01*
X344894D01*
Y402689D01*
D02*
G37*
G36*
X231902D02*
X230720D01*
Y405839D01*
X231902D01*
Y402689D01*
D02*
G37*
G36*
X226783D02*
X225602D01*
Y405839D01*
X226783D01*
Y402689D01*
D02*
G37*
G36*
X505130Y398457D02*
X503949D01*
Y401606D01*
X505130D01*
Y398457D01*
D02*
G37*
G36*
X500012D02*
X498831D01*
Y401606D01*
X500012D01*
Y398457D01*
D02*
G37*
G36*
X387020D02*
X385839D01*
Y401606D01*
X387020D01*
Y398457D01*
D02*
G37*
G36*
X381902D02*
X380720D01*
Y401606D01*
X381902D01*
Y398457D01*
D02*
G37*
G36*
X268909D02*
X267728D01*
Y401606D01*
X268909D01*
Y398457D01*
D02*
G37*
G36*
X263791D02*
X262610D01*
Y401606D01*
X263791D01*
Y398457D01*
D02*
G37*
G36*
X551094Y393732D02*
X549913D01*
Y396882D01*
X551094D01*
Y393732D01*
D02*
G37*
G36*
X545976D02*
X544795D01*
Y396882D01*
X545976D01*
Y393732D01*
D02*
G37*
G36*
X432984D02*
X431803D01*
Y396882D01*
X432984D01*
Y393732D01*
D02*
G37*
G36*
X427866D02*
X426685D01*
Y396882D01*
X427866D01*
Y393732D01*
D02*
G37*
G36*
X314874D02*
X313693D01*
Y396882D01*
X314874D01*
Y393732D01*
D02*
G37*
G36*
X309756D02*
X308575D01*
Y396882D01*
X309756D01*
Y393732D01*
D02*
G37*
G36*
X505327Y391370D02*
X504146D01*
Y394520D01*
X505327D01*
Y391370D01*
D02*
G37*
G36*
X500209D02*
X499027D01*
Y394520D01*
X500209D01*
Y391370D01*
D02*
G37*
G36*
X387216D02*
X386035D01*
Y394520D01*
X387216D01*
Y391370D01*
D02*
G37*
G36*
X382098D02*
X380917D01*
Y394520D01*
X382098D01*
Y391370D01*
D02*
G37*
G36*
X269106D02*
X267925D01*
Y394520D01*
X269106D01*
Y391370D01*
D02*
G37*
G36*
X263988D02*
X262807D01*
Y394520D01*
X263988D01*
Y391370D01*
D02*
G37*
G36*
X467925Y386449D02*
X466744D01*
Y389598D01*
X467925D01*
Y386449D01*
D02*
G37*
G36*
X462807D02*
X461626D01*
Y389598D01*
X462807D01*
Y386449D01*
D02*
G37*
G36*
X349815D02*
X348634D01*
Y389598D01*
X349815D01*
Y386449D01*
D02*
G37*
G36*
X344697D02*
X343516D01*
Y389598D01*
X344697D01*
Y386449D01*
D02*
G37*
G36*
X231705D02*
X230524D01*
Y389598D01*
X231705D01*
Y386449D01*
D02*
G37*
G36*
X226587D02*
X225406D01*
Y389598D01*
X226587D01*
Y386449D01*
D02*
G37*
G36*
X551193Y386154D02*
X550012D01*
Y389303D01*
X551193D01*
Y386154D01*
D02*
G37*
G36*
X546075D02*
X544894D01*
Y389303D01*
X546075D01*
Y386154D01*
D02*
G37*
G36*
X433083D02*
X431902D01*
Y389303D01*
X433083D01*
Y386154D01*
D02*
G37*
G36*
X427964D02*
X426783D01*
Y389303D01*
X427964D01*
Y386154D01*
D02*
G37*
G36*
X314972D02*
X313791D01*
Y389303D01*
X314972D01*
Y386154D01*
D02*
G37*
G36*
X309854D02*
X308673D01*
Y389303D01*
X309854D01*
Y386154D01*
D02*
G37*
G36*
X476390Y385957D02*
X473240D01*
Y387138D01*
X476390D01*
Y385957D01*
D02*
G37*
G36*
X358279D02*
X355130D01*
Y387138D01*
X358279D01*
Y385957D01*
D02*
G37*
G36*
X240169D02*
X237020D01*
Y387138D01*
X240169D01*
Y385957D01*
D02*
G37*
G36*
X505130Y384579D02*
X503949D01*
Y387728D01*
X505130D01*
Y384579D01*
D02*
G37*
G36*
X500012D02*
X498831D01*
Y387728D01*
X500012D01*
Y384579D01*
D02*
G37*
G36*
X387020D02*
X385839D01*
Y387728D01*
X387020D01*
Y384579D01*
D02*
G37*
G36*
X381902D02*
X380720D01*
Y387728D01*
X381902D01*
Y384579D01*
D02*
G37*
G36*
X268909D02*
X267728D01*
Y387728D01*
X268909D01*
Y384579D01*
D02*
G37*
G36*
X263791D02*
X262610D01*
Y387728D01*
X263791D01*
Y384579D01*
D02*
G37*
G36*
X476390Y380839D02*
X473240D01*
Y382020D01*
X476390D01*
Y380839D01*
D02*
G37*
G36*
X358279D02*
X355130D01*
Y382020D01*
X358279D01*
Y380839D01*
D02*
G37*
G36*
X240169D02*
X237020D01*
Y382020D01*
X240169D01*
Y380839D01*
D02*
G37*
G36*
X551193Y378575D02*
X550012D01*
Y381724D01*
X551193D01*
Y378575D01*
D02*
G37*
G36*
X546075D02*
X544894D01*
Y381724D01*
X546075D01*
Y378575D01*
D02*
G37*
G36*
X433083D02*
X431902D01*
Y381724D01*
X433083D01*
Y378575D01*
D02*
G37*
G36*
X427964D02*
X426783D01*
Y381724D01*
X427964D01*
Y378575D01*
D02*
G37*
G36*
X314972D02*
X313791D01*
Y381724D01*
X314972D01*
Y378575D01*
D02*
G37*
G36*
X309854D02*
X308673D01*
Y381724D01*
X309854D01*
Y378575D01*
D02*
G37*
G36*
X542237Y378181D02*
X541055D01*
Y381331D01*
X542237D01*
Y378181D01*
D02*
G37*
G36*
X537118D02*
X535937D01*
Y381331D01*
X537118D01*
Y378181D01*
D02*
G37*
G36*
X424126D02*
X422945D01*
Y381331D01*
X424126D01*
Y378181D01*
D02*
G37*
G36*
X419008D02*
X417827D01*
Y381331D01*
X419008D01*
Y378181D01*
D02*
G37*
G36*
X306016D02*
X304835D01*
Y381331D01*
X306016D01*
Y378181D01*
D02*
G37*
G36*
X300898D02*
X299717D01*
Y381331D01*
X300898D01*
Y378181D01*
D02*
G37*
G36*
X467925Y377787D02*
X466744D01*
Y380937D01*
X467925D01*
Y377787D01*
D02*
G37*
G36*
X462807D02*
X461626D01*
Y380937D01*
X462807D01*
Y377787D01*
D02*
G37*
G36*
X349815D02*
X348634D01*
Y380937D01*
X349815D01*
Y377787D01*
D02*
G37*
G36*
X344697D02*
X343516D01*
Y380937D01*
X344697D01*
Y377787D01*
D02*
G37*
G36*
X231705D02*
X230524D01*
Y380937D01*
X231705D01*
Y377787D01*
D02*
G37*
G36*
X226587D02*
X225406D01*
Y380937D01*
X226587D01*
Y377787D01*
D02*
G37*
G36*
X530917Y374441D02*
X529736D01*
Y377590D01*
X530917D01*
Y374441D01*
D02*
G37*
G36*
X525799D02*
X524618D01*
Y377590D01*
X525799D01*
Y374441D01*
D02*
G37*
G36*
X412807D02*
X411626D01*
Y377590D01*
X412807D01*
Y374441D01*
D02*
G37*
G36*
X407689D02*
X406507D01*
Y377590D01*
X407689D01*
Y374441D01*
D02*
G37*
G36*
X294696D02*
X293515D01*
Y377590D01*
X294696D01*
Y374441D01*
D02*
G37*
G36*
X289578D02*
X288397D01*
Y377590D01*
X289578D01*
Y374441D01*
D02*
G37*
G36*
X488496Y372276D02*
X487315D01*
Y375425D01*
X488496D01*
Y372276D01*
D02*
G37*
G36*
X370386D02*
X369205D01*
Y375425D01*
X370386D01*
Y372276D01*
D02*
G37*
G36*
X252276D02*
X251095D01*
Y375425D01*
X252276D01*
Y372276D01*
D02*
G37*
G36*
X483378D02*
X482492D01*
Y371587D01*
X479343D01*
Y372768D01*
X482197D01*
Y375425D01*
X483378D01*
Y372276D01*
D02*
G37*
G36*
X365268D02*
X364382D01*
Y371587D01*
X361232D01*
Y372768D01*
X364087D01*
Y375425D01*
X365268D01*
Y372276D01*
D02*
G37*
G36*
X247158D02*
X246272D01*
Y371587D01*
X243122D01*
Y372768D01*
X245976D01*
Y375425D01*
X247158D01*
Y372276D01*
D02*
G37*
G36*
X529539Y370996D02*
X526390D01*
Y372177D01*
X529539D01*
Y370996D01*
D02*
G37*
G36*
X411429D02*
X408280D01*
Y372177D01*
X411429D01*
Y370996D01*
D02*
G37*
G36*
X293319D02*
X290169D01*
Y372177D01*
X293319D01*
Y370996D01*
D02*
G37*
G36*
X473732Y367256D02*
X472551D01*
Y370406D01*
X473732D01*
Y367256D01*
D02*
G37*
G36*
X468614D02*
X467433D01*
Y370406D01*
X468614D01*
Y367256D01*
D02*
G37*
G36*
X355622D02*
X354441D01*
Y370406D01*
X355622D01*
Y367256D01*
D02*
G37*
G36*
X350504D02*
X349323D01*
Y370406D01*
X350504D01*
Y367256D01*
D02*
G37*
G36*
X237512D02*
X236331D01*
Y370406D01*
X237512D01*
Y367256D01*
D02*
G37*
G36*
X232394D02*
X231213D01*
Y370406D01*
X232394D01*
Y367256D01*
D02*
G37*
G36*
X482492Y366469D02*
X479343D01*
Y367650D01*
X482492D01*
Y366469D01*
D02*
G37*
G36*
X364382D02*
X361232D01*
Y367650D01*
X364382D01*
Y366469D01*
D02*
G37*
G36*
X246272D02*
X243122D01*
Y367650D01*
X246272D01*
Y366469D01*
D02*
G37*
G36*
X531114Y366370D02*
X529933D01*
Y369520D01*
X531114D01*
Y366370D01*
D02*
G37*
G36*
X525996D02*
X524815D01*
Y369520D01*
X525996D01*
Y366370D01*
D02*
G37*
G36*
X413003D02*
X411822D01*
Y369520D01*
X413003D01*
Y366370D01*
D02*
G37*
G36*
X407885D02*
X406704D01*
Y369520D01*
X407885D01*
Y366370D01*
D02*
G37*
G36*
X294893D02*
X293712D01*
Y369520D01*
X294893D01*
Y366370D01*
D02*
G37*
G36*
X289775D02*
X288594D01*
Y369520D01*
X289775D01*
Y366370D01*
D02*
G37*
G36*
X529539Y365878D02*
X526390D01*
Y367059D01*
X529539D01*
Y365878D01*
D02*
G37*
G36*
X411429D02*
X408280D01*
Y367059D01*
X411429D01*
Y365878D01*
D02*
G37*
G36*
X293319D02*
X290169D01*
Y367059D01*
X293319D01*
Y365878D01*
D02*
G37*
G36*
X543108Y361057D02*
X539959D01*
Y362238D01*
X543108D01*
Y361057D01*
D02*
G37*
G36*
X424998D02*
X421848D01*
Y362238D01*
X424998D01*
Y361057D01*
D02*
G37*
G36*
X306888D02*
X303738D01*
Y362238D01*
X306888D01*
Y361057D01*
D02*
G37*
G36*
X473634Y359677D02*
X472453D01*
Y362827D01*
X473634D01*
Y359677D01*
D02*
G37*
G36*
X468516D02*
X467335D01*
Y362827D01*
X468516D01*
Y359677D01*
D02*
G37*
G36*
X355524D02*
X354343D01*
Y362827D01*
X355524D01*
Y359677D01*
D02*
G37*
G36*
X350406D02*
X349224D01*
Y362827D01*
X350406D01*
Y359677D01*
D02*
G37*
G36*
X237413D02*
X236232D01*
Y362827D01*
X237413D01*
Y359677D01*
D02*
G37*
G36*
X232295D02*
X231114D01*
Y362827D01*
X232295D01*
Y359677D01*
D02*
G37*
G36*
X536429Y358594D02*
X535347D01*
Y356626D01*
X534166D01*
Y358594D01*
X533280D01*
Y359776D01*
X536429D01*
Y358594D01*
D02*
G37*
G36*
X418319D02*
X417237D01*
Y356626D01*
X416055D01*
Y358594D01*
X415169D01*
Y359776D01*
X418319D01*
Y358594D01*
D02*
G37*
G36*
X300209D02*
X299126D01*
Y356626D01*
X297945D01*
Y358594D01*
X297059D01*
Y359776D01*
X300209D01*
Y358594D01*
D02*
G37*
G36*
X540465Y357120D02*
X543136D01*
Y355939D01*
X539986D01*
Y356626D01*
X539284D01*
Y359776D01*
X540465D01*
Y357120D01*
D02*
G37*
G36*
X422355D02*
X425026D01*
Y355939D01*
X421876D01*
Y356626D01*
X421174D01*
Y359776D01*
X422355D01*
Y357120D01*
D02*
G37*
G36*
X304244D02*
X306915D01*
Y355939D01*
X303766D01*
Y356626D01*
X303063D01*
Y359776D01*
X304244D01*
Y357120D01*
D02*
G37*
G36*
X477276Y354658D02*
X474126D01*
Y355839D01*
X477276D01*
Y354658D01*
D02*
G37*
G36*
X359165D02*
X356016D01*
Y355839D01*
X359165D01*
Y354658D01*
D02*
G37*
G36*
X241055D02*
X237906D01*
Y355839D01*
X241055D01*
Y354658D01*
D02*
G37*
G36*
X536429Y353476D02*
X533280D01*
Y354658D01*
X536429D01*
Y353476D01*
D02*
G37*
G36*
X418319D02*
X415169D01*
Y354658D01*
X418319D01*
Y353476D01*
D02*
G37*
G36*
X300209D02*
X297059D01*
Y354658D01*
X300209D01*
Y353476D01*
D02*
G37*
G36*
X473634Y352295D02*
X472453D01*
Y355445D01*
X473634D01*
Y352295D01*
D02*
G37*
G36*
X468516D02*
X467335D01*
Y355445D01*
X468516D01*
Y352295D01*
D02*
G37*
G36*
X355524D02*
X354343D01*
Y355445D01*
X355524D01*
Y352295D01*
D02*
G37*
G36*
X350406D02*
X349224D01*
Y355445D01*
X350406D01*
Y352295D01*
D02*
G37*
G36*
X237413D02*
X236232D01*
Y355445D01*
X237413D01*
Y352295D01*
D02*
G37*
G36*
X232295D02*
X231114D01*
Y355445D01*
X232295D01*
Y352295D01*
D02*
G37*
G36*
X477276Y349540D02*
X474126D01*
Y350721D01*
X477276D01*
Y349540D01*
D02*
G37*
G36*
X359165D02*
X356016D01*
Y350721D01*
X359165D01*
Y349540D01*
D02*
G37*
G36*
X241055D02*
X237906D01*
Y350721D01*
X241055D01*
Y349540D01*
D02*
G37*
G36*
X532394Y341665D02*
X529244D01*
Y342846D01*
X532394D01*
Y341665D01*
D02*
G37*
G36*
X414283D02*
X411134D01*
Y342846D01*
X414283D01*
Y341665D01*
D02*
G37*
G36*
X296173D02*
X293024D01*
Y342846D01*
X296173D01*
Y341665D01*
D02*
G37*
G36*
X543713Y339992D02*
X540563D01*
Y341173D01*
X543713D01*
Y339992D01*
D02*
G37*
G36*
X425602D02*
X422453D01*
Y341173D01*
X425602D01*
Y339992D01*
D02*
G37*
G36*
X307492D02*
X304343D01*
Y341173D01*
X307492D01*
Y339992D01*
D02*
G37*
G36*
X469697Y336843D02*
X466547D01*
Y338024D01*
X469697D01*
Y336843D01*
D02*
G37*
G36*
X351587D02*
X348437D01*
Y338024D01*
X351587D01*
Y336843D01*
D02*
G37*
G36*
X233476D02*
X230327D01*
Y338024D01*
X233476D01*
Y336843D01*
D02*
G37*
G36*
X462217Y336842D02*
X459067D01*
Y338024D01*
X462217D01*
Y336842D01*
D02*
G37*
G36*
X344106D02*
X340957D01*
Y338024D01*
X344106D01*
Y336842D01*
D02*
G37*
G36*
X225996D02*
X222846D01*
Y338024D01*
X225996D01*
Y336842D01*
D02*
G37*
G36*
X532394Y336547D02*
X529244D01*
Y337728D01*
X532394D01*
Y336547D01*
D02*
G37*
G36*
X414283D02*
X411134D01*
Y337728D01*
X414283D01*
Y336547D01*
D02*
G37*
G36*
X296173D02*
X293024D01*
Y337728D01*
X296173D01*
Y336547D01*
D02*
G37*
G36*
X543713Y334874D02*
X540563D01*
Y336055D01*
X543713D01*
Y334874D01*
D02*
G37*
G36*
X425602D02*
X422453D01*
Y336055D01*
X425602D01*
Y334874D01*
D02*
G37*
G36*
X307492D02*
X304343D01*
Y336055D01*
X307492D01*
Y334874D01*
D02*
G37*
G36*
X469697Y331725D02*
X466547D01*
Y332906D01*
X469697D01*
Y331725D01*
D02*
G37*
G36*
X351587D02*
X348437D01*
Y332906D01*
X351587D01*
Y331725D01*
D02*
G37*
G36*
X233476D02*
X230327D01*
Y332906D01*
X233476D01*
Y331725D01*
D02*
G37*
G36*
X462217Y331724D02*
X459067D01*
Y332906D01*
X462217D01*
Y331724D01*
D02*
G37*
G36*
X344106D02*
X340957D01*
Y332906D01*
X344106D01*
Y331724D01*
D02*
G37*
G36*
X225996D02*
X222846D01*
Y332906D01*
X225996D01*
Y331724D01*
D02*
G37*
G36*
X519205Y329067D02*
X516055D01*
Y330248D01*
X519205D01*
Y329067D01*
D02*
G37*
G36*
X401094D02*
X397945D01*
Y330248D01*
X401094D01*
Y329067D01*
D02*
G37*
G36*
X282984D02*
X279835D01*
Y330248D01*
X282984D01*
Y329067D01*
D02*
G37*
G36*
X526390Y328969D02*
X523240D01*
Y330150D01*
X526390D01*
Y328969D01*
D02*
G37*
G36*
X408280D02*
X405130D01*
Y330150D01*
X408280D01*
Y328969D01*
D02*
G37*
G36*
X290169D02*
X287020D01*
Y330150D01*
X290169D01*
Y328969D01*
D02*
G37*
G36*
X542433Y328378D02*
X541252D01*
Y331527D01*
X542433D01*
Y328378D01*
D02*
G37*
G36*
X537315D02*
X536133D01*
Y331527D01*
X537315D01*
Y328378D01*
D02*
G37*
G36*
X424322D02*
X423141D01*
Y331527D01*
X424322D01*
Y328378D01*
D02*
G37*
G36*
X419204D02*
X418023D01*
Y331527D01*
X419204D01*
Y328378D01*
D02*
G37*
G36*
X306212D02*
X305031D01*
Y331527D01*
X306212D01*
Y328378D01*
D02*
G37*
G36*
X301094D02*
X299913D01*
Y331527D01*
X301094D01*
Y328378D01*
D02*
G37*
G36*
X482394Y325819D02*
X479244D01*
Y327000D01*
X482394D01*
Y325819D01*
D02*
G37*
G36*
X364283D02*
X361134D01*
Y327000D01*
X364283D01*
Y325819D01*
D02*
G37*
G36*
X246173D02*
X243024D01*
Y327000D01*
X246173D01*
Y325819D01*
D02*
G37*
G36*
X492335Y325327D02*
X489185D01*
Y326508D01*
X492335D01*
Y325327D01*
D02*
G37*
G36*
X374224D02*
X371075D01*
Y326508D01*
X374224D01*
Y325327D01*
D02*
G37*
G36*
X256114D02*
X252965D01*
Y326508D01*
X256114D01*
Y325327D01*
D02*
G37*
G36*
X507197Y324638D02*
X504047D01*
Y325819D01*
X507197D01*
Y324638D01*
D02*
G37*
G36*
X389087D02*
X385937D01*
Y325819D01*
X389087D01*
Y324638D01*
D02*
G37*
G36*
X270976D02*
X267827D01*
Y325819D01*
X270976D01*
Y324638D01*
D02*
G37*
G36*
X519205Y323949D02*
X516055D01*
Y325130D01*
X519205D01*
Y323949D01*
D02*
G37*
G36*
X401094D02*
X397945D01*
Y325130D01*
X401094D01*
Y323949D01*
D02*
G37*
G36*
X282984D02*
X279835D01*
Y325130D01*
X282984D01*
Y323949D01*
D02*
G37*
G36*
X526390Y323850D02*
X523240D01*
Y325031D01*
X526390D01*
Y323850D01*
D02*
G37*
G36*
X408280D02*
X405130D01*
Y325031D01*
X408280D01*
Y323850D01*
D02*
G37*
G36*
X290169D02*
X287020D01*
Y325031D01*
X290169D01*
Y323850D01*
D02*
G37*
G36*
X469795Y323654D02*
X466646D01*
Y324835D01*
X469795D01*
Y323654D01*
D02*
G37*
G36*
X351685D02*
X348535D01*
Y324835D01*
X351685D01*
Y323654D01*
D02*
G37*
G36*
X233575D02*
X230425D01*
Y324835D01*
X233575D01*
Y323654D01*
D02*
G37*
G36*
X462020Y323654D02*
X458870D01*
Y324835D01*
X462020D01*
Y323654D01*
D02*
G37*
G36*
X343909D02*
X340760D01*
Y324835D01*
X343909D01*
Y323654D01*
D02*
G37*
G36*
X225799D02*
X222650D01*
Y324835D01*
X225799D01*
Y323654D01*
D02*
G37*
G36*
X482394Y320701D02*
X479244D01*
Y321882D01*
X482394D01*
Y320701D01*
D02*
G37*
G36*
X364283D02*
X361134D01*
Y321882D01*
X364283D01*
Y320701D01*
D02*
G37*
G36*
X246173D02*
X243024D01*
Y321882D01*
X246173D01*
Y320701D01*
D02*
G37*
G36*
X492335Y320209D02*
X489185D01*
Y321390D01*
X492335D01*
Y320209D01*
D02*
G37*
G36*
X374224D02*
X371075D01*
Y321390D01*
X374224D01*
Y320209D01*
D02*
G37*
G36*
X256114D02*
X252965D01*
Y321390D01*
X256114D01*
Y320209D01*
D02*
G37*
G36*
X542531Y319913D02*
X541350D01*
Y323063D01*
X542531D01*
Y319913D01*
D02*
G37*
G36*
X537413D02*
X536232D01*
Y323063D01*
X537413D01*
Y319913D01*
D02*
G37*
G36*
X424421D02*
X423240D01*
Y323063D01*
X424421D01*
Y319913D01*
D02*
G37*
G36*
X419303D02*
X418122D01*
Y323063D01*
X419303D01*
Y319913D01*
D02*
G37*
G36*
X306311D02*
X305130D01*
Y323063D01*
X306311D01*
Y319913D01*
D02*
G37*
G36*
X301192D02*
X300011D01*
Y323063D01*
X301192D01*
Y319913D01*
D02*
G37*
G36*
X507197Y319520D02*
X504047D01*
Y320701D01*
X507197D01*
Y319520D01*
D02*
G37*
G36*
X389087D02*
X385937D01*
Y320701D01*
X389087D01*
Y319520D01*
D02*
G37*
G36*
X270976D02*
X267827D01*
Y320701D01*
X270976D01*
Y319520D01*
D02*
G37*
G36*
X469795Y318536D02*
X466646D01*
Y319717D01*
X469795D01*
Y318536D01*
D02*
G37*
G36*
X351685D02*
X348535D01*
Y319717D01*
X351685D01*
Y318536D01*
D02*
G37*
G36*
X233575D02*
X230425D01*
Y319717D01*
X233575D01*
Y318536D01*
D02*
G37*
G36*
X462020Y318535D02*
X458870D01*
Y319717D01*
X462020D01*
Y318535D01*
D02*
G37*
G36*
X343909D02*
X340760D01*
Y319717D01*
X343909D01*
Y318535D01*
D02*
G37*
G36*
X225799D02*
X222650D01*
Y319717D01*
X225799D01*
Y318535D01*
D02*
G37*
G36*
X482197Y312434D02*
X479047D01*
Y313615D01*
X482197D01*
Y312434D01*
D02*
G37*
G36*
X364087D02*
X360937D01*
Y313615D01*
X364087D01*
Y312434D01*
D02*
G37*
G36*
X245976D02*
X242827D01*
Y313615D01*
X245976D01*
Y312434D01*
D02*
G37*
G36*
X515661Y312236D02*
X512512D01*
Y313417D01*
X515661D01*
Y312236D01*
D02*
G37*
G36*
X397551D02*
X394402D01*
Y313417D01*
X397551D01*
Y312236D01*
D02*
G37*
G36*
X279441D02*
X276291D01*
Y313417D01*
X279441D01*
Y312236D01*
D02*
G37*
G36*
X528949Y311055D02*
X525799D01*
Y312237D01*
X528949D01*
Y311055D01*
D02*
G37*
G36*
X410839D02*
X407689D01*
Y312237D01*
X410839D01*
Y311055D01*
D02*
G37*
G36*
X292728D02*
X289579D01*
Y312237D01*
X292728D01*
Y311055D01*
D02*
G37*
G36*
X482197Y307315D02*
X479047D01*
Y308496D01*
X482197D01*
Y307315D01*
D02*
G37*
G36*
X364087D02*
X360937D01*
Y308496D01*
X364087D01*
Y307315D01*
D02*
G37*
G36*
X245976D02*
X242827D01*
Y308496D01*
X245976D01*
Y307315D01*
D02*
G37*
G36*
X515661Y307118D02*
X512512D01*
Y308299D01*
X515661D01*
Y307118D01*
D02*
G37*
G36*
X397551D02*
X394402D01*
Y308299D01*
X397551D01*
Y307118D01*
D02*
G37*
G36*
X279441D02*
X276291D01*
Y308299D01*
X279441D01*
Y307118D01*
D02*
G37*
G36*
X528949Y305937D02*
X525799D01*
Y307119D01*
X528949D01*
Y305937D01*
D02*
G37*
G36*
X410839D02*
X407689D01*
Y307119D01*
X410839D01*
Y305937D01*
D02*
G37*
G36*
X292728D02*
X289579D01*
Y307119D01*
X292728D01*
Y305937D01*
D02*
G37*
G36*
X547846Y237236D02*
X546665D01*
Y240386D01*
X547846D01*
Y237236D01*
D02*
G37*
G36*
X542728D02*
X541547D01*
Y240386D01*
X542728D01*
Y237236D01*
D02*
G37*
G36*
X505622D02*
X504441D01*
Y240386D01*
X505622D01*
Y237236D01*
D02*
G37*
G36*
X500504D02*
X499323D01*
Y240386D01*
X500504D01*
Y237236D01*
D02*
G37*
G36*
X465268D02*
X464087D01*
Y240386D01*
X465268D01*
Y237236D01*
D02*
G37*
G36*
X460150D02*
X458968D01*
Y240386D01*
X460150D01*
Y237236D01*
D02*
G37*
G36*
X429736D02*
X428555D01*
Y240386D01*
X429736D01*
Y237236D01*
D02*
G37*
G36*
X424618D02*
X423437D01*
Y240386D01*
X424618D01*
Y237236D01*
D02*
G37*
G36*
X387512D02*
X386331D01*
Y240386D01*
X387512D01*
Y237236D01*
D02*
G37*
G36*
X382394D02*
X381213D01*
Y240386D01*
X382394D01*
Y237236D01*
D02*
G37*
G36*
X347158D02*
X345976D01*
Y240386D01*
X347158D01*
Y237236D01*
D02*
G37*
G36*
X342039D02*
X340858D01*
Y240386D01*
X342039D01*
Y237236D01*
D02*
G37*
G36*
X311626D02*
X310445D01*
Y240386D01*
X311626D01*
Y237236D01*
D02*
G37*
G36*
X306508D02*
X305327D01*
Y240386D01*
X306508D01*
Y237236D01*
D02*
G37*
G36*
X269402D02*
X268220D01*
Y240386D01*
X269402D01*
Y237236D01*
D02*
G37*
G36*
X264283D02*
X263102D01*
Y240386D01*
X264283D01*
Y237236D01*
D02*
G37*
G36*
X229047D02*
X227866D01*
Y240386D01*
X229047D01*
Y237236D01*
D02*
G37*
G36*
X223929D02*
X222748D01*
Y240386D01*
X223929D01*
Y237236D01*
D02*
G37*
G36*
X528949Y231232D02*
X525799D01*
Y232413D01*
X528949D01*
Y231232D01*
D02*
G37*
G36*
X518811D02*
X515661D01*
Y232413D01*
X518811D01*
Y231232D01*
D02*
G37*
G36*
X410839D02*
X407689D01*
Y232413D01*
X410839D01*
Y231232D01*
D02*
G37*
G36*
X400701D02*
X397551D01*
Y232413D01*
X400701D01*
Y231232D01*
D02*
G37*
G36*
X292728D02*
X289579D01*
Y232413D01*
X292728D01*
Y231232D01*
D02*
G37*
G36*
X282591D02*
X279441D01*
Y232413D01*
X282591D01*
Y231232D01*
D02*
G37*
G36*
X485642Y229658D02*
X482492D01*
Y230839D01*
X485642D01*
Y229658D01*
D02*
G37*
G36*
X367531D02*
X364382D01*
Y230839D01*
X367531D01*
Y229658D01*
D02*
G37*
G36*
X249421D02*
X246272D01*
Y230839D01*
X249421D01*
Y229658D01*
D02*
G37*
G36*
X528949Y226114D02*
X525799D01*
Y227295D01*
X528949D01*
Y226114D01*
D02*
G37*
G36*
X518811D02*
X515661D01*
Y227295D01*
X518811D01*
Y226114D01*
D02*
G37*
G36*
X410839D02*
X407689D01*
Y227295D01*
X410839D01*
Y226114D01*
D02*
G37*
G36*
X400701D02*
X397551D01*
Y227295D01*
X400701D01*
Y226114D01*
D02*
G37*
G36*
X292728D02*
X289579D01*
Y227295D01*
X292728D01*
Y226114D01*
D02*
G37*
G36*
X282591D02*
X279441D01*
Y227295D01*
X282591D01*
Y226114D01*
D02*
G37*
G36*
X485642Y224539D02*
X482492D01*
Y225721D01*
X485642D01*
Y224539D01*
D02*
G37*
G36*
X367531D02*
X364382D01*
Y225721D01*
X367531D01*
Y224539D01*
D02*
G37*
G36*
X249421D02*
X246272D01*
Y225721D01*
X249421D01*
Y224539D01*
D02*
G37*
G36*
X517531Y217158D02*
X516350D01*
Y220307D01*
X517531D01*
Y217158D01*
D02*
G37*
G36*
X512413D02*
X511232D01*
Y220307D01*
X512413D01*
Y217158D01*
D02*
G37*
G36*
X399421D02*
X398240D01*
Y220307D01*
X399421D01*
Y217158D01*
D02*
G37*
G36*
X394303D02*
X393122D01*
Y220307D01*
X394303D01*
Y217158D01*
D02*
G37*
G36*
X281311D02*
X280130D01*
Y220307D01*
X281311D01*
Y217158D01*
D02*
G37*
G36*
X276193D02*
X275012D01*
Y220307D01*
X276193D01*
Y217158D01*
D02*
G37*
G36*
X485642Y216469D02*
X482492D01*
Y217650D01*
X485642D01*
Y216469D01*
D02*
G37*
G36*
X478358D02*
X475209D01*
Y217650D01*
X478358D01*
Y216469D01*
D02*
G37*
G36*
X367531D02*
X364382D01*
Y217650D01*
X367531D01*
Y216469D01*
D02*
G37*
G36*
X360248D02*
X357098D01*
Y217650D01*
X360248D01*
Y216469D01*
D02*
G37*
G36*
X249421D02*
X246272D01*
Y217650D01*
X249421D01*
Y216469D01*
D02*
G37*
G36*
X242138D02*
X238988D01*
Y217650D01*
X242138D01*
Y216469D01*
D02*
G37*
G36*
X529047Y215287D02*
X525898D01*
Y216469D01*
X529047D01*
Y215287D01*
D02*
G37*
G36*
X410937D02*
X407787D01*
Y216469D01*
X410937D01*
Y215287D01*
D02*
G37*
G36*
X292827D02*
X289677D01*
Y216469D01*
X292827D01*
Y215287D01*
D02*
G37*
G36*
X536823Y214894D02*
X533673D01*
Y216075D01*
X536823D01*
Y214894D01*
D02*
G37*
G36*
X418713D02*
X415563D01*
Y216075D01*
X418713D01*
Y214894D01*
D02*
G37*
G36*
X300602D02*
X297453D01*
Y216075D01*
X300602D01*
Y214894D01*
D02*
G37*
G36*
X501488Y214697D02*
X500307D01*
Y217846D01*
X501488D01*
Y214697D01*
D02*
G37*
G36*
X496370D02*
X495189D01*
Y217846D01*
X496370D01*
Y214697D01*
D02*
G37*
G36*
X383378D02*
X382197D01*
Y217846D01*
X383378D01*
Y214697D01*
D02*
G37*
G36*
X378260D02*
X377079D01*
Y217846D01*
X378260D01*
Y214697D01*
D02*
G37*
G36*
X265268D02*
X264087D01*
Y217846D01*
X265268D01*
Y214697D01*
D02*
G37*
G36*
X260150D02*
X258968D01*
Y217846D01*
X260150D01*
Y214697D01*
D02*
G37*
G36*
X551094Y214106D02*
X549913D01*
Y217256D01*
X551094D01*
Y214106D01*
D02*
G37*
G36*
X545976D02*
X544795D01*
Y217256D01*
X545976D01*
Y214106D01*
D02*
G37*
G36*
X432984D02*
X431803D01*
Y217256D01*
X432984D01*
Y214106D01*
D02*
G37*
G36*
X427866D02*
X426685D01*
Y217256D01*
X427866D01*
Y214106D01*
D02*
G37*
G36*
X314874D02*
X313693D01*
Y217256D01*
X314874D01*
Y214106D01*
D02*
G37*
G36*
X309756D02*
X308575D01*
Y217256D01*
X309756D01*
Y214106D01*
D02*
G37*
G36*
X468122Y213319D02*
X466941D01*
Y216469D01*
X468122D01*
Y213319D01*
D02*
G37*
G36*
X463004D02*
X461823D01*
Y216469D01*
X463004D01*
Y213319D01*
D02*
G37*
G36*
X350012D02*
X348831D01*
Y216469D01*
X350012D01*
Y213319D01*
D02*
G37*
G36*
X344894D02*
X343713D01*
Y216469D01*
X344894D01*
Y213319D01*
D02*
G37*
G36*
X231902D02*
X230720D01*
Y216469D01*
X231902D01*
Y213319D01*
D02*
G37*
G36*
X226783D02*
X225602D01*
Y216469D01*
X226783D01*
Y213319D01*
D02*
G37*
G36*
X485642Y211350D02*
X482492D01*
Y212531D01*
X485642D01*
Y211350D01*
D02*
G37*
G36*
X478358D02*
X475209D01*
Y212531D01*
X478358D01*
Y211350D01*
D02*
G37*
G36*
X367531D02*
X364382D01*
Y212531D01*
X367531D01*
Y211350D01*
D02*
G37*
G36*
X360248D02*
X357098D01*
Y212531D01*
X360248D01*
Y211350D01*
D02*
G37*
G36*
X249421D02*
X246272D01*
Y212531D01*
X249421D01*
Y211350D01*
D02*
G37*
G36*
X242138D02*
X238988D01*
Y212531D01*
X242138D01*
Y211350D01*
D02*
G37*
G36*
X529047Y210169D02*
X525898D01*
Y211350D01*
X529047D01*
Y210169D01*
D02*
G37*
G36*
X410937D02*
X407787D01*
Y211350D01*
X410937D01*
Y210169D01*
D02*
G37*
G36*
X292827D02*
X289677D01*
Y211350D01*
X292827D01*
Y210169D01*
D02*
G37*
G36*
X536823Y209776D02*
X533673D01*
Y210957D01*
X536823D01*
Y209776D01*
D02*
G37*
G36*
X418713D02*
X415563D01*
Y210957D01*
X418713D01*
Y209776D01*
D02*
G37*
G36*
X300602D02*
X297453D01*
Y210957D01*
X300602D01*
Y209776D01*
D02*
G37*
G36*
X517630Y208988D02*
X516449D01*
Y212138D01*
X517630D01*
Y208988D01*
D02*
G37*
G36*
X512512D02*
X511331D01*
Y212138D01*
X512512D01*
Y208988D01*
D02*
G37*
G36*
X399520D02*
X398339D01*
Y212138D01*
X399520D01*
Y208988D01*
D02*
G37*
G36*
X394402D02*
X393220D01*
Y212138D01*
X394402D01*
Y208988D01*
D02*
G37*
G36*
X281409D02*
X280228D01*
Y212138D01*
X281409D01*
Y208988D01*
D02*
G37*
G36*
X276291D02*
X275110D01*
Y212138D01*
X276291D01*
Y208988D01*
D02*
G37*
G36*
X501390Y208398D02*
X500209D01*
Y211547D01*
X501390D01*
Y208398D01*
D02*
G37*
G36*
X496272D02*
X495090D01*
Y211547D01*
X496272D01*
Y208398D01*
D02*
G37*
G36*
X383279D02*
X382098D01*
Y211547D01*
X383279D01*
Y208398D01*
D02*
G37*
G36*
X378161D02*
X376980D01*
Y211547D01*
X378161D01*
Y208398D01*
D02*
G37*
G36*
X265169D02*
X263988D01*
Y211547D01*
X265169D01*
Y208398D01*
D02*
G37*
G36*
X260051D02*
X258870D01*
Y211547D01*
X260051D01*
Y208398D01*
D02*
G37*
G36*
X550996Y208102D02*
X549815D01*
Y211252D01*
X550996D01*
Y208102D01*
D02*
G37*
G36*
X545878D02*
X544697D01*
Y211252D01*
X545878D01*
Y208102D01*
D02*
G37*
G36*
X432886D02*
X431705D01*
Y211252D01*
X432886D01*
Y208102D01*
D02*
G37*
G36*
X427768D02*
X426587D01*
Y211252D01*
X427768D01*
Y208102D01*
D02*
G37*
G36*
X314776D02*
X313595D01*
Y211252D01*
X314776D01*
Y208102D01*
D02*
G37*
G36*
X309658D02*
X308476D01*
Y211252D01*
X309658D01*
Y208102D01*
D02*
G37*
G36*
X468122Y205839D02*
X466941D01*
Y208988D01*
X468122D01*
Y205839D01*
D02*
G37*
G36*
X463004D02*
X461823D01*
Y208988D01*
X463004D01*
Y205839D01*
D02*
G37*
G36*
X350012D02*
X348831D01*
Y208988D01*
X350012D01*
Y205839D01*
D02*
G37*
G36*
X344894D02*
X343713D01*
Y208988D01*
X344894D01*
Y205839D01*
D02*
G37*
G36*
X231902D02*
X230720D01*
Y208988D01*
X231902D01*
Y205839D01*
D02*
G37*
G36*
X226783D02*
X225602D01*
Y208988D01*
X226783D01*
Y205839D01*
D02*
G37*
G36*
X505130Y201606D02*
X503949D01*
Y204756D01*
X505130D01*
Y201606D01*
D02*
G37*
G36*
X500012D02*
X498831D01*
Y204756D01*
X500012D01*
Y201606D01*
D02*
G37*
G36*
X387020D02*
X385839D01*
Y204756D01*
X387020D01*
Y201606D01*
D02*
G37*
G36*
X381902D02*
X380720D01*
Y204756D01*
X381902D01*
Y201606D01*
D02*
G37*
G36*
X268909D02*
X267728D01*
Y204756D01*
X268909D01*
Y201606D01*
D02*
G37*
G36*
X263791D02*
X262610D01*
Y204756D01*
X263791D01*
Y201606D01*
D02*
G37*
G36*
X551094Y196882D02*
X549913D01*
Y200031D01*
X551094D01*
Y196882D01*
D02*
G37*
G36*
X545976D02*
X544795D01*
Y200031D01*
X545976D01*
Y196882D01*
D02*
G37*
G36*
X432984D02*
X431803D01*
Y200031D01*
X432984D01*
Y196882D01*
D02*
G37*
G36*
X427866D02*
X426685D01*
Y200031D01*
X427866D01*
Y196882D01*
D02*
G37*
G36*
X314874D02*
X313693D01*
Y200031D01*
X314874D01*
Y196882D01*
D02*
G37*
G36*
X309756D02*
X308575D01*
Y200031D01*
X309756D01*
Y196882D01*
D02*
G37*
G36*
X505327Y194520D02*
X504146D01*
Y197669D01*
X505327D01*
Y194520D01*
D02*
G37*
G36*
X500209D02*
X499027D01*
Y197669D01*
X500209D01*
Y194520D01*
D02*
G37*
G36*
X387216D02*
X386035D01*
Y197669D01*
X387216D01*
Y194520D01*
D02*
G37*
G36*
X382098D02*
X380917D01*
Y197669D01*
X382098D01*
Y194520D01*
D02*
G37*
G36*
X269106D02*
X267925D01*
Y197669D01*
X269106D01*
Y194520D01*
D02*
G37*
G36*
X263988D02*
X262807D01*
Y197669D01*
X263988D01*
Y194520D01*
D02*
G37*
G36*
X467925Y189598D02*
X466744D01*
Y192748D01*
X467925D01*
Y189598D01*
D02*
G37*
G36*
X462807D02*
X461626D01*
Y192748D01*
X462807D01*
Y189598D01*
D02*
G37*
G36*
X349815D02*
X348634D01*
Y192748D01*
X349815D01*
Y189598D01*
D02*
G37*
G36*
X344697D02*
X343516D01*
Y192748D01*
X344697D01*
Y189598D01*
D02*
G37*
G36*
X231705D02*
X230524D01*
Y192748D01*
X231705D01*
Y189598D01*
D02*
G37*
G36*
X226587D02*
X225406D01*
Y192748D01*
X226587D01*
Y189598D01*
D02*
G37*
G36*
X551193Y189303D02*
X550012D01*
Y192453D01*
X551193D01*
Y189303D01*
D02*
G37*
G36*
X546075D02*
X544894D01*
Y192453D01*
X546075D01*
Y189303D01*
D02*
G37*
G36*
X433083D02*
X431902D01*
Y192453D01*
X433083D01*
Y189303D01*
D02*
G37*
G36*
X427964D02*
X426783D01*
Y192453D01*
X427964D01*
Y189303D01*
D02*
G37*
G36*
X314972D02*
X313791D01*
Y192453D01*
X314972D01*
Y189303D01*
D02*
G37*
G36*
X309854D02*
X308673D01*
Y192453D01*
X309854D01*
Y189303D01*
D02*
G37*
G36*
X476390Y189106D02*
X473240D01*
Y190287D01*
X476390D01*
Y189106D01*
D02*
G37*
G36*
X358279D02*
X355130D01*
Y190287D01*
X358279D01*
Y189106D01*
D02*
G37*
G36*
X240169D02*
X237020D01*
Y190287D01*
X240169D01*
Y189106D01*
D02*
G37*
G36*
X505130Y187728D02*
X503949D01*
Y190878D01*
X505130D01*
Y187728D01*
D02*
G37*
G36*
X500012D02*
X498831D01*
Y190878D01*
X500012D01*
Y187728D01*
D02*
G37*
G36*
X387020D02*
X385839D01*
Y190878D01*
X387020D01*
Y187728D01*
D02*
G37*
G36*
X381902D02*
X380720D01*
Y190878D01*
X381902D01*
Y187728D01*
D02*
G37*
G36*
X268909D02*
X267728D01*
Y190878D01*
X268909D01*
Y187728D01*
D02*
G37*
G36*
X263791D02*
X262610D01*
Y190878D01*
X263791D01*
Y187728D01*
D02*
G37*
G36*
X476390Y183988D02*
X473240D01*
Y185169D01*
X476390D01*
Y183988D01*
D02*
G37*
G36*
X358279D02*
X355130D01*
Y185169D01*
X358279D01*
Y183988D01*
D02*
G37*
G36*
X240169D02*
X237020D01*
Y185169D01*
X240169D01*
Y183988D01*
D02*
G37*
G36*
X551193Y181724D02*
X550012D01*
Y184874D01*
X551193D01*
Y181724D01*
D02*
G37*
G36*
X546075D02*
X544894D01*
Y184874D01*
X546075D01*
Y181724D01*
D02*
G37*
G36*
X433083D02*
X431902D01*
Y184874D01*
X433083D01*
Y181724D01*
D02*
G37*
G36*
X427964D02*
X426783D01*
Y184874D01*
X427964D01*
Y181724D01*
D02*
G37*
G36*
X314972D02*
X313791D01*
Y184874D01*
X314972D01*
Y181724D01*
D02*
G37*
G36*
X309854D02*
X308673D01*
Y184874D01*
X309854D01*
Y181724D01*
D02*
G37*
G36*
X542237Y181331D02*
X541055D01*
Y184480D01*
X542237D01*
Y181331D01*
D02*
G37*
G36*
X537118D02*
X535937D01*
Y184480D01*
X537118D01*
Y181331D01*
D02*
G37*
G36*
X424126D02*
X422945D01*
Y184480D01*
X424126D01*
Y181331D01*
D02*
G37*
G36*
X419008D02*
X417827D01*
Y184480D01*
X419008D01*
Y181331D01*
D02*
G37*
G36*
X306016D02*
X304835D01*
Y184480D01*
X306016D01*
Y181331D01*
D02*
G37*
G36*
X300898D02*
X299717D01*
Y184480D01*
X300898D01*
Y181331D01*
D02*
G37*
G36*
X467925Y180937D02*
X466744D01*
Y184087D01*
X467925D01*
Y180937D01*
D02*
G37*
G36*
X462807D02*
X461626D01*
Y184087D01*
X462807D01*
Y180937D01*
D02*
G37*
G36*
X349815D02*
X348634D01*
Y184087D01*
X349815D01*
Y180937D01*
D02*
G37*
G36*
X344697D02*
X343516D01*
Y184087D01*
X344697D01*
Y180937D01*
D02*
G37*
G36*
X231705D02*
X230524D01*
Y184087D01*
X231705D01*
Y180937D01*
D02*
G37*
G36*
X226587D02*
X225406D01*
Y184087D01*
X226587D01*
Y180937D01*
D02*
G37*
G36*
X530917Y177591D02*
X529736D01*
Y180740D01*
X530917D01*
Y177591D01*
D02*
G37*
G36*
X525799D02*
X524618D01*
Y180740D01*
X525799D01*
Y177591D01*
D02*
G37*
G36*
X412807D02*
X411626D01*
Y180740D01*
X412807D01*
Y177591D01*
D02*
G37*
G36*
X407689D02*
X406507D01*
Y180740D01*
X407689D01*
Y177591D01*
D02*
G37*
G36*
X294696D02*
X293515D01*
Y180740D01*
X294696D01*
Y177591D01*
D02*
G37*
G36*
X289578D02*
X288397D01*
Y180740D01*
X289578D01*
Y177591D01*
D02*
G37*
G36*
X488496Y175425D02*
X487315D01*
Y178575D01*
X488496D01*
Y175425D01*
D02*
G37*
G36*
X370386D02*
X369205D01*
Y178575D01*
X370386D01*
Y175425D01*
D02*
G37*
G36*
X252276D02*
X251095D01*
Y178575D01*
X252276D01*
Y175425D01*
D02*
G37*
G36*
X483378D02*
X482492D01*
Y174736D01*
X479343D01*
Y175917D01*
X482197D01*
Y178575D01*
X483378D01*
Y175425D01*
D02*
G37*
G36*
X365268D02*
X364382D01*
Y174736D01*
X361232D01*
Y175917D01*
X364087D01*
Y178575D01*
X365268D01*
Y175425D01*
D02*
G37*
G36*
X247158D02*
X246272D01*
Y174736D01*
X243122D01*
Y175917D01*
X245976D01*
Y178575D01*
X247158D01*
Y175425D01*
D02*
G37*
G36*
X529539Y174146D02*
X526390D01*
Y175327D01*
X529539D01*
Y174146D01*
D02*
G37*
G36*
X411429D02*
X408280D01*
Y175327D01*
X411429D01*
Y174146D01*
D02*
G37*
G36*
X293319D02*
X290169D01*
Y175327D01*
X293319D01*
Y174146D01*
D02*
G37*
G36*
X473732Y170405D02*
X472551D01*
Y173555D01*
X473732D01*
Y170405D01*
D02*
G37*
G36*
X468614D02*
X467433D01*
Y173555D01*
X468614D01*
Y170405D01*
D02*
G37*
G36*
X355622D02*
X354441D01*
Y173555D01*
X355622D01*
Y170405D01*
D02*
G37*
G36*
X350504D02*
X349323D01*
Y173555D01*
X350504D01*
Y170405D01*
D02*
G37*
G36*
X237512D02*
X236331D01*
Y173555D01*
X237512D01*
Y170405D01*
D02*
G37*
G36*
X232394D02*
X231213D01*
Y173555D01*
X232394D01*
Y170405D01*
D02*
G37*
G36*
X482492Y169618D02*
X479343D01*
Y170799D01*
X482492D01*
Y169618D01*
D02*
G37*
G36*
X364382D02*
X361232D01*
Y170799D01*
X364382D01*
Y169618D01*
D02*
G37*
G36*
X246272D02*
X243122D01*
Y170799D01*
X246272D01*
Y169618D01*
D02*
G37*
G36*
X531114Y169520D02*
X529933D01*
Y172669D01*
X531114D01*
Y169520D01*
D02*
G37*
G36*
X525996D02*
X524815D01*
Y172669D01*
X525996D01*
Y169520D01*
D02*
G37*
G36*
X413003D02*
X411822D01*
Y172669D01*
X413003D01*
Y169520D01*
D02*
G37*
G36*
X407885D02*
X406704D01*
Y172669D01*
X407885D01*
Y169520D01*
D02*
G37*
G36*
X294893D02*
X293712D01*
Y172669D01*
X294893D01*
Y169520D01*
D02*
G37*
G36*
X289775D02*
X288594D01*
Y172669D01*
X289775D01*
Y169520D01*
D02*
G37*
G36*
X529539Y169028D02*
X526390D01*
Y170209D01*
X529539D01*
Y169028D01*
D02*
G37*
G36*
X411429D02*
X408280D01*
Y170209D01*
X411429D01*
Y169028D01*
D02*
G37*
G36*
X293319D02*
X290169D01*
Y170209D01*
X293319D01*
Y169028D01*
D02*
G37*
G36*
X543108Y164206D02*
X539959D01*
Y165387D01*
X543108D01*
Y164206D01*
D02*
G37*
G36*
X424998D02*
X421848D01*
Y165387D01*
X424998D01*
Y164206D01*
D02*
G37*
G36*
X306888D02*
X303738D01*
Y165387D01*
X306888D01*
Y164206D01*
D02*
G37*
G36*
X473634Y162827D02*
X472453D01*
Y165976D01*
X473634D01*
Y162827D01*
D02*
G37*
G36*
X468516D02*
X467335D01*
Y165976D01*
X468516D01*
Y162827D01*
D02*
G37*
G36*
X355524D02*
X354343D01*
Y165976D01*
X355524D01*
Y162827D01*
D02*
G37*
G36*
X350406D02*
X349224D01*
Y165976D01*
X350406D01*
Y162827D01*
D02*
G37*
G36*
X237413D02*
X236232D01*
Y165976D01*
X237413D01*
Y162827D01*
D02*
G37*
G36*
X232295D02*
X231114D01*
Y165976D01*
X232295D01*
Y162827D01*
D02*
G37*
G36*
X536429Y161744D02*
X535347D01*
Y159776D01*
X534166D01*
Y161744D01*
X533280D01*
Y162925D01*
X536429D01*
Y161744D01*
D02*
G37*
G36*
X418319D02*
X417237D01*
Y159776D01*
X416055D01*
Y161744D01*
X415169D01*
Y162925D01*
X418319D01*
Y161744D01*
D02*
G37*
G36*
X300209D02*
X299126D01*
Y159776D01*
X297945D01*
Y161744D01*
X297059D01*
Y162925D01*
X300209D01*
Y161744D01*
D02*
G37*
G36*
X540465Y160269D02*
X543136D01*
Y159088D01*
X539986D01*
Y159776D01*
X539284D01*
Y162925D01*
X540465D01*
Y160269D01*
D02*
G37*
G36*
X422355D02*
X425026D01*
Y159088D01*
X421876D01*
Y159776D01*
X421174D01*
Y162925D01*
X422355D01*
Y160269D01*
D02*
G37*
G36*
X304244D02*
X306915D01*
Y159088D01*
X303766D01*
Y159776D01*
X303063D01*
Y162925D01*
X304244D01*
Y160269D01*
D02*
G37*
G36*
X477276Y157808D02*
X474126D01*
Y158989D01*
X477276D01*
Y157808D01*
D02*
G37*
G36*
X359165D02*
X356016D01*
Y158989D01*
X359165D01*
Y157808D01*
D02*
G37*
G36*
X241055D02*
X237906D01*
Y158989D01*
X241055D01*
Y157808D01*
D02*
G37*
G36*
X536429Y156626D02*
X533280D01*
Y157807D01*
X536429D01*
Y156626D01*
D02*
G37*
G36*
X418319D02*
X415169D01*
Y157807D01*
X418319D01*
Y156626D01*
D02*
G37*
G36*
X300209D02*
X297059D01*
Y157807D01*
X300209D01*
Y156626D01*
D02*
G37*
G36*
X473634Y155445D02*
X472453D01*
Y158595D01*
X473634D01*
Y155445D01*
D02*
G37*
G36*
X468516D02*
X467335D01*
Y158595D01*
X468516D01*
Y155445D01*
D02*
G37*
G36*
X355524D02*
X354343D01*
Y158595D01*
X355524D01*
Y155445D01*
D02*
G37*
G36*
X350406D02*
X349224D01*
Y158595D01*
X350406D01*
Y155445D01*
D02*
G37*
G36*
X237413D02*
X236232D01*
Y158595D01*
X237413D01*
Y155445D01*
D02*
G37*
G36*
X232295D02*
X231114D01*
Y158595D01*
X232295D01*
Y155445D01*
D02*
G37*
G36*
X477276Y152689D02*
X474126D01*
Y153870D01*
X477276D01*
Y152689D01*
D02*
G37*
G36*
X359165D02*
X356016D01*
Y153870D01*
X359165D01*
Y152689D01*
D02*
G37*
G36*
X241055D02*
X237906D01*
Y153870D01*
X241055D01*
Y152689D01*
D02*
G37*
G36*
X532394Y144815D02*
X529244D01*
Y145996D01*
X532394D01*
Y144815D01*
D02*
G37*
G36*
X414283D02*
X411134D01*
Y145996D01*
X414283D01*
Y144815D01*
D02*
G37*
G36*
X296173D02*
X293024D01*
Y145996D01*
X296173D01*
Y144815D01*
D02*
G37*
G36*
X543713Y143141D02*
X540563D01*
Y144322D01*
X543713D01*
Y143141D01*
D02*
G37*
G36*
X425602D02*
X422453D01*
Y144322D01*
X425602D01*
Y143141D01*
D02*
G37*
G36*
X307492D02*
X304343D01*
Y144322D01*
X307492D01*
Y143141D01*
D02*
G37*
G36*
X469697Y139992D02*
X466547D01*
Y141174D01*
X469697D01*
Y139992D01*
D02*
G37*
G36*
X351587D02*
X348437D01*
Y141174D01*
X351587D01*
Y139992D01*
D02*
G37*
G36*
X233476D02*
X230327D01*
Y141174D01*
X233476D01*
Y139992D01*
D02*
G37*
G36*
X462217Y139992D02*
X459067D01*
Y141173D01*
X462217D01*
Y139992D01*
D02*
G37*
G36*
X344106D02*
X340957D01*
Y141173D01*
X344106D01*
Y139992D01*
D02*
G37*
G36*
X225996D02*
X222846D01*
Y141173D01*
X225996D01*
Y139992D01*
D02*
G37*
G36*
X532394Y139696D02*
X529244D01*
Y140877D01*
X532394D01*
Y139696D01*
D02*
G37*
G36*
X414283D02*
X411134D01*
Y140877D01*
X414283D01*
Y139696D01*
D02*
G37*
G36*
X296173D02*
X293024D01*
Y140877D01*
X296173D01*
Y139696D01*
D02*
G37*
G36*
X543713Y138023D02*
X540563D01*
Y139204D01*
X543713D01*
Y138023D01*
D02*
G37*
G36*
X425602D02*
X422453D01*
Y139204D01*
X425602D01*
Y138023D01*
D02*
G37*
G36*
X307492D02*
X304343D01*
Y139204D01*
X307492D01*
Y138023D01*
D02*
G37*
G36*
X469697Y134874D02*
X466547D01*
Y136056D01*
X469697D01*
Y134874D01*
D02*
G37*
G36*
X351587D02*
X348437D01*
Y136056D01*
X351587D01*
Y134874D01*
D02*
G37*
G36*
X233476D02*
X230327D01*
Y136056D01*
X233476D01*
Y134874D01*
D02*
G37*
G36*
X462217Y134874D02*
X459067D01*
Y136055D01*
X462217D01*
Y134874D01*
D02*
G37*
G36*
X344106D02*
X340957D01*
Y136055D01*
X344106D01*
Y134874D01*
D02*
G37*
G36*
X225996D02*
X222846D01*
Y136055D01*
X225996D01*
Y134874D01*
D02*
G37*
G36*
X519205Y132217D02*
X516055D01*
Y133398D01*
X519205D01*
Y132217D01*
D02*
G37*
G36*
X401094D02*
X397945D01*
Y133398D01*
X401094D01*
Y132217D01*
D02*
G37*
G36*
X282984D02*
X279835D01*
Y133398D01*
X282984D01*
Y132217D01*
D02*
G37*
G36*
X526390Y132118D02*
X523240D01*
Y133299D01*
X526390D01*
Y132118D01*
D02*
G37*
G36*
X408280D02*
X405130D01*
Y133299D01*
X408280D01*
Y132118D01*
D02*
G37*
G36*
X290169D02*
X287020D01*
Y133299D01*
X290169D01*
Y132118D01*
D02*
G37*
G36*
X542433Y131527D02*
X541252D01*
Y134677D01*
X542433D01*
Y131527D01*
D02*
G37*
G36*
X537315D02*
X536133D01*
Y134677D01*
X537315D01*
Y131527D01*
D02*
G37*
G36*
X424322D02*
X423141D01*
Y134677D01*
X424322D01*
Y131527D01*
D02*
G37*
G36*
X419204D02*
X418023D01*
Y134677D01*
X419204D01*
Y131527D01*
D02*
G37*
G36*
X306212D02*
X305031D01*
Y134677D01*
X306212D01*
Y131527D01*
D02*
G37*
G36*
X301094D02*
X299913D01*
Y134677D01*
X301094D01*
Y131527D01*
D02*
G37*
G36*
X482394Y128969D02*
X479244D01*
Y130150D01*
X482394D01*
Y128969D01*
D02*
G37*
G36*
X364283D02*
X361134D01*
Y130150D01*
X364283D01*
Y128969D01*
D02*
G37*
G36*
X246173D02*
X243024D01*
Y130150D01*
X246173D01*
Y128969D01*
D02*
G37*
G36*
X492335Y128477D02*
X489185D01*
Y129658D01*
X492335D01*
Y128477D01*
D02*
G37*
G36*
X374224D02*
X371075D01*
Y129658D01*
X374224D01*
Y128477D01*
D02*
G37*
G36*
X256114D02*
X252965D01*
Y129658D01*
X256114D01*
Y128477D01*
D02*
G37*
G36*
X507197Y127788D02*
X504047D01*
Y128969D01*
X507197D01*
Y127788D01*
D02*
G37*
G36*
X389087D02*
X385937D01*
Y128969D01*
X389087D01*
Y127788D01*
D02*
G37*
G36*
X270976D02*
X267827D01*
Y128969D01*
X270976D01*
Y127788D01*
D02*
G37*
G36*
X519205Y127098D02*
X516055D01*
Y128279D01*
X519205D01*
Y127098D01*
D02*
G37*
G36*
X401094D02*
X397945D01*
Y128279D01*
X401094D01*
Y127098D01*
D02*
G37*
G36*
X282984D02*
X279835D01*
Y128279D01*
X282984D01*
Y127098D01*
D02*
G37*
G36*
X526390Y127000D02*
X523240D01*
Y128181D01*
X526390D01*
Y127000D01*
D02*
G37*
G36*
X408280D02*
X405130D01*
Y128181D01*
X408280D01*
Y127000D01*
D02*
G37*
G36*
X290169D02*
X287020D01*
Y128181D01*
X290169D01*
Y127000D01*
D02*
G37*
G36*
X469795Y126804D02*
X466646D01*
Y127985D01*
X469795D01*
Y126804D01*
D02*
G37*
G36*
X351685D02*
X348535D01*
Y127985D01*
X351685D01*
Y126804D01*
D02*
G37*
G36*
X233575D02*
X230425D01*
Y127985D01*
X233575D01*
Y126804D01*
D02*
G37*
G36*
X462020Y126803D02*
X458870D01*
Y127984D01*
X462020D01*
Y126803D01*
D02*
G37*
G36*
X343909D02*
X340760D01*
Y127984D01*
X343909D01*
Y126803D01*
D02*
G37*
G36*
X225799D02*
X222650D01*
Y127984D01*
X225799D01*
Y126803D01*
D02*
G37*
G36*
X482394Y123851D02*
X479244D01*
Y125032D01*
X482394D01*
Y123851D01*
D02*
G37*
G36*
X364283D02*
X361134D01*
Y125032D01*
X364283D01*
Y123851D01*
D02*
G37*
G36*
X246173D02*
X243024D01*
Y125032D01*
X246173D01*
Y123851D01*
D02*
G37*
G36*
X492335Y123359D02*
X489185D01*
Y124540D01*
X492335D01*
Y123359D01*
D02*
G37*
G36*
X374224D02*
X371075D01*
Y124540D01*
X374224D01*
Y123359D01*
D02*
G37*
G36*
X256114D02*
X252965D01*
Y124540D01*
X256114D01*
Y123359D01*
D02*
G37*
G36*
X542531Y123063D02*
X541350D01*
Y126213D01*
X542531D01*
Y123063D01*
D02*
G37*
G36*
X537413D02*
X536232D01*
Y126213D01*
X537413D01*
Y123063D01*
D02*
G37*
G36*
X424421D02*
X423240D01*
Y126213D01*
X424421D01*
Y123063D01*
D02*
G37*
G36*
X419303D02*
X418122D01*
Y126213D01*
X419303D01*
Y123063D01*
D02*
G37*
G36*
X306311D02*
X305130D01*
Y126213D01*
X306311D01*
Y123063D01*
D02*
G37*
G36*
X301192D02*
X300011D01*
Y126213D01*
X301192D01*
Y123063D01*
D02*
G37*
G36*
X507197Y122670D02*
X504047D01*
Y123851D01*
X507197D01*
Y122670D01*
D02*
G37*
G36*
X389087D02*
X385937D01*
Y123851D01*
X389087D01*
Y122670D01*
D02*
G37*
G36*
X270976D02*
X267827D01*
Y123851D01*
X270976D01*
Y122670D01*
D02*
G37*
G36*
X469795Y121685D02*
X466646D01*
Y122866D01*
X469795D01*
Y121685D01*
D02*
G37*
G36*
X351685D02*
X348535D01*
Y122866D01*
X351685D01*
Y121685D01*
D02*
G37*
G36*
X233575D02*
X230425D01*
Y122866D01*
X233575D01*
Y121685D01*
D02*
G37*
G36*
X462020Y121685D02*
X458870D01*
Y122866D01*
X462020D01*
Y121685D01*
D02*
G37*
G36*
X343909D02*
X340760D01*
Y122866D01*
X343909D01*
Y121685D01*
D02*
G37*
G36*
X225799D02*
X222650D01*
Y122866D01*
X225799D01*
Y121685D01*
D02*
G37*
G36*
X482197Y115583D02*
X479047D01*
Y116764D01*
X482197D01*
Y115583D01*
D02*
G37*
G36*
X364087D02*
X360937D01*
Y116764D01*
X364087D01*
Y115583D01*
D02*
G37*
G36*
X245976D02*
X242827D01*
Y116764D01*
X245976D01*
Y115583D01*
D02*
G37*
G36*
X515661Y115385D02*
X512512D01*
Y116567D01*
X515661D01*
Y115385D01*
D02*
G37*
G36*
X397551D02*
X394402D01*
Y116567D01*
X397551D01*
Y115385D01*
D02*
G37*
G36*
X279441D02*
X276291D01*
Y116567D01*
X279441D01*
Y115385D01*
D02*
G37*
G36*
X528949Y114205D02*
X525799D01*
Y115386D01*
X528949D01*
Y114205D01*
D02*
G37*
G36*
X410839D02*
X407689D01*
Y115386D01*
X410839D01*
Y114205D01*
D02*
G37*
G36*
X292728D02*
X289579D01*
Y115386D01*
X292728D01*
Y114205D01*
D02*
G37*
G36*
X482197Y110465D02*
X479047D01*
Y111646D01*
X482197D01*
Y110465D01*
D02*
G37*
G36*
X364087D02*
X360937D01*
Y111646D01*
X364087D01*
Y110465D01*
D02*
G37*
G36*
X245976D02*
X242827D01*
Y111646D01*
X245976D01*
Y110465D01*
D02*
G37*
G36*
X515661Y110267D02*
X512512D01*
Y111448D01*
X515661D01*
Y110267D01*
D02*
G37*
G36*
X397551D02*
X394402D01*
Y111448D01*
X397551D01*
Y110267D01*
D02*
G37*
G36*
X279441D02*
X276291D01*
Y111448D01*
X279441D01*
Y110267D01*
D02*
G37*
G36*
X528949Y109087D02*
X525799D01*
Y110268D01*
X528949D01*
Y109087D01*
D02*
G37*
G36*
X410839D02*
X407689D01*
Y110268D01*
X410839D01*
Y109087D01*
D02*
G37*
G36*
X292728D02*
X289579D01*
Y110268D01*
X292728D01*
Y109087D01*
D02*
G37*
M02*
