G04*
G04 #@! TF.GenerationSoftware,Altium Limited,Altium Designer,20.1.11 (218)*
G04*
G04 Layer_Color=8388736*
%FSLAX25Y25*%
%MOIN*%
G70*
G04*
G04 #@! TF.SameCoordinates,9421AAF7-A1CE-47F4-AB83-8062CB6876A7*
G04*
G04*
G04 #@! TF.FilePolarity,Negative*
G04*
G01*
G75*
%ADD46R,0.89862X0.05807*%
%ADD47R,0.05807X1.40059*%
%ADD48R,0.11024X0.12500*%
%ADD49R,0.11417X0.12500*%
%ADD50R,0.03256X0.05421*%
%ADD51R,0.04043X0.03650*%
%ADD52R,0.06406X0.06406*%
%ADD53C,0.06406*%
%ADD54R,0.03650X0.04043*%
%ADD55R,0.03650X0.03650*%
%ADD56R,0.02862X0.04437*%
G04:AMPARAMS|DCode=57|XSize=64.06mil|YSize=15.63mil|CornerRadius=0mil|HoleSize=0mil|Usage=FLASHONLY|Rotation=135.000|XOffset=0mil|YOffset=0mil|HoleType=Round|Shape=Round|*
%AMOVALD57*
21,1,0.04842,0.01563,0.00000,0.00000,135.0*
1,1,0.01563,0.01712,-0.01712*
1,1,0.01563,-0.01712,0.01712*
%
%ADD57OVALD57*%

G04:AMPARAMS|DCode=58|XSize=15.63mil|YSize=64.06mil|CornerRadius=0mil|HoleSize=0mil|Usage=FLASHONLY|Rotation=135.000|XOffset=0mil|YOffset=0mil|HoleType=Round|Shape=Round|*
%AMOVALD58*
21,1,0.04842,0.01563,0.00000,0.00000,225.0*
1,1,0.01563,0.01712,0.01712*
1,1,0.01563,-0.01712,-0.01712*
%
%ADD58OVALD58*%

D46*
X255376Y252443D02*
D03*
X373486D02*
D03*
X491596D02*
D03*
X255376Y449293D02*
D03*
X373486D02*
D03*
X491596D02*
D03*
D47*
X213348Y185317D02*
D03*
X331459D02*
D03*
X449569D02*
D03*
X213348Y382167D02*
D03*
X331459D02*
D03*
X449569D02*
D03*
D48*
X213595Y109234D02*
D03*
X331705D02*
D03*
X449815D02*
D03*
X213595Y306085D02*
D03*
X331705D02*
D03*
X449815D02*
D03*
D49*
X317925Y109333D02*
D03*
X436035D02*
D03*
X554146D02*
D03*
X317925Y306183D02*
D03*
X436035D02*
D03*
X554146D02*
D03*
D50*
X307492Y223949D02*
D03*
X314972D02*
D03*
X311232Y231823D02*
D03*
X258181Y223457D02*
D03*
X265661D02*
D03*
X261921Y231330D02*
D03*
X224913Y223457D02*
D03*
X232394D02*
D03*
X228654Y231330D02*
D03*
X425602Y223949D02*
D03*
X433083D02*
D03*
X429343Y231823D02*
D03*
X376291Y223457D02*
D03*
X383772D02*
D03*
X380031Y231330D02*
D03*
X343024Y223457D02*
D03*
X350504D02*
D03*
X346764Y231330D02*
D03*
X543713Y223949D02*
D03*
X551193D02*
D03*
X547453Y231823D02*
D03*
X494402Y223457D02*
D03*
X501882D02*
D03*
X498142Y231330D02*
D03*
X461134Y223457D02*
D03*
X468614D02*
D03*
X464874Y231330D02*
D03*
X307492Y420799D02*
D03*
X314972D02*
D03*
X311232Y428673D02*
D03*
X258181Y420307D02*
D03*
X265661D02*
D03*
X261921Y428181D02*
D03*
X224913Y420307D02*
D03*
X232394D02*
D03*
X228654Y428181D02*
D03*
X425602Y420799D02*
D03*
X433083D02*
D03*
X429343Y428673D02*
D03*
X376291Y420307D02*
D03*
X383772D02*
D03*
X380031Y428181D02*
D03*
X343024Y420307D02*
D03*
X350504D02*
D03*
X346764Y428181D02*
D03*
X543713Y420799D02*
D03*
X551193D02*
D03*
X547453Y428673D02*
D03*
X494402Y420307D02*
D03*
X501882D02*
D03*
X498142Y428181D02*
D03*
X461134Y420307D02*
D03*
X468614D02*
D03*
X464874Y428181D02*
D03*
D51*
X239480Y158595D02*
D03*
Y153084D02*
D03*
X291252Y216074D02*
D03*
Y210563D02*
D03*
X299027Y215681D02*
D03*
Y210170D02*
D03*
X294598Y145601D02*
D03*
Y140091D02*
D03*
X298634Y162531D02*
D03*
Y157020D02*
D03*
X291154Y232019D02*
D03*
Y226508D02*
D03*
X281016Y232019D02*
D03*
Y226508D02*
D03*
X247846Y230445D02*
D03*
Y224934D02*
D03*
X240563Y217255D02*
D03*
Y211744D02*
D03*
X247846Y217255D02*
D03*
Y211744D02*
D03*
X238595Y184382D02*
D03*
Y189893D02*
D03*
X244697Y175523D02*
D03*
Y170012D02*
D03*
X291154Y109481D02*
D03*
Y114992D02*
D03*
X288595Y132905D02*
D03*
Y127394D02*
D03*
X277866Y110661D02*
D03*
Y116172D02*
D03*
X281409Y133003D02*
D03*
Y127492D02*
D03*
X269402Y123064D02*
D03*
Y128575D02*
D03*
X254539Y129264D02*
D03*
Y123753D02*
D03*
X244598Y124245D02*
D03*
Y129756D02*
D03*
X244402Y110859D02*
D03*
Y116370D02*
D03*
X232000Y122080D02*
D03*
Y127591D02*
D03*
X224224Y122079D02*
D03*
Y127590D02*
D03*
X224421Y135268D02*
D03*
Y140779D02*
D03*
X231902Y135268D02*
D03*
Y140779D02*
D03*
X357591Y158595D02*
D03*
Y153084D02*
D03*
X409362Y216074D02*
D03*
Y210563D02*
D03*
X417138Y215681D02*
D03*
Y210170D02*
D03*
X412709Y145601D02*
D03*
Y140091D02*
D03*
X416744Y162531D02*
D03*
Y157020D02*
D03*
X409264Y232019D02*
D03*
Y226508D02*
D03*
X399126Y232019D02*
D03*
Y226508D02*
D03*
X365957Y230445D02*
D03*
Y224934D02*
D03*
X358673Y217255D02*
D03*
Y211744D02*
D03*
X365957Y217255D02*
D03*
Y211744D02*
D03*
X356705Y184382D02*
D03*
Y189893D02*
D03*
X362807Y175523D02*
D03*
Y170012D02*
D03*
X409264Y109481D02*
D03*
Y114992D02*
D03*
X406705Y132905D02*
D03*
Y127394D02*
D03*
X395976Y110661D02*
D03*
Y116172D02*
D03*
X399520Y133003D02*
D03*
Y127492D02*
D03*
X387512Y123064D02*
D03*
Y128575D02*
D03*
X372650Y129264D02*
D03*
Y123753D02*
D03*
X362709Y124245D02*
D03*
Y129756D02*
D03*
X362512Y110859D02*
D03*
Y116370D02*
D03*
X350110Y122080D02*
D03*
Y127591D02*
D03*
X342335Y122079D02*
D03*
Y127590D02*
D03*
X342531Y135268D02*
D03*
Y140779D02*
D03*
X350012Y135268D02*
D03*
Y140779D02*
D03*
X475701Y158595D02*
D03*
Y153084D02*
D03*
X527472Y216074D02*
D03*
Y210563D02*
D03*
X535248Y215681D02*
D03*
Y210170D02*
D03*
X530819Y145601D02*
D03*
Y140091D02*
D03*
X534854Y162531D02*
D03*
Y157020D02*
D03*
X527374Y232019D02*
D03*
Y226508D02*
D03*
X517236Y232019D02*
D03*
Y226508D02*
D03*
X484067Y230445D02*
D03*
Y224934D02*
D03*
X476783Y217255D02*
D03*
Y211744D02*
D03*
X484067Y217255D02*
D03*
Y211744D02*
D03*
X474815Y184382D02*
D03*
Y189893D02*
D03*
X480917Y175523D02*
D03*
Y170012D02*
D03*
X527374Y109481D02*
D03*
Y114992D02*
D03*
X524815Y132905D02*
D03*
Y127394D02*
D03*
X514087Y110661D02*
D03*
Y116172D02*
D03*
X517630Y133003D02*
D03*
Y127492D02*
D03*
X505622Y123064D02*
D03*
Y128575D02*
D03*
X490760Y129264D02*
D03*
Y123753D02*
D03*
X480819Y124245D02*
D03*
Y129756D02*
D03*
X480622Y110859D02*
D03*
Y116370D02*
D03*
X468221Y122080D02*
D03*
Y127591D02*
D03*
X460445Y122079D02*
D03*
Y127590D02*
D03*
X460642Y135268D02*
D03*
Y140779D02*
D03*
X468122Y135268D02*
D03*
Y140779D02*
D03*
X239480Y355445D02*
D03*
Y349934D02*
D03*
X291252Y412925D02*
D03*
Y407414D02*
D03*
X299027Y412531D02*
D03*
Y407020D02*
D03*
X294598Y342452D02*
D03*
Y336941D02*
D03*
X298634Y359382D02*
D03*
Y353871D02*
D03*
X291154Y428870D02*
D03*
Y423359D02*
D03*
X281016Y428870D02*
D03*
Y423359D02*
D03*
X247846Y427295D02*
D03*
Y421784D02*
D03*
X240563Y414106D02*
D03*
Y408595D02*
D03*
X247846Y414106D02*
D03*
Y408595D02*
D03*
X238595Y381233D02*
D03*
Y386744D02*
D03*
X244697Y372374D02*
D03*
Y366863D02*
D03*
X291154Y306331D02*
D03*
Y311842D02*
D03*
X288595Y329755D02*
D03*
Y324244D02*
D03*
X277866Y307512D02*
D03*
Y313023D02*
D03*
X281409Y329854D02*
D03*
Y324343D02*
D03*
X269402Y319914D02*
D03*
Y325425D02*
D03*
X254539Y326114D02*
D03*
Y320603D02*
D03*
X244598Y321095D02*
D03*
Y326606D02*
D03*
X244402Y307710D02*
D03*
Y313221D02*
D03*
X232000Y318930D02*
D03*
Y324441D02*
D03*
X224224Y318930D02*
D03*
Y324441D02*
D03*
X224421Y332119D02*
D03*
Y337630D02*
D03*
X231902Y332119D02*
D03*
Y337630D02*
D03*
X357591Y355445D02*
D03*
Y349934D02*
D03*
X409362Y412925D02*
D03*
Y407414D02*
D03*
X417138Y412531D02*
D03*
Y407020D02*
D03*
X412709Y342452D02*
D03*
Y336941D02*
D03*
X416744Y359382D02*
D03*
Y353871D02*
D03*
X409264Y428870D02*
D03*
Y423359D02*
D03*
X399126Y428870D02*
D03*
Y423359D02*
D03*
X365957Y427295D02*
D03*
Y421784D02*
D03*
X358673Y414106D02*
D03*
Y408595D02*
D03*
X365957Y414106D02*
D03*
Y408595D02*
D03*
X356705Y381233D02*
D03*
Y386744D02*
D03*
X362807Y372374D02*
D03*
Y366863D02*
D03*
X409264Y306331D02*
D03*
Y311842D02*
D03*
X406705Y329755D02*
D03*
Y324244D02*
D03*
X395976Y307512D02*
D03*
Y313023D02*
D03*
X399520Y329854D02*
D03*
Y324343D02*
D03*
X387512Y319914D02*
D03*
Y325425D02*
D03*
X372650Y326114D02*
D03*
Y320603D02*
D03*
X362709Y321095D02*
D03*
Y326606D02*
D03*
X362512Y307710D02*
D03*
Y313221D02*
D03*
X350110Y318930D02*
D03*
Y324441D02*
D03*
X342335Y318930D02*
D03*
Y324441D02*
D03*
X342531Y332119D02*
D03*
Y337630D02*
D03*
X350012Y332119D02*
D03*
Y337630D02*
D03*
X475701Y355445D02*
D03*
Y349934D02*
D03*
X527472Y412925D02*
D03*
Y407414D02*
D03*
X535248Y412531D02*
D03*
Y407020D02*
D03*
X530819Y342452D02*
D03*
Y336941D02*
D03*
X534854Y359382D02*
D03*
Y353871D02*
D03*
X527374Y428870D02*
D03*
Y423359D02*
D03*
X517236Y428870D02*
D03*
Y423359D02*
D03*
X484067Y427295D02*
D03*
Y421784D02*
D03*
X476783Y414106D02*
D03*
Y408595D02*
D03*
X484067Y414106D02*
D03*
Y408595D02*
D03*
X474815Y381233D02*
D03*
Y386744D02*
D03*
X480917Y372374D02*
D03*
Y366863D02*
D03*
X527374Y306331D02*
D03*
Y311842D02*
D03*
X524815Y329755D02*
D03*
Y324244D02*
D03*
X514087Y307512D02*
D03*
Y313023D02*
D03*
X517630Y329854D02*
D03*
Y324343D02*
D03*
X505622Y319914D02*
D03*
Y325425D02*
D03*
X490760Y326114D02*
D03*
Y320603D02*
D03*
X480819Y321095D02*
D03*
Y326606D02*
D03*
X480622Y307710D02*
D03*
Y313221D02*
D03*
X468221Y318930D02*
D03*
Y324441D02*
D03*
X460445Y318930D02*
D03*
Y324441D02*
D03*
X460642Y332119D02*
D03*
Y337630D02*
D03*
X468122Y332119D02*
D03*
Y337630D02*
D03*
D52*
X316154Y169972D02*
D03*
X434264D02*
D03*
X552374D02*
D03*
X316154Y366823D02*
D03*
X434264D02*
D03*
X552374D02*
D03*
D53*
X316154Y159972D02*
D03*
Y149972D02*
D03*
Y139972D02*
D03*
X302866Y171980D02*
D03*
X434264Y159972D02*
D03*
Y149972D02*
D03*
Y139972D02*
D03*
X420976Y171980D02*
D03*
X552374Y159972D02*
D03*
Y149972D02*
D03*
Y139972D02*
D03*
X539087Y171980D02*
D03*
X316154Y356823D02*
D03*
Y346823D02*
D03*
Y336823D02*
D03*
X302866Y368831D02*
D03*
X434264Y356823D02*
D03*
Y346823D02*
D03*
Y336823D02*
D03*
X420976Y368831D02*
D03*
X552374Y356823D02*
D03*
Y346823D02*
D03*
Y336823D02*
D03*
X539087Y368831D02*
D03*
D54*
X294302Y179165D02*
D03*
X288791D02*
D03*
X288988Y171095D02*
D03*
X294499D02*
D03*
X268515Y203181D02*
D03*
X263004D02*
D03*
X264775Y209972D02*
D03*
X259264D02*
D03*
X264874Y216272D02*
D03*
X259363D02*
D03*
X268515Y189303D02*
D03*
X263004D02*
D03*
X268712Y196095D02*
D03*
X263201D02*
D03*
X281015Y210563D02*
D03*
X275504D02*
D03*
X275406Y218732D02*
D03*
X280917D02*
D03*
X309067Y183299D02*
D03*
X314578D02*
D03*
X309067Y190878D02*
D03*
X314578D02*
D03*
X314480Y198457D02*
D03*
X308969D02*
D03*
X308871Y209677D02*
D03*
X314382D02*
D03*
X308969Y215681D02*
D03*
X314480D02*
D03*
X311232Y238811D02*
D03*
X305721D02*
D03*
X269007D02*
D03*
X263496D02*
D03*
X305917Y124638D02*
D03*
X300406D02*
D03*
X300307Y133102D02*
D03*
X305818D02*
D03*
X231311Y182512D02*
D03*
X225800D02*
D03*
X231311Y191173D02*
D03*
X225800D02*
D03*
X231507Y207413D02*
D03*
X225996D02*
D03*
X231507Y214894D02*
D03*
X225996D02*
D03*
X228653Y238811D02*
D03*
X223142D02*
D03*
X412413Y179165D02*
D03*
X406902D02*
D03*
X407098Y171095D02*
D03*
X412609D02*
D03*
X386626Y203181D02*
D03*
X381115D02*
D03*
X382885Y209972D02*
D03*
X377374D02*
D03*
X382984Y216272D02*
D03*
X377473D02*
D03*
X386626Y189303D02*
D03*
X381115D02*
D03*
X386822Y196095D02*
D03*
X381311D02*
D03*
X399126Y210563D02*
D03*
X393615D02*
D03*
X393516Y218732D02*
D03*
X399027D02*
D03*
X427177Y183299D02*
D03*
X432689D02*
D03*
X427177Y190878D02*
D03*
X432689D02*
D03*
X432590Y198457D02*
D03*
X427079D02*
D03*
X426981Y209677D02*
D03*
X432492D02*
D03*
X427079Y215681D02*
D03*
X432590D02*
D03*
X429342Y238811D02*
D03*
X423831D02*
D03*
X387118D02*
D03*
X381607D02*
D03*
X424027Y124638D02*
D03*
X418516D02*
D03*
X418417Y133102D02*
D03*
X423928D02*
D03*
X349421Y182512D02*
D03*
X343910D02*
D03*
X349421Y191173D02*
D03*
X343910D02*
D03*
X349618Y207413D02*
D03*
X344107D02*
D03*
X349618Y214894D02*
D03*
X344107D02*
D03*
X346763Y238811D02*
D03*
X341252D02*
D03*
X530523Y179165D02*
D03*
X525012D02*
D03*
X525209Y171095D02*
D03*
X530720D02*
D03*
X504736Y203181D02*
D03*
X499225D02*
D03*
X500996Y209972D02*
D03*
X495485D02*
D03*
X501094Y216272D02*
D03*
X495583D02*
D03*
X504736Y189303D02*
D03*
X499225D02*
D03*
X504933Y196095D02*
D03*
X499422D02*
D03*
X517236Y210563D02*
D03*
X511725D02*
D03*
X511626Y218732D02*
D03*
X517137D02*
D03*
X545288Y183299D02*
D03*
X550799D02*
D03*
X545288Y190878D02*
D03*
X550799D02*
D03*
X550700Y198457D02*
D03*
X545189D02*
D03*
X545091Y209677D02*
D03*
X550602D02*
D03*
X545189Y215681D02*
D03*
X550700D02*
D03*
X547452Y238811D02*
D03*
X541941D02*
D03*
X505228D02*
D03*
X499717D02*
D03*
X542137Y124638D02*
D03*
X536626D02*
D03*
X536527Y133102D02*
D03*
X542039D02*
D03*
X467531Y182512D02*
D03*
X462020D02*
D03*
X467531Y191173D02*
D03*
X462020D02*
D03*
X467728Y207413D02*
D03*
X462217D02*
D03*
X467728Y214894D02*
D03*
X462217D02*
D03*
X464874Y238811D02*
D03*
X459363D02*
D03*
X294302Y376016D02*
D03*
X288791D02*
D03*
X288988Y367945D02*
D03*
X294499D02*
D03*
X268515Y400032D02*
D03*
X263004D02*
D03*
X264775Y406823D02*
D03*
X259264D02*
D03*
X264874Y413122D02*
D03*
X259363D02*
D03*
X268515Y386154D02*
D03*
X263004D02*
D03*
X268712Y392945D02*
D03*
X263201D02*
D03*
X281015Y407413D02*
D03*
X275504D02*
D03*
X275406Y415583D02*
D03*
X280917D02*
D03*
X309067Y380150D02*
D03*
X314578D02*
D03*
X309067Y387728D02*
D03*
X314578D02*
D03*
X314480Y395307D02*
D03*
X308969D02*
D03*
X308871Y406528D02*
D03*
X314382D02*
D03*
X308969Y412532D02*
D03*
X314480D02*
D03*
X311232Y435661D02*
D03*
X305721D02*
D03*
X269007D02*
D03*
X263496D02*
D03*
X305917Y321488D02*
D03*
X300406D02*
D03*
X300307Y329953D02*
D03*
X305818D02*
D03*
X231311Y379362D02*
D03*
X225800D02*
D03*
X231311Y388024D02*
D03*
X225800D02*
D03*
X231507Y404264D02*
D03*
X225996D02*
D03*
X231507Y411744D02*
D03*
X225996D02*
D03*
X228653Y435661D02*
D03*
X223142D02*
D03*
X412413Y376016D02*
D03*
X406902D02*
D03*
X407098Y367945D02*
D03*
X412609D02*
D03*
X386626Y400032D02*
D03*
X381115D02*
D03*
X382885Y406823D02*
D03*
X377374D02*
D03*
X382984Y413122D02*
D03*
X377473D02*
D03*
X386626Y386154D02*
D03*
X381115D02*
D03*
X386822Y392945D02*
D03*
X381311D02*
D03*
X399126Y407413D02*
D03*
X393615D02*
D03*
X393516Y415583D02*
D03*
X399027D02*
D03*
X427177Y380150D02*
D03*
X432689D02*
D03*
X427177Y387728D02*
D03*
X432689D02*
D03*
X432590Y395307D02*
D03*
X427079D02*
D03*
X426981Y406528D02*
D03*
X432492D02*
D03*
X427079Y412532D02*
D03*
X432590D02*
D03*
X429342Y435661D02*
D03*
X423831D02*
D03*
X387118D02*
D03*
X381607D02*
D03*
X424027Y321488D02*
D03*
X418516D02*
D03*
X418417Y329953D02*
D03*
X423928D02*
D03*
X349421Y379362D02*
D03*
X343910D02*
D03*
X349421Y388024D02*
D03*
X343910D02*
D03*
X349618Y404264D02*
D03*
X344107D02*
D03*
X349618Y411744D02*
D03*
X344107D02*
D03*
X346763Y435661D02*
D03*
X341252D02*
D03*
X530523Y376016D02*
D03*
X525012D02*
D03*
X525209Y367945D02*
D03*
X530720D02*
D03*
X504736Y400032D02*
D03*
X499225D02*
D03*
X500996Y406823D02*
D03*
X495485D02*
D03*
X501094Y413122D02*
D03*
X495583D02*
D03*
X504736Y386154D02*
D03*
X499225D02*
D03*
X504933Y392945D02*
D03*
X499422D02*
D03*
X517236Y407413D02*
D03*
X511725D02*
D03*
X511626Y415583D02*
D03*
X517137D02*
D03*
X545288Y380150D02*
D03*
X550799D02*
D03*
X545288Y387728D02*
D03*
X550799D02*
D03*
X550700Y395307D02*
D03*
X545189D02*
D03*
X545091Y406528D02*
D03*
X550602D02*
D03*
X545189Y412532D02*
D03*
X550700D02*
D03*
X547452Y435661D02*
D03*
X541941D02*
D03*
X505228D02*
D03*
X499717D02*
D03*
X542137Y321488D02*
D03*
X536626D02*
D03*
X536527Y329953D02*
D03*
X542039D02*
D03*
X467531Y379362D02*
D03*
X462020D02*
D03*
X467531Y388024D02*
D03*
X462020D02*
D03*
X467728Y404264D02*
D03*
X462217D02*
D03*
X467728Y411744D02*
D03*
X462217D02*
D03*
X464874Y435661D02*
D03*
X459363D02*
D03*
D55*
X305313Y165384D02*
D03*
X305341Y159089D02*
D03*
X423423Y165384D02*
D03*
X423451Y159089D02*
D03*
X541533Y165384D02*
D03*
X541561Y159089D02*
D03*
X305313Y362234D02*
D03*
X305341Y355939D02*
D03*
X423423Y362234D02*
D03*
X423451Y355939D02*
D03*
X541533Y362234D02*
D03*
X541561Y355939D02*
D03*
D56*
X299519Y107414D02*
D03*
X303259Y107413D02*
D03*
X306999Y107413D02*
D03*
X307000Y117649D02*
D03*
X299520Y117650D02*
D03*
X417630Y107414D02*
D03*
X421370Y107413D02*
D03*
X425110Y107413D02*
D03*
X425110Y117649D02*
D03*
X417630Y117650D02*
D03*
X535740Y107414D02*
D03*
X539480Y107413D02*
D03*
X543220Y107413D02*
D03*
X543221Y117649D02*
D03*
X535741Y117650D02*
D03*
X299519Y304264D02*
D03*
X303259Y304264D02*
D03*
X306999Y304264D02*
D03*
X307000Y314500D02*
D03*
X299520Y314500D02*
D03*
X417630Y304264D02*
D03*
X421370Y304264D02*
D03*
X425110Y304264D02*
D03*
X425110Y314500D02*
D03*
X417630Y314500D02*
D03*
X535740Y304264D02*
D03*
X539480Y304264D02*
D03*
X543220Y304264D02*
D03*
X543221Y314500D02*
D03*
X535741Y314500D02*
D03*
D57*
X285542Y151675D02*
D03*
X284150Y150282D02*
D03*
X282758Y148891D02*
D03*
X281366Y147498D02*
D03*
X279974Y146107D02*
D03*
X278582Y144714D02*
D03*
X277190Y143323D02*
D03*
X275798Y141931D02*
D03*
X274406Y140539D02*
D03*
X273014Y139147D02*
D03*
X271622Y137756D02*
D03*
X270231Y136363D02*
D03*
X246568Y160026D02*
D03*
X247960Y161419D02*
D03*
X249352Y162810D02*
D03*
X250744Y164202D02*
D03*
X252136Y165594D02*
D03*
X253528Y166986D02*
D03*
X254920Y168377D02*
D03*
X256312Y169770D02*
D03*
X257704Y171161D02*
D03*
X259096Y172554D02*
D03*
X260488Y173945D02*
D03*
X261880Y175338D02*
D03*
X403652Y151675D02*
D03*
X402260Y150282D02*
D03*
X400868Y148891D02*
D03*
X399476Y147498D02*
D03*
X398084Y146107D02*
D03*
X396692Y144714D02*
D03*
X395300Y143323D02*
D03*
X393909Y141931D02*
D03*
X392517Y140539D02*
D03*
X391125Y139147D02*
D03*
X389733Y137756D02*
D03*
X388341Y136363D02*
D03*
X364679Y160026D02*
D03*
X366071Y161419D02*
D03*
X367462Y162810D02*
D03*
X368854Y164202D02*
D03*
X370246Y165594D02*
D03*
X371638Y166986D02*
D03*
X373030Y168377D02*
D03*
X374422Y169770D02*
D03*
X375814Y171161D02*
D03*
X377206Y172554D02*
D03*
X378598Y173945D02*
D03*
X379990Y175338D02*
D03*
X521762Y151675D02*
D03*
X520370Y150282D02*
D03*
X518979Y148891D02*
D03*
X517587Y147498D02*
D03*
X516195Y146107D02*
D03*
X514803Y144714D02*
D03*
X513411Y143323D02*
D03*
X512019Y141931D02*
D03*
X510627Y140539D02*
D03*
X509235Y139147D02*
D03*
X507843Y137756D02*
D03*
X506451Y136363D02*
D03*
X482789Y160026D02*
D03*
X484181Y161419D02*
D03*
X485573Y162810D02*
D03*
X486965Y164202D02*
D03*
X488356Y165594D02*
D03*
X489748Y166986D02*
D03*
X491141Y168377D02*
D03*
X492532Y169770D02*
D03*
X493924Y171161D02*
D03*
X495316Y172554D02*
D03*
X496708Y173945D02*
D03*
X498100Y175338D02*
D03*
X285542Y348525D02*
D03*
X284150Y347133D02*
D03*
X282758Y345741D02*
D03*
X281366Y344349D02*
D03*
X279974Y342957D02*
D03*
X278582Y341565D02*
D03*
X277190Y340174D02*
D03*
X275798Y338781D02*
D03*
X274406Y337390D02*
D03*
X273014Y335997D02*
D03*
X271622Y334606D02*
D03*
X270231Y333213D02*
D03*
X246568Y356876D02*
D03*
X247960Y358269D02*
D03*
X249352Y359660D02*
D03*
X250744Y361053D02*
D03*
X252136Y362444D02*
D03*
X253528Y363837D02*
D03*
X254920Y365228D02*
D03*
X256312Y366620D02*
D03*
X257704Y368012D02*
D03*
X259096Y369404D02*
D03*
X260488Y370796D02*
D03*
X261880Y372188D02*
D03*
X403652Y348525D02*
D03*
X402260Y347133D02*
D03*
X400868Y345741D02*
D03*
X399476Y344349D02*
D03*
X398084Y342957D02*
D03*
X396692Y341565D02*
D03*
X395300Y340174D02*
D03*
X393909Y338781D02*
D03*
X392517Y337390D02*
D03*
X391125Y335997D02*
D03*
X389733Y334606D02*
D03*
X388341Y333213D02*
D03*
X364679Y356876D02*
D03*
X366071Y358269D02*
D03*
X367462Y359660D02*
D03*
X368854Y361053D02*
D03*
X370246Y362444D02*
D03*
X371638Y363837D02*
D03*
X373030Y365228D02*
D03*
X374422Y366620D02*
D03*
X375814Y368012D02*
D03*
X377206Y369404D02*
D03*
X378598Y370796D02*
D03*
X379990Y372188D02*
D03*
X521762Y348525D02*
D03*
X520370Y347133D02*
D03*
X518979Y345741D02*
D03*
X517587Y344349D02*
D03*
X516195Y342957D02*
D03*
X514803Y341565D02*
D03*
X513411Y340174D02*
D03*
X512019Y338781D02*
D03*
X510627Y337390D02*
D03*
X509235Y335997D02*
D03*
X507843Y334606D02*
D03*
X506451Y333213D02*
D03*
X482789Y356876D02*
D03*
X484181Y358269D02*
D03*
X485573Y359660D02*
D03*
X486965Y361053D02*
D03*
X488356Y362444D02*
D03*
X489748Y363837D02*
D03*
X491141Y365228D02*
D03*
X492532Y366620D02*
D03*
X493924Y368012D02*
D03*
X495316Y369404D02*
D03*
X496708Y370796D02*
D03*
X498100Y372188D02*
D03*
D58*
X261880Y136363D02*
D03*
X260487Y137756D02*
D03*
X259096Y139147D02*
D03*
X257703Y140540D02*
D03*
X256312Y141931D02*
D03*
X254920Y143324D02*
D03*
X253528Y144715D02*
D03*
X252136Y146107D02*
D03*
X250745Y147499D02*
D03*
X249352Y148891D02*
D03*
X247961Y150283D02*
D03*
X246568Y151675D02*
D03*
X270230Y175338D02*
D03*
X271623Y173945D02*
D03*
X273014Y172554D02*
D03*
X274407Y171161D02*
D03*
X275798Y169770D02*
D03*
X277191Y168377D02*
D03*
X278582Y166986D02*
D03*
X279974Y165593D02*
D03*
X281366Y164202D02*
D03*
X282758Y162809D02*
D03*
X284150Y161418D02*
D03*
X285542Y160026D02*
D03*
X379990Y136363D02*
D03*
X378598Y137756D02*
D03*
X377206Y139147D02*
D03*
X375814Y140540D02*
D03*
X374423Y141931D02*
D03*
X373030Y143324D02*
D03*
X371639Y144715D02*
D03*
X370246Y146107D02*
D03*
X368855Y147499D02*
D03*
X367462Y148891D02*
D03*
X366071Y150283D02*
D03*
X364678Y151675D02*
D03*
X388340Y175338D02*
D03*
X389733Y173945D02*
D03*
X391124Y172554D02*
D03*
X392517Y171161D02*
D03*
X393908Y169770D02*
D03*
X395301Y168377D02*
D03*
X396692Y166986D02*
D03*
X398085Y165593D02*
D03*
X399476Y164202D02*
D03*
X400869Y162809D02*
D03*
X402260Y161418D02*
D03*
X403652Y160026D02*
D03*
X498101Y136363D02*
D03*
X496708Y137756D02*
D03*
X495317Y139147D02*
D03*
X493924Y140540D02*
D03*
X492533Y141931D02*
D03*
X491140Y143324D02*
D03*
X489749Y144715D02*
D03*
X488356Y146107D02*
D03*
X486965Y147499D02*
D03*
X485572Y148891D02*
D03*
X484181Y150283D02*
D03*
X482789Y151675D02*
D03*
X506451Y175338D02*
D03*
X507843Y173945D02*
D03*
X509235Y172554D02*
D03*
X510627Y171161D02*
D03*
X512018Y169770D02*
D03*
X513411Y168377D02*
D03*
X514802Y166986D02*
D03*
X516195Y165593D02*
D03*
X517586Y164202D02*
D03*
X518979Y162809D02*
D03*
X520370Y161418D02*
D03*
X521763Y160026D02*
D03*
X261880Y333214D02*
D03*
X260487Y334606D02*
D03*
X259096Y335998D02*
D03*
X257703Y337390D02*
D03*
X256312Y338781D02*
D03*
X254920Y340174D02*
D03*
X253528Y341565D02*
D03*
X252136Y342958D02*
D03*
X250745Y344349D02*
D03*
X249352Y345742D02*
D03*
X247961Y347133D02*
D03*
X246568Y348526D02*
D03*
X270230Y372188D02*
D03*
X271623Y370795D02*
D03*
X273014Y369404D02*
D03*
X274407Y368011D02*
D03*
X275798Y366620D02*
D03*
X277191Y365228D02*
D03*
X278582Y363836D02*
D03*
X279974Y362444D02*
D03*
X281366Y361052D02*
D03*
X282758Y359660D02*
D03*
X284150Y358268D02*
D03*
X285542Y356876D02*
D03*
X379990Y333214D02*
D03*
X378598Y334606D02*
D03*
X377206Y335998D02*
D03*
X375814Y337390D02*
D03*
X374423Y338781D02*
D03*
X373030Y340174D02*
D03*
X371639Y341565D02*
D03*
X370246Y342958D02*
D03*
X368855Y344349D02*
D03*
X367462Y345742D02*
D03*
X366071Y347133D02*
D03*
X364678Y348526D02*
D03*
X388340Y372188D02*
D03*
X389733Y370795D02*
D03*
X391124Y369404D02*
D03*
X392517Y368011D02*
D03*
X393908Y366620D02*
D03*
X395301Y365228D02*
D03*
X396692Y363836D02*
D03*
X398085Y362444D02*
D03*
X399476Y361052D02*
D03*
X400869Y359660D02*
D03*
X402260Y358268D02*
D03*
X403652Y356876D02*
D03*
X498101Y333214D02*
D03*
X496708Y334606D02*
D03*
X495317Y335998D02*
D03*
X493924Y337390D02*
D03*
X492533Y338781D02*
D03*
X491140Y340174D02*
D03*
X489749Y341565D02*
D03*
X488356Y342958D02*
D03*
X486965Y344349D02*
D03*
X485572Y345742D02*
D03*
X484181Y347133D02*
D03*
X482789Y348526D02*
D03*
X506451Y372188D02*
D03*
X507843Y370795D02*
D03*
X509235Y369404D02*
D03*
X510627Y368011D02*
D03*
X512018Y366620D02*
D03*
X513411Y365228D02*
D03*
X514802Y363836D02*
D03*
X516195Y362444D02*
D03*
X517586Y361052D02*
D03*
X518979Y359660D02*
D03*
X520370Y358268D02*
D03*
X521763Y356876D02*
D03*
M02*
