G04*
G04 #@! TF.GenerationSoftware,Altium Limited,Altium Designer,20.1.11 (218)*
G04*
G04 Layer_Color=8388736*
%FSLAX25Y25*%
%MOIN*%
G70*
G04*
G04 #@! TF.SameCoordinates,9421AAF7-A1CE-47F4-AB83-8062CB6876A7*
G04*
G04*
G04 #@! TF.FilePolarity,Positive*
G04*
G01*
G75*
%ADD74C,0.00236*%
D74*
X238023Y158989D02*
G03*
X238023Y158989I-118J0D01*
G01*
X294815Y180740D02*
G03*
X294815Y180740I-118J0D01*
G01*
X288712Y169519D02*
G03*
X288712Y169519I-118J0D01*
G01*
X237532Y155445D02*
G03*
X237532Y155445I-118J0D01*
G01*
X231232Y165977D02*
G03*
X231232Y165977I-118J0D01*
G01*
X246094Y178575D02*
G03*
X246094Y178575I-118J0D01*
G01*
X231330Y173555D02*
G03*
X231330Y173555I-118J0D01*
G01*
X290287Y169027D02*
G03*
X290287Y169027I-118J0D01*
G01*
X304363Y159775D02*
G03*
X304363Y159775I-118J0D01*
G01*
X306135Y181331D02*
G03*
X306135Y181331I-118J0D01*
G01*
X304460Y138023D02*
G03*
X304460Y138023I-118J0D01*
G01*
X269028Y204756D02*
G03*
X269028Y204756I-118J0D01*
G01*
X265288Y211547D02*
G03*
X265288Y211547I-118J0D01*
G01*
X265386Y217847D02*
G03*
X265386Y217847I-118J0D01*
G01*
X269028Y190878D02*
G03*
X269028Y190878I-118J0D01*
G01*
X269225Y197669D02*
G03*
X269225Y197669I-118J0D01*
G01*
X281528Y212138D02*
G03*
X281528Y212138I-118J0D01*
G01*
X275129Y217157D02*
G03*
X275129Y217157I-118J0D01*
G01*
X289795Y216469D02*
G03*
X289795Y216469I-118J0D01*
G01*
X297570Y216075D02*
G03*
X297570Y216075I-118J0D01*
G01*
X296291Y139696D02*
G03*
X296291Y139696I-118J0D01*
G01*
X306876Y159205D02*
G03*
X306876Y159205I-118J0D01*
G01*
X297177Y162926D02*
G03*
X297177Y162926I-118J0D01*
G01*
X308791Y181724D02*
G03*
X308791Y181724I-118J0D01*
G01*
Y189303D02*
G03*
X308791Y189303I-118J0D01*
G01*
X314992Y200032D02*
G03*
X314992Y200032I-118J0D01*
G01*
X308594Y208102D02*
G03*
X308594Y208102I-118J0D01*
G01*
X308692Y214106D02*
G03*
X308692Y214106I-118J0D01*
G01*
X311744Y240386D02*
G03*
X311744Y240386I-118J0D01*
G01*
X289697Y232414D02*
G03*
X289697Y232414I-118J0D01*
G01*
X279559D02*
G03*
X279559Y232414I-118J0D01*
G01*
X269520Y240386D02*
G03*
X269520Y240386I-118J0D01*
G01*
X246389Y230839D02*
G03*
X246389Y230839I-118J0D01*
G01*
X239106Y217650D02*
G03*
X239106Y217650I-118J0D01*
G01*
X246389D02*
G03*
X246389Y217650I-118J0D01*
G01*
X240287Y183988D02*
G03*
X240287Y183988I-118J0D01*
G01*
X243240Y175918D02*
G03*
X243240Y175918I-118J0D01*
G01*
X289697Y115387D02*
G03*
X289697Y115387I-118J0D01*
G01*
X306429Y126213D02*
G03*
X306429Y126213I-118J0D01*
G01*
X306331Y134677D02*
G03*
X306331Y134677I-118J0D01*
G01*
X287138Y133300D02*
G03*
X287138Y133300I-118J0D01*
G01*
X276409Y116567D02*
G03*
X276409Y116567I-118J0D01*
G01*
X279952Y133398D02*
G03*
X279952Y133398I-118J0D01*
G01*
X271095Y122669D02*
G03*
X271095Y122669I-118J0D01*
G01*
X253082Y129658D02*
G03*
X253082Y129658I-118J0D01*
G01*
X246291Y123850D02*
G03*
X246291Y123850I-118J0D01*
G01*
X242945Y116765D02*
G03*
X242945Y116765I-118J0D01*
G01*
X233693Y121685D02*
G03*
X233693Y121685I-118J0D01*
G01*
X225917Y121685D02*
G03*
X225917Y121685I-118J0D01*
G01*
X226114Y134874D02*
G03*
X226114Y134874I-118J0D01*
G01*
X233595Y134874D02*
G03*
X233595Y134874I-118J0D01*
G01*
X231823Y184087D02*
G03*
X231823Y184087I-118J0D01*
G01*
Y192748D02*
G03*
X231823Y192748I-118J0D01*
G01*
X232020Y208988D02*
G03*
X232020Y208988I-118J0D01*
G01*
Y216469D02*
G03*
X232020Y216469I-118J0D01*
G01*
X229166Y240386D02*
G03*
X229166Y240386I-118J0D01*
G01*
X356134Y158989D02*
G03*
X356134Y158989I-118J0D01*
G01*
X412925Y180740D02*
G03*
X412925Y180740I-118J0D01*
G01*
X406822Y169519D02*
G03*
X406822Y169519I-118J0D01*
G01*
X355642Y155445D02*
G03*
X355642Y155445I-118J0D01*
G01*
X349342Y165977D02*
G03*
X349342Y165977I-118J0D01*
G01*
X364204Y178575D02*
G03*
X364204Y178575I-118J0D01*
G01*
X349440Y173555D02*
G03*
X349440Y173555I-118J0D01*
G01*
X408397Y169027D02*
G03*
X408397Y169027I-118J0D01*
G01*
X422473Y159775D02*
G03*
X422473Y159775I-118J0D01*
G01*
X424245Y181331D02*
G03*
X424245Y181331I-118J0D01*
G01*
X422571Y138023D02*
G03*
X422571Y138023I-118J0D01*
G01*
X387138Y204756D02*
G03*
X387138Y204756I-118J0D01*
G01*
X383398Y211547D02*
G03*
X383398Y211547I-118J0D01*
G01*
X383496Y217847D02*
G03*
X383496Y217847I-118J0D01*
G01*
X387138Y190878D02*
G03*
X387138Y190878I-118J0D01*
G01*
X387335Y197669D02*
G03*
X387335Y197669I-118J0D01*
G01*
X399638Y212138D02*
G03*
X399638Y212138I-118J0D01*
G01*
X393240Y217157D02*
G03*
X393240Y217157I-118J0D01*
G01*
X407905Y216469D02*
G03*
X407905Y216469I-118J0D01*
G01*
X415681Y216075D02*
G03*
X415681Y216075I-118J0D01*
G01*
X414402Y139696D02*
G03*
X414402Y139696I-118J0D01*
G01*
X424987Y159205D02*
G03*
X424987Y159205I-118J0D01*
G01*
X415287Y162926D02*
G03*
X415287Y162926I-118J0D01*
G01*
X426901Y181724D02*
G03*
X426901Y181724I-118J0D01*
G01*
Y189303D02*
G03*
X426901Y189303I-118J0D01*
G01*
X433103Y200032D02*
G03*
X433103Y200032I-118J0D01*
G01*
X426704Y208102D02*
G03*
X426704Y208102I-118J0D01*
G01*
X426803Y214106D02*
G03*
X426803Y214106I-118J0D01*
G01*
X429855Y240386D02*
G03*
X429855Y240386I-118J0D01*
G01*
X407807Y232414D02*
G03*
X407807Y232414I-118J0D01*
G01*
X397669D02*
G03*
X397669Y232414I-118J0D01*
G01*
X387630Y240386D02*
G03*
X387630Y240386I-118J0D01*
G01*
X364500Y230839D02*
G03*
X364500Y230839I-118J0D01*
G01*
X357216Y217650D02*
G03*
X357216Y217650I-118J0D01*
G01*
X364500D02*
G03*
X364500Y217650I-118J0D01*
G01*
X358398Y183988D02*
G03*
X358398Y183988I-118J0D01*
G01*
X361350Y175918D02*
G03*
X361350Y175918I-118J0D01*
G01*
X407807Y115387D02*
G03*
X407807Y115387I-118J0D01*
G01*
X424539Y126213D02*
G03*
X424539Y126213I-118J0D01*
G01*
X424441Y134677D02*
G03*
X424441Y134677I-118J0D01*
G01*
X405248Y133300D02*
G03*
X405248Y133300I-118J0D01*
G01*
X394519Y116567D02*
G03*
X394519Y116567I-118J0D01*
G01*
X398063Y133398D02*
G03*
X398063Y133398I-118J0D01*
G01*
X389205Y122669D02*
G03*
X389205Y122669I-118J0D01*
G01*
X371193Y129658D02*
G03*
X371193Y129658I-118J0D01*
G01*
X364402Y123850D02*
G03*
X364402Y123850I-118J0D01*
G01*
X361055Y116765D02*
G03*
X361055Y116765I-118J0D01*
G01*
X351803Y121685D02*
G03*
X351803Y121685I-118J0D01*
G01*
X344028Y121685D02*
G03*
X344028Y121685I-118J0D01*
G01*
X344225Y134874D02*
G03*
X344225Y134874I-118J0D01*
G01*
X351705Y134874D02*
G03*
X351705Y134874I-118J0D01*
G01*
X349933Y184087D02*
G03*
X349933Y184087I-118J0D01*
G01*
Y192748D02*
G03*
X349933Y192748I-118J0D01*
G01*
X350130Y208988D02*
G03*
X350130Y208988I-118J0D01*
G01*
Y216469D02*
G03*
X350130Y216469I-118J0D01*
G01*
X347276Y240386D02*
G03*
X347276Y240386I-118J0D01*
G01*
X474244Y158989D02*
G03*
X474244Y158989I-118J0D01*
G01*
X531035Y180740D02*
G03*
X531035Y180740I-118J0D01*
G01*
X524932Y169519D02*
G03*
X524932Y169519I-118J0D01*
G01*
X473752Y155445D02*
G03*
X473752Y155445I-118J0D01*
G01*
X467452Y165977D02*
G03*
X467452Y165977I-118J0D01*
G01*
X482314Y178575D02*
G03*
X482314Y178575I-118J0D01*
G01*
X467551Y173555D02*
G03*
X467551Y173555I-118J0D01*
G01*
X526508Y169027D02*
G03*
X526508Y169027I-118J0D01*
G01*
X540583Y159775D02*
G03*
X540583Y159775I-118J0D01*
G01*
X542355Y181331D02*
G03*
X542355Y181331I-118J0D01*
G01*
X540681Y138023D02*
G03*
X540681Y138023I-118J0D01*
G01*
X505248Y204756D02*
G03*
X505248Y204756I-118J0D01*
G01*
X501508Y211547D02*
G03*
X501508Y211547I-118J0D01*
G01*
X501607Y217847D02*
G03*
X501607Y217847I-118J0D01*
G01*
X505248Y190878D02*
G03*
X505248Y190878I-118J0D01*
G01*
X505445Y197669D02*
G03*
X505445Y197669I-118J0D01*
G01*
X517748Y212138D02*
G03*
X517748Y212138I-118J0D01*
G01*
X511350Y217157D02*
G03*
X511350Y217157I-118J0D01*
G01*
X526015Y216469D02*
G03*
X526015Y216469I-118J0D01*
G01*
X533791Y216075D02*
G03*
X533791Y216075I-118J0D01*
G01*
X532512Y139696D02*
G03*
X532512Y139696I-118J0D01*
G01*
X543097Y159205D02*
G03*
X543097Y159205I-118J0D01*
G01*
X533397Y162926D02*
G03*
X533397Y162926I-118J0D01*
G01*
X545011Y181724D02*
G03*
X545011Y181724I-118J0D01*
G01*
Y189303D02*
G03*
X545011Y189303I-118J0D01*
G01*
X551213Y200032D02*
G03*
X551213Y200032I-118J0D01*
G01*
X544814Y208102D02*
G03*
X544814Y208102I-118J0D01*
G01*
X544913Y214106D02*
G03*
X544913Y214106I-118J0D01*
G01*
X547965Y240386D02*
G03*
X547965Y240386I-118J0D01*
G01*
X525917Y232414D02*
G03*
X525917Y232414I-118J0D01*
G01*
X515779D02*
G03*
X515779Y232414I-118J0D01*
G01*
X505740Y240386D02*
G03*
X505740Y240386I-118J0D01*
G01*
X482610Y230839D02*
G03*
X482610Y230839I-118J0D01*
G01*
X475326Y217650D02*
G03*
X475326Y217650I-118J0D01*
G01*
X482610D02*
G03*
X482610Y217650I-118J0D01*
G01*
X476508Y183988D02*
G03*
X476508Y183988I-118J0D01*
G01*
X479460Y175918D02*
G03*
X479460Y175918I-118J0D01*
G01*
X525917Y115387D02*
G03*
X525917Y115387I-118J0D01*
G01*
X542650Y126213D02*
G03*
X542650Y126213I-118J0D01*
G01*
X542551Y134677D02*
G03*
X542551Y134677I-118J0D01*
G01*
X523358Y133300D02*
G03*
X523358Y133300I-118J0D01*
G01*
X512630Y116567D02*
G03*
X512630Y116567I-118J0D01*
G01*
X516173Y133398D02*
G03*
X516173Y133398I-118J0D01*
G01*
X507315Y122669D02*
G03*
X507315Y122669I-118J0D01*
G01*
X489303Y129658D02*
G03*
X489303Y129658I-118J0D01*
G01*
X482512Y123850D02*
G03*
X482512Y123850I-118J0D01*
G01*
X479165Y116765D02*
G03*
X479165Y116765I-118J0D01*
G01*
X469913Y121685D02*
G03*
X469913Y121685I-118J0D01*
G01*
X462138Y121685D02*
G03*
X462138Y121685I-118J0D01*
G01*
X462335Y134874D02*
G03*
X462335Y134874I-118J0D01*
G01*
X469815Y134874D02*
G03*
X469815Y134874I-118J0D01*
G01*
X468044Y184087D02*
G03*
X468044Y184087I-118J0D01*
G01*
Y192748D02*
G03*
X468044Y192748I-118J0D01*
G01*
X468240Y208988D02*
G03*
X468240Y208988I-118J0D01*
G01*
Y216469D02*
G03*
X468240Y216469I-118J0D01*
G01*
X465386Y240386D02*
G03*
X465386Y240386I-118J0D01*
G01*
X238023Y355839D02*
G03*
X238023Y355839I-118J0D01*
G01*
X294815Y377591D02*
G03*
X294815Y377591I-118J0D01*
G01*
X288712Y366370D02*
G03*
X288712Y366370I-118J0D01*
G01*
X237532Y352295D02*
G03*
X237532Y352295I-118J0D01*
G01*
X231232Y362827D02*
G03*
X231232Y362827I-118J0D01*
G01*
X246094Y375425D02*
G03*
X246094Y375425I-118J0D01*
G01*
X231330Y370406D02*
G03*
X231330Y370406I-118J0D01*
G01*
X290287Y365878D02*
G03*
X290287Y365878I-118J0D01*
G01*
X304363Y356626D02*
G03*
X304363Y356626I-118J0D01*
G01*
X306135Y378181D02*
G03*
X306135Y378181I-118J0D01*
G01*
X304460Y334873D02*
G03*
X304460Y334873I-118J0D01*
G01*
X269028Y401607D02*
G03*
X269028Y401607I-118J0D01*
G01*
X265288Y408398D02*
G03*
X265288Y408398I-118J0D01*
G01*
X265386Y414697D02*
G03*
X265386Y414697I-118J0D01*
G01*
X269028Y387729D02*
G03*
X269028Y387729I-118J0D01*
G01*
X269225Y394520D02*
G03*
X269225Y394520I-118J0D01*
G01*
X281528Y408988D02*
G03*
X281528Y408988I-118J0D01*
G01*
X275129Y414008D02*
G03*
X275129Y414008I-118J0D01*
G01*
X289795Y413319D02*
G03*
X289795Y413319I-118J0D01*
G01*
X297570Y412926D02*
G03*
X297570Y412926I-118J0D01*
G01*
X296291Y336546D02*
G03*
X296291Y336546I-118J0D01*
G01*
X306876Y356055D02*
G03*
X306876Y356055I-118J0D01*
G01*
X297177Y359776D02*
G03*
X297177Y359776I-118J0D01*
G01*
X308791Y378575D02*
G03*
X308791Y378575I-118J0D01*
G01*
Y386153D02*
G03*
X308791Y386153I-118J0D01*
G01*
X314992Y396882D02*
G03*
X314992Y396882I-118J0D01*
G01*
X308594Y404953D02*
G03*
X308594Y404953I-118J0D01*
G01*
X308692Y410956D02*
G03*
X308692Y410956I-118J0D01*
G01*
X311744Y437236D02*
G03*
X311744Y437236I-118J0D01*
G01*
X289697Y429264D02*
G03*
X289697Y429264I-118J0D01*
G01*
X279559D02*
G03*
X279559Y429264I-118J0D01*
G01*
X269520Y437236D02*
G03*
X269520Y437236I-118J0D01*
G01*
X246389Y427689D02*
G03*
X246389Y427689I-118J0D01*
G01*
X239106Y414500D02*
G03*
X239106Y414500I-118J0D01*
G01*
X246389D02*
G03*
X246389Y414500I-118J0D01*
G01*
X240287Y380838D02*
G03*
X240287Y380838I-118J0D01*
G01*
X243240Y372768D02*
G03*
X243240Y372768I-118J0D01*
G01*
X289697Y312237D02*
G03*
X289697Y312237I-118J0D01*
G01*
X306429Y323063D02*
G03*
X306429Y323063I-118J0D01*
G01*
X306331Y331528D02*
G03*
X306331Y331528I-118J0D01*
G01*
X287138Y330150D02*
G03*
X287138Y330150I-118J0D01*
G01*
X276409Y313417D02*
G03*
X276409Y313417I-118J0D01*
G01*
X279952Y330248D02*
G03*
X279952Y330248I-118J0D01*
G01*
X271095Y319520D02*
G03*
X271095Y319520I-118J0D01*
G01*
X253082Y326509D02*
G03*
X253082Y326509I-118J0D01*
G01*
X246291Y320701D02*
G03*
X246291Y320701I-118J0D01*
G01*
X242945Y313615D02*
G03*
X242945Y313615I-118J0D01*
G01*
X233693Y318535D02*
G03*
X233693Y318535I-118J0D01*
G01*
X225917Y318535D02*
G03*
X225917Y318535I-118J0D01*
G01*
X226114Y331724D02*
G03*
X226114Y331724I-118J0D01*
G01*
X233595Y331724D02*
G03*
X233595Y331724I-118J0D01*
G01*
X231823Y380937D02*
G03*
X231823Y380937I-118J0D01*
G01*
Y389599D02*
G03*
X231823Y389599I-118J0D01*
G01*
X232020Y405839D02*
G03*
X232020Y405839I-118J0D01*
G01*
Y413319D02*
G03*
X232020Y413319I-118J0D01*
G01*
X229166Y437236D02*
G03*
X229166Y437236I-118J0D01*
G01*
X356134Y355839D02*
G03*
X356134Y355839I-118J0D01*
G01*
X412925Y377591D02*
G03*
X412925Y377591I-118J0D01*
G01*
X406822Y366370D02*
G03*
X406822Y366370I-118J0D01*
G01*
X355642Y352295D02*
G03*
X355642Y352295I-118J0D01*
G01*
X349342Y362827D02*
G03*
X349342Y362827I-118J0D01*
G01*
X364204Y375425D02*
G03*
X364204Y375425I-118J0D01*
G01*
X349440Y370406D02*
G03*
X349440Y370406I-118J0D01*
G01*
X408397Y365878D02*
G03*
X408397Y365878I-118J0D01*
G01*
X422473Y356626D02*
G03*
X422473Y356626I-118J0D01*
G01*
X424245Y378181D02*
G03*
X424245Y378181I-118J0D01*
G01*
X422571Y334873D02*
G03*
X422571Y334873I-118J0D01*
G01*
X387138Y401607D02*
G03*
X387138Y401607I-118J0D01*
G01*
X383398Y408398D02*
G03*
X383398Y408398I-118J0D01*
G01*
X383496Y414697D02*
G03*
X383496Y414697I-118J0D01*
G01*
X387138Y387729D02*
G03*
X387138Y387729I-118J0D01*
G01*
X387335Y394520D02*
G03*
X387335Y394520I-118J0D01*
G01*
X399638Y408988D02*
G03*
X399638Y408988I-118J0D01*
G01*
X393240Y414008D02*
G03*
X393240Y414008I-118J0D01*
G01*
X407905Y413319D02*
G03*
X407905Y413319I-118J0D01*
G01*
X415681Y412926D02*
G03*
X415681Y412926I-118J0D01*
G01*
X414402Y336546D02*
G03*
X414402Y336546I-118J0D01*
G01*
X424987Y356055D02*
G03*
X424987Y356055I-118J0D01*
G01*
X415287Y359776D02*
G03*
X415287Y359776I-118J0D01*
G01*
X426901Y378575D02*
G03*
X426901Y378575I-118J0D01*
G01*
Y386153D02*
G03*
X426901Y386153I-118J0D01*
G01*
X433103Y396882D02*
G03*
X433103Y396882I-118J0D01*
G01*
X426704Y404953D02*
G03*
X426704Y404953I-118J0D01*
G01*
X426803Y410956D02*
G03*
X426803Y410956I-118J0D01*
G01*
X429855Y437236D02*
G03*
X429855Y437236I-118J0D01*
G01*
X407807Y429264D02*
G03*
X407807Y429264I-118J0D01*
G01*
X397669D02*
G03*
X397669Y429264I-118J0D01*
G01*
X387630Y437236D02*
G03*
X387630Y437236I-118J0D01*
G01*
X364500Y427689D02*
G03*
X364500Y427689I-118J0D01*
G01*
X357216Y414500D02*
G03*
X357216Y414500I-118J0D01*
G01*
X364500D02*
G03*
X364500Y414500I-118J0D01*
G01*
X358398Y380838D02*
G03*
X358398Y380838I-118J0D01*
G01*
X361350Y372768D02*
G03*
X361350Y372768I-118J0D01*
G01*
X407807Y312237D02*
G03*
X407807Y312237I-118J0D01*
G01*
X424539Y323063D02*
G03*
X424539Y323063I-118J0D01*
G01*
X424441Y331528D02*
G03*
X424441Y331528I-118J0D01*
G01*
X405248Y330150D02*
G03*
X405248Y330150I-118J0D01*
G01*
X394519Y313417D02*
G03*
X394519Y313417I-118J0D01*
G01*
X398063Y330248D02*
G03*
X398063Y330248I-118J0D01*
G01*
X389205Y319520D02*
G03*
X389205Y319520I-118J0D01*
G01*
X371193Y326509D02*
G03*
X371193Y326509I-118J0D01*
G01*
X364402Y320701D02*
G03*
X364402Y320701I-118J0D01*
G01*
X361055Y313615D02*
G03*
X361055Y313615I-118J0D01*
G01*
X351803Y318535D02*
G03*
X351803Y318535I-118J0D01*
G01*
X344028Y318535D02*
G03*
X344028Y318535I-118J0D01*
G01*
X344225Y331724D02*
G03*
X344225Y331724I-118J0D01*
G01*
X351705Y331724D02*
G03*
X351705Y331724I-118J0D01*
G01*
X349933Y380937D02*
G03*
X349933Y380937I-118J0D01*
G01*
Y389599D02*
G03*
X349933Y389599I-118J0D01*
G01*
X350130Y405839D02*
G03*
X350130Y405839I-118J0D01*
G01*
Y413319D02*
G03*
X350130Y413319I-118J0D01*
G01*
X347276Y437236D02*
G03*
X347276Y437236I-118J0D01*
G01*
X474244Y355839D02*
G03*
X474244Y355839I-118J0D01*
G01*
X531035Y377591D02*
G03*
X531035Y377591I-118J0D01*
G01*
X524932Y366370D02*
G03*
X524932Y366370I-118J0D01*
G01*
X473752Y352295D02*
G03*
X473752Y352295I-118J0D01*
G01*
X467452Y362827D02*
G03*
X467452Y362827I-118J0D01*
G01*
X482314Y375425D02*
G03*
X482314Y375425I-118J0D01*
G01*
X467551Y370406D02*
G03*
X467551Y370406I-118J0D01*
G01*
X526508Y365878D02*
G03*
X526508Y365878I-118J0D01*
G01*
X540583Y356626D02*
G03*
X540583Y356626I-118J0D01*
G01*
X542355Y378181D02*
G03*
X542355Y378181I-118J0D01*
G01*
X540681Y334873D02*
G03*
X540681Y334873I-118J0D01*
G01*
X505248Y401607D02*
G03*
X505248Y401607I-118J0D01*
G01*
X501508Y408398D02*
G03*
X501508Y408398I-118J0D01*
G01*
X501607Y414697D02*
G03*
X501607Y414697I-118J0D01*
G01*
X505248Y387729D02*
G03*
X505248Y387729I-118J0D01*
G01*
X505445Y394520D02*
G03*
X505445Y394520I-118J0D01*
G01*
X517748Y408988D02*
G03*
X517748Y408988I-118J0D01*
G01*
X511350Y414008D02*
G03*
X511350Y414008I-118J0D01*
G01*
X526015Y413319D02*
G03*
X526015Y413319I-118J0D01*
G01*
X533791Y412926D02*
G03*
X533791Y412926I-118J0D01*
G01*
X532512Y336546D02*
G03*
X532512Y336546I-118J0D01*
G01*
X543097Y356055D02*
G03*
X543097Y356055I-118J0D01*
G01*
X533397Y359776D02*
G03*
X533397Y359776I-118J0D01*
G01*
X545011Y378575D02*
G03*
X545011Y378575I-118J0D01*
G01*
Y386153D02*
G03*
X545011Y386153I-118J0D01*
G01*
X551213Y396882D02*
G03*
X551213Y396882I-118J0D01*
G01*
X544814Y404953D02*
G03*
X544814Y404953I-118J0D01*
G01*
X544913Y410956D02*
G03*
X544913Y410956I-118J0D01*
G01*
X547965Y437236D02*
G03*
X547965Y437236I-118J0D01*
G01*
X525917Y429264D02*
G03*
X525917Y429264I-118J0D01*
G01*
X515779D02*
G03*
X515779Y429264I-118J0D01*
G01*
X505740Y437236D02*
G03*
X505740Y437236I-118J0D01*
G01*
X482610Y427689D02*
G03*
X482610Y427689I-118J0D01*
G01*
X475326Y414500D02*
G03*
X475326Y414500I-118J0D01*
G01*
X482610D02*
G03*
X482610Y414500I-118J0D01*
G01*
X476508Y380838D02*
G03*
X476508Y380838I-118J0D01*
G01*
X479460Y372768D02*
G03*
X479460Y372768I-118J0D01*
G01*
X525917Y312237D02*
G03*
X525917Y312237I-118J0D01*
G01*
X542650Y323063D02*
G03*
X542650Y323063I-118J0D01*
G01*
X542551Y331528D02*
G03*
X542551Y331528I-118J0D01*
G01*
X523358Y330150D02*
G03*
X523358Y330150I-118J0D01*
G01*
X512630Y313417D02*
G03*
X512630Y313417I-118J0D01*
G01*
X516173Y330248D02*
G03*
X516173Y330248I-118J0D01*
G01*
X507315Y319520D02*
G03*
X507315Y319520I-118J0D01*
G01*
X489303Y326509D02*
G03*
X489303Y326509I-118J0D01*
G01*
X482512Y320701D02*
G03*
X482512Y320701I-118J0D01*
G01*
X479165Y313615D02*
G03*
X479165Y313615I-118J0D01*
G01*
X469913Y318535D02*
G03*
X469913Y318535I-118J0D01*
G01*
X462138Y318535D02*
G03*
X462138Y318535I-118J0D01*
G01*
X462335Y331724D02*
G03*
X462335Y331724I-118J0D01*
G01*
X469815Y331724D02*
G03*
X469815Y331724I-118J0D01*
G01*
X468044Y380937D02*
G03*
X468044Y380937I-118J0D01*
G01*
Y389599D02*
G03*
X468044Y389599I-118J0D01*
G01*
X468240Y405839D02*
G03*
X468240Y405839I-118J0D01*
G01*
Y413319D02*
G03*
X468240Y413319I-118J0D01*
G01*
X465386Y437236D02*
G03*
X465386Y437236I-118J0D01*
G01*
M02*
