G04*
G04 #@! TF.GenerationSoftware,Altium Limited,Altium Designer,20.1.11 (218)*
G04*
G04 Layer_Physical_Order=2*
G04 Layer_Color=16711680*
%FSLAX25Y25*%
%MOIN*%
G70*
G04*
G04 #@! TF.SameCoordinates,9421AAF7-A1CE-47F4-AB83-8062CB6876A7*
G04*
G04*
G04 #@! TF.FilePolarity,Positive*
G04*
G01*
G75*
%ADD11R,0.03543X0.03150*%
%ADD12R,0.05906X0.05906*%
%ADD13C,0.05906*%
%ADD14R,0.03150X0.03543*%
%ADD19C,0.01000*%
%ADD20C,0.01500*%
%ADD24C,0.02362*%
%ADD25R,0.07874X0.04724*%
%ADD26R,0.26378X0.23622*%
%ADD27R,0.04724X0.07874*%
%ADD28R,0.23622X0.26378*%
%ADD29R,0.13606X0.05049*%
%ADD30R,0.03937X0.02362*%
%ADD31R,0.10630X0.05906*%
%ADD32R,0.05906X0.05906*%
%ADD33R,0.05477X0.01337*%
%ADD34R,0.15502X0.03347*%
%ADD35R,0.10707X0.01526*%
%ADD36R,0.12957X0.02559*%
%ADD37R,0.10000X0.14268*%
%ADD38R,0.54921X0.11516*%
%ADD39R,0.04724X0.02200*%
%ADD40R,0.91660X0.08071*%
%ADD41R,0.08700X0.18000*%
G36*
X537026Y494618D02*
Y484871D01*
X530256D01*
Y457493D01*
X529798Y457392D01*
X527316D01*
X526933Y457233D01*
X526775Y456850D01*
Y438850D01*
X526933Y438468D01*
X527316Y438309D01*
X536016D01*
X536475Y437958D01*
Y432151D01*
X530256D01*
Y404805D01*
X514587D01*
Y432151D01*
X508437D01*
Y439521D01*
X510311D01*
Y437199D01*
X510119Y437070D01*
X509747Y436514D01*
X509617Y435858D01*
X509747Y435202D01*
X510119Y434646D01*
X510675Y434275D01*
X511331Y434144D01*
X511987Y434275D01*
X512543Y434646D01*
X512914Y435202D01*
X513045Y435858D01*
X512914Y436514D01*
X512543Y437070D01*
X512350Y437199D01*
Y439521D01*
X514114D01*
Y448395D01*
X508437D01*
Y457493D01*
X514508D01*
Y484871D01*
X507738D01*
Y494618D01*
X507780Y494681D01*
X536984D01*
X537026Y494618D01*
D02*
G37*
G36*
X418916D02*
Y484871D01*
X412146D01*
Y457493D01*
X411688Y457392D01*
X409205D01*
X408823Y457233D01*
X408664Y456850D01*
Y438850D01*
X408823Y438468D01*
X409205Y438309D01*
X417906D01*
X418364Y437958D01*
Y432151D01*
X412146D01*
Y404805D01*
X396476D01*
Y432151D01*
X390327D01*
Y439521D01*
X392201D01*
Y437199D01*
X392008Y437070D01*
X391637Y436514D01*
X391506Y435858D01*
X391637Y435202D01*
X392008Y434646D01*
X392565Y434275D01*
X393220Y434144D01*
X393876Y434275D01*
X394432Y434646D01*
X394804Y435202D01*
X394935Y435858D01*
X394804Y436514D01*
X394432Y437070D01*
X394240Y437199D01*
Y439521D01*
X396004D01*
Y448395D01*
X390327D01*
Y457493D01*
X396398D01*
Y484871D01*
X389628D01*
Y494618D01*
X389670Y494681D01*
X418874D01*
X418916Y494618D01*
D02*
G37*
G36*
X300805D02*
Y484871D01*
X294036D01*
Y457493D01*
X293578Y457392D01*
X291095D01*
X290713Y457233D01*
X290554Y456850D01*
Y438850D01*
X290713Y438468D01*
X291095Y438309D01*
X299795D01*
X300254Y437958D01*
Y432151D01*
X294036D01*
Y404805D01*
X278366D01*
Y432151D01*
X272216D01*
Y439521D01*
X274091D01*
Y437199D01*
X273898Y437070D01*
X273527Y436514D01*
X273396Y435858D01*
X273527Y435202D01*
X273898Y434646D01*
X274454Y434275D01*
X275110Y434144D01*
X275766Y434275D01*
X276322Y434646D01*
X276694Y435202D01*
X276824Y435858D01*
X276694Y436514D01*
X276322Y437070D01*
X276130Y437199D01*
Y439521D01*
X277894D01*
Y448395D01*
X272216D01*
Y457493D01*
X278288D01*
Y484871D01*
X271518D01*
Y494618D01*
X271560Y494681D01*
X300763D01*
X300805Y494618D01*
D02*
G37*
G36*
X560311Y299870D02*
X518789D01*
X518597Y300332D01*
X518800Y300535D01*
X518959Y300917D01*
X518959Y300917D01*
X518959Y305494D01*
X518931Y305561D01*
Y305697D01*
X519431Y305964D01*
X519631Y305830D01*
X520287Y305699D01*
X520943Y305830D01*
X521499Y306201D01*
X521871Y306757D01*
X522001Y307413D01*
X521871Y308069D01*
X521499Y308625D01*
X520943Y308997D01*
X520287Y309127D01*
X519631Y308997D01*
X519431Y308863D01*
X518931Y309130D01*
Y310421D01*
X510057D01*
Y305527D01*
X509236Y304707D01*
X494045Y304707D01*
Y310120D01*
Y310354D01*
X485171D01*
Y310120D01*
Y309579D01*
Y308719D01*
X481047D01*
X480559Y308622D01*
X480146Y308346D01*
X476383Y304584D01*
X468516D01*
Y304559D01*
X449323Y304559D01*
X449298Y304584D01*
X448844D01*
X447841Y305586D01*
Y347076D01*
X447846D01*
X447846Y352394D01*
X448732Y353347D01*
X449973Y354588D01*
X450476Y355091D01*
X453949Y358564D01*
X457582Y362197D01*
D01*
X457582Y362197D01*
X458083Y362097D01*
X458630Y362206D01*
X458630Y362206D01*
D01*
D01*
X458741Y362229D01*
X459295Y362599D01*
X459666Y363155D01*
X459797Y363811D01*
X459788Y363854D01*
X460142Y364208D01*
X460344Y364167D01*
X461000Y364298D01*
X461556Y364669D01*
X461928Y365225D01*
X462058Y365881D01*
X461928Y366537D01*
X461556Y367093D01*
X461364Y367222D01*
Y370461D01*
X462623Y371720D01*
X462630D01*
Y371727D01*
X463190Y372287D01*
X463348Y372669D01*
X463348Y372669D01*
X463348Y395652D01*
X468020D01*
Y386802D01*
X473744D01*
Y395652D01*
X490400D01*
Y394550D01*
X490437Y394460D01*
Y386802D01*
X496162D01*
Y394442D01*
X496207Y394550D01*
Y395652D01*
X508390D01*
Y386802D01*
X514114D01*
Y395652D01*
X530770D01*
Y394550D01*
X530807Y394460D01*
Y386802D01*
X536532D01*
Y394442D01*
X536577Y394550D01*
Y399406D01*
X538238D01*
X538367Y399213D01*
X538923Y398842D01*
X539579Y398711D01*
X540235Y398842D01*
X540791Y399213D01*
X541162Y399769D01*
X541293Y400425D01*
X541162Y401081D01*
X540791Y401637D01*
X540235Y402009D01*
X539579Y402139D01*
X538923Y402009D01*
X538367Y401637D01*
X538238Y401445D01*
X536577D01*
Y404264D01*
X536573Y404273D01*
X536907Y404773D01*
X554878D01*
Y432151D01*
X548807D01*
Y439521D01*
X553815D01*
Y437100D01*
X553623Y436972D01*
X553251Y436416D01*
X553121Y435760D01*
X553251Y435104D01*
X553623Y434548D01*
X554179Y434176D01*
X554835Y434046D01*
X555491Y434176D01*
X556047Y434548D01*
X556418Y435104D01*
X556549Y435760D01*
X556418Y436416D01*
X556047Y436972D01*
X555854Y437100D01*
Y440675D01*
X555777Y441065D01*
X555556Y441396D01*
X554484Y442467D01*
Y448395D01*
X548807D01*
Y457493D01*
X554878D01*
Y484871D01*
X548108D01*
Y494618D01*
X548150Y494681D01*
X560311D01*
Y299870D01*
D02*
G37*
G36*
X442201D02*
X400678D01*
X400487Y300332D01*
X400690Y300535D01*
X400848Y300917D01*
X400848Y300917D01*
X400848Y305494D01*
X400820Y305561D01*
Y305697D01*
X401320Y305964D01*
X401521Y305830D01*
X402177Y305699D01*
X402833Y305830D01*
X403389Y306201D01*
X403761Y306757D01*
X403891Y307413D01*
X403761Y308069D01*
X403389Y308625D01*
X402833Y308997D01*
X402177Y309127D01*
X401521Y308997D01*
X401320Y308863D01*
X400820Y309130D01*
Y310421D01*
X391946D01*
Y305527D01*
X391126Y304707D01*
X375935Y304707D01*
Y310120D01*
Y310354D01*
X367061D01*
Y310120D01*
Y309579D01*
Y308719D01*
X362937D01*
X362449Y308622D01*
X362036Y308346D01*
X358273Y304584D01*
X350406D01*
Y304559D01*
X331213Y304559D01*
X331188Y304584D01*
X330734D01*
X329731Y305586D01*
Y347076D01*
X329736D01*
X329736Y352394D01*
X330622Y353347D01*
X331862Y354588D01*
X332366Y355091D01*
X335839Y358564D01*
X339472Y362197D01*
D01*
X339472Y362197D01*
X339972Y362097D01*
X340520Y362206D01*
X340520Y362206D01*
D01*
D01*
X340631Y362229D01*
X341184Y362599D01*
X341556Y363155D01*
X341687Y363811D01*
X341678Y363854D01*
X342032Y364208D01*
X342234Y364167D01*
X342890Y364298D01*
X343446Y364669D01*
X343818Y365225D01*
X343948Y365881D01*
X343818Y366537D01*
X343446Y367093D01*
X343254Y367222D01*
Y370461D01*
X344513Y371720D01*
X344520D01*
Y371727D01*
X345079Y372287D01*
X345238Y372669D01*
X345238Y372669D01*
X345238Y395652D01*
X349909D01*
Y386802D01*
X355634D01*
Y395652D01*
X372289D01*
Y394550D01*
X372327Y394460D01*
Y386802D01*
X378051D01*
Y394442D01*
X378096Y394550D01*
Y395652D01*
X390279D01*
Y386802D01*
X396004D01*
Y395652D01*
X412660D01*
Y394550D01*
X412697Y394460D01*
Y386802D01*
X418421D01*
Y394442D01*
X418466Y394550D01*
Y399406D01*
X420128D01*
X420257Y399213D01*
X420813Y398842D01*
X421468Y398711D01*
X422124Y398842D01*
X422681Y399213D01*
X423052Y399769D01*
X423182Y400425D01*
X423052Y401081D01*
X422681Y401637D01*
X422124Y402009D01*
X421468Y402139D01*
X420813Y402009D01*
X420257Y401637D01*
X420128Y401445D01*
X418466D01*
Y404264D01*
X418462Y404273D01*
X418796Y404773D01*
X436768D01*
Y432151D01*
X430697D01*
Y439521D01*
X435705D01*
Y437100D01*
X435512Y436972D01*
X435141Y436416D01*
X435010Y435760D01*
X435141Y435104D01*
X435512Y434548D01*
X436068Y434176D01*
X436724Y434046D01*
X437380Y434176D01*
X437936Y434548D01*
X438308Y435104D01*
X438438Y435760D01*
X438308Y436416D01*
X437936Y436972D01*
X437744Y437100D01*
Y440675D01*
X437666Y441065D01*
X437445Y441396D01*
X436374Y442467D01*
Y448395D01*
X430697D01*
Y457493D01*
X436768D01*
Y484871D01*
X429998D01*
Y494618D01*
X430040Y494681D01*
X442201D01*
Y299870D01*
D02*
G37*
G36*
X324091D02*
X282568D01*
X282377Y300332D01*
X282579Y300535D01*
X282738Y300917D01*
X282738Y300917D01*
X282738Y305494D01*
X282710Y305561D01*
Y305697D01*
X283210Y305964D01*
X283411Y305830D01*
X284067Y305699D01*
X284723Y305830D01*
X285279Y306201D01*
X285650Y306757D01*
X285781Y307413D01*
X285650Y308069D01*
X285279Y308625D01*
X284723Y308997D01*
X284067Y309127D01*
X283411Y308997D01*
X283210Y308863D01*
X282710Y309130D01*
Y310421D01*
X273836D01*
Y305527D01*
X273016Y304707D01*
X257824Y304707D01*
Y310120D01*
Y310354D01*
X248951D01*
Y310120D01*
Y309579D01*
Y308719D01*
X244827D01*
X244339Y308622D01*
X243926Y308346D01*
X240163Y304584D01*
X232295D01*
Y304559D01*
X213102Y304559D01*
X213078Y304584D01*
X212624D01*
X211621Y305586D01*
Y347076D01*
X211626D01*
X211626Y352394D01*
X212512Y353347D01*
X213752Y354588D01*
X214256Y355091D01*
X217729Y358564D01*
X221361Y362197D01*
D01*
X221361Y362197D01*
X221862Y362097D01*
X222410Y362206D01*
X222410Y362206D01*
D01*
D01*
X222521Y362229D01*
X223074Y362599D01*
X223446Y363155D01*
X223576Y363811D01*
X223568Y363854D01*
X223921Y364208D01*
X224124Y364167D01*
X224780Y364298D01*
X225336Y364669D01*
X225708Y365225D01*
X225838Y365881D01*
X225708Y366537D01*
X225336Y367093D01*
X225144Y367222D01*
Y370461D01*
X226403Y371720D01*
X226409D01*
Y371727D01*
X226969Y372287D01*
X227128Y372669D01*
X227128Y372669D01*
X227128Y395652D01*
X231799D01*
Y386802D01*
X237524D01*
Y395652D01*
X254179D01*
Y394550D01*
X254217Y394460D01*
Y386802D01*
X259941D01*
Y394442D01*
X259986Y394550D01*
Y395652D01*
X272169D01*
Y386802D01*
X277894D01*
Y395652D01*
X294549D01*
Y394550D01*
X294587Y394460D01*
Y386802D01*
X300311D01*
Y394442D01*
X300356Y394550D01*
Y399406D01*
X302018D01*
X302146Y399213D01*
X302702Y398842D01*
X303358Y398711D01*
X304014Y398842D01*
X304570Y399213D01*
X304942Y399769D01*
X305072Y400425D01*
X304942Y401081D01*
X304570Y401637D01*
X304014Y402009D01*
X303358Y402139D01*
X302702Y402009D01*
X302146Y401637D01*
X302018Y401445D01*
X300356D01*
Y404264D01*
X300352Y404273D01*
X300686Y404773D01*
X318658D01*
Y432151D01*
X312586D01*
Y439521D01*
X317595D01*
Y437100D01*
X317402Y436972D01*
X317031Y436416D01*
X316900Y435760D01*
X317031Y435104D01*
X317402Y434548D01*
X317958Y434176D01*
X318614Y434046D01*
X319270Y434176D01*
X319826Y434548D01*
X320198Y435104D01*
X320328Y435760D01*
X320198Y436416D01*
X319826Y436972D01*
X319634Y437100D01*
Y440675D01*
X319556Y441065D01*
X319335Y441396D01*
X318264Y442467D01*
Y448395D01*
X312586D01*
Y457493D01*
X318658D01*
Y484871D01*
X311888D01*
Y494618D01*
X311930Y494681D01*
X324091D01*
Y299870D01*
D02*
G37*
G36*
X496656Y494618D02*
Y484871D01*
X489886D01*
Y457493D01*
X489428Y457392D01*
X486946D01*
X486563Y457233D01*
X486405Y456850D01*
Y438850D01*
X486563Y438468D01*
X486946Y438309D01*
X495646D01*
X496104Y437958D01*
Y432151D01*
X489965D01*
Y404805D01*
X474138D01*
Y419681D01*
X475640D01*
X475768Y419489D01*
X476324Y419117D01*
X476980Y418987D01*
X477636Y419117D01*
X478192Y419489D01*
X478564Y420045D01*
X478694Y420701D01*
X478564Y421357D01*
X478192Y421913D01*
X477636Y422284D01*
X476980Y422415D01*
X476324Y422284D01*
X475768Y421913D01*
X475640Y421720D01*
X474138D01*
Y432151D01*
X468067D01*
Y439521D01*
X469760D01*
Y436510D01*
X469567Y436381D01*
X469196Y435825D01*
X469066Y435169D01*
X469196Y434513D01*
X469567Y433957D01*
X470124Y433586D01*
X470780Y433455D01*
X471435Y433586D01*
X471991Y433957D01*
X472363Y434513D01*
X472494Y435169D01*
X472363Y435825D01*
X471991Y436381D01*
X471799Y436510D01*
Y439521D01*
X473744D01*
Y448395D01*
X468067D01*
Y457493D01*
X474138D01*
Y484871D01*
X467368D01*
Y494618D01*
X467410Y494681D01*
X496614D01*
X496656Y494618D01*
D02*
G37*
G36*
X378545D02*
Y484871D01*
X371776D01*
Y457493D01*
X371318Y457392D01*
X368835D01*
X368453Y457233D01*
X368294Y456850D01*
Y438850D01*
X368453Y438468D01*
X368835Y438309D01*
X377535D01*
X377994Y437958D01*
Y432151D01*
X371854D01*
Y404805D01*
X356028D01*
Y419681D01*
X357529D01*
X357658Y419489D01*
X358214Y419117D01*
X358870Y418987D01*
X359526Y419117D01*
X360082Y419489D01*
X360454Y420045D01*
X360584Y420701D01*
X360454Y421357D01*
X360082Y421913D01*
X359526Y422284D01*
X358870Y422415D01*
X358214Y422284D01*
X357658Y421913D01*
X357529Y421720D01*
X356028D01*
Y432151D01*
X349956D01*
Y439521D01*
X351650D01*
Y436510D01*
X351457Y436381D01*
X351086Y435825D01*
X350955Y435169D01*
X351086Y434513D01*
X351457Y433957D01*
X352013Y433586D01*
X352669Y433455D01*
X353325Y433586D01*
X353881Y433957D01*
X354253Y434513D01*
X354383Y435169D01*
X354253Y435825D01*
X353881Y436381D01*
X353689Y436510D01*
Y439521D01*
X355634D01*
Y448395D01*
X349956D01*
Y457493D01*
X356028D01*
Y484871D01*
X349258D01*
Y494618D01*
X349300Y494681D01*
X378503D01*
X378545Y494618D01*
D02*
G37*
G36*
X260435D02*
Y484871D01*
X253665D01*
Y457493D01*
X253207Y457392D01*
X250725D01*
X250342Y457233D01*
X250184Y456850D01*
Y438850D01*
X250342Y438468D01*
X250725Y438309D01*
X259425D01*
X259884Y437958D01*
Y432151D01*
X253744D01*
Y404805D01*
X237917D01*
Y419681D01*
X239419D01*
X239548Y419489D01*
X240104Y419117D01*
X240760Y418987D01*
X241416Y419117D01*
X241972Y419489D01*
X242343Y420045D01*
X242474Y420701D01*
X242343Y421357D01*
X241972Y421913D01*
X241416Y422284D01*
X240760Y422415D01*
X240104Y422284D01*
X239548Y421913D01*
X239419Y421720D01*
X237917D01*
Y432151D01*
X231846D01*
Y439521D01*
X233539D01*
Y436510D01*
X233347Y436381D01*
X232976Y435825D01*
X232845Y435169D01*
X232976Y434513D01*
X233347Y433957D01*
X233903Y433586D01*
X234559Y433455D01*
X235215Y433586D01*
X235771Y433957D01*
X236143Y434513D01*
X236273Y435169D01*
X236143Y435825D01*
X235771Y436381D01*
X235579Y436510D01*
Y439521D01*
X237524D01*
Y448395D01*
X231846D01*
Y457493D01*
X237917D01*
Y484871D01*
X231148D01*
Y494618D01*
X231190Y494681D01*
X260393D01*
X260435Y494618D01*
D02*
G37*
G36*
X548266Y430350D02*
X537016D01*
Y459350D01*
X548266D01*
Y430350D01*
D02*
G37*
G36*
X507896D02*
X496646D01*
Y459350D01*
X507896D01*
Y430350D01*
D02*
G37*
G36*
X467526D02*
X456276D01*
Y459350D01*
X467526D01*
Y430350D01*
D02*
G37*
G36*
X430156D02*
X418905D01*
Y459350D01*
X430156D01*
Y430350D01*
D02*
G37*
G36*
X389785D02*
X378535D01*
Y459350D01*
X389785D01*
Y430350D01*
D02*
G37*
G36*
X349415D02*
X338165D01*
Y459350D01*
X349415D01*
Y430350D01*
D02*
G37*
G36*
X312045D02*
X300795D01*
Y459350D01*
X312045D01*
Y430350D01*
D02*
G37*
G36*
X271675D02*
X260425D01*
Y459350D01*
X271675D01*
Y430350D01*
D02*
G37*
G36*
X231305D02*
X220055D01*
Y459350D01*
X231305D01*
Y430350D01*
D02*
G37*
G36*
X456286Y494618D02*
Y484871D01*
X449516D01*
Y457493D01*
X449058Y457392D01*
X446576D01*
X446193Y457233D01*
X446034Y456850D01*
Y438850D01*
X446193Y438468D01*
X446576Y438309D01*
X455276D01*
X455734Y437958D01*
Y432151D01*
X449516D01*
Y404805D01*
X444376D01*
X444240Y404895D01*
Y494681D01*
X456244D01*
X456286Y494618D01*
D02*
G37*
G36*
X338175D02*
Y484871D01*
X331406D01*
Y457493D01*
X330948Y457392D01*
X328465D01*
X328083Y457233D01*
X327924Y456850D01*
Y438850D01*
X328083Y438468D01*
X328465Y438309D01*
X337165D01*
X337624Y437958D01*
Y432151D01*
X331406D01*
Y404805D01*
X326265D01*
X326130Y404895D01*
Y494681D01*
X338133D01*
X338175Y494618D01*
D02*
G37*
G36*
X220065D02*
Y484871D01*
X213295D01*
Y457493D01*
X212837Y457392D01*
X210355D01*
X209972Y457233D01*
X209814Y456850D01*
Y438850D01*
X209972Y438468D01*
X210355Y438309D01*
X219055D01*
X219514Y437958D01*
Y432151D01*
X213295D01*
Y404805D01*
X208155D01*
X208020Y404895D01*
Y494681D01*
X220023D01*
X220065Y494618D01*
D02*
G37*
G36*
X462807Y372669D02*
X460937Y370799D01*
X446862Y370799D01*
X444376Y373286D01*
X444376Y396750D01*
X462807D01*
X462807Y372669D01*
D02*
G37*
G36*
X344697D02*
X342827Y370799D01*
X328752Y370799D01*
X326265Y373286D01*
X326265Y396750D01*
X344697D01*
X344697Y372669D01*
D02*
G37*
G36*
X226587D02*
X224716Y370799D01*
X210642Y370799D01*
X208155Y373286D01*
X208155Y396750D01*
X226587D01*
X226587Y372669D01*
D02*
G37*
G36*
X518417Y305494D02*
X518417Y300917D01*
X517433Y299933D01*
X481016Y299933D01*
X480425Y300524D01*
Y303575D01*
X481016Y304165D01*
X509461Y304165D01*
X510886Y305591D01*
X518417Y305494D01*
D02*
G37*
G36*
X400307D02*
X400307Y300917D01*
X399323Y299933D01*
X362906Y299933D01*
X362315Y300524D01*
Y303575D01*
X362906Y304165D01*
X391350Y304165D01*
X392776Y305591D01*
X400307Y305494D01*
D02*
G37*
G36*
X282197D02*
X282197Y300917D01*
X281213Y299933D01*
X244795Y299933D01*
X244205Y300524D01*
Y303575D01*
X244795Y304165D01*
X273240Y304165D01*
X274665Y305591D01*
X282197Y305494D01*
D02*
G37*
G36*
X537026Y297768D02*
Y288020D01*
X530256D01*
Y260643D01*
X529798Y260541D01*
X527316D01*
X526933Y260383D01*
X526775Y260000D01*
Y242000D01*
X526933Y241617D01*
X527316Y241459D01*
X536016D01*
X536475Y241108D01*
Y235301D01*
X530256D01*
Y207955D01*
X514587D01*
Y235301D01*
X508437D01*
Y242671D01*
X510311D01*
Y240348D01*
X510119Y240220D01*
X509747Y239664D01*
X509617Y239008D01*
X509747Y238352D01*
X510119Y237796D01*
X510675Y237424D01*
X511331Y237294D01*
X511987Y237424D01*
X512543Y237796D01*
X512914Y238352D01*
X513045Y239008D01*
X512914Y239664D01*
X512543Y240220D01*
X512350Y240348D01*
Y242671D01*
X514114D01*
Y251545D01*
X508437D01*
Y260643D01*
X514508D01*
Y288020D01*
X507738D01*
Y297768D01*
X507780Y297831D01*
X536984D01*
X537026Y297768D01*
D02*
G37*
G36*
X418916D02*
Y288020D01*
X412146D01*
Y260643D01*
X411688Y260541D01*
X409205D01*
X408823Y260383D01*
X408664Y260000D01*
Y242000D01*
X408823Y241617D01*
X409205Y241459D01*
X417906D01*
X418364Y241108D01*
Y235301D01*
X412146D01*
Y207955D01*
X396476D01*
Y235301D01*
X390327D01*
Y242671D01*
X392201D01*
Y240348D01*
X392008Y240220D01*
X391637Y239664D01*
X391506Y239008D01*
X391637Y238352D01*
X392008Y237796D01*
X392565Y237424D01*
X393220Y237294D01*
X393876Y237424D01*
X394432Y237796D01*
X394804Y238352D01*
X394935Y239008D01*
X394804Y239664D01*
X394432Y240220D01*
X394240Y240348D01*
Y242671D01*
X396004D01*
Y251545D01*
X390327D01*
Y260643D01*
X396398D01*
Y288020D01*
X389628D01*
Y297768D01*
X389670Y297831D01*
X418874D01*
X418916Y297768D01*
D02*
G37*
G36*
X300805D02*
Y288020D01*
X294036D01*
Y260643D01*
X293578Y260541D01*
X291095D01*
X290713Y260383D01*
X290554Y260000D01*
Y242000D01*
X290713Y241617D01*
X291095Y241459D01*
X299795D01*
X300254Y241108D01*
Y235301D01*
X294036D01*
Y207955D01*
X278366D01*
Y235301D01*
X272216D01*
Y242671D01*
X274091D01*
Y240348D01*
X273898Y240220D01*
X273527Y239664D01*
X273396Y239008D01*
X273527Y238352D01*
X273898Y237796D01*
X274454Y237424D01*
X275110Y237294D01*
X275766Y237424D01*
X276322Y237796D01*
X276694Y238352D01*
X276824Y239008D01*
X276694Y239664D01*
X276322Y240220D01*
X276130Y240348D01*
Y242671D01*
X277894D01*
Y251545D01*
X272216D01*
Y260643D01*
X278288D01*
Y288020D01*
X271518D01*
Y297768D01*
X271560Y297831D01*
X300763D01*
X300805Y297768D01*
D02*
G37*
G36*
X560311Y103020D02*
X518789D01*
X518597Y103481D01*
X518800Y103684D01*
X518959Y104067D01*
X518959Y104067D01*
X518959Y108644D01*
X518931Y108711D01*
Y108846D01*
X519431Y109114D01*
X519631Y108979D01*
X520287Y108849D01*
X520943Y108979D01*
X521499Y109351D01*
X521871Y109907D01*
X522001Y110563D01*
X521871Y111219D01*
X521499Y111775D01*
X520943Y112146D01*
X520287Y112277D01*
X519631Y112146D01*
X519431Y112012D01*
X518931Y112280D01*
Y113571D01*
X510057D01*
Y108676D01*
X509236Y107856D01*
X494045Y107856D01*
Y113270D01*
Y113504D01*
X485171D01*
Y113270D01*
Y112729D01*
Y111869D01*
X481047D01*
X480559Y111772D01*
X480146Y111496D01*
X476383Y107733D01*
X468516D01*
Y107709D01*
X449323Y107709D01*
X449298Y107733D01*
X448844D01*
X447841Y108736D01*
Y150226D01*
X447846D01*
X447846Y155543D01*
X448732Y156497D01*
X449973Y157737D01*
X450476Y158241D01*
X453949Y161714D01*
X457582Y165346D01*
D01*
X457582Y165346D01*
X458083Y165247D01*
X458630Y165355D01*
X458630Y165356D01*
D01*
D01*
X458741Y165379D01*
X459295Y165749D01*
X459666Y166305D01*
X459797Y166961D01*
X459788Y167004D01*
X460142Y167357D01*
X460344Y167317D01*
X461000Y167447D01*
X461556Y167819D01*
X461928Y168375D01*
X462058Y169031D01*
X461928Y169687D01*
X461556Y170243D01*
X461364Y170371D01*
Y173610D01*
X462623Y174870D01*
X462630D01*
Y174876D01*
X463190Y175436D01*
X463348Y175819D01*
X463348Y175819D01*
X463348Y198801D01*
X468020D01*
Y189951D01*
X473744D01*
Y198801D01*
X490400D01*
Y197700D01*
X490437Y197610D01*
Y189951D01*
X496162D01*
Y197591D01*
X496207Y197700D01*
Y198801D01*
X508390D01*
Y189951D01*
X514114D01*
Y198801D01*
X530770D01*
Y197700D01*
X530807Y197610D01*
Y189951D01*
X536532D01*
Y197591D01*
X536577Y197700D01*
Y202555D01*
X538238D01*
X538367Y202363D01*
X538923Y201991D01*
X539579Y201861D01*
X540235Y201991D01*
X540791Y202363D01*
X541162Y202919D01*
X541293Y203575D01*
X541162Y204231D01*
X540791Y204787D01*
X540235Y205158D01*
X539579Y205289D01*
X538923Y205158D01*
X538367Y204787D01*
X538238Y204594D01*
X536577D01*
Y207413D01*
X536573Y207423D01*
X536907Y207923D01*
X554878D01*
Y235301D01*
X548807D01*
Y242671D01*
X553815D01*
Y240250D01*
X553623Y240121D01*
X553251Y239565D01*
X553121Y238909D01*
X553251Y238253D01*
X553623Y237697D01*
X554179Y237326D01*
X554835Y237195D01*
X555491Y237326D01*
X556047Y237697D01*
X556418Y238253D01*
X556549Y238909D01*
X556418Y239565D01*
X556047Y240121D01*
X555854Y240250D01*
Y243824D01*
X555777Y244215D01*
X555556Y244545D01*
X554484Y245617D01*
Y251545D01*
X548807D01*
Y260643D01*
X554878D01*
Y288020D01*
X548108D01*
Y297768D01*
X548150Y297831D01*
X560311D01*
Y103020D01*
D02*
G37*
G36*
X442201D02*
X400678D01*
X400487Y103481D01*
X400690Y103684D01*
X400848Y104067D01*
X400848Y104067D01*
X400848Y108644D01*
X400820Y108711D01*
Y108846D01*
X401320Y109114D01*
X401521Y108979D01*
X402177Y108849D01*
X402833Y108979D01*
X403389Y109351D01*
X403761Y109907D01*
X403891Y110563D01*
X403761Y111219D01*
X403389Y111775D01*
X402833Y112146D01*
X402177Y112277D01*
X401521Y112146D01*
X401320Y112012D01*
X400820Y112280D01*
Y113571D01*
X391946D01*
Y108676D01*
X391126Y107856D01*
X375935Y107856D01*
Y113270D01*
Y113504D01*
X367061D01*
Y113270D01*
Y112729D01*
Y111869D01*
X362937D01*
X362449Y111772D01*
X362036Y111496D01*
X358273Y107733D01*
X350406D01*
Y107709D01*
X331213Y107709D01*
X331188Y107733D01*
X330734D01*
X329731Y108736D01*
Y150226D01*
X329736D01*
X329736Y155543D01*
X330622Y156497D01*
X331862Y157737D01*
X332366Y158241D01*
X335839Y161714D01*
X339472Y165346D01*
D01*
X339472Y165346D01*
X339972Y165247D01*
X340520Y165355D01*
X340520Y165356D01*
D01*
D01*
X340631Y165379D01*
X341184Y165749D01*
X341556Y166305D01*
X341687Y166961D01*
X341678Y167004D01*
X342032Y167357D01*
X342234Y167317D01*
X342890Y167447D01*
X343446Y167819D01*
X343818Y168375D01*
X343948Y169031D01*
X343818Y169687D01*
X343446Y170243D01*
X343254Y170371D01*
Y173610D01*
X344513Y174870D01*
X344520D01*
Y174876D01*
X345079Y175436D01*
X345238Y175819D01*
X345238Y175819D01*
X345238Y198801D01*
X349909D01*
Y189951D01*
X355634D01*
Y198801D01*
X372289D01*
Y197700D01*
X372327Y197610D01*
Y189951D01*
X378051D01*
Y197591D01*
X378096Y197700D01*
Y198801D01*
X390279D01*
Y189951D01*
X396004D01*
Y198801D01*
X412660D01*
Y197700D01*
X412697Y197610D01*
Y189951D01*
X418421D01*
Y197591D01*
X418466Y197700D01*
Y202555D01*
X420128D01*
X420257Y202363D01*
X420813Y201991D01*
X421468Y201861D01*
X422124Y201991D01*
X422681Y202363D01*
X423052Y202919D01*
X423182Y203575D01*
X423052Y204231D01*
X422681Y204787D01*
X422124Y205158D01*
X421468Y205289D01*
X420813Y205158D01*
X420257Y204787D01*
X420128Y204594D01*
X418466D01*
Y207413D01*
X418462Y207423D01*
X418796Y207923D01*
X436768D01*
Y235301D01*
X430697D01*
Y242671D01*
X435705D01*
Y240250D01*
X435512Y240121D01*
X435141Y239565D01*
X435010Y238909D01*
X435141Y238253D01*
X435512Y237697D01*
X436068Y237326D01*
X436724Y237195D01*
X437380Y237326D01*
X437936Y237697D01*
X438308Y238253D01*
X438438Y238909D01*
X438308Y239565D01*
X437936Y240121D01*
X437744Y240250D01*
Y243824D01*
X437666Y244215D01*
X437445Y244545D01*
X436374Y245617D01*
Y251545D01*
X430697D01*
Y260643D01*
X436768D01*
Y288020D01*
X429998D01*
Y297768D01*
X430040Y297831D01*
X442201D01*
Y103020D01*
D02*
G37*
G36*
X324091D02*
X282568D01*
X282377Y103481D01*
X282579Y103684D01*
X282738Y104067D01*
X282738Y104067D01*
X282738Y108644D01*
X282710Y108711D01*
Y108846D01*
X283210Y109114D01*
X283411Y108979D01*
X284067Y108849D01*
X284723Y108979D01*
X285279Y109351D01*
X285650Y109907D01*
X285781Y110563D01*
X285650Y111219D01*
X285279Y111775D01*
X284723Y112146D01*
X284067Y112277D01*
X283411Y112146D01*
X283210Y112012D01*
X282710Y112280D01*
Y113571D01*
X273836D01*
Y108676D01*
X273016Y107856D01*
X257824Y107856D01*
Y113270D01*
Y113504D01*
X248951D01*
Y113270D01*
Y112729D01*
Y111869D01*
X244827D01*
X244339Y111772D01*
X243926Y111496D01*
X240163Y107733D01*
X232295D01*
Y107709D01*
X213102Y107709D01*
X213078Y107733D01*
X212624D01*
X211621Y108736D01*
Y150226D01*
X211626D01*
X211626Y155543D01*
X212512Y156497D01*
X213752Y157737D01*
X214256Y158241D01*
X217729Y161714D01*
X221361Y165346D01*
D01*
X221361Y165346D01*
X221862Y165247D01*
X222410Y165355D01*
X222410Y165356D01*
D01*
D01*
X222521Y165379D01*
X223074Y165749D01*
X223446Y166305D01*
X223576Y166961D01*
X223568Y167004D01*
X223921Y167357D01*
X224124Y167317D01*
X224780Y167447D01*
X225336Y167819D01*
X225708Y168375D01*
X225838Y169031D01*
X225708Y169687D01*
X225336Y170243D01*
X225144Y170371D01*
Y173610D01*
X226403Y174870D01*
X226409D01*
Y174876D01*
X226969Y175436D01*
X227128Y175819D01*
X227128Y175819D01*
X227128Y198801D01*
X231799D01*
Y189951D01*
X237524D01*
Y198801D01*
X254179D01*
Y197700D01*
X254217Y197610D01*
Y189951D01*
X259941D01*
Y197591D01*
X259986Y197700D01*
Y198801D01*
X272169D01*
Y189951D01*
X277894D01*
Y198801D01*
X294549D01*
Y197700D01*
X294587Y197610D01*
Y189951D01*
X300311D01*
Y197591D01*
X300356Y197700D01*
Y202555D01*
X302018D01*
X302146Y202363D01*
X302702Y201991D01*
X303358Y201861D01*
X304014Y201991D01*
X304570Y202363D01*
X304942Y202919D01*
X305072Y203575D01*
X304942Y204231D01*
X304570Y204787D01*
X304014Y205158D01*
X303358Y205289D01*
X302702Y205158D01*
X302146Y204787D01*
X302018Y204594D01*
X300356D01*
Y207413D01*
X300352Y207423D01*
X300686Y207923D01*
X318658D01*
Y235301D01*
X312586D01*
Y242671D01*
X317595D01*
Y240250D01*
X317402Y240121D01*
X317031Y239565D01*
X316900Y238909D01*
X317031Y238253D01*
X317402Y237697D01*
X317958Y237326D01*
X318614Y237195D01*
X319270Y237326D01*
X319826Y237697D01*
X320198Y238253D01*
X320328Y238909D01*
X320198Y239565D01*
X319826Y240121D01*
X319634Y240250D01*
Y243824D01*
X319556Y244215D01*
X319335Y244545D01*
X318264Y245617D01*
Y251545D01*
X312586D01*
Y260643D01*
X318658D01*
Y288020D01*
X311888D01*
Y297768D01*
X311930Y297831D01*
X324091D01*
Y103020D01*
D02*
G37*
G36*
X496656Y297768D02*
Y288020D01*
X489886D01*
Y260643D01*
X489428Y260541D01*
X486946D01*
X486563Y260383D01*
X486405Y260000D01*
Y242000D01*
X486563Y241617D01*
X486946Y241459D01*
X495646D01*
X496104Y241108D01*
Y235301D01*
X489965D01*
Y207955D01*
X474138D01*
Y222831D01*
X475640D01*
X475768Y222638D01*
X476324Y222267D01*
X476980Y222136D01*
X477636Y222267D01*
X478192Y222638D01*
X478564Y223195D01*
X478694Y223850D01*
X478564Y224506D01*
X478192Y225062D01*
X477636Y225434D01*
X476980Y225564D01*
X476324Y225434D01*
X475768Y225062D01*
X475640Y224870D01*
X474138D01*
Y235301D01*
X468067D01*
Y242671D01*
X469760D01*
Y239660D01*
X469567Y239531D01*
X469196Y238975D01*
X469066Y238319D01*
X469196Y237663D01*
X469567Y237107D01*
X470124Y236735D01*
X470780Y236605D01*
X471435Y236735D01*
X471991Y237107D01*
X472363Y237663D01*
X472494Y238319D01*
X472363Y238975D01*
X471991Y239531D01*
X471799Y239660D01*
Y242671D01*
X473744D01*
Y251545D01*
X468067D01*
Y260643D01*
X474138D01*
Y288020D01*
X467368D01*
Y297768D01*
X467410Y297831D01*
X496614D01*
X496656Y297768D01*
D02*
G37*
G36*
X378545D02*
Y288020D01*
X371776D01*
Y260643D01*
X371318Y260541D01*
X368835D01*
X368453Y260383D01*
X368294Y260000D01*
Y242000D01*
X368453Y241617D01*
X368835Y241459D01*
X377535D01*
X377994Y241108D01*
Y235301D01*
X371854D01*
Y207955D01*
X356028D01*
Y222831D01*
X357529D01*
X357658Y222638D01*
X358214Y222267D01*
X358870Y222136D01*
X359526Y222267D01*
X360082Y222638D01*
X360454Y223195D01*
X360584Y223850D01*
X360454Y224506D01*
X360082Y225062D01*
X359526Y225434D01*
X358870Y225564D01*
X358214Y225434D01*
X357658Y225062D01*
X357529Y224870D01*
X356028D01*
Y235301D01*
X349956D01*
Y242671D01*
X351650D01*
Y239660D01*
X351457Y239531D01*
X351086Y238975D01*
X350955Y238319D01*
X351086Y237663D01*
X351457Y237107D01*
X352013Y236735D01*
X352669Y236605D01*
X353325Y236735D01*
X353881Y237107D01*
X354253Y237663D01*
X354383Y238319D01*
X354253Y238975D01*
X353881Y239531D01*
X353689Y239660D01*
Y242671D01*
X355634D01*
Y251545D01*
X349956D01*
Y260643D01*
X356028D01*
Y288020D01*
X349258D01*
Y297768D01*
X349300Y297831D01*
X378503D01*
X378545Y297768D01*
D02*
G37*
G36*
X260435D02*
Y288020D01*
X253665D01*
Y260643D01*
X253207Y260541D01*
X250725D01*
X250342Y260383D01*
X250184Y260000D01*
Y242000D01*
X250342Y241617D01*
X250725Y241459D01*
X259425D01*
X259884Y241108D01*
Y235301D01*
X253744D01*
Y207955D01*
X237917D01*
Y222831D01*
X239419D01*
X239548Y222638D01*
X240104Y222267D01*
X240760Y222136D01*
X241416Y222267D01*
X241972Y222638D01*
X242343Y223195D01*
X242474Y223850D01*
X242343Y224506D01*
X241972Y225062D01*
X241416Y225434D01*
X240760Y225564D01*
X240104Y225434D01*
X239548Y225062D01*
X239419Y224870D01*
X237917D01*
Y235301D01*
X231846D01*
Y242671D01*
X233539D01*
Y239660D01*
X233347Y239531D01*
X232976Y238975D01*
X232845Y238319D01*
X232976Y237663D01*
X233347Y237107D01*
X233903Y236735D01*
X234559Y236605D01*
X235215Y236735D01*
X235771Y237107D01*
X236143Y237663D01*
X236273Y238319D01*
X236143Y238975D01*
X235771Y239531D01*
X235579Y239660D01*
Y242671D01*
X237524D01*
Y251545D01*
X231846D01*
Y260643D01*
X237917D01*
Y288020D01*
X231148D01*
Y297768D01*
X231190Y297831D01*
X260393D01*
X260435Y297768D01*
D02*
G37*
G36*
X548266Y233500D02*
X537016D01*
Y262500D01*
X548266D01*
Y233500D01*
D02*
G37*
G36*
X507896D02*
X496646D01*
Y262500D01*
X507896D01*
Y233500D01*
D02*
G37*
G36*
X467526D02*
X456276D01*
Y262500D01*
X467526D01*
Y233500D01*
D02*
G37*
G36*
X430156D02*
X418905D01*
Y262500D01*
X430156D01*
Y233500D01*
D02*
G37*
G36*
X389785D02*
X378535D01*
Y262500D01*
X389785D01*
Y233500D01*
D02*
G37*
G36*
X349415D02*
X338165D01*
Y262500D01*
X349415D01*
Y233500D01*
D02*
G37*
G36*
X312045D02*
X300795D01*
Y262500D01*
X312045D01*
Y233500D01*
D02*
G37*
G36*
X271675D02*
X260425D01*
Y262500D01*
X271675D01*
Y233500D01*
D02*
G37*
G36*
X231305D02*
X220055D01*
Y262500D01*
X231305D01*
Y233500D01*
D02*
G37*
G36*
X456286Y297768D02*
Y288020D01*
X449516D01*
Y260643D01*
X449058Y260541D01*
X446576D01*
X446193Y260383D01*
X446034Y260000D01*
Y242000D01*
X446193Y241617D01*
X446576Y241459D01*
X455276D01*
X455734Y241108D01*
Y235301D01*
X449516D01*
Y207955D01*
X444376D01*
X444240Y208045D01*
Y297831D01*
X456244D01*
X456286Y297768D01*
D02*
G37*
G36*
X338175D02*
Y288020D01*
X331406D01*
Y260643D01*
X330948Y260541D01*
X328465D01*
X328083Y260383D01*
X327924Y260000D01*
Y242000D01*
X328083Y241617D01*
X328465Y241459D01*
X337165D01*
X337624Y241108D01*
Y235301D01*
X331406D01*
Y207955D01*
X326265D01*
X326130Y208045D01*
Y297831D01*
X338133D01*
X338175Y297768D01*
D02*
G37*
G36*
X220065D02*
Y288020D01*
X213295D01*
Y260643D01*
X212837Y260541D01*
X210355D01*
X209972Y260383D01*
X209814Y260000D01*
Y242000D01*
X209972Y241617D01*
X210355Y241459D01*
X219055D01*
X219514Y241108D01*
Y235301D01*
X213295D01*
Y207955D01*
X208155D01*
X208020Y208045D01*
Y297831D01*
X220023D01*
X220065Y297768D01*
D02*
G37*
G36*
X462807Y175819D02*
X460937Y173949D01*
X446862Y173949D01*
X444376Y176435D01*
X444376Y199900D01*
X462807D01*
X462807Y175819D01*
D02*
G37*
G36*
X344697D02*
X342827Y173949D01*
X328752Y173949D01*
X326265Y176435D01*
X326265Y199900D01*
X344697D01*
X344697Y175819D01*
D02*
G37*
G36*
X226587D02*
X224716Y173949D01*
X210642Y173949D01*
X208155Y176435D01*
X208155Y199900D01*
X226587D01*
X226587Y175819D01*
D02*
G37*
G36*
X518417Y108644D02*
X518417Y104067D01*
X517433Y103083D01*
X481016Y103083D01*
X480425Y103673D01*
Y106724D01*
X481016Y107315D01*
X509461Y107315D01*
X510886Y108740D01*
X518417Y108644D01*
D02*
G37*
G36*
X400307D02*
X400307Y104067D01*
X399323Y103083D01*
X362906Y103083D01*
X362315Y103673D01*
Y106724D01*
X362906Y107315D01*
X391350Y107315D01*
X392776Y108740D01*
X400307Y108644D01*
D02*
G37*
G36*
X282197D02*
X282197Y104067D01*
X281213Y103083D01*
X244795Y103083D01*
X244205Y103673D01*
Y106724D01*
X244795Y107315D01*
X273240Y107315D01*
X274665Y108740D01*
X282197Y108644D01*
D02*
G37*
%LPC*%
G36*
X545022Y403039D02*
X544366Y402908D01*
X543810Y402536D01*
X543439Y401980D01*
X543308Y401325D01*
X543439Y400669D01*
X543810Y400112D01*
X544003Y399984D01*
Y392413D01*
X536991Y385402D01*
X532163D01*
X531773Y385324D01*
X531442Y385103D01*
X512517Y366178D01*
X512055Y366369D01*
Y383046D01*
X512248Y383174D01*
X512619Y383730D01*
X512750Y384386D01*
X512619Y385042D01*
X512248Y385598D01*
X511692Y385970D01*
X511036Y386100D01*
X510380Y385970D01*
X509824Y385598D01*
X509452Y385042D01*
X509322Y384386D01*
X509452Y383730D01*
X509824Y383174D01*
X510016Y383046D01*
Y365798D01*
X506395Y362177D01*
X506345Y362183D01*
X505912Y362401D01*
Y370307D01*
X505815Y370795D01*
X505539Y371208D01*
X497567Y379181D01*
X497153Y379457D01*
X496665Y379554D01*
X478977D01*
X478845Y379686D01*
Y384248D01*
X485883Y391286D01*
X486134D01*
X486462Y391066D01*
X487118Y390936D01*
X487774Y391066D01*
X488330Y391438D01*
X488702Y391994D01*
X488832Y392650D01*
X488702Y393305D01*
X488330Y393862D01*
X487774Y394233D01*
X487118Y394364D01*
X486462Y394233D01*
X485906Y393862D01*
X485888Y393834D01*
X485355D01*
X484868Y393738D01*
X484454Y393461D01*
X476670Y385677D01*
X476393Y385263D01*
X476296Y384776D01*
Y379158D01*
X476393Y378671D01*
X476670Y378257D01*
X477548Y377378D01*
X477962Y377102D01*
X478449Y377005D01*
X496137D01*
X503363Y369779D01*
Y362764D01*
X490929Y350330D01*
X490653Y349916D01*
X490556Y349429D01*
Y348186D01*
X490653Y347698D01*
X490929Y347285D01*
X499117Y339096D01*
X498924Y338630D01*
X498805Y337728D01*
X498924Y336827D01*
X499272Y335987D01*
X499825Y335266D01*
X500546Y334712D01*
X501386Y334364D01*
X502288Y334246D01*
X502371Y334257D01*
X510057Y326571D01*
Y322650D01*
X518931D01*
Y322718D01*
Y323260D01*
Y328374D01*
X511859D01*
X504844Y335389D01*
X505303Y335987D01*
X505652Y336827D01*
X505770Y337728D01*
X505652Y338630D01*
X505303Y339470D01*
X504750Y340191D01*
X504029Y340744D01*
X503189Y341092D01*
X502288Y341211D01*
X501386Y341092D01*
X500919Y340899D01*
X497235Y344583D01*
X497295Y344826D01*
X497439Y345086D01*
X498010Y345200D01*
X498566Y345571D01*
X498938Y346128D01*
X499068Y346783D01*
X499044Y346907D01*
X499494Y347208D01*
X499553Y347168D01*
X500209Y347038D01*
X500865Y347168D01*
X501421Y347540D01*
X501561Y347750D01*
X509161D01*
X509397Y347309D01*
X509354Y347245D01*
X509223Y346589D01*
X509354Y345933D01*
X509725Y345377D01*
X510282Y345005D01*
X510937Y344875D01*
X511593Y345005D01*
X512149Y345377D01*
X512278Y345569D01*
X541419D01*
X541615Y345276D01*
X542171Y344905D01*
X542827Y344774D01*
X543483Y344905D01*
X544039Y345276D01*
X544410Y345832D01*
X544541Y346488D01*
X544410Y347144D01*
X544339Y347250D01*
X544606Y347750D01*
X548514D01*
X548865Y347369D01*
X548793Y346823D01*
X548912Y345921D01*
X549260Y345082D01*
X549813Y344360D01*
X550534Y343807D01*
X551374Y343459D01*
X552276Y343340D01*
X553177Y343459D01*
X554017Y343807D01*
X554738Y344360D01*
X555292Y345082D01*
X555640Y345921D01*
X555758Y346823D01*
X555640Y347724D01*
X555292Y348564D01*
X554738Y349285D01*
X554017Y349839D01*
X553177Y350187D01*
X552276Y350305D01*
X551374Y350187D01*
X550534Y349839D01*
X549878Y349335D01*
X549722Y349491D01*
X549391Y349712D01*
X549001Y349790D01*
X547333D01*
X547182Y350290D01*
X547190Y350295D01*
X550653Y353758D01*
X551374Y353459D01*
X552276Y353340D01*
X553177Y353459D01*
X554017Y353807D01*
X554738Y354360D01*
X555292Y355082D01*
X555640Y355922D01*
X555758Y356823D01*
X555640Y357724D01*
X555292Y358564D01*
X554738Y359285D01*
X554017Y359839D01*
X553177Y360187D01*
X552276Y360305D01*
X551374Y360187D01*
X550534Y359839D01*
X549813Y359285D01*
X549260Y358564D01*
X548972Y357871D01*
X548472Y357970D01*
Y362870D01*
X551776D01*
Y366823D01*
Y370776D01*
X548472D01*
Y373199D01*
X548665Y373327D01*
X549036Y373883D01*
X549167Y374539D01*
X549036Y375195D01*
X548665Y375751D01*
X548109Y376123D01*
X547453Y376253D01*
X546797Y376123D01*
X546241Y375751D01*
X545869Y375195D01*
X545739Y374539D01*
X545869Y373883D01*
X546241Y373327D01*
X546433Y373199D01*
Y354981D01*
X544987Y353535D01*
X514289D01*
X512530Y355294D01*
X512566Y355490D01*
X512727Y355804D01*
X513274Y355912D01*
X513830Y356284D01*
X513959Y356476D01*
X514519D01*
X514909Y356554D01*
X515240Y356775D01*
X524455Y365990D01*
X525693D01*
Y364197D01*
X530236D01*
Y364464D01*
X532287D01*
Y362031D01*
X533540D01*
Y360472D01*
X532485D01*
Y355929D01*
X536635D01*
Y360472D01*
X535579D01*
Y362031D01*
X543917D01*
Y368936D01*
X532287D01*
Y366503D01*
X530236D01*
Y368347D01*
X525693D01*
Y368030D01*
X525026D01*
X524835Y368492D01*
X526032Y369689D01*
X526890D01*
X526988Y369708D01*
X530236D01*
Y370764D01*
X532287D01*
Y369512D01*
X543917D01*
Y376418D01*
X537351D01*
Y377484D01*
X538406D01*
Y382028D01*
X534257D01*
Y377484D01*
X535312D01*
Y376418D01*
X532287D01*
Y372803D01*
X530236D01*
Y373858D01*
X525693D01*
Y371728D01*
X525610D01*
X525220Y371650D01*
X524889Y371429D01*
X514156Y360697D01*
X511884D01*
X511755Y360889D01*
X511199Y361261D01*
X511123Y361276D01*
X510978Y361754D01*
X532586Y383362D01*
X537413D01*
X537804Y383440D01*
X538134Y383661D01*
X545743Y391270D01*
X545964Y391600D01*
X546042Y391991D01*
Y399984D01*
X546234Y400112D01*
X546606Y400669D01*
X546736Y401325D01*
X546606Y401980D01*
X546234Y402536D01*
X545678Y402908D01*
X545022Y403039D01*
D02*
G37*
G36*
X522157Y389541D02*
X521501Y389410D01*
X520946Y389039D01*
X520574Y388483D01*
X520443Y387827D01*
X520489Y387600D01*
X515685Y382796D01*
X515530Y382899D01*
X514874Y383030D01*
X514218Y382899D01*
X513662Y382527D01*
X513290Y381971D01*
X513160Y381315D01*
X513290Y380660D01*
X513662Y380103D01*
X514218Y379732D01*
X514874Y379601D01*
X515530Y379732D01*
X516086Y380103D01*
X516458Y380660D01*
X516464Y380691D01*
X521931Y386158D01*
X522157Y386113D01*
X522813Y386243D01*
X523370Y386615D01*
X523741Y387171D01*
X523872Y387827D01*
X523741Y388483D01*
X523370Y389039D01*
X522813Y389410D01*
X522157Y389541D01*
D02*
G37*
G36*
X554484Y395675D02*
X548760D01*
Y386802D01*
X552080D01*
Y386387D01*
X552157Y385997D01*
X552379Y385666D01*
X553030Y385015D01*
X552924Y384480D01*
X553054Y383824D01*
X553426Y383268D01*
X553982Y382897D01*
X554638Y382766D01*
X555294Y382897D01*
X555850Y383268D01*
X556221Y383824D01*
X556352Y384480D01*
X556221Y385136D01*
X555850Y385692D01*
X555294Y386064D01*
X554758Y386170D01*
X554380Y386549D01*
X554484Y386802D01*
X554484D01*
Y395675D01*
D02*
G37*
G36*
X544417Y382527D02*
X542343D01*
Y380256D01*
X544417D01*
Y382527D01*
D02*
G37*
G36*
X541342D02*
X539268D01*
Y380256D01*
X541342D01*
Y382527D01*
D02*
G37*
G36*
X482590Y383537D02*
X481935Y383406D01*
X481379Y383035D01*
X481007Y382479D01*
X480876Y381823D01*
X481007Y381167D01*
X481379Y380611D01*
X481935Y380239D01*
X482590Y380109D01*
X483247Y380239D01*
X483803Y380611D01*
X483931Y380803D01*
X500968D01*
X501162Y380512D01*
X501718Y380141D01*
X502374Y380010D01*
X503030Y380141D01*
X503586Y380512D01*
X503958Y381068D01*
X504088Y381724D01*
X503958Y382380D01*
X503586Y382936D01*
X503030Y383308D01*
X502374Y383438D01*
X501718Y383308D01*
X501162Y382936D01*
X501099Y382842D01*
X483931D01*
X483803Y383035D01*
X483247Y383406D01*
X482590Y383537D01*
D02*
G37*
G36*
X544417Y379256D02*
X542343D01*
Y376984D01*
X544417D01*
Y379256D01*
D02*
G37*
G36*
X541342D02*
X539268D01*
Y376984D01*
X541342D01*
Y379256D01*
D02*
G37*
G36*
X484666Y376122D02*
X480516D01*
Y373071D01*
X480497Y372972D01*
Y370511D01*
X477563D01*
Y369850D01*
X475413D01*
Y371102D01*
X471263D01*
Y366559D01*
X475413D01*
Y367811D01*
X477563D01*
Y367271D01*
X477063D01*
Y365590D01*
X480031D01*
X483000D01*
Y367271D01*
X482500D01*
Y369347D01*
X482536Y369528D01*
Y371579D01*
X484666D01*
Y376122D01*
D02*
G37*
G36*
X470402Y371602D02*
X468327D01*
Y369331D01*
X470402D01*
Y371602D01*
D02*
G37*
G36*
X467327D02*
X465252D01*
Y369331D01*
X467327D01*
Y371602D01*
D02*
G37*
G36*
X556228Y370776D02*
X552776D01*
Y367323D01*
X556228D01*
Y370776D01*
D02*
G37*
G36*
X470402Y368331D02*
X468327D01*
Y366059D01*
X470402D01*
Y368331D01*
D02*
G37*
G36*
X467327D02*
X465252D01*
Y366059D01*
X467327D01*
Y368331D01*
D02*
G37*
G36*
X556228Y366323D02*
X552776D01*
Y362870D01*
X556228D01*
Y366323D01*
D02*
G37*
G36*
X483000Y364590D02*
X480031D01*
X477063D01*
Y362909D01*
X477563D01*
Y362370D01*
X475315D01*
Y363524D01*
X471165D01*
Y358980D01*
X472220D01*
Y356142D01*
X471165D01*
Y351598D01*
X475315D01*
Y356142D01*
X474259D01*
Y358980D01*
X475315D01*
Y360331D01*
X477563D01*
Y359669D01*
X482500D01*
Y362909D01*
X483000D01*
Y364590D01*
D02*
G37*
G36*
X490177Y376122D02*
X486027D01*
Y371579D01*
X487082D01*
Y370209D01*
X487160Y369819D01*
X487381Y369488D01*
X487799Y369070D01*
Y367150D01*
X492736D01*
Y367811D01*
X498237D01*
X499011Y367037D01*
X499117Y366501D01*
X499124Y366491D01*
X498894Y365935D01*
X498667Y365890D01*
X498111Y365518D01*
X497739Y364962D01*
X497609Y364306D01*
X497654Y364077D01*
X493228Y359651D01*
X492736Y359866D01*
X492736Y360088D01*
Y363032D01*
X487799D01*
Y359670D01*
X489248D01*
Y358221D01*
X484035Y353008D01*
X483814Y352677D01*
X483736Y352287D01*
Y347311D01*
X476943D01*
X476814Y347503D01*
X476258Y347875D01*
X475602Y348005D01*
X474946Y347875D01*
X474390Y347503D01*
X474019Y346947D01*
X473888Y346291D01*
X474019Y345635D01*
X474390Y345079D01*
X474946Y344708D01*
X475602Y344577D01*
X476258Y344708D01*
X476814Y345079D01*
X476943Y345272D01*
X483736D01*
Y336514D01*
X483814Y336124D01*
X484035Y335793D01*
X485132Y334696D01*
X484940Y334234D01*
X479343Y334234D01*
X479343Y334234D01*
X478960Y334076D01*
X478960Y334076D01*
X477188Y332304D01*
X477030Y331921D01*
X477030Y331921D01*
X477030Y325425D01*
X477030Y325425D01*
X477158Y325116D01*
X477158D01*
Y325116D01*
X477188Y325043D01*
X477188Y325043D01*
X477188D01*
X478718Y323513D01*
X479452Y322779D01*
X479835Y322620D01*
X479835Y322620D01*
X485171D01*
Y322583D01*
X494045D01*
Y322636D01*
X494390Y322779D01*
X494549Y323161D01*
X494549Y327363D01*
X494936Y327680D01*
X495090Y327650D01*
X495746Y327780D01*
X496302Y328152D01*
X496674Y328708D01*
X496803Y329358D01*
X496825Y329372D01*
X497277Y329547D01*
X497422Y329331D01*
X497978Y328960D01*
X498634Y328829D01*
X499290Y328960D01*
X499846Y329331D01*
X500217Y329887D01*
X500348Y330543D01*
X500217Y331199D01*
X499846Y331755D01*
X499290Y332127D01*
X498634Y332257D01*
X498140Y332159D01*
X494873Y335426D01*
X495303Y335987D01*
X495651Y336827D01*
X495770Y337728D01*
X495651Y338630D01*
X495303Y339470D01*
X494750Y340191D01*
X494029Y340744D01*
X493189Y341092D01*
X492288Y341211D01*
X491386Y341092D01*
X490546Y340744D01*
X489825Y340191D01*
X489272Y339470D01*
X488924Y338630D01*
X488900Y338447D01*
X488379Y338326D01*
X488232Y338547D01*
X488039Y338675D01*
Y351578D01*
X499098Y362637D01*
X499323Y362592D01*
X499979Y362723D01*
X500535Y363094D01*
X500906Y363650D01*
X501037Y364306D01*
X500906Y364962D01*
X500899Y364973D01*
X501129Y365529D01*
X501357Y365574D01*
X501913Y365946D01*
X502284Y366501D01*
X502415Y367158D01*
X502284Y367813D01*
X501913Y368370D01*
X501357Y368741D01*
X500701Y368871D01*
X500166Y368765D01*
X499380Y369552D01*
X499049Y369773D01*
X498659Y369850D01*
X492736D01*
Y370512D01*
X489241D01*
X489121Y370631D01*
Y371579D01*
X490177D01*
Y376122D01*
D02*
G37*
G36*
X462610Y363655D02*
X461954Y363525D01*
X461398Y363153D01*
X461027Y362597D01*
X460896Y361941D01*
X461027Y361285D01*
X461398Y360729D01*
X461954Y360357D01*
X462610Y360227D01*
X463266Y360357D01*
X463822Y360729D01*
X463951Y360921D01*
X465654D01*
Y358980D01*
X469803D01*
Y363524D01*
X465654D01*
Y362961D01*
X463951D01*
X463822Y363153D01*
X463266Y363525D01*
X462610Y363655D01*
D02*
G37*
G36*
X542646Y360972D02*
X540571D01*
Y358701D01*
X542646D01*
Y360972D01*
D02*
G37*
G36*
X539571D02*
X537496D01*
Y358701D01*
X539571D01*
Y360972D01*
D02*
G37*
G36*
X542646Y357701D02*
X540571D01*
Y355429D01*
X542646D01*
Y357701D01*
D02*
G37*
G36*
X539571D02*
X537496D01*
Y355429D01*
X539571D01*
Y357701D01*
D02*
G37*
G36*
X470303Y356642D02*
X468229D01*
Y354370D01*
X470303D01*
Y356642D01*
D02*
G37*
G36*
X467229D02*
X465154D01*
Y354370D01*
X467229D01*
Y356642D01*
D02*
G37*
G36*
X470303Y353370D02*
X468229D01*
Y351098D01*
X470303D01*
Y353370D01*
D02*
G37*
G36*
X467229D02*
X465154D01*
Y351098D01*
X467229D01*
Y353370D01*
D02*
G37*
G36*
X536921Y342297D02*
X536265Y342166D01*
X535709Y341795D01*
X535581Y341602D01*
X525406D01*
X525015Y341525D01*
X524684Y341304D01*
X520219Y336838D01*
X519992Y336883D01*
X519336Y336753D01*
X518780Y336381D01*
X518409Y335825D01*
X518278Y335169D01*
X518409Y334513D01*
X518780Y333957D01*
X519336Y333586D01*
X519992Y333455D01*
X520648Y333586D01*
X521204Y333957D01*
X521576Y334513D01*
X521706Y335169D01*
X521661Y335396D01*
X525828Y339563D01*
X535581D01*
X535709Y339371D01*
X536265Y338999D01*
X536921Y338869D01*
X537577Y338999D01*
X538133Y339371D01*
X538505Y339927D01*
X538635Y340583D01*
X538505Y341239D01*
X538133Y341795D01*
X537577Y342166D01*
X536921Y342297D01*
D02*
G37*
G36*
X516240Y341681D02*
X512788D01*
Y338228D01*
X516240D01*
Y341681D01*
D02*
G37*
G36*
X511788D02*
X508335D01*
Y338228D01*
X511788D01*
Y341681D01*
D02*
G37*
G36*
X544909Y337842D02*
X542638D01*
Y335768D01*
X544909D01*
Y337842D01*
D02*
G37*
G36*
X516240Y337228D02*
X512788D01*
Y333776D01*
X516240D01*
Y337228D01*
D02*
G37*
G36*
X511788D02*
X508335D01*
Y333776D01*
X511788D01*
Y337228D01*
D02*
G37*
G36*
X544409Y342853D02*
X539866D01*
Y340146D01*
X537682Y337962D01*
X537576Y338032D01*
X536920Y338163D01*
X536265Y338032D01*
X535708Y337661D01*
X535337Y337105D01*
X535206Y336449D01*
X535337Y335793D01*
X535708Y335237D01*
X536265Y334865D01*
X536920Y334735D01*
X537576Y334865D01*
X538132Y335237D01*
X538504Y335793D01*
X538535Y335950D01*
X538593Y335988D01*
X538904Y336300D01*
X539366Y336109D01*
Y335768D01*
X541638D01*
Y337842D01*
X541100D01*
X540909Y338304D01*
X541308Y338704D01*
X544409D01*
Y339759D01*
X547897D01*
X549211Y338446D01*
X548912Y337724D01*
X548793Y336823D01*
X548912Y335922D01*
X549260Y335082D01*
X549813Y334360D01*
X550534Y333807D01*
X551374Y333459D01*
X552276Y333340D01*
X553177Y333459D01*
X554017Y333807D01*
X554738Y334360D01*
X555292Y335082D01*
X555640Y335922D01*
X555758Y336823D01*
X555640Y337724D01*
X555292Y338564D01*
X554738Y339285D01*
X554017Y339839D01*
X553177Y340187D01*
X552276Y340305D01*
X551374Y340187D01*
X550653Y339888D01*
X549041Y341500D01*
X548710Y341721D01*
X548320Y341798D01*
X544409D01*
Y342853D01*
D02*
G37*
G36*
X544909Y334768D02*
X542638D01*
Y332693D01*
X544909D01*
Y334768D01*
D02*
G37*
G36*
X541638D02*
X539366D01*
Y332693D01*
X541638D01*
Y334768D01*
D02*
G37*
%LPD*%
G36*
X488201Y333693D02*
X494008Y327886D01*
X494008Y323161D01*
X479835D01*
X477571Y325425D01*
X477571Y331921D01*
X479343Y333693D01*
X488201Y333693D01*
D02*
G37*
%LPC*%
G36*
X426912Y403039D02*
X426256Y402908D01*
X425700Y402536D01*
X425328Y401980D01*
X425198Y401325D01*
X425328Y400669D01*
X425700Y400112D01*
X425892Y399984D01*
Y392413D01*
X418881Y385402D01*
X414053D01*
X413663Y385324D01*
X413332Y385103D01*
X394407Y366178D01*
X393945Y366369D01*
Y383046D01*
X394138Y383174D01*
X394509Y383730D01*
X394640Y384386D01*
X394509Y385042D01*
X394138Y385598D01*
X393582Y385970D01*
X392926Y386100D01*
X392270Y385970D01*
X391714Y385598D01*
X391342Y385042D01*
X391212Y384386D01*
X391342Y383730D01*
X391714Y383174D01*
X391906Y383046D01*
Y365798D01*
X388285Y362177D01*
X388235Y362183D01*
X387802Y362401D01*
Y370307D01*
X387705Y370795D01*
X387429Y371208D01*
X379456Y379181D01*
X379043Y379457D01*
X378555Y379554D01*
X360867D01*
X360735Y379686D01*
Y384248D01*
X367773Y391286D01*
X368023D01*
X368352Y391066D01*
X369008Y390936D01*
X369664Y391066D01*
X370220Y391438D01*
X370591Y391994D01*
X370722Y392650D01*
X370591Y393305D01*
X370220Y393862D01*
X369664Y394233D01*
X369008Y394364D01*
X368352Y394233D01*
X367796Y393862D01*
X367778Y393834D01*
X367245D01*
X366757Y393738D01*
X366344Y393461D01*
X358559Y385677D01*
X358283Y385263D01*
X358186Y384776D01*
Y379158D01*
X358283Y378671D01*
X358559Y378257D01*
X359438Y377378D01*
X359852Y377102D01*
X360339Y377005D01*
X378027D01*
X385253Y369779D01*
Y362764D01*
X372819Y350330D01*
X372542Y349916D01*
X372445Y349429D01*
Y348186D01*
X372542Y347698D01*
X372819Y347285D01*
X381007Y339096D01*
X380814Y338630D01*
X380695Y337728D01*
X380814Y336827D01*
X381161Y335987D01*
X381715Y335266D01*
X382436Y334712D01*
X383276Y334364D01*
X384177Y334246D01*
X384261Y334257D01*
X391946Y326571D01*
Y322650D01*
X400820D01*
Y322718D01*
Y323260D01*
Y328374D01*
X393749D01*
X386734Y335389D01*
X387193Y335987D01*
X387541Y336827D01*
X387660Y337728D01*
X387541Y338630D01*
X387193Y339470D01*
X386640Y340191D01*
X385919Y340744D01*
X385079Y341092D01*
X384177Y341211D01*
X383276Y341092D01*
X382809Y340899D01*
X379125Y344583D01*
X379184Y344826D01*
X379329Y345086D01*
X379900Y345200D01*
X380456Y345571D01*
X380828Y346128D01*
X380958Y346783D01*
X380933Y346907D01*
X381383Y347208D01*
X381442Y347168D01*
X382098Y347038D01*
X382754Y347168D01*
X383310Y347540D01*
X383451Y347750D01*
X391051D01*
X391287Y347309D01*
X391244Y347245D01*
X391113Y346589D01*
X391244Y345933D01*
X391615Y345377D01*
X392171Y345005D01*
X392827Y344875D01*
X393483Y345005D01*
X394039Y345377D01*
X394168Y345569D01*
X423309D01*
X423504Y345276D01*
X424061Y344905D01*
X424717Y344774D01*
X425373Y344905D01*
X425928Y345276D01*
X426300Y345832D01*
X426431Y346488D01*
X426300Y347144D01*
X426229Y347250D01*
X426496Y347750D01*
X430404D01*
X430755Y347369D01*
X430683Y346823D01*
X430801Y345921D01*
X431149Y345082D01*
X431703Y344360D01*
X432424Y343807D01*
X433264Y343459D01*
X434165Y343340D01*
X435067Y343459D01*
X435907Y343807D01*
X436628Y344360D01*
X437181Y345082D01*
X437529Y345921D01*
X437648Y346823D01*
X437529Y347724D01*
X437181Y348564D01*
X436628Y349285D01*
X435907Y349839D01*
X435067Y350187D01*
X434165Y350305D01*
X433264Y350187D01*
X432424Y349839D01*
X431768Y349335D01*
X431612Y349491D01*
X431281Y349712D01*
X430891Y349790D01*
X429223D01*
X429072Y350290D01*
X429079Y350295D01*
X432542Y353758D01*
X433264Y353459D01*
X434165Y353340D01*
X435067Y353459D01*
X435907Y353807D01*
X436628Y354360D01*
X437181Y355082D01*
X437529Y355922D01*
X437648Y356823D01*
X437529Y357724D01*
X437181Y358564D01*
X436628Y359285D01*
X435907Y359839D01*
X435067Y360187D01*
X434165Y360305D01*
X433264Y360187D01*
X432424Y359839D01*
X431703Y359285D01*
X431149Y358564D01*
X430862Y357871D01*
X430362Y357970D01*
Y362870D01*
X433665D01*
Y366823D01*
Y370776D01*
X430362D01*
Y373199D01*
X430554Y373327D01*
X430926Y373883D01*
X431056Y374539D01*
X430926Y375195D01*
X430554Y375751D01*
X429998Y376123D01*
X429343Y376253D01*
X428687Y376123D01*
X428130Y375751D01*
X427759Y375195D01*
X427629Y374539D01*
X427759Y373883D01*
X428130Y373327D01*
X428323Y373199D01*
Y354981D01*
X426877Y353535D01*
X396178D01*
X394420Y355294D01*
X394455Y355490D01*
X394617Y355804D01*
X395164Y355912D01*
X395720Y356284D01*
X395848Y356476D01*
X396409D01*
X396799Y356554D01*
X397130Y356775D01*
X406345Y365990D01*
X407583D01*
Y364197D01*
X412126D01*
Y364464D01*
X414177D01*
Y362031D01*
X415430D01*
Y360472D01*
X414375D01*
Y355929D01*
X418524D01*
Y360472D01*
X417469D01*
Y362031D01*
X425807D01*
Y368936D01*
X414177D01*
Y366503D01*
X412126D01*
Y368347D01*
X407583D01*
Y368030D01*
X406916D01*
X406725Y368492D01*
X407922Y369689D01*
X408779D01*
X408878Y369708D01*
X412126D01*
Y370764D01*
X414177D01*
Y369512D01*
X425807D01*
Y376418D01*
X419241D01*
Y377484D01*
X420296D01*
Y382028D01*
X416147D01*
Y377484D01*
X417202D01*
Y376418D01*
X414177D01*
Y372803D01*
X412126D01*
Y373858D01*
X407583D01*
Y371728D01*
X407500D01*
X407109Y371650D01*
X406779Y371429D01*
X396046Y360697D01*
X393774D01*
X393645Y360889D01*
X393089Y361261D01*
X393013Y361276D01*
X392868Y361754D01*
X414476Y383362D01*
X419303D01*
X419693Y383440D01*
X420024Y383661D01*
X427633Y391270D01*
X427854Y391600D01*
X427932Y391991D01*
Y399984D01*
X428124Y400112D01*
X428496Y400669D01*
X428626Y401325D01*
X428496Y401980D01*
X428124Y402536D01*
X427568Y402908D01*
X426912Y403039D01*
D02*
G37*
G36*
X404047Y389541D02*
X403391Y389410D01*
X402835Y389039D01*
X402464Y388483D01*
X402333Y387827D01*
X402378Y387600D01*
X397574Y382796D01*
X397420Y382899D01*
X396764Y383030D01*
X396108Y382899D01*
X395552Y382527D01*
X395180Y381971D01*
X395050Y381315D01*
X395180Y380660D01*
X395552Y380103D01*
X396108Y379732D01*
X396764Y379601D01*
X397420Y379732D01*
X397976Y380103D01*
X398347Y380660D01*
X398354Y380691D01*
X403820Y386158D01*
X404047Y386113D01*
X404703Y386243D01*
X405259Y386615D01*
X405631Y387171D01*
X405761Y387827D01*
X405631Y388483D01*
X405259Y389039D01*
X404703Y389410D01*
X404047Y389541D01*
D02*
G37*
G36*
X436374Y395675D02*
X430650D01*
Y386802D01*
X433970D01*
Y386387D01*
X434047Y385997D01*
X434268Y385666D01*
X434920Y385015D01*
X434813Y384480D01*
X434944Y383824D01*
X435316Y383268D01*
X435872Y382897D01*
X436527Y382766D01*
X437184Y382897D01*
X437740Y383268D01*
X438111Y383824D01*
X438242Y384480D01*
X438111Y385136D01*
X437740Y385692D01*
X437184Y386064D01*
X436648Y386170D01*
X436269Y386549D01*
X436374Y386802D01*
X436374D01*
Y395675D01*
D02*
G37*
G36*
X426307Y382527D02*
X424232D01*
Y380256D01*
X426307D01*
Y382527D01*
D02*
G37*
G36*
X423232D02*
X421158D01*
Y380256D01*
X423232D01*
Y382527D01*
D02*
G37*
G36*
X364480Y383537D02*
X363824Y383406D01*
X363268Y383035D01*
X362897Y382479D01*
X362766Y381823D01*
X362897Y381167D01*
X363268Y380611D01*
X363824Y380239D01*
X364480Y380109D01*
X365136Y380239D01*
X365692Y380611D01*
X365821Y380803D01*
X382857D01*
X383052Y380512D01*
X383608Y380141D01*
X384264Y380010D01*
X384920Y380141D01*
X385476Y380512D01*
X385847Y381068D01*
X385978Y381724D01*
X385847Y382380D01*
X385476Y382936D01*
X384920Y383308D01*
X384264Y383438D01*
X383608Y383308D01*
X383052Y382936D01*
X382989Y382842D01*
X365821D01*
X365692Y383035D01*
X365136Y383406D01*
X364480Y383537D01*
D02*
G37*
G36*
X426307Y379256D02*
X424232D01*
Y376984D01*
X426307D01*
Y379256D01*
D02*
G37*
G36*
X423232D02*
X421158D01*
Y376984D01*
X423232D01*
Y379256D01*
D02*
G37*
G36*
X366556Y376122D02*
X362406D01*
Y373071D01*
X362386Y372972D01*
Y370511D01*
X359453D01*
Y369850D01*
X357303D01*
Y371102D01*
X353153D01*
Y366559D01*
X357303D01*
Y367811D01*
X359453D01*
Y367271D01*
X358953D01*
Y365590D01*
X361921D01*
X364890D01*
Y367271D01*
X364390D01*
Y369347D01*
X364425Y369528D01*
Y371579D01*
X366556D01*
Y376122D01*
D02*
G37*
G36*
X352292Y371602D02*
X350217D01*
Y369331D01*
X352292D01*
Y371602D01*
D02*
G37*
G36*
X349217D02*
X347142D01*
Y369331D01*
X349217D01*
Y371602D01*
D02*
G37*
G36*
X438118Y370776D02*
X434665D01*
Y367323D01*
X438118D01*
Y370776D01*
D02*
G37*
G36*
X352292Y368331D02*
X350217D01*
Y366059D01*
X352292D01*
Y368331D01*
D02*
G37*
G36*
X349217D02*
X347142D01*
Y366059D01*
X349217D01*
Y368331D01*
D02*
G37*
G36*
X438118Y366323D02*
X434665D01*
Y362870D01*
X438118D01*
Y366323D01*
D02*
G37*
G36*
X364890Y364590D02*
X361921D01*
X358953D01*
Y362909D01*
X359453D01*
Y362370D01*
X357204D01*
Y363524D01*
X353055D01*
Y358980D01*
X354110D01*
Y356142D01*
X353055D01*
Y351598D01*
X357204D01*
Y356142D01*
X356149D01*
Y358980D01*
X357204D01*
Y360331D01*
X359453D01*
Y359669D01*
X364390D01*
Y362909D01*
X364890D01*
Y364590D01*
D02*
G37*
G36*
X372066Y376122D02*
X367917D01*
Y371579D01*
X368972D01*
Y370209D01*
X369050Y369819D01*
X369271Y369488D01*
X369689Y369070D01*
Y367150D01*
X374626D01*
Y367811D01*
X380126D01*
X380901Y367037D01*
X381007Y366501D01*
X381014Y366491D01*
X380784Y365935D01*
X380557Y365890D01*
X380000Y365518D01*
X379629Y364962D01*
X379498Y364306D01*
X379544Y364077D01*
X375118Y359651D01*
X374626Y359866D01*
X374626Y360088D01*
Y363032D01*
X369689D01*
Y359670D01*
X371138D01*
Y358221D01*
X365925Y353008D01*
X365704Y352677D01*
X365626Y352287D01*
Y347311D01*
X358833D01*
X358704Y347503D01*
X358148Y347875D01*
X357492Y348005D01*
X356836Y347875D01*
X356280Y347503D01*
X355909Y346947D01*
X355778Y346291D01*
X355909Y345635D01*
X356280Y345079D01*
X356836Y344708D01*
X357492Y344577D01*
X358148Y344708D01*
X358704Y345079D01*
X358833Y345272D01*
X365626D01*
Y336514D01*
X365704Y336124D01*
X365925Y335793D01*
X367022Y334696D01*
X366830Y334234D01*
X361232Y334234D01*
X361232Y334234D01*
X360850Y334076D01*
X360849Y334076D01*
X359078Y332304D01*
X358919Y331921D01*
X358919Y331921D01*
X358919Y325425D01*
X358919Y325425D01*
X359047Y325116D01*
X359047D01*
Y325116D01*
X359078Y325043D01*
X359078Y325043D01*
X359078D01*
X360608Y323513D01*
X361342Y322779D01*
X361724Y322620D01*
X361724Y322620D01*
X367061D01*
Y322583D01*
X375935D01*
Y322636D01*
X376280Y322779D01*
X376439Y323161D01*
X376439Y327363D01*
X376825Y327680D01*
X376980Y327650D01*
X377636Y327780D01*
X378192Y328152D01*
X378563Y328708D01*
X378693Y329358D01*
X378714Y329372D01*
X379167Y329547D01*
X379312Y329331D01*
X379868Y328960D01*
X380524Y328829D01*
X381179Y328960D01*
X381736Y329331D01*
X382107Y329887D01*
X382238Y330543D01*
X382107Y331199D01*
X381736Y331755D01*
X381179Y332127D01*
X380524Y332257D01*
X380029Y332159D01*
X376763Y335426D01*
X377193Y335987D01*
X377541Y336827D01*
X377660Y337728D01*
X377541Y338630D01*
X377193Y339470D01*
X376640Y340191D01*
X375919Y340744D01*
X375079Y341092D01*
X374177Y341211D01*
X373276Y341092D01*
X372436Y340744D01*
X371715Y340191D01*
X371161Y339470D01*
X370813Y338630D01*
X370789Y338447D01*
X370269Y338326D01*
X370122Y338547D01*
X369929Y338675D01*
Y351578D01*
X380988Y362637D01*
X381212Y362592D01*
X381868Y362723D01*
X382424Y363094D01*
X382796Y363650D01*
X382927Y364306D01*
X382796Y364962D01*
X382789Y364973D01*
X383019Y365529D01*
X383246Y365574D01*
X383803Y365946D01*
X384174Y366501D01*
X384305Y367158D01*
X384174Y367813D01*
X383803Y368370D01*
X383246Y368741D01*
X382591Y368871D01*
X382056Y368765D01*
X381270Y369552D01*
X380939Y369773D01*
X380549Y369850D01*
X374626D01*
Y370512D01*
X371131D01*
X371011Y370631D01*
Y371579D01*
X372066D01*
Y376122D01*
D02*
G37*
G36*
X344500Y363655D02*
X343844Y363525D01*
X343288Y363153D01*
X342916Y362597D01*
X342786Y361941D01*
X342916Y361285D01*
X343288Y360729D01*
X343844Y360357D01*
X344500Y360227D01*
X345156Y360357D01*
X345712Y360729D01*
X345841Y360921D01*
X347544D01*
Y358980D01*
X351693D01*
Y363524D01*
X347544D01*
Y362961D01*
X345841D01*
X345712Y363153D01*
X345156Y363525D01*
X344500Y363655D01*
D02*
G37*
G36*
X424535Y360972D02*
X422461D01*
Y358701D01*
X424535D01*
Y360972D01*
D02*
G37*
G36*
X421461D02*
X419386D01*
Y358701D01*
X421461D01*
Y360972D01*
D02*
G37*
G36*
X424535Y357701D02*
X422461D01*
Y355429D01*
X424535D01*
Y357701D01*
D02*
G37*
G36*
X421461D02*
X419386D01*
Y355429D01*
X421461D01*
Y357701D01*
D02*
G37*
G36*
X352193Y356642D02*
X350118D01*
Y354370D01*
X352193D01*
Y356642D01*
D02*
G37*
G36*
X349118D02*
X347044D01*
Y354370D01*
X349118D01*
Y356642D01*
D02*
G37*
G36*
X352193Y353370D02*
X350118D01*
Y351098D01*
X352193D01*
Y353370D01*
D02*
G37*
G36*
X349118D02*
X347044D01*
Y351098D01*
X349118D01*
Y353370D01*
D02*
G37*
G36*
X418811Y342297D02*
X418155Y342166D01*
X417599Y341795D01*
X417470Y341602D01*
X407295D01*
X406905Y341525D01*
X406574Y341304D01*
X402109Y336838D01*
X401882Y336883D01*
X401226Y336753D01*
X400670Y336381D01*
X400298Y335825D01*
X400168Y335169D01*
X400298Y334513D01*
X400670Y333957D01*
X401226Y333586D01*
X401882Y333455D01*
X402538Y333586D01*
X403094Y333957D01*
X403465Y334513D01*
X403596Y335169D01*
X403551Y335396D01*
X407718Y339563D01*
X417470D01*
X417599Y339371D01*
X418155Y338999D01*
X418811Y338869D01*
X419467Y338999D01*
X420023Y339371D01*
X420395Y339927D01*
X420525Y340583D01*
X420395Y341239D01*
X420023Y341795D01*
X419467Y342166D01*
X418811Y342297D01*
D02*
G37*
G36*
X398130Y341681D02*
X394677D01*
Y338228D01*
X398130D01*
Y341681D01*
D02*
G37*
G36*
X393677D02*
X390225D01*
Y338228D01*
X393677D01*
Y341681D01*
D02*
G37*
G36*
X426799Y337842D02*
X424528D01*
Y335768D01*
X426799D01*
Y337842D01*
D02*
G37*
G36*
X398130Y337228D02*
X394677D01*
Y333776D01*
X398130D01*
Y337228D01*
D02*
G37*
G36*
X393677D02*
X390225D01*
Y333776D01*
X393677D01*
Y337228D01*
D02*
G37*
G36*
X426299Y342853D02*
X421756D01*
Y340146D01*
X419572Y337962D01*
X419466Y338032D01*
X418810Y338163D01*
X418154Y338032D01*
X417598Y337661D01*
X417227Y337105D01*
X417096Y336449D01*
X417227Y335793D01*
X417598Y335237D01*
X418154Y334865D01*
X418810Y334735D01*
X419466Y334865D01*
X420022Y335237D01*
X420394Y335793D01*
X420425Y335950D01*
X420482Y335988D01*
X420794Y336300D01*
X421256Y336109D01*
Y335768D01*
X423527D01*
Y337842D01*
X422990D01*
X422798Y338304D01*
X423198Y338704D01*
X426299D01*
Y339759D01*
X429787D01*
X431100Y338446D01*
X430801Y337724D01*
X430683Y336823D01*
X430801Y335922D01*
X431149Y335082D01*
X431703Y334360D01*
X432424Y333807D01*
X433264Y333459D01*
X434165Y333340D01*
X435067Y333459D01*
X435907Y333807D01*
X436628Y334360D01*
X437181Y335082D01*
X437529Y335922D01*
X437648Y336823D01*
X437529Y337724D01*
X437181Y338564D01*
X436628Y339285D01*
X435907Y339839D01*
X435067Y340187D01*
X434165Y340305D01*
X433264Y340187D01*
X432542Y339888D01*
X430930Y341500D01*
X430600Y341721D01*
X430209Y341798D01*
X426299D01*
Y342853D01*
D02*
G37*
G36*
X426799Y334768D02*
X424528D01*
Y332693D01*
X426799D01*
Y334768D01*
D02*
G37*
G36*
X423527D02*
X421256D01*
Y332693D01*
X423527D01*
Y334768D01*
D02*
G37*
%LPD*%
G36*
X370091Y333693D02*
X375898Y327886D01*
X375898Y323161D01*
X361724D01*
X359461Y325425D01*
X359461Y331921D01*
X361232Y333693D01*
X370091Y333693D01*
D02*
G37*
%LPC*%
G36*
X308802Y403039D02*
X308146Y402908D01*
X307590Y402536D01*
X307218Y401980D01*
X307088Y401325D01*
X307218Y400669D01*
X307590Y400112D01*
X307782Y399984D01*
Y392413D01*
X300771Y385402D01*
X295943D01*
X295553Y385324D01*
X295222Y385103D01*
X276297Y366178D01*
X275835Y366369D01*
Y383046D01*
X276027Y383174D01*
X276399Y383730D01*
X276529Y384386D01*
X276399Y385042D01*
X276027Y385598D01*
X275471Y385970D01*
X274815Y386100D01*
X274159Y385970D01*
X273603Y385598D01*
X273232Y385042D01*
X273101Y384386D01*
X273232Y383730D01*
X273603Y383174D01*
X273796Y383046D01*
Y365798D01*
X270175Y362177D01*
X270124Y362183D01*
X269692Y362401D01*
Y370307D01*
X269595Y370795D01*
X269319Y371208D01*
X261346Y379181D01*
X260933Y379457D01*
X260445Y379554D01*
X242757D01*
X242625Y379686D01*
Y384248D01*
X249663Y391286D01*
X249913D01*
X250242Y391066D01*
X250898Y390936D01*
X251554Y391066D01*
X252110Y391438D01*
X252481Y391994D01*
X252612Y392650D01*
X252481Y393305D01*
X252110Y393862D01*
X251554Y394233D01*
X250898Y394364D01*
X250242Y394233D01*
X249686Y393862D01*
X249668Y393834D01*
X249135D01*
X248647Y393738D01*
X248234Y393461D01*
X240449Y385677D01*
X240173Y385263D01*
X240076Y384776D01*
Y379158D01*
X240173Y378671D01*
X240449Y378257D01*
X241328Y377378D01*
X241741Y377102D01*
X242229Y377005D01*
X259917D01*
X267143Y369779D01*
Y362764D01*
X254708Y350330D01*
X254432Y349916D01*
X254335Y349429D01*
Y348186D01*
X254432Y347698D01*
X254708Y347285D01*
X262897Y339096D01*
X262703Y338630D01*
X262585Y337728D01*
X262703Y336827D01*
X263051Y335987D01*
X263605Y335266D01*
X264326Y334712D01*
X265166Y334364D01*
X266067Y334246D01*
X266151Y334257D01*
X273836Y326571D01*
Y322650D01*
X282710D01*
Y322718D01*
Y323260D01*
Y328374D01*
X275639D01*
X268624Y335389D01*
X269083Y335987D01*
X269431Y336827D01*
X269550Y337728D01*
X269431Y338630D01*
X269083Y339470D01*
X268530Y340191D01*
X267808Y340744D01*
X266968Y341092D01*
X266067Y341211D01*
X265166Y341092D01*
X264699Y340899D01*
X261015Y344583D01*
X261074Y344826D01*
X261219Y345086D01*
X261790Y345200D01*
X262346Y345571D01*
X262717Y346128D01*
X262848Y346783D01*
X262823Y346907D01*
X263273Y347208D01*
X263332Y347168D01*
X263988Y347038D01*
X264644Y347168D01*
X265200Y347540D01*
X265341Y347750D01*
X272941D01*
X273177Y347309D01*
X273133Y347245D01*
X273003Y346589D01*
X273133Y345933D01*
X273505Y345377D01*
X274061Y345005D01*
X274717Y344875D01*
X275373Y345005D01*
X275929Y345377D01*
X276058Y345569D01*
X305198D01*
X305394Y345276D01*
X305950Y344905D01*
X306606Y344774D01*
X307262Y344905D01*
X307818Y345276D01*
X308190Y345832D01*
X308320Y346488D01*
X308190Y347144D01*
X308119Y347250D01*
X308386Y347750D01*
X312294D01*
X312645Y347369D01*
X312573Y346823D01*
X312691Y345921D01*
X313039Y345082D01*
X313593Y344360D01*
X314314Y343807D01*
X315154Y343459D01*
X316055Y343340D01*
X316956Y343459D01*
X317796Y343807D01*
X318518Y344360D01*
X319071Y345082D01*
X319419Y345921D01*
X319538Y346823D01*
X319419Y347724D01*
X319071Y348564D01*
X318518Y349285D01*
X317796Y349839D01*
X316956Y350187D01*
X316055Y350305D01*
X315154Y350187D01*
X314314Y349839D01*
X313657Y349335D01*
X313501Y349491D01*
X313171Y349712D01*
X312780Y349790D01*
X311113D01*
X310961Y350290D01*
X310969Y350295D01*
X314432Y353758D01*
X315154Y353459D01*
X316055Y353340D01*
X316956Y353459D01*
X317796Y353807D01*
X318518Y354360D01*
X319071Y355082D01*
X319419Y355922D01*
X319538Y356823D01*
X319419Y357724D01*
X319071Y358564D01*
X318518Y359285D01*
X317796Y359839D01*
X316956Y360187D01*
X316055Y360305D01*
X315154Y360187D01*
X314314Y359839D01*
X313593Y359285D01*
X313039Y358564D01*
X312752Y357871D01*
X312252Y357970D01*
Y362870D01*
X315555D01*
Y366823D01*
Y370776D01*
X312252D01*
Y373199D01*
X312444Y373327D01*
X312816Y373883D01*
X312946Y374539D01*
X312816Y375195D01*
X312444Y375751D01*
X311888Y376123D01*
X311232Y376253D01*
X310576Y376123D01*
X310020Y375751D01*
X309649Y375195D01*
X309518Y374539D01*
X309649Y373883D01*
X310020Y373327D01*
X310213Y373199D01*
Y354981D01*
X308767Y353535D01*
X278068D01*
X276310Y355294D01*
X276345Y355490D01*
X276507Y355804D01*
X277053Y355912D01*
X277610Y356284D01*
X277738Y356476D01*
X278298D01*
X278689Y356554D01*
X279019Y356775D01*
X288235Y365990D01*
X289472D01*
Y364197D01*
X294016D01*
Y364464D01*
X296067D01*
Y362031D01*
X297320D01*
Y360472D01*
X296265D01*
Y355929D01*
X300414D01*
Y360472D01*
X299359D01*
Y362031D01*
X307697D01*
Y368936D01*
X296067D01*
Y366503D01*
X294016D01*
Y368347D01*
X289472D01*
Y368030D01*
X288806D01*
X288615Y368492D01*
X289812Y369689D01*
X290669D01*
X290768Y369708D01*
X294016D01*
Y370764D01*
X296067D01*
Y369512D01*
X307697D01*
Y376418D01*
X301131D01*
Y377484D01*
X302186D01*
Y382028D01*
X298036D01*
Y377484D01*
X299091D01*
Y376418D01*
X296067D01*
Y372803D01*
X294016D01*
Y373858D01*
X289472D01*
Y371728D01*
X289389D01*
X288999Y371650D01*
X288668Y371429D01*
X277936Y360697D01*
X275663D01*
X275535Y360889D01*
X274979Y361261D01*
X274903Y361276D01*
X274757Y361754D01*
X296365Y383362D01*
X301193D01*
X301583Y383440D01*
X301914Y383661D01*
X309523Y391270D01*
X309744Y391600D01*
X309821Y391991D01*
Y399984D01*
X310014Y400112D01*
X310385Y400669D01*
X310516Y401325D01*
X310385Y401980D01*
X310014Y402536D01*
X309458Y402908D01*
X308802Y403039D01*
D02*
G37*
G36*
X285937Y389541D02*
X285281Y389410D01*
X284725Y389039D01*
X284353Y388483D01*
X284223Y387827D01*
X284268Y387600D01*
X279464Y382796D01*
X279310Y382899D01*
X278654Y383030D01*
X277998Y382899D01*
X277442Y382527D01*
X277070Y381971D01*
X276940Y381315D01*
X277070Y380660D01*
X277442Y380103D01*
X277998Y379732D01*
X278654Y379601D01*
X279310Y379732D01*
X279866Y380103D01*
X280237Y380660D01*
X280243Y380691D01*
X285710Y386158D01*
X285937Y386113D01*
X286593Y386243D01*
X287149Y386615D01*
X287521Y387171D01*
X287651Y387827D01*
X287521Y388483D01*
X287149Y389039D01*
X286593Y389410D01*
X285937Y389541D01*
D02*
G37*
G36*
X318264Y395675D02*
X312539D01*
Y386802D01*
X315859D01*
Y386387D01*
X315937Y385997D01*
X316158Y385666D01*
X316810Y385015D01*
X316703Y384480D01*
X316834Y383824D01*
X317205Y383268D01*
X317761Y382897D01*
X318417Y382766D01*
X319073Y382897D01*
X319629Y383268D01*
X320001Y383824D01*
X320131Y384480D01*
X320001Y385136D01*
X319629Y385692D01*
X319073Y386064D01*
X318538Y386170D01*
X318159Y386549D01*
X318264Y386802D01*
X318264D01*
Y395675D01*
D02*
G37*
G36*
X308197Y382527D02*
X306122D01*
Y380256D01*
X308197D01*
Y382527D01*
D02*
G37*
G36*
X305122D02*
X303047D01*
Y380256D01*
X305122D01*
Y382527D01*
D02*
G37*
G36*
X246370Y383537D02*
X245714Y383406D01*
X245158Y383035D01*
X244787Y382479D01*
X244656Y381823D01*
X244787Y381167D01*
X245158Y380611D01*
X245714Y380239D01*
X246370Y380109D01*
X247026Y380239D01*
X247582Y380611D01*
X247711Y380803D01*
X264747D01*
X264942Y380512D01*
X265498Y380141D01*
X266154Y380010D01*
X266810Y380141D01*
X267366Y380512D01*
X267737Y381068D01*
X267868Y381724D01*
X267737Y382380D01*
X267366Y382936D01*
X266810Y383308D01*
X266154Y383438D01*
X265498Y383308D01*
X264942Y382936D01*
X264879Y382842D01*
X247711D01*
X247582Y383035D01*
X247026Y383406D01*
X246370Y383537D01*
D02*
G37*
G36*
X308197Y379256D02*
X306122D01*
Y376984D01*
X308197D01*
Y379256D01*
D02*
G37*
G36*
X305122D02*
X303047D01*
Y376984D01*
X305122D01*
Y379256D01*
D02*
G37*
G36*
X248445Y376122D02*
X244296D01*
Y373071D01*
X244276Y372972D01*
Y370511D01*
X241342D01*
Y369850D01*
X239193D01*
Y371102D01*
X235043D01*
Y366559D01*
X239193D01*
Y367811D01*
X241342D01*
Y367271D01*
X240843D01*
Y365590D01*
X243811D01*
X246779D01*
Y367271D01*
X246279D01*
Y369347D01*
X246315Y369528D01*
Y371579D01*
X248445D01*
Y376122D01*
D02*
G37*
G36*
X234181Y371602D02*
X232107D01*
Y369331D01*
X234181D01*
Y371602D01*
D02*
G37*
G36*
X231107D02*
X229032D01*
Y369331D01*
X231107D01*
Y371602D01*
D02*
G37*
G36*
X320008Y370776D02*
X316555D01*
Y367323D01*
X320008D01*
Y370776D01*
D02*
G37*
G36*
X234181Y368331D02*
X232107D01*
Y366059D01*
X234181D01*
Y368331D01*
D02*
G37*
G36*
X231107D02*
X229032D01*
Y366059D01*
X231107D01*
Y368331D01*
D02*
G37*
G36*
X320008Y366323D02*
X316555D01*
Y362870D01*
X320008D01*
Y366323D01*
D02*
G37*
G36*
X246779Y364590D02*
X243811D01*
X240843D01*
Y362909D01*
X241343D01*
Y362370D01*
X239094D01*
Y363524D01*
X234945D01*
Y358980D01*
X236000D01*
Y356142D01*
X234945D01*
Y351598D01*
X239094D01*
Y356142D01*
X238039D01*
Y358980D01*
X239094D01*
Y360331D01*
X241343D01*
Y359669D01*
X246280D01*
Y362909D01*
X246779D01*
Y364590D01*
D02*
G37*
G36*
X253956Y376122D02*
X249807D01*
Y371579D01*
X250862D01*
Y370209D01*
X250939Y369819D01*
X251161Y369488D01*
X251578Y369070D01*
Y367150D01*
X256516D01*
Y367811D01*
X262016D01*
X262790Y367037D01*
X262897Y366501D01*
X262904Y366491D01*
X262674Y365935D01*
X262446Y365890D01*
X261890Y365518D01*
X261519Y364962D01*
X261388Y364306D01*
X261434Y364077D01*
X257008Y359651D01*
X256516Y359866D01*
X256516Y360088D01*
Y363032D01*
X251579D01*
Y359670D01*
X253028D01*
Y358221D01*
X247814Y353008D01*
X247593Y352677D01*
X247516Y352287D01*
Y347311D01*
X240722D01*
X240594Y347503D01*
X240038Y347875D01*
X239382Y348005D01*
X238726Y347875D01*
X238170Y347503D01*
X237798Y346947D01*
X237668Y346291D01*
X237798Y345635D01*
X238170Y345079D01*
X238726Y344708D01*
X239382Y344577D01*
X240038Y344708D01*
X240594Y345079D01*
X240722Y345272D01*
X247516D01*
Y336514D01*
X247593Y336124D01*
X247814Y335793D01*
X248911Y334696D01*
X248720Y334234D01*
X243122Y334234D01*
X243122Y334234D01*
X242739Y334076D01*
X242739Y334076D01*
X240968Y332304D01*
X240809Y331921D01*
X240809Y331921D01*
X240809Y325425D01*
X240809Y325425D01*
X240937Y325116D01*
X240937D01*
Y325116D01*
X240968Y325043D01*
X240968Y325043D01*
X240968D01*
X242498Y323513D01*
X243232Y322779D01*
X243614Y322620D01*
X243614Y322620D01*
X248951D01*
Y322583D01*
X257824D01*
Y322636D01*
X258170Y322779D01*
X258329Y323161D01*
X258329Y327363D01*
X258715Y327680D01*
X258870Y327650D01*
X259526Y327780D01*
X260082Y328152D01*
X260453Y328708D01*
X260582Y329358D01*
X260604Y329372D01*
X261057Y329547D01*
X261201Y329331D01*
X261757Y328960D01*
X262413Y328829D01*
X263069Y328960D01*
X263625Y329331D01*
X263997Y329887D01*
X264127Y330543D01*
X263997Y331199D01*
X263625Y331755D01*
X263069Y332127D01*
X262413Y332257D01*
X261919Y332159D01*
X258652Y335426D01*
X259083Y335987D01*
X259431Y336827D01*
X259550Y337728D01*
X259431Y338630D01*
X259083Y339470D01*
X258530Y340191D01*
X257808Y340744D01*
X256968Y341092D01*
X256067Y341211D01*
X255166Y341092D01*
X254326Y340744D01*
X253605Y340191D01*
X253051Y339470D01*
X252703Y338630D01*
X252679Y338447D01*
X252159Y338326D01*
X252011Y338547D01*
X251819Y338675D01*
Y351578D01*
X262878Y362637D01*
X263102Y362592D01*
X263758Y362723D01*
X264314Y363094D01*
X264686Y363650D01*
X264816Y364306D01*
X264686Y364962D01*
X264679Y364973D01*
X264909Y365529D01*
X265136Y365574D01*
X265692Y365946D01*
X266064Y366501D01*
X266194Y367158D01*
X266064Y367813D01*
X265692Y368370D01*
X265136Y368741D01*
X264480Y368871D01*
X263946Y368765D01*
X263159Y369552D01*
X262828Y369773D01*
X262438Y369850D01*
X256516D01*
Y370512D01*
X253020D01*
X252901Y370631D01*
Y371579D01*
X253956D01*
Y376122D01*
D02*
G37*
G36*
X226390Y363655D02*
X225734Y363525D01*
X225178Y363153D01*
X224806Y362597D01*
X224676Y361941D01*
X224806Y361285D01*
X225178Y360729D01*
X225734Y360357D01*
X226390Y360227D01*
X227046Y360357D01*
X227602Y360729D01*
X227730Y360921D01*
X229433D01*
Y358980D01*
X233583D01*
Y363524D01*
X229433D01*
Y362961D01*
X227730D01*
X227602Y363153D01*
X227046Y363525D01*
X226390Y363655D01*
D02*
G37*
G36*
X306425Y360972D02*
X304350D01*
Y358701D01*
X306425D01*
Y360972D01*
D02*
G37*
G36*
X303350D02*
X301276D01*
Y358701D01*
X303350D01*
Y360972D01*
D02*
G37*
G36*
X306425Y357701D02*
X304350D01*
Y355429D01*
X306425D01*
Y357701D01*
D02*
G37*
G36*
X303350D02*
X301276D01*
Y355429D01*
X303350D01*
Y357701D01*
D02*
G37*
G36*
X234083Y356642D02*
X232008D01*
Y354370D01*
X234083D01*
Y356642D01*
D02*
G37*
G36*
X231008D02*
X228934D01*
Y354370D01*
X231008D01*
Y356642D01*
D02*
G37*
G36*
X234083Y353370D02*
X232008D01*
Y351098D01*
X234083D01*
Y353370D01*
D02*
G37*
G36*
X231008D02*
X228934D01*
Y351098D01*
X231008D01*
Y353370D01*
D02*
G37*
G36*
X300701Y342297D02*
X300045Y342166D01*
X299489Y341795D01*
X299360Y341602D01*
X289185D01*
X288795Y341525D01*
X288464Y341304D01*
X283999Y336838D01*
X283772Y336883D01*
X283116Y336753D01*
X282560Y336381D01*
X282188Y335825D01*
X282058Y335169D01*
X282188Y334513D01*
X282560Y333957D01*
X283116Y333586D01*
X283772Y333455D01*
X284428Y333586D01*
X284984Y333957D01*
X285355Y334513D01*
X285486Y335169D01*
X285440Y335396D01*
X289607Y339563D01*
X299360D01*
X299489Y339371D01*
X300045Y338999D01*
X300701Y338869D01*
X301357Y338999D01*
X301913Y339371D01*
X302284Y339927D01*
X302415Y340583D01*
X302284Y341239D01*
X301913Y341795D01*
X301357Y342166D01*
X300701Y342297D01*
D02*
G37*
G36*
X280020Y341681D02*
X276567D01*
Y338228D01*
X280020D01*
Y341681D01*
D02*
G37*
G36*
X275567D02*
X272114D01*
Y338228D01*
X275567D01*
Y341681D01*
D02*
G37*
G36*
X308689Y337842D02*
X306417D01*
Y335768D01*
X308689D01*
Y337842D01*
D02*
G37*
G36*
X280020Y337228D02*
X276567D01*
Y333776D01*
X280020D01*
Y337228D01*
D02*
G37*
G36*
X275567D02*
X272114D01*
Y333776D01*
X275567D01*
Y337228D01*
D02*
G37*
G36*
X308189Y342853D02*
X303646D01*
Y340146D01*
X301462Y337962D01*
X301356Y338032D01*
X300700Y338163D01*
X300044Y338032D01*
X299488Y337661D01*
X299116Y337105D01*
X298986Y336449D01*
X299116Y335793D01*
X299488Y335237D01*
X300044Y334865D01*
X300700Y334735D01*
X301356Y334865D01*
X301912Y335237D01*
X302284Y335793D01*
X302315Y335950D01*
X302372Y335988D01*
X302684Y336300D01*
X303146Y336109D01*
Y335768D01*
X305417D01*
Y337842D01*
X304879D01*
X304688Y338304D01*
X305088Y338704D01*
X308189D01*
Y339759D01*
X311677D01*
X312990Y338446D01*
X312691Y337724D01*
X312573Y336823D01*
X312691Y335922D01*
X313039Y335082D01*
X313593Y334360D01*
X314314Y333807D01*
X315154Y333459D01*
X316055Y333340D01*
X316956Y333459D01*
X317796Y333807D01*
X318518Y334360D01*
X319071Y335082D01*
X319419Y335922D01*
X319538Y336823D01*
X319419Y337724D01*
X319071Y338564D01*
X318518Y339285D01*
X317796Y339839D01*
X316956Y340187D01*
X316055Y340305D01*
X315154Y340187D01*
X314432Y339888D01*
X312820Y341500D01*
X312489Y341721D01*
X312099Y341798D01*
X308189D01*
Y342853D01*
D02*
G37*
G36*
X308689Y334768D02*
X306417D01*
Y332693D01*
X308689D01*
Y334768D01*
D02*
G37*
G36*
X305417D02*
X303146D01*
Y332693D01*
X305417D01*
Y334768D01*
D02*
G37*
%LPD*%
G36*
X251980Y333693D02*
X257787Y327886D01*
X257787Y323161D01*
X243614D01*
X241350Y325425D01*
X241350Y331921D01*
X243122Y333693D01*
X251980Y333693D01*
D02*
G37*
%LPC*%
G36*
X545022Y206188D02*
X544366Y206058D01*
X543810Y205686D01*
X543439Y205130D01*
X543308Y204474D01*
X543439Y203818D01*
X543810Y203262D01*
X544003Y203134D01*
Y195563D01*
X536991Y188551D01*
X532163D01*
X531773Y188473D01*
X531442Y188252D01*
X512517Y169327D01*
X512055Y169519D01*
Y186195D01*
X512248Y186324D01*
X512619Y186880D01*
X512750Y187536D01*
X512619Y188192D01*
X512248Y188748D01*
X511692Y189119D01*
X511036Y189250D01*
X510380Y189119D01*
X509824Y188748D01*
X509452Y188192D01*
X509322Y187536D01*
X509452Y186880D01*
X509824Y186324D01*
X510016Y186195D01*
Y168948D01*
X506395Y165326D01*
X506345Y165332D01*
X505912Y165551D01*
Y173457D01*
X505815Y173944D01*
X505539Y174358D01*
X497567Y182330D01*
X497153Y182607D01*
X496665Y182704D01*
X478977D01*
X478845Y182836D01*
Y187397D01*
X485883Y194435D01*
X486134D01*
X486462Y194216D01*
X487118Y194085D01*
X487774Y194216D01*
X488330Y194587D01*
X488702Y195143D01*
X488832Y195799D01*
X488702Y196455D01*
X488330Y197011D01*
X487774Y197383D01*
X487118Y197513D01*
X486462Y197383D01*
X485906Y197011D01*
X485888Y196984D01*
X485355D01*
X484868Y196887D01*
X484454Y196611D01*
X476670Y188826D01*
X476393Y188413D01*
X476296Y187925D01*
Y182308D01*
X476393Y181820D01*
X476670Y181407D01*
X477548Y180528D01*
X477962Y180252D01*
X478449Y180155D01*
X496137D01*
X503363Y172929D01*
Y165914D01*
X490929Y153479D01*
X490653Y153066D01*
X490556Y152578D01*
Y151335D01*
X490653Y150848D01*
X490929Y150434D01*
X499117Y142246D01*
X498924Y141779D01*
X498805Y140878D01*
X498924Y139977D01*
X499272Y139137D01*
X499825Y138415D01*
X500546Y137862D01*
X501386Y137514D01*
X502288Y137395D01*
X502371Y137406D01*
X510057Y129721D01*
Y125799D01*
X518931D01*
Y125868D01*
Y126409D01*
Y131524D01*
X511859D01*
X504844Y138538D01*
X505303Y139137D01*
X505652Y139977D01*
X505770Y140878D01*
X505652Y141779D01*
X505303Y142619D01*
X504750Y143341D01*
X504029Y143894D01*
X503189Y144242D01*
X502288Y144360D01*
X501386Y144242D01*
X500919Y144049D01*
X497235Y147733D01*
X497295Y147976D01*
X497439Y148236D01*
X498010Y148349D01*
X498566Y148721D01*
X498938Y149277D01*
X499068Y149933D01*
X499044Y150057D01*
X499494Y150357D01*
X499553Y150318D01*
X500209Y150188D01*
X500865Y150318D01*
X501421Y150690D01*
X501561Y150900D01*
X509161D01*
X509397Y150459D01*
X509354Y150394D01*
X509223Y149739D01*
X509354Y149083D01*
X509725Y148527D01*
X510282Y148155D01*
X510937Y148024D01*
X511593Y148155D01*
X512149Y148527D01*
X512278Y148719D01*
X541419D01*
X541615Y148426D01*
X542171Y148054D01*
X542827Y147924D01*
X543483Y148054D01*
X544039Y148426D01*
X544410Y148982D01*
X544541Y149638D01*
X544410Y150294D01*
X544339Y150400D01*
X544606Y150900D01*
X548514D01*
X548865Y150519D01*
X548793Y149972D01*
X548912Y149071D01*
X549260Y148231D01*
X549813Y147510D01*
X550534Y146957D01*
X551374Y146608D01*
X552276Y146490D01*
X553177Y146608D01*
X554017Y146957D01*
X554738Y147510D01*
X555292Y148231D01*
X555640Y149071D01*
X555758Y149972D01*
X555640Y150874D01*
X555292Y151714D01*
X554738Y152435D01*
X554017Y152988D01*
X553177Y153336D01*
X552276Y153455D01*
X551374Y153336D01*
X550534Y152988D01*
X549878Y152485D01*
X549722Y152641D01*
X549391Y152862D01*
X549001Y152939D01*
X547333D01*
X547182Y153439D01*
X547190Y153444D01*
X550653Y156907D01*
X551374Y156608D01*
X552276Y156490D01*
X553177Y156608D01*
X554017Y156957D01*
X554738Y157510D01*
X555292Y158231D01*
X555640Y159071D01*
X555758Y159972D01*
X555640Y160874D01*
X555292Y161714D01*
X554738Y162435D01*
X554017Y162988D01*
X553177Y163336D01*
X552276Y163455D01*
X551374Y163336D01*
X550534Y162988D01*
X549813Y162435D01*
X549260Y161714D01*
X548972Y161020D01*
X548472Y161120D01*
Y166020D01*
X551776D01*
Y169972D01*
Y173925D01*
X548472D01*
Y176348D01*
X548665Y176477D01*
X549036Y177033D01*
X549167Y177689D01*
X549036Y178345D01*
X548665Y178901D01*
X548109Y179272D01*
X547453Y179403D01*
X546797Y179272D01*
X546241Y178901D01*
X545869Y178345D01*
X545739Y177689D01*
X545869Y177033D01*
X546241Y176477D01*
X546433Y176348D01*
Y158131D01*
X544987Y156685D01*
X514289D01*
X512530Y158443D01*
X512566Y158640D01*
X512727Y158953D01*
X513274Y159062D01*
X513830Y159434D01*
X513959Y159626D01*
X514519D01*
X514909Y159704D01*
X515240Y159925D01*
X524455Y169140D01*
X525693D01*
Y167347D01*
X530236D01*
Y167614D01*
X532287D01*
Y165181D01*
X533540D01*
Y163622D01*
X532485D01*
Y159079D01*
X536635D01*
Y163622D01*
X535579D01*
Y165181D01*
X543917D01*
Y172086D01*
X532287D01*
Y169653D01*
X530236D01*
Y171496D01*
X525693D01*
Y171179D01*
X525026D01*
X524835Y171641D01*
X526032Y172838D01*
X526890D01*
X526988Y172858D01*
X530236D01*
Y173914D01*
X532287D01*
Y172662D01*
X543917D01*
Y179567D01*
X537351D01*
Y180634D01*
X538406D01*
Y185177D01*
X534257D01*
Y180634D01*
X535312D01*
Y179567D01*
X532287D01*
Y175953D01*
X530236D01*
Y177007D01*
X525693D01*
Y174877D01*
X525610D01*
X525220Y174800D01*
X524889Y174579D01*
X514156Y163846D01*
X511884D01*
X511755Y164039D01*
X511199Y164410D01*
X511123Y164426D01*
X510978Y164904D01*
X532586Y186512D01*
X537413D01*
X537804Y186590D01*
X538134Y186811D01*
X545743Y194419D01*
X545964Y194750D01*
X546042Y195140D01*
Y203134D01*
X546234Y203262D01*
X546606Y203818D01*
X546736Y204474D01*
X546606Y205130D01*
X546234Y205686D01*
X545678Y206058D01*
X545022Y206188D01*
D02*
G37*
G36*
X522157Y192690D02*
X521501Y192560D01*
X520946Y192188D01*
X520574Y191632D01*
X520443Y190976D01*
X520489Y190749D01*
X515685Y185945D01*
X515530Y186049D01*
X514874Y186179D01*
X514218Y186049D01*
X513662Y185677D01*
X513290Y185121D01*
X513160Y184465D01*
X513290Y183809D01*
X513662Y183253D01*
X514218Y182881D01*
X514874Y182751D01*
X515530Y182881D01*
X516086Y183253D01*
X516458Y183809D01*
X516464Y183841D01*
X521931Y189307D01*
X522157Y189262D01*
X522813Y189393D01*
X523370Y189764D01*
X523741Y190320D01*
X523872Y190976D01*
X523741Y191632D01*
X523370Y192188D01*
X522813Y192560D01*
X522157Y192690D01*
D02*
G37*
G36*
X554484Y198825D02*
X548760D01*
Y189951D01*
X552080D01*
Y189537D01*
X552157Y189147D01*
X552379Y188816D01*
X553030Y188164D01*
X552924Y187630D01*
X553054Y186974D01*
X553426Y186418D01*
X553982Y186046D01*
X554638Y185916D01*
X555294Y186046D01*
X555850Y186418D01*
X556221Y186974D01*
X556352Y187630D01*
X556221Y188286D01*
X555850Y188842D01*
X555294Y189214D01*
X554758Y189320D01*
X554380Y189699D01*
X554484Y189951D01*
X554484D01*
Y198825D01*
D02*
G37*
G36*
X544417Y185677D02*
X542343D01*
Y183405D01*
X544417D01*
Y185677D01*
D02*
G37*
G36*
X541342D02*
X539268D01*
Y183405D01*
X541342D01*
Y185677D01*
D02*
G37*
G36*
X482590Y186687D02*
X481935Y186556D01*
X481379Y186184D01*
X481007Y185628D01*
X480876Y184972D01*
X481007Y184317D01*
X481379Y183760D01*
X481935Y183389D01*
X482590Y183258D01*
X483247Y183389D01*
X483803Y183760D01*
X483931Y183953D01*
X500968D01*
X501162Y183662D01*
X501718Y183291D01*
X502374Y183160D01*
X503030Y183291D01*
X503586Y183662D01*
X503958Y184218D01*
X504088Y184874D01*
X503958Y185530D01*
X503586Y186086D01*
X503030Y186458D01*
X502374Y186588D01*
X501718Y186458D01*
X501162Y186086D01*
X501099Y185992D01*
X483931D01*
X483803Y186184D01*
X483247Y186556D01*
X482590Y186687D01*
D02*
G37*
G36*
X544417Y182405D02*
X542343D01*
Y180134D01*
X544417D01*
Y182405D01*
D02*
G37*
G36*
X541342D02*
X539268D01*
Y180134D01*
X541342D01*
Y182405D01*
D02*
G37*
G36*
X484666Y179272D02*
X480516D01*
Y176221D01*
X480497Y176122D01*
Y173661D01*
X477563D01*
Y172999D01*
X475413D01*
Y174252D01*
X471263D01*
Y169709D01*
X475413D01*
Y170960D01*
X477563D01*
Y170421D01*
X477063D01*
Y168740D01*
X480031D01*
X483000D01*
Y170421D01*
X482500D01*
Y172497D01*
X482536Y172677D01*
Y174728D01*
X484666D01*
Y179272D01*
D02*
G37*
G36*
X470402Y174752D02*
X468327D01*
Y172480D01*
X470402D01*
Y174752D01*
D02*
G37*
G36*
X467327D02*
X465252D01*
Y172480D01*
X467327D01*
Y174752D01*
D02*
G37*
G36*
X556228Y173925D02*
X552776D01*
Y170472D01*
X556228D01*
Y173925D01*
D02*
G37*
G36*
X470402Y171480D02*
X468327D01*
Y169209D01*
X470402D01*
Y171480D01*
D02*
G37*
G36*
X467327D02*
X465252D01*
Y169209D01*
X467327D01*
Y171480D01*
D02*
G37*
G36*
X556228Y169472D02*
X552776D01*
Y166020D01*
X556228D01*
Y169472D01*
D02*
G37*
G36*
X483000Y167740D02*
X480031D01*
X477063D01*
Y166059D01*
X477563D01*
Y165519D01*
X475315D01*
Y166673D01*
X471165D01*
Y162130D01*
X472220D01*
Y159291D01*
X471165D01*
Y154748D01*
X475315D01*
Y159291D01*
X474259D01*
Y162130D01*
X475315D01*
Y163480D01*
X477563D01*
Y162819D01*
X482500D01*
Y166059D01*
X483000D01*
Y167740D01*
D02*
G37*
G36*
X490177Y179272D02*
X486027D01*
Y174728D01*
X487082D01*
Y173359D01*
X487160Y172968D01*
X487381Y172638D01*
X487799Y172220D01*
Y170299D01*
X492736D01*
Y170961D01*
X498237D01*
X499011Y170187D01*
X499117Y169651D01*
X499124Y169640D01*
X498894Y169085D01*
X498667Y169039D01*
X498111Y168668D01*
X497739Y168112D01*
X497609Y167456D01*
X497654Y167226D01*
X493228Y162800D01*
X492736Y163015D01*
X492736Y163238D01*
Y166182D01*
X487799D01*
Y162819D01*
X489248D01*
Y161371D01*
X484035Y156157D01*
X483814Y155827D01*
X483736Y155436D01*
Y150461D01*
X476943D01*
X476814Y150653D01*
X476258Y151024D01*
X475602Y151155D01*
X474946Y151024D01*
X474390Y150653D01*
X474019Y150097D01*
X473888Y149441D01*
X474019Y148785D01*
X474390Y148229D01*
X474946Y147857D01*
X475602Y147727D01*
X476258Y147857D01*
X476814Y148229D01*
X476943Y148421D01*
X483736D01*
Y139664D01*
X483814Y139273D01*
X484035Y138943D01*
X485132Y137846D01*
X484940Y137384D01*
X479343Y137384D01*
X479343Y137384D01*
X478960Y137225D01*
X478960Y137225D01*
X477188Y135453D01*
X477030Y135071D01*
X477030Y135071D01*
X477030Y128575D01*
X477030Y128575D01*
X477158Y128266D01*
X477158D01*
Y128266D01*
X477188Y128192D01*
X477188Y128192D01*
X477188D01*
X478718Y126662D01*
X479452Y125928D01*
X479835Y125770D01*
X479835Y125770D01*
X485171D01*
Y125732D01*
X494045D01*
Y125785D01*
X494390Y125928D01*
X494549Y126311D01*
X494549Y130513D01*
X494936Y130830D01*
X495090Y130799D01*
X495746Y130930D01*
X496302Y131301D01*
X496674Y131857D01*
X496803Y132507D01*
X496825Y132521D01*
X497277Y132697D01*
X497422Y132481D01*
X497978Y132109D01*
X498634Y131979D01*
X499290Y132109D01*
X499846Y132481D01*
X500217Y133037D01*
X500348Y133693D01*
X500217Y134349D01*
X499846Y134905D01*
X499290Y135276D01*
X498634Y135407D01*
X498140Y135309D01*
X494873Y138575D01*
X495303Y139137D01*
X495651Y139977D01*
X495770Y140878D01*
X495651Y141779D01*
X495303Y142619D01*
X494750Y143341D01*
X494029Y143894D01*
X493189Y144242D01*
X492288Y144360D01*
X491386Y144242D01*
X490546Y143894D01*
X489825Y143341D01*
X489272Y142619D01*
X488924Y141779D01*
X488900Y141597D01*
X488379Y141475D01*
X488232Y141696D01*
X488039Y141825D01*
Y154727D01*
X499098Y165787D01*
X499323Y165742D01*
X499979Y165872D01*
X500535Y166244D01*
X500906Y166800D01*
X501037Y167456D01*
X500906Y168112D01*
X500899Y168123D01*
X501129Y168678D01*
X501357Y168723D01*
X501913Y169095D01*
X502284Y169651D01*
X502415Y170307D01*
X502284Y170963D01*
X501913Y171519D01*
X501357Y171891D01*
X500701Y172021D01*
X500166Y171915D01*
X499380Y172701D01*
X499049Y172922D01*
X498659Y173000D01*
X492736D01*
Y173662D01*
X489241D01*
X489121Y173781D01*
Y174728D01*
X490177D01*
Y179272D01*
D02*
G37*
G36*
X462610Y166805D02*
X461954Y166674D01*
X461398Y166303D01*
X461027Y165746D01*
X460896Y165091D01*
X461027Y164435D01*
X461398Y163879D01*
X461954Y163507D01*
X462610Y163376D01*
X463266Y163507D01*
X463822Y163879D01*
X463951Y164071D01*
X465654D01*
Y162130D01*
X469803D01*
Y166673D01*
X465654D01*
Y166110D01*
X463951D01*
X463822Y166303D01*
X463266Y166674D01*
X462610Y166805D01*
D02*
G37*
G36*
X542646Y164122D02*
X540571D01*
Y161850D01*
X542646D01*
Y164122D01*
D02*
G37*
G36*
X539571D02*
X537496D01*
Y161850D01*
X539571D01*
Y164122D01*
D02*
G37*
G36*
X542646Y160850D02*
X540571D01*
Y158579D01*
X542646D01*
Y160850D01*
D02*
G37*
G36*
X539571D02*
X537496D01*
Y158579D01*
X539571D01*
Y160850D01*
D02*
G37*
G36*
X470303Y159791D02*
X468229D01*
Y157520D01*
X470303D01*
Y159791D01*
D02*
G37*
G36*
X467229D02*
X465154D01*
Y157520D01*
X467229D01*
Y159791D01*
D02*
G37*
G36*
X470303Y156520D02*
X468229D01*
Y154248D01*
X470303D01*
Y156520D01*
D02*
G37*
G36*
X467229D02*
X465154D01*
Y154248D01*
X467229D01*
Y156520D01*
D02*
G37*
G36*
X536921Y145446D02*
X536265Y145316D01*
X535709Y144944D01*
X535581Y144752D01*
X525406D01*
X525015Y144674D01*
X524684Y144453D01*
X520219Y139988D01*
X519992Y140033D01*
X519336Y139902D01*
X518780Y139531D01*
X518409Y138975D01*
X518278Y138319D01*
X518409Y137663D01*
X518780Y137107D01*
X519336Y136735D01*
X519992Y136605D01*
X520648Y136735D01*
X521204Y137107D01*
X521576Y137663D01*
X521706Y138319D01*
X521661Y138546D01*
X525828Y142713D01*
X535581D01*
X535709Y142520D01*
X536265Y142149D01*
X536921Y142018D01*
X537577Y142149D01*
X538133Y142520D01*
X538505Y143076D01*
X538635Y143732D01*
X538505Y144388D01*
X538133Y144944D01*
X537577Y145316D01*
X536921Y145446D01*
D02*
G37*
G36*
X516240Y144831D02*
X512788D01*
Y141378D01*
X516240D01*
Y144831D01*
D02*
G37*
G36*
X511788D02*
X508335D01*
Y141378D01*
X511788D01*
Y144831D01*
D02*
G37*
G36*
X544909Y140992D02*
X542638D01*
Y138917D01*
X544909D01*
Y140992D01*
D02*
G37*
G36*
X516240Y140378D02*
X512788D01*
Y136925D01*
X516240D01*
Y140378D01*
D02*
G37*
G36*
X511788D02*
X508335D01*
Y136925D01*
X511788D01*
Y140378D01*
D02*
G37*
G36*
X544409Y146003D02*
X539866D01*
Y143295D01*
X537682Y141111D01*
X537576Y141182D01*
X536920Y141312D01*
X536265Y141182D01*
X535708Y140810D01*
X535337Y140254D01*
X535206Y139598D01*
X535337Y138943D01*
X535708Y138386D01*
X536265Y138015D01*
X536920Y137884D01*
X537576Y138015D01*
X538132Y138386D01*
X538504Y138943D01*
X538535Y139100D01*
X538593Y139138D01*
X538904Y139450D01*
X539366Y139258D01*
Y138917D01*
X541638D01*
Y140992D01*
X541100D01*
X540909Y141454D01*
X541308Y141853D01*
X544409D01*
Y142909D01*
X547897D01*
X549211Y141595D01*
X548912Y140874D01*
X548793Y139972D01*
X548912Y139071D01*
X549260Y138231D01*
X549813Y137510D01*
X550534Y136957D01*
X551374Y136609D01*
X552276Y136490D01*
X553177Y136609D01*
X554017Y136957D01*
X554738Y137510D01*
X555292Y138231D01*
X555640Y139071D01*
X555758Y139972D01*
X555640Y140874D01*
X555292Y141714D01*
X554738Y142435D01*
X554017Y142988D01*
X553177Y143336D01*
X552276Y143455D01*
X551374Y143336D01*
X550653Y143037D01*
X549041Y144649D01*
X548710Y144870D01*
X548320Y144948D01*
X544409D01*
Y146003D01*
D02*
G37*
G36*
X544909Y137917D02*
X542638D01*
Y135843D01*
X544909D01*
Y137917D01*
D02*
G37*
G36*
X541638D02*
X539366D01*
Y135843D01*
X541638D01*
Y137917D01*
D02*
G37*
%LPD*%
G36*
X488201Y136843D02*
X494008Y131035D01*
X494008Y126311D01*
X479835D01*
X477571Y128575D01*
X477571Y135071D01*
X479343Y136843D01*
X488201Y136843D01*
D02*
G37*
%LPC*%
G36*
X426912Y206188D02*
X426256Y206058D01*
X425700Y205686D01*
X425328Y205130D01*
X425198Y204474D01*
X425328Y203818D01*
X425700Y203262D01*
X425892Y203134D01*
Y195563D01*
X418881Y188551D01*
X414053D01*
X413663Y188473D01*
X413332Y188252D01*
X394407Y169327D01*
X393945Y169519D01*
Y186195D01*
X394138Y186324D01*
X394509Y186880D01*
X394640Y187536D01*
X394509Y188192D01*
X394138Y188748D01*
X393582Y189119D01*
X392926Y189250D01*
X392270Y189119D01*
X391714Y188748D01*
X391342Y188192D01*
X391212Y187536D01*
X391342Y186880D01*
X391714Y186324D01*
X391906Y186195D01*
Y168948D01*
X388285Y165326D01*
X388235Y165332D01*
X387802Y165551D01*
Y173457D01*
X387705Y173944D01*
X387429Y174358D01*
X379456Y182330D01*
X379043Y182607D01*
X378555Y182704D01*
X360867D01*
X360735Y182836D01*
Y187397D01*
X367773Y194435D01*
X368023D01*
X368352Y194216D01*
X369008Y194085D01*
X369664Y194216D01*
X370220Y194587D01*
X370591Y195143D01*
X370722Y195799D01*
X370591Y196455D01*
X370220Y197011D01*
X369664Y197383D01*
X369008Y197513D01*
X368352Y197383D01*
X367796Y197011D01*
X367778Y196984D01*
X367245D01*
X366757Y196887D01*
X366344Y196611D01*
X358559Y188826D01*
X358283Y188413D01*
X358186Y187925D01*
Y182308D01*
X358283Y181820D01*
X358559Y181407D01*
X359438Y180528D01*
X359852Y180252D01*
X360339Y180155D01*
X378027D01*
X385253Y172929D01*
Y165914D01*
X372819Y153479D01*
X372542Y153066D01*
X372445Y152578D01*
Y151335D01*
X372542Y150848D01*
X372819Y150434D01*
X381007Y142246D01*
X380814Y141779D01*
X380695Y140878D01*
X380814Y139977D01*
X381161Y139137D01*
X381715Y138415D01*
X382436Y137862D01*
X383276Y137514D01*
X384177Y137395D01*
X384261Y137406D01*
X391946Y129721D01*
Y125799D01*
X400820D01*
Y125868D01*
Y126409D01*
Y131524D01*
X393749D01*
X386734Y138538D01*
X387193Y139137D01*
X387541Y139977D01*
X387660Y140878D01*
X387541Y141779D01*
X387193Y142619D01*
X386640Y143341D01*
X385919Y143894D01*
X385079Y144242D01*
X384177Y144360D01*
X383276Y144242D01*
X382809Y144049D01*
X379125Y147733D01*
X379184Y147976D01*
X379329Y148236D01*
X379900Y148349D01*
X380456Y148721D01*
X380828Y149277D01*
X380958Y149933D01*
X380933Y150057D01*
X381383Y150357D01*
X381442Y150318D01*
X382098Y150188D01*
X382754Y150318D01*
X383310Y150690D01*
X383451Y150900D01*
X391051D01*
X391287Y150459D01*
X391244Y150394D01*
X391113Y149739D01*
X391244Y149083D01*
X391615Y148527D01*
X392171Y148155D01*
X392827Y148024D01*
X393483Y148155D01*
X394039Y148527D01*
X394168Y148719D01*
X423309D01*
X423504Y148426D01*
X424061Y148054D01*
X424717Y147924D01*
X425373Y148054D01*
X425928Y148426D01*
X426300Y148982D01*
X426431Y149638D01*
X426300Y150294D01*
X426229Y150400D01*
X426496Y150900D01*
X430404D01*
X430755Y150519D01*
X430683Y149972D01*
X430801Y149071D01*
X431149Y148231D01*
X431703Y147510D01*
X432424Y146957D01*
X433264Y146608D01*
X434165Y146490D01*
X435067Y146608D01*
X435907Y146957D01*
X436628Y147510D01*
X437181Y148231D01*
X437529Y149071D01*
X437648Y149972D01*
X437529Y150874D01*
X437181Y151714D01*
X436628Y152435D01*
X435907Y152988D01*
X435067Y153336D01*
X434165Y153455D01*
X433264Y153336D01*
X432424Y152988D01*
X431768Y152485D01*
X431612Y152641D01*
X431281Y152862D01*
X430891Y152939D01*
X429223D01*
X429072Y153439D01*
X429079Y153444D01*
X432542Y156907D01*
X433264Y156608D01*
X434165Y156490D01*
X435067Y156608D01*
X435907Y156957D01*
X436628Y157510D01*
X437181Y158231D01*
X437529Y159071D01*
X437648Y159972D01*
X437529Y160874D01*
X437181Y161714D01*
X436628Y162435D01*
X435907Y162988D01*
X435067Y163336D01*
X434165Y163455D01*
X433264Y163336D01*
X432424Y162988D01*
X431703Y162435D01*
X431149Y161714D01*
X430862Y161020D01*
X430362Y161120D01*
Y166020D01*
X433665D01*
Y169972D01*
Y173925D01*
X430362D01*
Y176348D01*
X430554Y176477D01*
X430926Y177033D01*
X431056Y177689D01*
X430926Y178345D01*
X430554Y178901D01*
X429998Y179272D01*
X429343Y179403D01*
X428687Y179272D01*
X428130Y178901D01*
X427759Y178345D01*
X427629Y177689D01*
X427759Y177033D01*
X428130Y176477D01*
X428323Y176348D01*
Y158131D01*
X426877Y156685D01*
X396178D01*
X394420Y158443D01*
X394455Y158640D01*
X394617Y158953D01*
X395164Y159062D01*
X395720Y159434D01*
X395848Y159626D01*
X396409D01*
X396799Y159704D01*
X397130Y159925D01*
X406345Y169140D01*
X407583D01*
Y167347D01*
X412126D01*
Y167614D01*
X414177D01*
Y165181D01*
X415430D01*
Y163622D01*
X414375D01*
Y159079D01*
X418524D01*
Y163622D01*
X417469D01*
Y165181D01*
X425807D01*
Y172086D01*
X414177D01*
Y169653D01*
X412126D01*
Y171496D01*
X407583D01*
Y171179D01*
X406916D01*
X406725Y171641D01*
X407922Y172838D01*
X408779D01*
X408878Y172858D01*
X412126D01*
Y173914D01*
X414177D01*
Y172662D01*
X425807D01*
Y179567D01*
X419241D01*
Y180634D01*
X420296D01*
Y185177D01*
X416147D01*
Y180634D01*
X417202D01*
Y179567D01*
X414177D01*
Y175953D01*
X412126D01*
Y177007D01*
X407583D01*
Y174877D01*
X407500D01*
X407109Y174800D01*
X406779Y174579D01*
X396046Y163846D01*
X393774D01*
X393645Y164039D01*
X393089Y164410D01*
X393013Y164426D01*
X392868Y164904D01*
X414476Y186512D01*
X419303D01*
X419693Y186590D01*
X420024Y186811D01*
X427633Y194419D01*
X427854Y194750D01*
X427932Y195140D01*
Y203134D01*
X428124Y203262D01*
X428496Y203818D01*
X428626Y204474D01*
X428496Y205130D01*
X428124Y205686D01*
X427568Y206058D01*
X426912Y206188D01*
D02*
G37*
G36*
X404047Y192690D02*
X403391Y192560D01*
X402835Y192188D01*
X402464Y191632D01*
X402333Y190976D01*
X402378Y190749D01*
X397574Y185945D01*
X397420Y186049D01*
X396764Y186179D01*
X396108Y186049D01*
X395552Y185677D01*
X395180Y185121D01*
X395050Y184465D01*
X395180Y183809D01*
X395552Y183253D01*
X396108Y182881D01*
X396764Y182751D01*
X397420Y182881D01*
X397976Y183253D01*
X398347Y183809D01*
X398354Y183841D01*
X403820Y189307D01*
X404047Y189262D01*
X404703Y189393D01*
X405259Y189764D01*
X405631Y190320D01*
X405761Y190976D01*
X405631Y191632D01*
X405259Y192188D01*
X404703Y192560D01*
X404047Y192690D01*
D02*
G37*
G36*
X436374Y198825D02*
X430650D01*
Y189951D01*
X433970D01*
Y189537D01*
X434047Y189147D01*
X434268Y188816D01*
X434920Y188164D01*
X434813Y187630D01*
X434944Y186974D01*
X435316Y186418D01*
X435872Y186046D01*
X436527Y185916D01*
X437184Y186046D01*
X437740Y186418D01*
X438111Y186974D01*
X438242Y187630D01*
X438111Y188286D01*
X437740Y188842D01*
X437184Y189214D01*
X436648Y189320D01*
X436269Y189699D01*
X436374Y189951D01*
X436374D01*
Y198825D01*
D02*
G37*
G36*
X426307Y185677D02*
X424232D01*
Y183405D01*
X426307D01*
Y185677D01*
D02*
G37*
G36*
X423232D02*
X421158D01*
Y183405D01*
X423232D01*
Y185677D01*
D02*
G37*
G36*
X364480Y186687D02*
X363824Y186556D01*
X363268Y186184D01*
X362897Y185628D01*
X362766Y184972D01*
X362897Y184317D01*
X363268Y183760D01*
X363824Y183389D01*
X364480Y183258D01*
X365136Y183389D01*
X365692Y183760D01*
X365821Y183953D01*
X382857D01*
X383052Y183662D01*
X383608Y183291D01*
X384264Y183160D01*
X384920Y183291D01*
X385476Y183662D01*
X385847Y184218D01*
X385978Y184874D01*
X385847Y185530D01*
X385476Y186086D01*
X384920Y186458D01*
X384264Y186588D01*
X383608Y186458D01*
X383052Y186086D01*
X382989Y185992D01*
X365821D01*
X365692Y186184D01*
X365136Y186556D01*
X364480Y186687D01*
D02*
G37*
G36*
X426307Y182405D02*
X424232D01*
Y180134D01*
X426307D01*
Y182405D01*
D02*
G37*
G36*
X423232D02*
X421158D01*
Y180134D01*
X423232D01*
Y182405D01*
D02*
G37*
G36*
X366556Y179272D02*
X362406D01*
Y176221D01*
X362386Y176122D01*
Y173661D01*
X359453D01*
Y172999D01*
X357303D01*
Y174252D01*
X353153D01*
Y169709D01*
X357303D01*
Y170960D01*
X359453D01*
Y170421D01*
X358953D01*
Y168740D01*
X361921D01*
X364890D01*
Y170421D01*
X364390D01*
Y172497D01*
X364425Y172677D01*
Y174728D01*
X366556D01*
Y179272D01*
D02*
G37*
G36*
X352292Y174752D02*
X350217D01*
Y172480D01*
X352292D01*
Y174752D01*
D02*
G37*
G36*
X349217D02*
X347142D01*
Y172480D01*
X349217D01*
Y174752D01*
D02*
G37*
G36*
X438118Y173925D02*
X434665D01*
Y170472D01*
X438118D01*
Y173925D01*
D02*
G37*
G36*
X352292Y171480D02*
X350217D01*
Y169209D01*
X352292D01*
Y171480D01*
D02*
G37*
G36*
X349217D02*
X347142D01*
Y169209D01*
X349217D01*
Y171480D01*
D02*
G37*
G36*
X438118Y169472D02*
X434665D01*
Y166020D01*
X438118D01*
Y169472D01*
D02*
G37*
G36*
X364890Y167740D02*
X361921D01*
X358953D01*
Y166059D01*
X359453D01*
Y165519D01*
X357204D01*
Y166673D01*
X353055D01*
Y162130D01*
X354110D01*
Y159291D01*
X353055D01*
Y154748D01*
X357204D01*
Y159291D01*
X356149D01*
Y162130D01*
X357204D01*
Y163480D01*
X359453D01*
Y162819D01*
X364390D01*
Y166059D01*
X364890D01*
Y167740D01*
D02*
G37*
G36*
X372066Y179272D02*
X367917D01*
Y174728D01*
X368972D01*
Y173359D01*
X369050Y172968D01*
X369271Y172638D01*
X369689Y172220D01*
Y170299D01*
X374626D01*
Y170961D01*
X380126D01*
X380901Y170187D01*
X381007Y169651D01*
X381014Y169640D01*
X380784Y169085D01*
X380557Y169039D01*
X380000Y168668D01*
X379629Y168112D01*
X379498Y167456D01*
X379544Y167226D01*
X375118Y162800D01*
X374626Y163015D01*
X374626Y163238D01*
Y166182D01*
X369689D01*
Y162819D01*
X371138D01*
Y161371D01*
X365925Y156157D01*
X365704Y155827D01*
X365626Y155436D01*
Y150461D01*
X358833D01*
X358704Y150653D01*
X358148Y151024D01*
X357492Y151155D01*
X356836Y151024D01*
X356280Y150653D01*
X355909Y150097D01*
X355778Y149441D01*
X355909Y148785D01*
X356280Y148229D01*
X356836Y147857D01*
X357492Y147727D01*
X358148Y147857D01*
X358704Y148229D01*
X358833Y148421D01*
X365626D01*
Y139664D01*
X365704Y139273D01*
X365925Y138943D01*
X367022Y137846D01*
X366830Y137384D01*
X361232Y137384D01*
X361232Y137384D01*
X360850Y137225D01*
X360849Y137225D01*
X359078Y135453D01*
X358919Y135071D01*
X358919Y135071D01*
X358919Y128575D01*
X358919Y128575D01*
X359047Y128266D01*
X359047D01*
Y128266D01*
X359078Y128192D01*
X359078Y128192D01*
X359078D01*
X360608Y126662D01*
X361342Y125928D01*
X361724Y125770D01*
X361724Y125770D01*
X367061D01*
Y125732D01*
X375935D01*
Y125785D01*
X376280Y125928D01*
X376439Y126311D01*
X376439Y130513D01*
X376825Y130830D01*
X376980Y130799D01*
X377636Y130930D01*
X378192Y131301D01*
X378563Y131857D01*
X378693Y132507D01*
X378714Y132521D01*
X379167Y132697D01*
X379312Y132481D01*
X379868Y132109D01*
X380524Y131979D01*
X381179Y132109D01*
X381736Y132481D01*
X382107Y133037D01*
X382238Y133693D01*
X382107Y134349D01*
X381736Y134905D01*
X381179Y135276D01*
X380524Y135407D01*
X380029Y135309D01*
X376763Y138575D01*
X377193Y139137D01*
X377541Y139977D01*
X377660Y140878D01*
X377541Y141779D01*
X377193Y142619D01*
X376640Y143341D01*
X375919Y143894D01*
X375079Y144242D01*
X374177Y144360D01*
X373276Y144242D01*
X372436Y143894D01*
X371715Y143341D01*
X371161Y142619D01*
X370813Y141779D01*
X370789Y141597D01*
X370269Y141475D01*
X370122Y141696D01*
X369929Y141825D01*
Y154727D01*
X380988Y165787D01*
X381212Y165742D01*
X381868Y165872D01*
X382424Y166244D01*
X382796Y166800D01*
X382927Y167456D01*
X382796Y168112D01*
X382789Y168123D01*
X383019Y168678D01*
X383246Y168723D01*
X383803Y169095D01*
X384174Y169651D01*
X384305Y170307D01*
X384174Y170963D01*
X383803Y171519D01*
X383246Y171891D01*
X382591Y172021D01*
X382056Y171915D01*
X381270Y172701D01*
X380939Y172922D01*
X380549Y173000D01*
X374626D01*
Y173662D01*
X371131D01*
X371011Y173781D01*
Y174728D01*
X372066D01*
Y179272D01*
D02*
G37*
G36*
X344500Y166805D02*
X343844Y166674D01*
X343288Y166303D01*
X342916Y165746D01*
X342786Y165091D01*
X342916Y164435D01*
X343288Y163879D01*
X343844Y163507D01*
X344500Y163376D01*
X345156Y163507D01*
X345712Y163879D01*
X345841Y164071D01*
X347544D01*
Y162130D01*
X351693D01*
Y166673D01*
X347544D01*
Y166110D01*
X345841D01*
X345712Y166303D01*
X345156Y166674D01*
X344500Y166805D01*
D02*
G37*
G36*
X424535Y164122D02*
X422461D01*
Y161850D01*
X424535D01*
Y164122D01*
D02*
G37*
G36*
X421461D02*
X419386D01*
Y161850D01*
X421461D01*
Y164122D01*
D02*
G37*
G36*
X424535Y160850D02*
X422461D01*
Y158579D01*
X424535D01*
Y160850D01*
D02*
G37*
G36*
X421461D02*
X419386D01*
Y158579D01*
X421461D01*
Y160850D01*
D02*
G37*
G36*
X352193Y159791D02*
X350118D01*
Y157520D01*
X352193D01*
Y159791D01*
D02*
G37*
G36*
X349118D02*
X347044D01*
Y157520D01*
X349118D01*
Y159791D01*
D02*
G37*
G36*
X352193Y156520D02*
X350118D01*
Y154248D01*
X352193D01*
Y156520D01*
D02*
G37*
G36*
X349118D02*
X347044D01*
Y154248D01*
X349118D01*
Y156520D01*
D02*
G37*
G36*
X418811Y145446D02*
X418155Y145316D01*
X417599Y144944D01*
X417470Y144752D01*
X407295D01*
X406905Y144674D01*
X406574Y144453D01*
X402109Y139988D01*
X401882Y140033D01*
X401226Y139902D01*
X400670Y139531D01*
X400298Y138975D01*
X400168Y138319D01*
X400298Y137663D01*
X400670Y137107D01*
X401226Y136735D01*
X401882Y136605D01*
X402538Y136735D01*
X403094Y137107D01*
X403465Y137663D01*
X403596Y138319D01*
X403551Y138546D01*
X407718Y142713D01*
X417470D01*
X417599Y142520D01*
X418155Y142149D01*
X418811Y142018D01*
X419467Y142149D01*
X420023Y142520D01*
X420395Y143076D01*
X420525Y143732D01*
X420395Y144388D01*
X420023Y144944D01*
X419467Y145316D01*
X418811Y145446D01*
D02*
G37*
G36*
X398130Y144831D02*
X394677D01*
Y141378D01*
X398130D01*
Y144831D01*
D02*
G37*
G36*
X393677D02*
X390225D01*
Y141378D01*
X393677D01*
Y144831D01*
D02*
G37*
G36*
X426799Y140992D02*
X424528D01*
Y138917D01*
X426799D01*
Y140992D01*
D02*
G37*
G36*
X398130Y140378D02*
X394677D01*
Y136925D01*
X398130D01*
Y140378D01*
D02*
G37*
G36*
X393677D02*
X390225D01*
Y136925D01*
X393677D01*
Y140378D01*
D02*
G37*
G36*
X426299Y146003D02*
X421756D01*
Y143295D01*
X419572Y141111D01*
X419466Y141182D01*
X418810Y141312D01*
X418154Y141182D01*
X417598Y140810D01*
X417227Y140254D01*
X417096Y139598D01*
X417227Y138943D01*
X417598Y138386D01*
X418154Y138015D01*
X418810Y137884D01*
X419466Y138015D01*
X420022Y138386D01*
X420394Y138943D01*
X420425Y139100D01*
X420482Y139138D01*
X420794Y139450D01*
X421256Y139258D01*
Y138917D01*
X423527D01*
Y140992D01*
X422990D01*
X422798Y141454D01*
X423198Y141853D01*
X426299D01*
Y142909D01*
X429787D01*
X431100Y141595D01*
X430801Y140874D01*
X430683Y139972D01*
X430801Y139071D01*
X431149Y138231D01*
X431703Y137510D01*
X432424Y136957D01*
X433264Y136609D01*
X434165Y136490D01*
X435067Y136609D01*
X435907Y136957D01*
X436628Y137510D01*
X437181Y138231D01*
X437529Y139071D01*
X437648Y139972D01*
X437529Y140874D01*
X437181Y141714D01*
X436628Y142435D01*
X435907Y142988D01*
X435067Y143336D01*
X434165Y143455D01*
X433264Y143336D01*
X432542Y143037D01*
X430930Y144649D01*
X430600Y144870D01*
X430209Y144948D01*
X426299D01*
Y146003D01*
D02*
G37*
G36*
X426799Y137917D02*
X424528D01*
Y135843D01*
X426799D01*
Y137917D01*
D02*
G37*
G36*
X423527D02*
X421256D01*
Y135843D01*
X423527D01*
Y137917D01*
D02*
G37*
%LPD*%
G36*
X370091Y136843D02*
X375898Y131035D01*
X375898Y126311D01*
X361724D01*
X359461Y128575D01*
X359461Y135071D01*
X361232Y136843D01*
X370091Y136843D01*
D02*
G37*
%LPC*%
G36*
X308802Y206188D02*
X308146Y206058D01*
X307590Y205686D01*
X307218Y205130D01*
X307088Y204474D01*
X307218Y203818D01*
X307590Y203262D01*
X307782Y203134D01*
Y195563D01*
X300771Y188551D01*
X295943D01*
X295553Y188473D01*
X295222Y188252D01*
X276297Y169327D01*
X275835Y169519D01*
Y186195D01*
X276027Y186324D01*
X276399Y186880D01*
X276529Y187536D01*
X276399Y188192D01*
X276027Y188748D01*
X275471Y189119D01*
X274815Y189250D01*
X274159Y189119D01*
X273603Y188748D01*
X273232Y188192D01*
X273101Y187536D01*
X273232Y186880D01*
X273603Y186324D01*
X273796Y186195D01*
Y168948D01*
X270175Y165326D01*
X270124Y165332D01*
X269692Y165551D01*
Y173457D01*
X269595Y173944D01*
X269319Y174358D01*
X261346Y182330D01*
X260933Y182607D01*
X260445Y182704D01*
X242757D01*
X242625Y182836D01*
Y187397D01*
X249663Y194435D01*
X249913D01*
X250242Y194216D01*
X250898Y194085D01*
X251554Y194216D01*
X252110Y194587D01*
X252481Y195143D01*
X252612Y195799D01*
X252481Y196455D01*
X252110Y197011D01*
X251554Y197383D01*
X250898Y197513D01*
X250242Y197383D01*
X249686Y197011D01*
X249668Y196984D01*
X249135D01*
X248647Y196887D01*
X248234Y196611D01*
X240449Y188826D01*
X240173Y188413D01*
X240076Y187925D01*
Y182308D01*
X240173Y181820D01*
X240449Y181407D01*
X241328Y180528D01*
X241741Y180252D01*
X242229Y180155D01*
X259917D01*
X267143Y172929D01*
Y165914D01*
X254708Y153479D01*
X254432Y153066D01*
X254335Y152578D01*
Y151335D01*
X254432Y150848D01*
X254708Y150434D01*
X262897Y142246D01*
X262703Y141779D01*
X262585Y140878D01*
X262703Y139977D01*
X263051Y139137D01*
X263605Y138415D01*
X264326Y137862D01*
X265166Y137514D01*
X266067Y137395D01*
X266151Y137406D01*
X273836Y129721D01*
Y125799D01*
X282710D01*
Y125868D01*
Y126409D01*
Y131524D01*
X275639D01*
X268624Y138538D01*
X269083Y139137D01*
X269431Y139977D01*
X269550Y140878D01*
X269431Y141779D01*
X269083Y142619D01*
X268530Y143341D01*
X267808Y143894D01*
X266968Y144242D01*
X266067Y144360D01*
X265166Y144242D01*
X264699Y144049D01*
X261015Y147733D01*
X261074Y147976D01*
X261219Y148236D01*
X261790Y148349D01*
X262346Y148721D01*
X262717Y149277D01*
X262848Y149933D01*
X262823Y150057D01*
X263273Y150357D01*
X263332Y150318D01*
X263988Y150188D01*
X264644Y150318D01*
X265200Y150690D01*
X265341Y150900D01*
X272941D01*
X273177Y150459D01*
X273133Y150394D01*
X273003Y149739D01*
X273133Y149083D01*
X273505Y148527D01*
X274061Y148155D01*
X274717Y148024D01*
X275373Y148155D01*
X275929Y148527D01*
X276058Y148719D01*
X305198D01*
X305394Y148426D01*
X305950Y148054D01*
X306606Y147924D01*
X307262Y148054D01*
X307818Y148426D01*
X308190Y148982D01*
X308320Y149638D01*
X308190Y150294D01*
X308119Y150400D01*
X308386Y150900D01*
X312294D01*
X312645Y150519D01*
X312573Y149972D01*
X312691Y149071D01*
X313039Y148231D01*
X313593Y147510D01*
X314314Y146957D01*
X315154Y146608D01*
X316055Y146490D01*
X316956Y146608D01*
X317796Y146957D01*
X318518Y147510D01*
X319071Y148231D01*
X319419Y149071D01*
X319538Y149972D01*
X319419Y150874D01*
X319071Y151714D01*
X318518Y152435D01*
X317796Y152988D01*
X316956Y153336D01*
X316055Y153455D01*
X315154Y153336D01*
X314314Y152988D01*
X313657Y152485D01*
X313501Y152641D01*
X313171Y152862D01*
X312780Y152939D01*
X311113D01*
X310961Y153439D01*
X310969Y153444D01*
X314432Y156907D01*
X315154Y156608D01*
X316055Y156490D01*
X316956Y156608D01*
X317796Y156957D01*
X318518Y157510D01*
X319071Y158231D01*
X319419Y159071D01*
X319538Y159972D01*
X319419Y160874D01*
X319071Y161714D01*
X318518Y162435D01*
X317796Y162988D01*
X316956Y163336D01*
X316055Y163455D01*
X315154Y163336D01*
X314314Y162988D01*
X313593Y162435D01*
X313039Y161714D01*
X312752Y161020D01*
X312252Y161120D01*
Y166020D01*
X315555D01*
Y169972D01*
Y173925D01*
X312252D01*
Y176348D01*
X312444Y176477D01*
X312816Y177033D01*
X312946Y177689D01*
X312816Y178345D01*
X312444Y178901D01*
X311888Y179272D01*
X311232Y179403D01*
X310576Y179272D01*
X310020Y178901D01*
X309649Y178345D01*
X309518Y177689D01*
X309649Y177033D01*
X310020Y176477D01*
X310213Y176348D01*
Y158131D01*
X308767Y156685D01*
X278068D01*
X276310Y158443D01*
X276345Y158640D01*
X276507Y158953D01*
X277053Y159062D01*
X277610Y159434D01*
X277738Y159626D01*
X278298D01*
X278689Y159704D01*
X279019Y159925D01*
X288235Y169140D01*
X289472D01*
Y167347D01*
X294016D01*
Y167614D01*
X296067D01*
Y165181D01*
X297320D01*
Y163622D01*
X296265D01*
Y159079D01*
X300414D01*
Y163622D01*
X299359D01*
Y165181D01*
X307697D01*
Y172086D01*
X296067D01*
Y169653D01*
X294016D01*
Y171496D01*
X289472D01*
Y171179D01*
X288806D01*
X288615Y171641D01*
X289812Y172838D01*
X290669D01*
X290768Y172858D01*
X294016D01*
Y173914D01*
X296067D01*
Y172662D01*
X307697D01*
Y179567D01*
X301131D01*
Y180634D01*
X302186D01*
Y185177D01*
X298036D01*
Y180634D01*
X299091D01*
Y179567D01*
X296067D01*
Y175953D01*
X294016D01*
Y177007D01*
X289472D01*
Y174877D01*
X289389D01*
X288999Y174800D01*
X288668Y174579D01*
X277936Y163846D01*
X275663D01*
X275535Y164039D01*
X274979Y164410D01*
X274903Y164426D01*
X274757Y164904D01*
X296365Y186512D01*
X301193D01*
X301583Y186590D01*
X301914Y186811D01*
X309523Y194419D01*
X309744Y194750D01*
X309821Y195140D01*
Y203134D01*
X310014Y203262D01*
X310385Y203818D01*
X310516Y204474D01*
X310385Y205130D01*
X310014Y205686D01*
X309458Y206058D01*
X308802Y206188D01*
D02*
G37*
G36*
X285937Y192690D02*
X285281Y192560D01*
X284725Y192188D01*
X284353Y191632D01*
X284223Y190976D01*
X284268Y190749D01*
X279464Y185945D01*
X279310Y186049D01*
X278654Y186179D01*
X277998Y186049D01*
X277442Y185677D01*
X277070Y185121D01*
X276940Y184465D01*
X277070Y183809D01*
X277442Y183253D01*
X277998Y182881D01*
X278654Y182751D01*
X279310Y182881D01*
X279866Y183253D01*
X280237Y183809D01*
X280243Y183841D01*
X285710Y189307D01*
X285937Y189262D01*
X286593Y189393D01*
X287149Y189764D01*
X287521Y190320D01*
X287651Y190976D01*
X287521Y191632D01*
X287149Y192188D01*
X286593Y192560D01*
X285937Y192690D01*
D02*
G37*
G36*
X318264Y198825D02*
X312539D01*
Y189951D01*
X315859D01*
Y189537D01*
X315937Y189147D01*
X316158Y188816D01*
X316810Y188164D01*
X316703Y187630D01*
X316834Y186974D01*
X317205Y186418D01*
X317761Y186046D01*
X318417Y185916D01*
X319073Y186046D01*
X319629Y186418D01*
X320001Y186974D01*
X320131Y187630D01*
X320001Y188286D01*
X319629Y188842D01*
X319073Y189214D01*
X318538Y189320D01*
X318159Y189699D01*
X318264Y189951D01*
X318264D01*
Y198825D01*
D02*
G37*
G36*
X308197Y185677D02*
X306122D01*
Y183405D01*
X308197D01*
Y185677D01*
D02*
G37*
G36*
X305122D02*
X303047D01*
Y183405D01*
X305122D01*
Y185677D01*
D02*
G37*
G36*
X246370Y186687D02*
X245714Y186556D01*
X245158Y186184D01*
X244787Y185628D01*
X244656Y184972D01*
X244787Y184317D01*
X245158Y183760D01*
X245714Y183389D01*
X246370Y183258D01*
X247026Y183389D01*
X247582Y183760D01*
X247711Y183953D01*
X264747D01*
X264942Y183662D01*
X265498Y183291D01*
X266154Y183160D01*
X266810Y183291D01*
X267366Y183662D01*
X267737Y184218D01*
X267868Y184874D01*
X267737Y185530D01*
X267366Y186086D01*
X266810Y186458D01*
X266154Y186588D01*
X265498Y186458D01*
X264942Y186086D01*
X264879Y185992D01*
X247711D01*
X247582Y186184D01*
X247026Y186556D01*
X246370Y186687D01*
D02*
G37*
G36*
X308197Y182405D02*
X306122D01*
Y180134D01*
X308197D01*
Y182405D01*
D02*
G37*
G36*
X305122D02*
X303047D01*
Y180134D01*
X305122D01*
Y182405D01*
D02*
G37*
G36*
X248445Y179272D02*
X244296D01*
Y176221D01*
X244276Y176122D01*
Y173661D01*
X241342D01*
Y172999D01*
X239193D01*
Y174252D01*
X235043D01*
Y169709D01*
X239193D01*
Y170960D01*
X241342D01*
Y170421D01*
X240843D01*
Y168740D01*
X243811D01*
X246779D01*
Y170421D01*
X246279D01*
Y172497D01*
X246315Y172677D01*
Y174728D01*
X248445D01*
Y179272D01*
D02*
G37*
G36*
X234181Y174752D02*
X232107D01*
Y172480D01*
X234181D01*
Y174752D01*
D02*
G37*
G36*
X231107D02*
X229032D01*
Y172480D01*
X231107D01*
Y174752D01*
D02*
G37*
G36*
X320008Y173925D02*
X316555D01*
Y170472D01*
X320008D01*
Y173925D01*
D02*
G37*
G36*
X234181Y171480D02*
X232107D01*
Y169209D01*
X234181D01*
Y171480D01*
D02*
G37*
G36*
X231107D02*
X229032D01*
Y169209D01*
X231107D01*
Y171480D01*
D02*
G37*
G36*
X320008Y169472D02*
X316555D01*
Y166020D01*
X320008D01*
Y169472D01*
D02*
G37*
G36*
X246779Y167740D02*
X243811D01*
X240843D01*
Y166059D01*
X241343D01*
Y165519D01*
X239094D01*
Y166673D01*
X234945D01*
Y162130D01*
X236000D01*
Y159291D01*
X234945D01*
Y154748D01*
X239094D01*
Y159291D01*
X238039D01*
Y162130D01*
X239094D01*
Y163480D01*
X241343D01*
Y162819D01*
X246280D01*
Y166059D01*
X246779D01*
Y167740D01*
D02*
G37*
G36*
X253956Y179272D02*
X249807D01*
Y174728D01*
X250862D01*
Y173359D01*
X250939Y172968D01*
X251161Y172638D01*
X251578Y172220D01*
Y170299D01*
X256516D01*
Y170961D01*
X262016D01*
X262790Y170187D01*
X262897Y169651D01*
X262904Y169640D01*
X262674Y169085D01*
X262446Y169039D01*
X261890Y168668D01*
X261519Y168112D01*
X261388Y167456D01*
X261434Y167226D01*
X257008Y162800D01*
X256516Y163015D01*
X256516Y163238D01*
Y166182D01*
X251579D01*
Y162819D01*
X253028D01*
Y161371D01*
X247814Y156157D01*
X247593Y155827D01*
X247516Y155436D01*
Y150461D01*
X240722D01*
X240594Y150653D01*
X240038Y151024D01*
X239382Y151155D01*
X238726Y151024D01*
X238170Y150653D01*
X237798Y150097D01*
X237668Y149441D01*
X237798Y148785D01*
X238170Y148229D01*
X238726Y147857D01*
X239382Y147727D01*
X240038Y147857D01*
X240594Y148229D01*
X240722Y148421D01*
X247516D01*
Y139664D01*
X247593Y139273D01*
X247814Y138943D01*
X248911Y137846D01*
X248720Y137384D01*
X243122Y137384D01*
X243122Y137384D01*
X242739Y137225D01*
X242739Y137225D01*
X240968Y135453D01*
X240809Y135071D01*
X240809Y135071D01*
X240809Y128575D01*
X240809Y128575D01*
X240937Y128266D01*
X240937D01*
Y128266D01*
X240968Y128192D01*
X240968Y128192D01*
X240968D01*
X242498Y126662D01*
X243232Y125928D01*
X243614Y125770D01*
X243614Y125770D01*
X248951D01*
Y125732D01*
X257824D01*
Y125785D01*
X258170Y125928D01*
X258329Y126311D01*
X258329Y130513D01*
X258715Y130830D01*
X258870Y130799D01*
X259526Y130930D01*
X260082Y131301D01*
X260453Y131857D01*
X260582Y132507D01*
X260604Y132521D01*
X261057Y132697D01*
X261201Y132481D01*
X261757Y132109D01*
X262413Y131979D01*
X263069Y132109D01*
X263625Y132481D01*
X263997Y133037D01*
X264127Y133693D01*
X263997Y134349D01*
X263625Y134905D01*
X263069Y135276D01*
X262413Y135407D01*
X261919Y135309D01*
X258652Y138575D01*
X259083Y139137D01*
X259431Y139977D01*
X259550Y140878D01*
X259431Y141779D01*
X259083Y142619D01*
X258530Y143341D01*
X257808Y143894D01*
X256968Y144242D01*
X256067Y144360D01*
X255166Y144242D01*
X254326Y143894D01*
X253605Y143341D01*
X253051Y142619D01*
X252703Y141779D01*
X252679Y141597D01*
X252159Y141475D01*
X252011Y141696D01*
X251819Y141825D01*
Y154727D01*
X262878Y165787D01*
X263102Y165742D01*
X263758Y165872D01*
X264314Y166244D01*
X264686Y166800D01*
X264816Y167456D01*
X264686Y168112D01*
X264679Y168123D01*
X264909Y168678D01*
X265136Y168723D01*
X265692Y169095D01*
X266064Y169651D01*
X266194Y170307D01*
X266064Y170963D01*
X265692Y171519D01*
X265136Y171891D01*
X264480Y172021D01*
X263946Y171915D01*
X263159Y172701D01*
X262828Y172922D01*
X262438Y173000D01*
X256516D01*
Y173662D01*
X253020D01*
X252901Y173781D01*
Y174728D01*
X253956D01*
Y179272D01*
D02*
G37*
G36*
X226390Y166805D02*
X225734Y166674D01*
X225178Y166303D01*
X224806Y165746D01*
X224676Y165091D01*
X224806Y164435D01*
X225178Y163879D01*
X225734Y163507D01*
X226390Y163376D01*
X227046Y163507D01*
X227602Y163879D01*
X227730Y164071D01*
X229433D01*
Y162130D01*
X233583D01*
Y166673D01*
X229433D01*
Y166110D01*
X227730D01*
X227602Y166303D01*
X227046Y166674D01*
X226390Y166805D01*
D02*
G37*
G36*
X306425Y164122D02*
X304350D01*
Y161850D01*
X306425D01*
Y164122D01*
D02*
G37*
G36*
X303350D02*
X301276D01*
Y161850D01*
X303350D01*
Y164122D01*
D02*
G37*
G36*
X306425Y160850D02*
X304350D01*
Y158579D01*
X306425D01*
Y160850D01*
D02*
G37*
G36*
X303350D02*
X301276D01*
Y158579D01*
X303350D01*
Y160850D01*
D02*
G37*
G36*
X234083Y159791D02*
X232008D01*
Y157520D01*
X234083D01*
Y159791D01*
D02*
G37*
G36*
X231008D02*
X228934D01*
Y157520D01*
X231008D01*
Y159791D01*
D02*
G37*
G36*
X234083Y156520D02*
X232008D01*
Y154248D01*
X234083D01*
Y156520D01*
D02*
G37*
G36*
X231008D02*
X228934D01*
Y154248D01*
X231008D01*
Y156520D01*
D02*
G37*
G36*
X300701Y145446D02*
X300045Y145316D01*
X299489Y144944D01*
X299360Y144752D01*
X289185D01*
X288795Y144674D01*
X288464Y144453D01*
X283999Y139988D01*
X283772Y140033D01*
X283116Y139902D01*
X282560Y139531D01*
X282188Y138975D01*
X282058Y138319D01*
X282188Y137663D01*
X282560Y137107D01*
X283116Y136735D01*
X283772Y136605D01*
X284428Y136735D01*
X284984Y137107D01*
X285355Y137663D01*
X285486Y138319D01*
X285440Y138546D01*
X289607Y142713D01*
X299360D01*
X299489Y142520D01*
X300045Y142149D01*
X300701Y142018D01*
X301357Y142149D01*
X301913Y142520D01*
X302284Y143076D01*
X302415Y143732D01*
X302284Y144388D01*
X301913Y144944D01*
X301357Y145316D01*
X300701Y145446D01*
D02*
G37*
G36*
X280020Y144831D02*
X276567D01*
Y141378D01*
X280020D01*
Y144831D01*
D02*
G37*
G36*
X275567D02*
X272114D01*
Y141378D01*
X275567D01*
Y144831D01*
D02*
G37*
G36*
X308689Y140992D02*
X306417D01*
Y138917D01*
X308689D01*
Y140992D01*
D02*
G37*
G36*
X280020Y140378D02*
X276567D01*
Y136925D01*
X280020D01*
Y140378D01*
D02*
G37*
G36*
X275567D02*
X272114D01*
Y136925D01*
X275567D01*
Y140378D01*
D02*
G37*
G36*
X308189Y146003D02*
X303646D01*
Y143295D01*
X301462Y141111D01*
X301356Y141182D01*
X300700Y141312D01*
X300044Y141182D01*
X299488Y140810D01*
X299116Y140254D01*
X298986Y139598D01*
X299116Y138943D01*
X299488Y138386D01*
X300044Y138015D01*
X300700Y137884D01*
X301356Y138015D01*
X301912Y138386D01*
X302284Y138943D01*
X302315Y139100D01*
X302372Y139138D01*
X302684Y139450D01*
X303146Y139258D01*
Y138917D01*
X305417D01*
Y140992D01*
X304879D01*
X304688Y141454D01*
X305088Y141853D01*
X308189D01*
Y142909D01*
X311677D01*
X312990Y141595D01*
X312691Y140874D01*
X312573Y139972D01*
X312691Y139071D01*
X313039Y138231D01*
X313593Y137510D01*
X314314Y136957D01*
X315154Y136609D01*
X316055Y136490D01*
X316956Y136609D01*
X317796Y136957D01*
X318518Y137510D01*
X319071Y138231D01*
X319419Y139071D01*
X319538Y139972D01*
X319419Y140874D01*
X319071Y141714D01*
X318518Y142435D01*
X317796Y142988D01*
X316956Y143336D01*
X316055Y143455D01*
X315154Y143336D01*
X314432Y143037D01*
X312820Y144649D01*
X312489Y144870D01*
X312099Y144948D01*
X308189D01*
Y146003D01*
D02*
G37*
G36*
X308689Y137917D02*
X306417D01*
Y135843D01*
X308689D01*
Y137917D01*
D02*
G37*
G36*
X305417D02*
X303146D01*
Y135843D01*
X305417D01*
Y137917D01*
D02*
G37*
%LPD*%
G36*
X251980Y136843D02*
X257787Y131035D01*
X257787Y126311D01*
X243614D01*
X241350Y128575D01*
X241350Y135071D01*
X243122Y136843D01*
X251980Y136843D01*
D02*
G37*
D11*
X291744Y169422D02*
D03*
Y174933D02*
D03*
X305917Y138417D02*
D03*
Y143928D02*
D03*
X409854Y169422D02*
D03*
Y174933D02*
D03*
X424027Y138417D02*
D03*
Y143928D02*
D03*
X527965Y169422D02*
D03*
Y174933D02*
D03*
X542138Y138417D02*
D03*
Y143928D02*
D03*
X291744Y366272D02*
D03*
Y371783D02*
D03*
X305917Y335268D02*
D03*
Y340779D02*
D03*
X409854Y366272D02*
D03*
Y371783D02*
D03*
X424027Y335268D02*
D03*
Y340779D02*
D03*
X527965Y366272D02*
D03*
Y371783D02*
D03*
X542138Y335268D02*
D03*
Y340779D02*
D03*
D12*
X316055Y169972D02*
D03*
X434165D02*
D03*
X552276D02*
D03*
X316055Y366823D02*
D03*
X434165D02*
D03*
X552276D02*
D03*
D13*
X316055Y139972D02*
D03*
Y149972D02*
D03*
Y159972D02*
D03*
X266067Y140878D02*
D03*
X256067D02*
D03*
X434165Y139972D02*
D03*
Y149972D02*
D03*
Y159972D02*
D03*
X384177Y140878D02*
D03*
X374177D02*
D03*
X552276Y139972D02*
D03*
Y149972D02*
D03*
Y159972D02*
D03*
X502288Y140878D02*
D03*
X492288D02*
D03*
X316055Y336823D02*
D03*
Y346823D02*
D03*
Y356823D02*
D03*
X266067Y337728D02*
D03*
X256067D02*
D03*
X434165Y336823D02*
D03*
Y346823D02*
D03*
Y356823D02*
D03*
X384177Y337728D02*
D03*
X374177D02*
D03*
X552276Y336823D02*
D03*
Y346823D02*
D03*
Y356823D02*
D03*
X502288Y337728D02*
D03*
X492288D02*
D03*
D14*
X237019Y157020D02*
D03*
X231508D02*
D03*
Y164402D02*
D03*
X237019D02*
D03*
X246371Y177000D02*
D03*
X251882D02*
D03*
X231607Y171980D02*
D03*
X237118D02*
D03*
X298339Y161350D02*
D03*
X303850D02*
D03*
X305622Y182905D02*
D03*
X300111D02*
D03*
X355130Y157020D02*
D03*
X349619D02*
D03*
Y164402D02*
D03*
X355130D02*
D03*
X364481Y177000D02*
D03*
X369992D02*
D03*
X349717Y171980D02*
D03*
X355228D02*
D03*
X416450Y161350D02*
D03*
X421961D02*
D03*
X423732Y182905D02*
D03*
X418221D02*
D03*
X473240Y157020D02*
D03*
X467729D02*
D03*
Y164402D02*
D03*
X473240D02*
D03*
X482591Y177000D02*
D03*
X488102D02*
D03*
X467827Y171980D02*
D03*
X473338D02*
D03*
X534560Y161350D02*
D03*
X540071D02*
D03*
X541843Y182905D02*
D03*
X536332D02*
D03*
X237019Y353870D02*
D03*
X231508D02*
D03*
Y361252D02*
D03*
X237019D02*
D03*
X246371Y373850D02*
D03*
X251882D02*
D03*
X231607Y368831D02*
D03*
X237118D02*
D03*
X298339Y358201D02*
D03*
X303850D02*
D03*
X305622Y379756D02*
D03*
X300111D02*
D03*
X355130Y353870D02*
D03*
X349619D02*
D03*
Y361252D02*
D03*
X355130D02*
D03*
X364481Y373850D02*
D03*
X369992D02*
D03*
X349717Y368831D02*
D03*
X355228D02*
D03*
X416450Y358201D02*
D03*
X421961D02*
D03*
X423732Y379756D02*
D03*
X418221D02*
D03*
X473240Y353870D02*
D03*
X467729D02*
D03*
Y361252D02*
D03*
X473240D02*
D03*
X482591Y373850D02*
D03*
X488102D02*
D03*
X467827Y368831D02*
D03*
X473338D02*
D03*
X534560Y358201D02*
D03*
X540071D02*
D03*
X541843Y379756D02*
D03*
X536332D02*
D03*
D19*
X239382Y149441D02*
X248535D01*
X248535Y149441D01*
Y149441D02*
Y155436D01*
Y139664D02*
Y149441D01*
X246370Y184972D02*
X266055D01*
X266154Y184874D01*
X274815Y168525D02*
Y187536D01*
X258772Y152481D02*
X274815Y168525D01*
X278273Y110709D02*
X278419Y110563D01*
X284067D01*
X277646Y155665D02*
X309189D01*
X311232Y157709D02*
Y177689D01*
X309189Y155665D02*
X311232Y157709D01*
X273535Y159776D02*
X277646Y155665D01*
X292532Y168633D02*
X300012D01*
X298339Y161350D02*
Y166961D01*
X300012Y168633D01*
X261134Y152722D02*
X295943Y187531D01*
X301193D01*
X308802Y195140D01*
X278298Y160646D02*
X287812Y170160D01*
X276398Y160646D02*
X278298D01*
X274323Y162827D02*
X278358D01*
X258772Y152295D02*
Y152481D01*
X261134Y149933D02*
Y152722D01*
X278358Y162827D02*
X289389Y173858D01*
X306505Y149739D02*
X306606Y149638D01*
X274717Y149739D02*
X306505D01*
X264006Y151920D02*
X312780D01*
X263988Y151902D02*
X264006Y151920D01*
X312780D02*
X314728Y149972D01*
X316055D01*
X273339Y154165D02*
X310248D01*
X316055Y159972D01*
X258056Y132513D02*
X258870D01*
X252727Y137843D02*
X258056Y132513D01*
X223929Y165715D02*
X229837Y171622D01*
X222200Y153751D02*
X223929Y155480D01*
Y165715D01*
X221987Y153751D02*
X222200D01*
X226390Y165091D02*
X230229D01*
X231213Y164106D01*
X229837Y171622D02*
X231768D01*
X222003Y177894D02*
X224323Y175575D01*
X224124Y169031D02*
Y175376D01*
X224323Y175575D01*
X221987Y153751D02*
X228436D01*
X235150Y168240D02*
X243811D01*
X250356Y137843D02*
X252727D01*
X262093Y133693D02*
X262413D01*
X256067Y139719D02*
X262093Y133693D01*
X256067Y139719D02*
Y140878D01*
X248535Y139664D02*
X250356Y137843D01*
X248535Y155436D02*
X254047Y160948D01*
Y164500D01*
X263102Y167453D02*
Y167456D01*
X250799Y155150D02*
X263102Y167453D01*
X250799Y140484D02*
Y155150D01*
X219106Y153751D02*
X221987D01*
X231508Y156823D02*
Y157020D01*
X228436Y153751D02*
X231508Y156823D01*
X254047Y171980D02*
X262438D01*
X264112Y170307D01*
X264480D01*
X251882Y173359D02*
Y177197D01*
Y173359D02*
X253260Y171980D01*
X254047D01*
X245296Y176122D02*
X246371Y177197D01*
X245296Y172677D02*
Y176122D01*
X244598Y171980D02*
X245296Y172677D01*
X243811Y171980D02*
X244598D01*
X237118Y171980D02*
X237118Y171980D01*
X243811D01*
X237019Y157020D02*
Y164402D01*
X237118Y164500D01*
X243811D01*
X231768Y171622D02*
X235150Y168240D01*
X219106Y177894D02*
X222003D01*
X231213Y164106D02*
X231508Y164402D01*
X275110Y239008D02*
Y247029D01*
X275031Y247108D02*
X275110Y247029D01*
X315402Y194388D02*
X316879Y192911D01*
X318417Y187630D02*
Y187998D01*
X316879Y189537D02*
X318417Y187998D01*
X316879Y189537D02*
Y192911D01*
X300111Y177885D02*
X301882Y176115D01*
X300111Y177885D02*
Y182905D01*
X287812Y170160D02*
X291006D01*
X292532Y168633D01*
X300700Y174933D02*
X301882Y176115D01*
X290669Y173858D02*
X291744Y174933D01*
X300700D01*
X289389Y173858D02*
X290669D01*
X278654Y184465D02*
X279426D01*
X285937Y190976D01*
X305720Y143928D02*
X305917D01*
X301651Y139859D02*
X305720Y143928D01*
X305917D02*
X312099D01*
X295779Y203673D02*
X295878Y203575D01*
X303358D01*
X308802Y195140D02*
Y204474D01*
X289185Y143732D02*
X300701D01*
X283772Y138319D02*
X289185Y143732D01*
X312099Y143928D02*
X316055Y139972D01*
X243361Y134807D02*
X245600D01*
X251813Y128594D01*
X253387D01*
X318614Y238909D02*
Y243824D01*
X315366Y247072D02*
X318614Y243824D01*
X266055Y221612D02*
X266916Y222472D01*
X225606Y221612D02*
X227845Y223850D01*
X240760D01*
X315366Y247072D02*
X315402Y247108D01*
X234559Y247006D02*
X234661Y247108D01*
X234559Y238319D02*
Y247006D01*
X357492Y149441D02*
X366646D01*
X366646Y149441D01*
Y149441D02*
Y155436D01*
Y139664D02*
Y149441D01*
X364480Y184972D02*
X384165D01*
X384264Y184874D01*
X392926Y168525D02*
Y187536D01*
X376882Y152481D02*
X392926Y168525D01*
X396383Y110709D02*
X396529Y110563D01*
X402177D01*
X395756Y155665D02*
X427299D01*
X429343Y157709D02*
Y177689D01*
X427299Y155665D02*
X429343Y157709D01*
X391646Y159776D02*
X395756Y155665D01*
X410643Y168633D02*
X418122D01*
X416450Y161350D02*
Y166961D01*
X418122Y168633D01*
X379244Y152722D02*
X414053Y187531D01*
X419303D01*
X426912Y195140D01*
X396409Y160646D02*
X405923Y170160D01*
X394508Y160646D02*
X396409D01*
X392433Y162827D02*
X396468D01*
X376882Y152295D02*
Y152481D01*
X379244Y149933D02*
Y152722D01*
X396468Y162827D02*
X407500Y173858D01*
X424616Y149739D02*
X424717Y149638D01*
X392827Y149739D02*
X424616D01*
X382117Y151920D02*
X430891D01*
X382098Y151902D02*
X382117Y151920D01*
X430891D02*
X432838Y149972D01*
X434165D01*
X391449Y154165D02*
X428358D01*
X434165Y159972D01*
X376166Y132513D02*
X376980D01*
X370837Y137843D02*
X376166Y132513D01*
X342039Y165715D02*
X347947Y171622D01*
X340310Y153751D02*
X342039Y155480D01*
Y165715D01*
X340097Y153751D02*
X340310D01*
X344500Y165091D02*
X348339D01*
X349323Y164106D01*
X347947Y171622D02*
X349879D01*
X340113Y177894D02*
X342433Y175575D01*
X342234Y169031D02*
Y175376D01*
X342433Y175575D01*
X340097Y153751D02*
X346546D01*
X353260Y168240D02*
X361921D01*
X368467Y137843D02*
X370837D01*
X380203Y133693D02*
X380524D01*
X374177Y139719D02*
X380203Y133693D01*
X374177Y139719D02*
Y140878D01*
X366646Y139664D02*
X368467Y137843D01*
X366646Y155436D02*
X372158Y160948D01*
Y164500D01*
X381212Y167453D02*
Y167456D01*
X368910Y155150D02*
X381212Y167453D01*
X368910Y140484D02*
Y155150D01*
X337216Y153751D02*
X340097D01*
X349619Y156823D02*
Y157020D01*
X346546Y153751D02*
X349619Y156823D01*
X372157Y171980D02*
X380549D01*
X382222Y170307D01*
X382591D01*
X369992Y173359D02*
Y177197D01*
Y173359D02*
X371370Y171980D01*
X372157D01*
X363406Y176122D02*
X364481Y177197D01*
X363406Y172677D02*
Y176122D01*
X362708Y171980D02*
X363406Y172677D01*
X361921Y171980D02*
X362708D01*
X355228Y171980D02*
X355228Y171980D01*
X361921D01*
X355130Y157020D02*
Y164402D01*
X355228Y164500D01*
X361922D01*
X349879Y171622D02*
X353260Y168240D01*
X337216Y177894D02*
X340113D01*
X349323Y164106D02*
X349619Y164402D01*
X393220Y239008D02*
Y247029D01*
X393142Y247108D02*
X393220Y247029D01*
X433512Y194388D02*
X434989Y192911D01*
X436527Y187630D02*
Y187998D01*
X434989Y189537D02*
X436527Y187998D01*
X434989Y189537D02*
Y192911D01*
X418221Y177885D02*
X419992Y176115D01*
X418221Y177885D02*
Y182905D01*
X405923Y170160D02*
X409116D01*
X410643Y168633D01*
X418811Y174933D02*
X419992Y176115D01*
X408779Y173858D02*
X409855Y174933D01*
X418811D01*
X407500Y173858D02*
X408779D01*
X396764Y184465D02*
X397536D01*
X404047Y190976D01*
X423831Y143928D02*
X424027D01*
X419761Y139859D02*
X423831Y143928D01*
X424027D02*
X430209D01*
X413890Y203673D02*
X413988Y203575D01*
X421468D01*
X426912Y195140D02*
Y204474D01*
X407295Y143732D02*
X418811D01*
X401882Y138319D02*
X407295Y143732D01*
X430209Y143928D02*
X434165Y139972D01*
X361472Y134807D02*
X363710D01*
X369923Y128594D01*
X371498D01*
X436724Y238909D02*
Y243824D01*
X433476Y247072D02*
X436724Y243824D01*
X384165Y221612D02*
X385026Y222472D01*
X343717Y221612D02*
X345955Y223850D01*
X358870D01*
X433476Y247072D02*
X433512Y247108D01*
X352669Y247006D02*
X352771Y247108D01*
X352669Y238319D02*
Y247006D01*
X475602Y149441D02*
X484756D01*
X484756Y149441D01*
Y149441D02*
Y155436D01*
Y139664D02*
Y149441D01*
X482590Y184972D02*
X502276D01*
X502374Y184874D01*
X511036Y168525D02*
Y187536D01*
X494992Y152481D02*
X511036Y168525D01*
X514494Y110709D02*
X514639Y110563D01*
X520287D01*
X513866Y155665D02*
X545409D01*
X547453Y157709D02*
Y177689D01*
X545409Y155665D02*
X547453Y157709D01*
X509756Y159776D02*
X513866Y155665D01*
X528753Y168633D02*
X536232D01*
X534560Y161350D02*
Y166961D01*
X536232Y168633D01*
X497354Y152722D02*
X532163Y187531D01*
X537413D01*
X545022Y195140D01*
X514519Y160646D02*
X524033Y170160D01*
X512618Y160646D02*
X514519D01*
X510543Y162827D02*
X514579D01*
X494992Y152295D02*
Y152481D01*
X497354Y149933D02*
Y152722D01*
X514579Y162827D02*
X525610Y173858D01*
X542726Y149739D02*
X542827Y149638D01*
X510937Y149739D02*
X542726D01*
X500227Y151920D02*
X549001D01*
X500209Y151902D02*
X500227Y151920D01*
X549001D02*
X550948Y149972D01*
X552276D01*
X509559Y154165D02*
X546468D01*
X552276Y159972D01*
X494277Y132513D02*
X495090D01*
X488947Y137843D02*
X494277Y132513D01*
X460150Y165715D02*
X466057Y171622D01*
X458420Y153751D02*
X460150Y155480D01*
Y165715D01*
X458208Y153751D02*
X458420D01*
X462610Y165091D02*
X466449D01*
X467434Y164106D01*
X466057Y171622D02*
X467989D01*
X458223Y177894D02*
X460543Y175575D01*
X460344Y169031D02*
Y175376D01*
X460543Y175575D01*
X458208Y153751D02*
X464657D01*
X471371Y168240D02*
X480031D01*
X486577Y137843D02*
X488947D01*
X498314Y133693D02*
X498634D01*
X492288Y139719D02*
X498314Y133693D01*
X492288Y139719D02*
Y140878D01*
X484756Y139664D02*
X486577Y137843D01*
X484756Y155436D02*
X490268Y160948D01*
Y164500D01*
X499323Y167453D02*
Y167456D01*
X487020Y155150D02*
X499323Y167453D01*
X487020Y140484D02*
Y155150D01*
X455327Y153751D02*
X458208D01*
X467729Y156823D02*
Y157020D01*
X464657Y153751D02*
X467729Y156823D01*
X490268Y171980D02*
X498659D01*
X500332Y170307D01*
X500701D01*
X488102Y173359D02*
Y177197D01*
Y173359D02*
X489480Y171980D01*
X490268D01*
X481516Y176122D02*
X482591Y177197D01*
X481516Y172677D02*
Y176122D01*
X480819Y171980D02*
X481516Y172677D01*
X480031Y171980D02*
X480819D01*
X473338Y171980D02*
X473339Y171980D01*
X480031D01*
X473240Y157020D02*
Y164402D01*
X473338Y164500D01*
X480032D01*
X467989Y171622D02*
X471371Y168240D01*
X455327Y177894D02*
X458223D01*
X467434Y164106D02*
X467729Y164402D01*
X511331Y239008D02*
Y247029D01*
X511252Y247108D02*
X511331Y247029D01*
X551622Y194388D02*
X553099Y192911D01*
X554638Y187630D02*
Y187998D01*
X553099Y189537D02*
X554638Y187998D01*
X553099Y189537D02*
Y192911D01*
X536332Y177885D02*
X538102Y176115D01*
X536332Y177885D02*
Y182905D01*
X524033Y170160D02*
X527227D01*
X528753Y168633D01*
X536921Y174933D02*
X538102Y176115D01*
X526890Y173858D02*
X527965Y174933D01*
X536921D01*
X525610Y173858D02*
X526890D01*
X514874Y184465D02*
X515646D01*
X522157Y190976D01*
X541941Y143928D02*
X542138D01*
X537872Y139859D02*
X541941Y143928D01*
X542138D02*
X548320D01*
X532000Y203673D02*
X532098Y203575D01*
X539579D01*
X545022Y195140D02*
Y204474D01*
X525406Y143732D02*
X536921D01*
X519992Y138319D02*
X525406Y143732D01*
X548320Y143928D02*
X552276Y139972D01*
X479582Y134807D02*
X481820D01*
X488033Y128594D01*
X489608D01*
X554835Y238909D02*
Y243824D01*
X551587Y247072D02*
X554835Y243824D01*
X502276Y221612D02*
X503136Y222472D01*
X461827Y221612D02*
X464065Y223850D01*
X476980D01*
X551587Y247072D02*
X551622Y247108D01*
X470780Y247006D02*
X470882Y247108D01*
X470780Y238319D02*
Y247006D01*
X239382Y346291D02*
X248535D01*
X248535Y346291D01*
Y346291D02*
Y352287D01*
Y336514D02*
Y346291D01*
X246370Y381823D02*
X266055D01*
X266154Y381724D01*
X274815Y365376D02*
Y384386D01*
X258772Y349332D02*
X274815Y365376D01*
X278273Y307559D02*
X278419Y307413D01*
X284067D01*
X277646Y352516D02*
X309189D01*
X311232Y354559D02*
Y374539D01*
X309189Y352516D02*
X311232Y354559D01*
X273535Y356626D02*
X277646Y352516D01*
X292532Y365484D02*
X300012D01*
X298339Y358201D02*
Y363811D01*
X300012Y365484D01*
X261134Y349573D02*
X295943Y384382D01*
X301193D01*
X308802Y391991D01*
X278298Y357496D02*
X287812Y367010D01*
X276398Y357496D02*
X278298D01*
X274323Y359677D02*
X278358D01*
X258772Y349146D02*
Y349332D01*
X261134Y346783D02*
Y349573D01*
X278358Y359677D02*
X289389Y370708D01*
X306505Y346589D02*
X306606Y346488D01*
X274717Y346589D02*
X306505D01*
X264006Y348770D02*
X312780D01*
X263988Y348752D02*
X264006Y348770D01*
X312780D02*
X314728Y346823D01*
X316055D01*
X273339Y351016D02*
X310248D01*
X316055Y356823D01*
X258056Y329364D02*
X258870D01*
X252727Y334693D02*
X258056Y329364D01*
X223929Y362565D02*
X229837Y368472D01*
X222200Y350601D02*
X223929Y352330D01*
Y362565D01*
X221987Y350601D02*
X222200D01*
X226390Y361941D02*
X230229D01*
X231213Y360957D01*
X229837Y368472D02*
X231768D01*
X222003Y374745D02*
X224323Y372425D01*
X224124Y365881D02*
Y372226D01*
X224323Y372425D01*
X221987Y350601D02*
X228436D01*
X235150Y365090D02*
X243811D01*
X250356Y334693D02*
X252727D01*
X262093Y330543D02*
X262413D01*
X256067Y336569D02*
X262093Y330543D01*
X256067Y336569D02*
Y337728D01*
X248535Y336514D02*
X250356Y334693D01*
X248535Y352287D02*
X254047Y357799D01*
Y361351D01*
X263102Y364303D02*
Y364306D01*
X250799Y352000D02*
X263102Y364303D01*
X250799Y337335D02*
Y352000D01*
X219106Y350601D02*
X221987D01*
X231508Y353673D02*
Y353870D01*
X228436Y350601D02*
X231508Y353673D01*
X254047Y368831D02*
X262438D01*
X264112Y367158D01*
X264480D01*
X251882Y370209D02*
Y374047D01*
Y370209D02*
X253260Y368831D01*
X254047D01*
X245296Y372972D02*
X246371Y374047D01*
X245296Y369528D02*
Y372972D01*
X244598Y368830D02*
X245296Y369528D01*
X243811Y368830D02*
X244598D01*
X237118Y368831D02*
X237118Y368830D01*
X243811D01*
X237019Y353870D02*
Y361252D01*
X237118Y361350D01*
X243811D01*
X231768Y368472D02*
X235150Y365090D01*
X219106Y374745D02*
X222003D01*
X231213Y360957D02*
X231508Y361252D01*
X275110Y435858D02*
Y443879D01*
X275031Y443958D02*
X275110Y443879D01*
X315402Y391238D02*
X316879Y389761D01*
X318417Y384480D02*
Y384849D01*
X316879Y386387D02*
X318417Y384849D01*
X316879Y386387D02*
Y389761D01*
X300111Y374736D02*
X301882Y372965D01*
X300111Y374736D02*
Y379756D01*
X287812Y367010D02*
X291006D01*
X292532Y365484D01*
X300700Y371783D02*
X301882Y372965D01*
X290669Y370708D02*
X291744Y371783D01*
X300700D01*
X289389Y370708D02*
X290669D01*
X278654Y381315D02*
X279426D01*
X285937Y387827D01*
X305720Y340779D02*
X305917D01*
X301651Y336709D02*
X305720Y340779D01*
X305917D02*
X312099D01*
X295779Y400524D02*
X295878Y400425D01*
X303358D01*
X308802Y391991D02*
Y401325D01*
X289185Y340583D02*
X300701D01*
X283772Y335169D02*
X289185Y340583D01*
X312099Y340779D02*
X316055Y336823D01*
X243361Y331658D02*
X245600D01*
X251813Y325445D01*
X253387D01*
X318614Y435760D02*
Y440675D01*
X315366Y443923D02*
X318614Y440675D01*
X266055Y418462D02*
X266916Y419323D01*
X225606Y418462D02*
X227845Y420701D01*
X240760D01*
X315366Y443923D02*
X315402Y443958D01*
X234559Y443856D02*
X234661Y443958D01*
X234559Y435169D02*
Y443856D01*
X357492Y346291D02*
X366646D01*
X366646Y346291D01*
Y346291D02*
Y352287D01*
Y336514D02*
Y346291D01*
X364480Y381823D02*
X384165D01*
X384264Y381724D01*
X392926Y365376D02*
Y384386D01*
X376882Y349332D02*
X392926Y365376D01*
X396383Y307559D02*
X396529Y307413D01*
X402177D01*
X395756Y352516D02*
X427299D01*
X429343Y354559D02*
Y374539D01*
X427299Y352516D02*
X429343Y354559D01*
X391646Y356626D02*
X395756Y352516D01*
X410643Y365484D02*
X418122D01*
X416450Y358201D02*
Y363811D01*
X418122Y365484D01*
X379244Y349573D02*
X414053Y384382D01*
X419303D01*
X426912Y391991D01*
X396409Y357496D02*
X405923Y367010D01*
X394508Y357496D02*
X396409D01*
X392433Y359677D02*
X396468D01*
X376882Y349146D02*
Y349332D01*
X379244Y346783D02*
Y349573D01*
X396468Y359677D02*
X407500Y370708D01*
X424616Y346589D02*
X424717Y346488D01*
X392827Y346589D02*
X424616D01*
X382117Y348770D02*
X430891D01*
X382098Y348752D02*
X382117Y348770D01*
X430891D02*
X432838Y346823D01*
X434165D01*
X391449Y351016D02*
X428358D01*
X434165Y356823D01*
X376166Y329364D02*
X376980D01*
X370837Y334693D02*
X376166Y329364D01*
X342039Y362565D02*
X347947Y368472D01*
X340310Y350601D02*
X342039Y352330D01*
Y362565D01*
X340097Y350601D02*
X340310D01*
X344500Y361941D02*
X348339D01*
X349323Y360957D01*
X347947Y368472D02*
X349879D01*
X340113Y374745D02*
X342433Y372425D01*
X342234Y365881D02*
Y372226D01*
X342433Y372425D01*
X340097Y350601D02*
X346546D01*
X353260Y365090D02*
X361921D01*
X368467Y334693D02*
X370837D01*
X380203Y330543D02*
X380524D01*
X374177Y336569D02*
X380203Y330543D01*
X374177Y336569D02*
Y337728D01*
X366646Y336514D02*
X368467Y334693D01*
X366646Y352287D02*
X372158Y357799D01*
Y361351D01*
X381212Y364303D02*
Y364306D01*
X368910Y352000D02*
X381212Y364303D01*
X368910Y337335D02*
Y352000D01*
X337216Y350601D02*
X340097D01*
X349619Y353673D02*
Y353870D01*
X346546Y350601D02*
X349619Y353673D01*
X372157Y368831D02*
X380549D01*
X382222Y367158D01*
X382591D01*
X369992Y370209D02*
Y374047D01*
Y370209D02*
X371370Y368831D01*
X372157D01*
X363406Y372972D02*
X364481Y374047D01*
X363406Y369528D02*
Y372972D01*
X362708Y368830D02*
X363406Y369528D01*
X361921Y368830D02*
X362708D01*
X355228Y368831D02*
X355228Y368830D01*
X361921D01*
X355130Y353870D02*
Y361252D01*
X355228Y361350D01*
X361922D01*
X349879Y368472D02*
X353260Y365090D01*
X337216Y374745D02*
X340113D01*
X349323Y360957D02*
X349619Y361252D01*
X393220Y435858D02*
Y443879D01*
X393142Y443958D02*
X393220Y443879D01*
X433512Y391238D02*
X434989Y389761D01*
X436527Y384480D02*
Y384849D01*
X434989Y386387D02*
X436527Y384849D01*
X434989Y386387D02*
Y389761D01*
X418221Y374736D02*
X419992Y372965D01*
X418221Y374736D02*
Y379756D01*
X405923Y367010D02*
X409116D01*
X410643Y365484D01*
X418811Y371783D02*
X419992Y372965D01*
X408779Y370708D02*
X409855Y371783D01*
X418811D01*
X407500Y370708D02*
X408779D01*
X396764Y381315D02*
X397536D01*
X404047Y387827D01*
X423831Y340779D02*
X424027D01*
X419761Y336709D02*
X423831Y340779D01*
X424027D02*
X430209D01*
X413890Y400524D02*
X413988Y400425D01*
X421468D01*
X426912Y391991D02*
Y401325D01*
X407295Y340583D02*
X418811D01*
X401882Y335169D02*
X407295Y340583D01*
X430209Y340779D02*
X434165Y336823D01*
X361472Y331658D02*
X363710D01*
X369923Y325445D01*
X371498D01*
X436724Y435760D02*
Y440675D01*
X433476Y443923D02*
X436724Y440675D01*
X384165Y418462D02*
X385026Y419323D01*
X343717Y418462D02*
X345955Y420701D01*
X358870D01*
X433476Y443923D02*
X433512Y443958D01*
X352669Y443856D02*
X352771Y443958D01*
X352669Y435169D02*
Y443856D01*
X475602Y346291D02*
X484756D01*
X484756Y346291D01*
Y346291D02*
Y352287D01*
Y336514D02*
Y346291D01*
X482590Y381823D02*
X502276D01*
X502374Y381724D01*
X511036Y365376D02*
Y384386D01*
X494992Y349332D02*
X511036Y365376D01*
X514494Y307559D02*
X514639Y307413D01*
X520287D01*
X513866Y352516D02*
X545409D01*
X547453Y354559D02*
Y374539D01*
X545409Y352516D02*
X547453Y354559D01*
X509756Y356626D02*
X513866Y352516D01*
X528753Y365484D02*
X536232D01*
X534560Y358201D02*
Y363811D01*
X536232Y365484D01*
X497354Y349573D02*
X532163Y384382D01*
X537413D01*
X545022Y391991D01*
X514519Y357496D02*
X524033Y367010D01*
X512618Y357496D02*
X514519D01*
X510543Y359677D02*
X514579D01*
X494992Y349146D02*
Y349332D01*
X497354Y346783D02*
Y349573D01*
X514579Y359677D02*
X525610Y370708D01*
X542726Y346589D02*
X542827Y346488D01*
X510937Y346589D02*
X542726D01*
X500227Y348770D02*
X549001D01*
X500209Y348752D02*
X500227Y348770D01*
X549001D02*
X550948Y346823D01*
X552276D01*
X509559Y351016D02*
X546468D01*
X552276Y356823D01*
X494277Y329364D02*
X495090D01*
X488947Y334693D02*
X494277Y329364D01*
X460150Y362565D02*
X466057Y368472D01*
X458420Y350601D02*
X460150Y352330D01*
Y362565D01*
X458208Y350601D02*
X458420D01*
X462610Y361941D02*
X466449D01*
X467434Y360957D01*
X466057Y368472D02*
X467989D01*
X458223Y374745D02*
X460543Y372425D01*
X460344Y365881D02*
Y372226D01*
X460543Y372425D01*
X458208Y350601D02*
X464657D01*
X471371Y365090D02*
X480031D01*
X486577Y334693D02*
X488947D01*
X498314Y330543D02*
X498634D01*
X492288Y336569D02*
X498314Y330543D01*
X492288Y336569D02*
Y337728D01*
X484756Y336514D02*
X486577Y334693D01*
X484756Y352287D02*
X490268Y357799D01*
Y361351D01*
X499323Y364303D02*
Y364306D01*
X487020Y352000D02*
X499323Y364303D01*
X487020Y337335D02*
Y352000D01*
X455327Y350601D02*
X458208D01*
X467729Y353673D02*
Y353870D01*
X464657Y350601D02*
X467729Y353673D01*
X490268Y368831D02*
X498659D01*
X500332Y367158D01*
X500701D01*
X488102Y370209D02*
Y374047D01*
Y370209D02*
X489480Y368831D01*
X490268D01*
X481516Y372972D02*
X482591Y374047D01*
X481516Y369528D02*
Y372972D01*
X480819Y368830D02*
X481516Y369528D01*
X480031Y368830D02*
X480819D01*
X473338Y368831D02*
X473339Y368830D01*
X480031D01*
X473240Y353870D02*
Y361252D01*
X473338Y361350D01*
X480032D01*
X467989Y368472D02*
X471371Y365090D01*
X455327Y374745D02*
X458223D01*
X467434Y360957D02*
X467729Y361252D01*
X511331Y435858D02*
Y443879D01*
X511252Y443958D02*
X511331Y443879D01*
X551622Y391238D02*
X553099Y389761D01*
X554638Y384480D02*
Y384849D01*
X553099Y386387D02*
X554638Y384849D01*
X553099Y386387D02*
Y389761D01*
X536332Y374736D02*
X538102Y372965D01*
X536332Y374736D02*
Y379756D01*
X524033Y367010D02*
X527227D01*
X528753Y365484D01*
X536921Y371783D02*
X538102Y372965D01*
X526890Y370708D02*
X527965Y371783D01*
X536921D01*
X525610Y370708D02*
X526890D01*
X514874Y381315D02*
X515646D01*
X522157Y387827D01*
X541941Y340779D02*
X542138D01*
X537872Y336709D02*
X541941Y340779D01*
X542138D02*
X548320D01*
X532000Y400524D02*
X532098Y400425D01*
X539579D01*
X545022Y391991D02*
Y401325D01*
X525406Y340583D02*
X536921D01*
X519992Y335169D02*
X525406Y340583D01*
X548320Y340779D02*
X552276Y336823D01*
X479582Y331658D02*
X481820D01*
X488033Y325445D01*
X489608D01*
X554835Y435760D02*
Y440675D01*
X551587Y443923D02*
X554835Y440675D01*
X502276Y418462D02*
X503136Y419323D01*
X461827Y418462D02*
X464065Y420701D01*
X476980D01*
X551587Y443923D02*
X551622Y443958D01*
X470780Y443856D02*
X470882Y443958D01*
X470780Y435169D02*
Y443856D01*
D20*
X241350Y182308D02*
X242229Y181429D01*
X241350Y182308D02*
Y187925D01*
X260445Y181429D02*
X268417Y173457D01*
X242229Y181429D02*
X260445D01*
X241350Y187925D02*
X249135Y195710D01*
X276698Y128661D02*
X278273D01*
X250808Y195710D02*
X250898Y195799D01*
X249135Y195710D02*
X250808D01*
X255610Y152578D02*
X268417Y165386D01*
X210346Y108208D02*
X212096Y106459D01*
X210346Y156134D02*
X221008Y166796D01*
X212096Y106459D02*
X240691D01*
X210346Y108208D02*
Y156134D01*
X240691Y106459D02*
X244827Y110594D01*
X221697Y166796D02*
X221862Y166961D01*
X221008Y166796D02*
X221697D01*
X244827Y110594D02*
X253007D01*
X266910Y138450D02*
X276698Y128661D01*
X266067Y140878D02*
X266910Y140035D01*
Y138450D02*
Y140035D01*
X255610Y151335D02*
Y152578D01*
Y151335D02*
X266067Y140878D01*
X268417Y165386D02*
Y173457D01*
X359461Y182308D02*
X360339Y181429D01*
X359461Y182308D02*
Y187925D01*
X378555Y181429D02*
X386527Y173457D01*
X360339Y181429D02*
X378555D01*
X359461Y187925D02*
X367245Y195710D01*
X394809Y128661D02*
X396383D01*
X368918Y195710D02*
X369008Y195799D01*
X367245Y195710D02*
X368918D01*
X373720Y152578D02*
X386527Y165386D01*
X328457Y108208D02*
X330206Y106459D01*
X328457Y156134D02*
X339119Y166796D01*
X330206Y106459D02*
X358801D01*
X328457Y108208D02*
Y156134D01*
X358801Y106459D02*
X362937Y110594D01*
X339808Y166796D02*
X339972Y166961D01*
X339119Y166796D02*
X339808D01*
X362937Y110594D02*
X371117D01*
X385020Y138450D02*
X394809Y128661D01*
X384177Y140878D02*
X385020Y140035D01*
Y138450D02*
Y140035D01*
X373720Y151335D02*
Y152578D01*
Y151335D02*
X384177Y140878D01*
X386527Y165386D02*
Y173457D01*
X477571Y182308D02*
X478449Y181429D01*
X477571Y182308D02*
Y187925D01*
X496665Y181429D02*
X504638Y173457D01*
X478449Y181429D02*
X496665D01*
X477571Y187925D02*
X485355Y195710D01*
X512919Y128661D02*
X514494D01*
X487029Y195710D02*
X487118Y195799D01*
X485355Y195710D02*
X487029D01*
X491830Y152578D02*
X504638Y165386D01*
X446567Y108208D02*
X448316Y106459D01*
X446567Y156134D02*
X457229Y166796D01*
X448316Y106459D02*
X476911D01*
X446567Y108208D02*
Y156134D01*
X476911Y106459D02*
X481047Y110594D01*
X457918Y166796D02*
X458083Y166961D01*
X457229Y166796D02*
X457918D01*
X481047Y110594D02*
X489227D01*
X503130Y138450D02*
X512919Y128661D01*
X502288Y140878D02*
X503130Y140035D01*
Y138450D02*
Y140035D01*
X491830Y151335D02*
Y152578D01*
Y151335D02*
X502288Y140878D01*
X504638Y165386D02*
Y173457D01*
X241350Y379158D02*
X242229Y378279D01*
X241350Y379158D02*
Y384776D01*
X260445Y378279D02*
X268417Y370307D01*
X242229Y378279D02*
X260445D01*
X241350Y384776D02*
X249135Y392560D01*
X276698Y325512D02*
X278273D01*
X250808Y392560D02*
X250898Y392650D01*
X249135Y392560D02*
X250808D01*
X255610Y349429D02*
X268417Y362236D01*
X210346Y305058D02*
X212096Y303309D01*
X210346Y352984D02*
X221008Y363646D01*
X212096Y303309D02*
X240691D01*
X210346Y305058D02*
Y352984D01*
X240691Y303309D02*
X244827Y307445D01*
X221697Y363646D02*
X221862Y363811D01*
X221008Y363646D02*
X221697D01*
X244827Y307445D02*
X253007D01*
X266910Y335300D02*
X276698Y325512D01*
X266067Y337728D02*
X266910Y336885D01*
Y335300D02*
Y336885D01*
X255610Y348186D02*
Y349429D01*
Y348186D02*
X266067Y337728D01*
X268417Y362236D02*
Y370307D01*
X359461Y379158D02*
X360339Y378279D01*
X359461Y379158D02*
Y384776D01*
X378555Y378279D02*
X386527Y370307D01*
X360339Y378279D02*
X378555D01*
X359461Y384776D02*
X367245Y392560D01*
X394809Y325512D02*
X396383D01*
X368918Y392560D02*
X369008Y392650D01*
X367245Y392560D02*
X368918D01*
X373720Y349429D02*
X386527Y362236D01*
X328457Y305058D02*
X330206Y303309D01*
X328457Y352984D02*
X339119Y363646D01*
X330206Y303309D02*
X358801D01*
X328457Y305058D02*
Y352984D01*
X358801Y303309D02*
X362937Y307445D01*
X339808Y363646D02*
X339972Y363811D01*
X339119Y363646D02*
X339808D01*
X362937Y307445D02*
X371117D01*
X385020Y335300D02*
X394809Y325512D01*
X384177Y337728D02*
X385020Y336885D01*
Y335300D02*
Y336885D01*
X373720Y348186D02*
Y349429D01*
Y348186D02*
X384177Y337728D01*
X386527Y362236D02*
Y370307D01*
X477571Y379158D02*
X478449Y378279D01*
X477571Y379158D02*
Y384776D01*
X496665Y378279D02*
X504638Y370307D01*
X478449Y378279D02*
X496665D01*
X477571Y384776D02*
X485355Y392560D01*
X512919Y325512D02*
X514494D01*
X487029Y392560D02*
X487118Y392650D01*
X485355Y392560D02*
X487029D01*
X491830Y349429D02*
X504638Y362236D01*
X446567Y305058D02*
X448316Y303309D01*
X446567Y352984D02*
X457229Y363646D01*
X448316Y303309D02*
X476911D01*
X446567Y305058D02*
Y352984D01*
X476911Y303309D02*
X481047Y307445D01*
X457918Y363646D02*
X458083Y363811D01*
X457229Y363646D02*
X457918D01*
X481047Y307445D02*
X489227D01*
X503130Y335300D02*
X512919Y325512D01*
X502288Y337728D02*
X503130Y336885D01*
Y335300D02*
Y336885D01*
X491830Y348186D02*
Y349429D01*
Y348186D02*
X502288Y337728D01*
X504638Y362236D02*
Y370307D01*
D24*
X228161Y143535D02*
D03*
X239382Y149441D02*
D03*
X246370Y184972D02*
D03*
X245484Y188024D02*
D03*
X274815Y187536D02*
D03*
X273929Y197079D02*
D03*
X244402Y120307D02*
D03*
X303161Y112138D02*
D03*
X295091Y127984D02*
D03*
X315102Y116811D02*
D03*
Y128716D02*
D03*
X303161Y119913D02*
D03*
X305819Y129165D02*
D03*
X315102Y122764D02*
D03*
X284067Y110563D02*
D03*
X276685Y128673D02*
D03*
X321272Y135760D02*
D03*
X294500Y160465D02*
D03*
X289776Y160661D02*
D03*
X276398Y160646D02*
D03*
X274323Y162827D02*
D03*
X273535Y159776D02*
D03*
X244402Y197079D02*
D03*
X244205Y210268D02*
D03*
X308710Y161885D02*
D03*
X274717Y149739D02*
D03*
X306606Y149638D02*
D03*
X263988Y151902D02*
D03*
X273339Y154165D02*
D03*
X261134Y149933D02*
D03*
X270484Y146095D02*
D03*
X222551Y163319D02*
D03*
X258870Y132513D02*
D03*
X221862Y166961D02*
D03*
X226390Y165091D02*
D03*
X224124Y169031D02*
D03*
X320096Y194741D02*
D03*
X262413Y133693D02*
D03*
X234658Y196390D02*
D03*
X244303Y153575D02*
D03*
X239421Y168253D02*
D03*
X255952Y177335D02*
D03*
X252374Y193043D02*
D03*
X236429Y136547D02*
D03*
X263102Y167456D02*
D03*
X250799Y140484D02*
D03*
X249421Y171980D02*
D03*
X224126Y154067D02*
D03*
X238791Y177591D02*
D03*
X295598Y252590D02*
D03*
X298158Y254165D02*
D03*
X292843Y250721D02*
D03*
X255228Y252590D02*
D03*
X252472Y250721D02*
D03*
X257787Y254165D02*
D03*
X252625Y258300D02*
D03*
X275110Y239008D02*
D03*
X257625Y258300D02*
D03*
X252625Y244100D02*
D03*
X212255Y248900D02*
D03*
X299126Y221587D02*
D03*
X318417Y187630D02*
D03*
X316055Y169972D02*
D03*
X312018Y187190D02*
D03*
X228108Y131509D02*
D03*
X223043Y146095D02*
D03*
X285346Y181527D02*
D03*
X285543Y173752D02*
D03*
X295180Y183590D02*
D03*
X309559Y148358D02*
D03*
X310581Y140136D02*
D03*
X291449Y120209D02*
D03*
X284756Y114697D02*
D03*
X287906Y123161D02*
D03*
X271173Y114205D02*
D03*
X265169Y114106D02*
D03*
X264677Y119815D02*
D03*
X264579Y124441D02*
D03*
X249224Y115189D02*
D03*
X250307Y119224D02*
D03*
X249716Y123949D02*
D03*
X257591Y119717D02*
D03*
X258181Y115386D02*
D03*
X258378Y123653D02*
D03*
X230228Y114795D02*
D03*
X233476Y117453D02*
D03*
X222703Y115583D02*
D03*
X233378Y186744D02*
D03*
X268417Y178181D02*
D03*
X271862Y188221D02*
D03*
X258421Y188171D02*
D03*
X285543Y144421D02*
D03*
X290169Y140583D02*
D03*
X295189Y135169D02*
D03*
X316154Y134185D02*
D03*
X315360Y176272D02*
D03*
X317994Y178363D02*
D03*
X305679Y188122D02*
D03*
X314382Y203772D02*
D03*
X318319Y203083D02*
D03*
X304933Y195799D02*
D03*
X302079Y192551D02*
D03*
X302009Y197742D02*
D03*
X285740Y196095D02*
D03*
X244303Y221488D02*
D03*
X244205Y217650D02*
D03*
X271249Y182253D02*
D03*
X210445Y263811D02*
D03*
X210642Y273358D02*
D03*
X210543Y280937D02*
D03*
X210839Y289894D02*
D03*
X211035Y295898D02*
D03*
X217531Y290779D02*
D03*
Y295799D02*
D03*
X240361Y229773D02*
D03*
X241154Y238417D02*
D03*
X242039Y265386D02*
D03*
X241547Y276803D02*
D03*
X241350Y284776D02*
D03*
X249323Y265189D02*
D03*
Y276705D02*
D03*
X249027Y284382D02*
D03*
X234264Y290779D02*
D03*
X234165Y295898D02*
D03*
X239972Y290189D02*
D03*
X240169Y295898D02*
D03*
X249126Y290189D02*
D03*
X249027Y295799D02*
D03*
X256902Y290090D02*
D03*
Y295602D02*
D03*
X257492Y238417D02*
D03*
X251291Y238319D02*
D03*
X251882Y224342D02*
D03*
X252079Y218437D02*
D03*
X251685Y210760D02*
D03*
X285346Y229658D02*
D03*
X285543Y219618D02*
D03*
X285642Y210661D02*
D03*
X288201Y238811D02*
D03*
X280524Y238909D02*
D03*
X297017Y238039D02*
D03*
X281803Y263811D02*
D03*
X290169Y263417D02*
D03*
X282394Y276902D02*
D03*
X286232Y266370D02*
D03*
X286134Y280248D02*
D03*
X289972Y276705D02*
D03*
X282591Y284382D02*
D03*
X289972D02*
D03*
X274126Y291075D02*
D03*
X274520Y295898D02*
D03*
X281902Y289894D02*
D03*
X281803Y295898D02*
D03*
X290268Y290090D02*
D03*
X289776Y295898D02*
D03*
X298043Y290287D02*
D03*
X297748Y295504D02*
D03*
X321764Y245996D02*
D03*
X321665Y230740D02*
D03*
Y220307D02*
D03*
X321764Y212728D02*
D03*
X321567Y252590D02*
D03*
X316055Y255740D02*
D03*
X321567Y259579D02*
D03*
X321665Y268043D02*
D03*
Y274835D02*
D03*
X321567Y282217D02*
D03*
X315169Y290484D02*
D03*
X321764Y290189D02*
D03*
X315071Y295799D02*
D03*
X321665Y295602D02*
D03*
X318811Y293339D02*
D03*
X269500Y119126D02*
D03*
X277669Y123457D02*
D03*
X278654Y184465D02*
D03*
X300700Y139598D02*
D03*
X266154Y184874D02*
D03*
X258772Y152295D02*
D03*
X250898Y195799D02*
D03*
X226095Y202295D02*
D03*
X247354Y105150D02*
D03*
X311232Y177689D02*
D03*
X308802Y204474D02*
D03*
X257689Y203279D02*
D03*
X303358Y203575D02*
D03*
X321106Y128716D02*
D03*
Y122764D02*
D03*
Y116811D02*
D03*
X300701Y143732D02*
D03*
X283772Y138319D02*
D03*
X243361Y134807D02*
D03*
X258279Y105051D02*
D03*
X269205Y105150D02*
D03*
X227515Y117583D02*
D03*
X247453Y134972D02*
D03*
X251095Y135071D02*
D03*
X253007Y110594D02*
D03*
X281705Y123260D02*
D03*
X318614Y238909D02*
D03*
X270091Y219028D02*
D03*
X285937Y190976D02*
D03*
X240760Y223850D02*
D03*
X234559Y238319D02*
D03*
X264480Y170307D02*
D03*
X292995Y244100D02*
D03*
X297995Y258300D02*
D03*
X292995D02*
D03*
X217255Y253900D02*
D03*
X212255Y258300D02*
D03*
X217255D02*
D03*
X212255Y244100D02*
D03*
Y253900D02*
D03*
X346272Y143535D02*
D03*
X357492Y149441D02*
D03*
X364480Y184972D02*
D03*
X363595Y188024D02*
D03*
X392926Y187536D02*
D03*
X392039Y197079D02*
D03*
X362512Y120307D02*
D03*
X421272Y112138D02*
D03*
X413201Y127984D02*
D03*
X433212Y116811D02*
D03*
Y128716D02*
D03*
X421272Y119913D02*
D03*
X423929Y129165D02*
D03*
X433212Y122764D02*
D03*
X402177Y110563D02*
D03*
X394795Y128673D02*
D03*
X439382Y135760D02*
D03*
X412610Y160465D02*
D03*
X407886Y160661D02*
D03*
X394508Y160646D02*
D03*
X392433Y162827D02*
D03*
X391646Y159776D02*
D03*
X362512Y197079D02*
D03*
X362315Y210268D02*
D03*
X426821Y161885D02*
D03*
X392827Y149739D02*
D03*
X424717Y149638D02*
D03*
X382098Y151902D02*
D03*
X391449Y154165D02*
D03*
X379244Y149933D02*
D03*
X388595Y146095D02*
D03*
X340661Y163319D02*
D03*
X376980Y132513D02*
D03*
X339972Y166961D02*
D03*
X344500Y165091D02*
D03*
X342234Y169031D02*
D03*
X438206Y194741D02*
D03*
X380524Y133693D02*
D03*
X352768Y196390D02*
D03*
X362413Y153575D02*
D03*
X357532Y168253D02*
D03*
X374062Y177335D02*
D03*
X370484Y193043D02*
D03*
X354539Y136547D02*
D03*
X381212Y167456D02*
D03*
X368910Y140484D02*
D03*
X367531Y171980D02*
D03*
X342236Y154067D02*
D03*
X356902Y177591D02*
D03*
X413709Y252590D02*
D03*
X416268Y254165D02*
D03*
X410953Y250721D02*
D03*
X373339Y252590D02*
D03*
X370583Y250721D02*
D03*
X375898Y254165D02*
D03*
X370735Y258300D02*
D03*
X393220Y239008D02*
D03*
X375735Y258300D02*
D03*
X370735Y244100D02*
D03*
X330365Y248900D02*
D03*
X417236Y221587D02*
D03*
X436527Y187630D02*
D03*
X434165Y169972D02*
D03*
X430129Y187190D02*
D03*
X346219Y131509D02*
D03*
X341154Y146095D02*
D03*
X403457Y181527D02*
D03*
X403653Y173752D02*
D03*
X413290Y183590D02*
D03*
X427669Y148358D02*
D03*
X428692Y140136D02*
D03*
X409559Y120209D02*
D03*
X402866Y114697D02*
D03*
X406016Y123161D02*
D03*
X389283Y114205D02*
D03*
X383279Y114106D02*
D03*
X382787Y119815D02*
D03*
X382689Y124441D02*
D03*
X367335Y115189D02*
D03*
X368417Y119224D02*
D03*
X367827Y123949D02*
D03*
X375701Y119717D02*
D03*
X376291Y115386D02*
D03*
X376488Y123653D02*
D03*
X348339Y114795D02*
D03*
X351587Y117453D02*
D03*
X340813Y115583D02*
D03*
X351488Y186744D02*
D03*
X386527Y178181D02*
D03*
X389972Y188221D02*
D03*
X376532Y188171D02*
D03*
X403653Y144421D02*
D03*
X408280Y140583D02*
D03*
X413299Y135169D02*
D03*
X434264Y134185D02*
D03*
X433471Y176272D02*
D03*
X436104Y178363D02*
D03*
X423789Y188122D02*
D03*
X432492Y203772D02*
D03*
X436429Y203083D02*
D03*
X423043Y195799D02*
D03*
X420189Y192551D02*
D03*
X420120Y197742D02*
D03*
X403850Y196095D02*
D03*
X362413Y221488D02*
D03*
X362315Y217650D02*
D03*
X389360Y182253D02*
D03*
X328555Y263811D02*
D03*
X328752Y273358D02*
D03*
X328654Y280937D02*
D03*
X328949Y289894D02*
D03*
X329146Y295898D02*
D03*
X335642Y290779D02*
D03*
Y295799D02*
D03*
X358471Y229773D02*
D03*
X359264Y238417D02*
D03*
X360150Y265386D02*
D03*
X359658Y276803D02*
D03*
X359461Y284776D02*
D03*
X367433Y265189D02*
D03*
Y276705D02*
D03*
X367138Y284382D02*
D03*
X352374Y290779D02*
D03*
X352276Y295898D02*
D03*
X358083Y290189D02*
D03*
X358279Y295898D02*
D03*
X367236Y290189D02*
D03*
X367138Y295799D02*
D03*
X375012Y290090D02*
D03*
Y295602D02*
D03*
X375602Y238417D02*
D03*
X369402Y238319D02*
D03*
X369992Y224342D02*
D03*
X370189Y218437D02*
D03*
X369795Y210760D02*
D03*
X403457Y229658D02*
D03*
X403653Y219618D02*
D03*
X403752Y210661D02*
D03*
X406311Y238811D02*
D03*
X398634Y238909D02*
D03*
X415127Y238039D02*
D03*
X399913Y263811D02*
D03*
X408280Y263417D02*
D03*
X400504Y276902D02*
D03*
X404343Y266370D02*
D03*
X404244Y280248D02*
D03*
X408083Y276705D02*
D03*
X400701Y284382D02*
D03*
X408083D02*
D03*
X392236Y291075D02*
D03*
X392630Y295898D02*
D03*
X400012Y289894D02*
D03*
X399913Y295898D02*
D03*
X408378Y290090D02*
D03*
X407886Y295898D02*
D03*
X416153Y290287D02*
D03*
X415858Y295504D02*
D03*
X439874Y245996D02*
D03*
X439776Y230740D02*
D03*
Y220307D02*
D03*
X439874Y212728D02*
D03*
X439677Y252590D02*
D03*
X434165Y255740D02*
D03*
X439677Y259579D02*
D03*
X439776Y268043D02*
D03*
Y274835D02*
D03*
X439677Y282217D02*
D03*
X433280Y290484D02*
D03*
X439874Y290189D02*
D03*
X433181Y295799D02*
D03*
X439776Y295602D02*
D03*
X436921Y293339D02*
D03*
X387610Y119126D02*
D03*
X395779Y123457D02*
D03*
X396764Y184465D02*
D03*
X418810Y139598D02*
D03*
X384264Y184874D02*
D03*
X376882Y152295D02*
D03*
X369008Y195799D02*
D03*
X344205Y202295D02*
D03*
X365465Y105150D02*
D03*
X429343Y177689D02*
D03*
X426912Y204474D02*
D03*
X375799Y203279D02*
D03*
X421468Y203575D02*
D03*
X439216Y128716D02*
D03*
Y122764D02*
D03*
Y116811D02*
D03*
X418811Y143732D02*
D03*
X401882Y138319D02*
D03*
X361472Y134807D02*
D03*
X376390Y105051D02*
D03*
X387315Y105150D02*
D03*
X345625Y117583D02*
D03*
X365563Y134972D02*
D03*
X369205Y135071D02*
D03*
X371117Y110594D02*
D03*
X399815Y123260D02*
D03*
X436724Y238909D02*
D03*
X388201Y219028D02*
D03*
X404047Y190976D02*
D03*
X358870Y223850D02*
D03*
X352669Y238319D02*
D03*
X382591Y170307D02*
D03*
X411105Y244100D02*
D03*
X416106Y258300D02*
D03*
X411105D02*
D03*
X335365Y253900D02*
D03*
X330365Y258300D02*
D03*
X335365D02*
D03*
X330365Y244100D02*
D03*
Y253900D02*
D03*
X464382Y143535D02*
D03*
X475602Y149441D02*
D03*
X482590Y184972D02*
D03*
X481705Y188024D02*
D03*
X511036Y187536D02*
D03*
X510150Y197079D02*
D03*
X480622Y120307D02*
D03*
X539382Y112138D02*
D03*
X531311Y127984D02*
D03*
X551322Y116811D02*
D03*
Y128716D02*
D03*
X539382Y119913D02*
D03*
X542039Y129165D02*
D03*
X551322Y122764D02*
D03*
X520287Y110563D02*
D03*
X512906Y128673D02*
D03*
X557492Y135760D02*
D03*
X530721Y160465D02*
D03*
X525996Y160661D02*
D03*
X512618Y160646D02*
D03*
X510543Y162827D02*
D03*
X509756Y159776D02*
D03*
X480622Y197079D02*
D03*
X480425Y210268D02*
D03*
X544931Y161885D02*
D03*
X510937Y149739D02*
D03*
X542827Y149638D02*
D03*
X500209Y151902D02*
D03*
X509559Y154165D02*
D03*
X497354Y149933D02*
D03*
X506705Y146095D02*
D03*
X458772Y163319D02*
D03*
X495090Y132513D02*
D03*
X458083Y166961D02*
D03*
X462610Y165091D02*
D03*
X460344Y169031D02*
D03*
X556316Y194741D02*
D03*
X498634Y133693D02*
D03*
X470878Y196390D02*
D03*
X480524Y153575D02*
D03*
X475642Y168253D02*
D03*
X492172Y177335D02*
D03*
X488594Y193043D02*
D03*
X472650Y136547D02*
D03*
X499323Y167456D02*
D03*
X487020Y140484D02*
D03*
X485642Y171980D02*
D03*
X460347Y154067D02*
D03*
X475012Y177591D02*
D03*
X531819Y252590D02*
D03*
X534378Y254165D02*
D03*
X529063Y250721D02*
D03*
X491449Y252590D02*
D03*
X488693Y250721D02*
D03*
X494008Y254165D02*
D03*
X488846Y258300D02*
D03*
X511331Y239008D02*
D03*
X493846Y258300D02*
D03*
X488846Y244100D02*
D03*
X448476Y248900D02*
D03*
X535347Y221587D02*
D03*
X554638Y187630D02*
D03*
X552276Y169972D02*
D03*
X548239Y187190D02*
D03*
X464329Y131509D02*
D03*
X459264Y146095D02*
D03*
X521567Y181527D02*
D03*
X521764Y173752D02*
D03*
X531400Y183590D02*
D03*
X545780Y148358D02*
D03*
X546802Y140136D02*
D03*
X527669Y120209D02*
D03*
X520976Y114697D02*
D03*
X524126Y123161D02*
D03*
X507394Y114205D02*
D03*
X501390Y114106D02*
D03*
X500898Y119815D02*
D03*
X500799Y124441D02*
D03*
X485445Y115189D02*
D03*
X486527Y119224D02*
D03*
X485937Y123949D02*
D03*
X493811Y119717D02*
D03*
X494402Y115386D02*
D03*
X494598Y123653D02*
D03*
X466449Y114795D02*
D03*
X469697Y117453D02*
D03*
X458923Y115583D02*
D03*
X469598Y186744D02*
D03*
X504638Y178181D02*
D03*
X508083Y188221D02*
D03*
X494642Y188171D02*
D03*
X521764Y144421D02*
D03*
X526390Y140583D02*
D03*
X531409Y135169D02*
D03*
X552374Y134185D02*
D03*
X551581Y176272D02*
D03*
X554214Y178363D02*
D03*
X541899Y188122D02*
D03*
X550602Y203772D02*
D03*
X554539Y203083D02*
D03*
X541153Y195799D02*
D03*
X538299Y192551D02*
D03*
X538230Y197742D02*
D03*
X521961Y196095D02*
D03*
X480524Y221488D02*
D03*
X480425Y217650D02*
D03*
X507470Y182253D02*
D03*
X446665Y263811D02*
D03*
X446862Y273358D02*
D03*
X446764Y280937D02*
D03*
X447059Y289894D02*
D03*
X447256Y295898D02*
D03*
X453752Y290779D02*
D03*
Y295799D02*
D03*
X476581Y229773D02*
D03*
X477374Y238417D02*
D03*
X478260Y265386D02*
D03*
X477768Y276803D02*
D03*
X477571Y284776D02*
D03*
X485543Y265189D02*
D03*
Y276705D02*
D03*
X485248Y284382D02*
D03*
X470484Y290779D02*
D03*
X470386Y295898D02*
D03*
X476193Y290189D02*
D03*
X476390Y295898D02*
D03*
X485347Y290189D02*
D03*
X485248Y295799D02*
D03*
X493122Y290090D02*
D03*
Y295602D02*
D03*
X493713Y238417D02*
D03*
X487512Y238319D02*
D03*
X488102Y224342D02*
D03*
X488299Y218437D02*
D03*
X487906Y210760D02*
D03*
X521567Y229658D02*
D03*
X521764Y219618D02*
D03*
X521862Y210661D02*
D03*
X524421Y238811D02*
D03*
X516744Y238909D02*
D03*
X533237Y238039D02*
D03*
X518024Y263811D02*
D03*
X526390Y263417D02*
D03*
X518614Y276902D02*
D03*
X522453Y266370D02*
D03*
X522354Y280248D02*
D03*
X526193Y276705D02*
D03*
X518811Y284382D02*
D03*
X526193D02*
D03*
X510347Y291075D02*
D03*
X510740Y295898D02*
D03*
X518122Y289894D02*
D03*
X518024Y295898D02*
D03*
X526488Y290090D02*
D03*
X525996Y295898D02*
D03*
X534264Y290287D02*
D03*
X533968Y295504D02*
D03*
X557984Y245996D02*
D03*
X557886Y230740D02*
D03*
Y220307D02*
D03*
X557984Y212728D02*
D03*
X557787Y252590D02*
D03*
X552276Y255740D02*
D03*
X557787Y259579D02*
D03*
X557886Y268043D02*
D03*
Y274835D02*
D03*
X557787Y282217D02*
D03*
X551390Y290484D02*
D03*
X557984Y290189D02*
D03*
X551291Y295799D02*
D03*
X557886Y295602D02*
D03*
X555031Y293339D02*
D03*
X505721Y119126D02*
D03*
X513890Y123457D02*
D03*
X514874Y184465D02*
D03*
X536920Y139598D02*
D03*
X502374Y184874D02*
D03*
X494992Y152295D02*
D03*
X487118Y195799D02*
D03*
X462315Y202295D02*
D03*
X483575Y105150D02*
D03*
X547453Y177689D02*
D03*
X545022Y204474D02*
D03*
X493909Y203279D02*
D03*
X539579Y203575D02*
D03*
X557326Y128716D02*
D03*
Y122764D02*
D03*
Y116811D02*
D03*
X536921Y143732D02*
D03*
X519992Y138319D02*
D03*
X479582Y134807D02*
D03*
X494500Y105051D02*
D03*
X505425Y105150D02*
D03*
X463735Y117583D02*
D03*
X483673Y134972D02*
D03*
X487315Y135071D02*
D03*
X489227Y110594D02*
D03*
X517925Y123260D02*
D03*
X554835Y238909D02*
D03*
X506311Y219028D02*
D03*
X522157Y190976D02*
D03*
X476980Y223850D02*
D03*
X470780Y238319D02*
D03*
X500701Y170307D02*
D03*
X529216Y244100D02*
D03*
X534216Y258300D02*
D03*
X529216D02*
D03*
X453476Y253900D02*
D03*
X448476Y258300D02*
D03*
X453476D02*
D03*
X448476Y244100D02*
D03*
Y253900D02*
D03*
X228161Y340386D02*
D03*
X239382Y346291D02*
D03*
X246370Y381823D02*
D03*
X245484Y384874D02*
D03*
X274815Y384386D02*
D03*
X273929Y393929D02*
D03*
X244402Y317158D02*
D03*
X303161Y308988D02*
D03*
X295091Y324835D02*
D03*
X315102Y313661D02*
D03*
Y325567D02*
D03*
X303161Y316764D02*
D03*
X305819Y326016D02*
D03*
X315102Y319614D02*
D03*
X284067Y307413D02*
D03*
X276685Y325524D02*
D03*
X321272Y332610D02*
D03*
X294500Y357315D02*
D03*
X289776Y357512D02*
D03*
X276398Y357496D02*
D03*
X274323Y359677D02*
D03*
X273535Y356626D02*
D03*
X244402Y393929D02*
D03*
X244205Y407118D02*
D03*
X308710Y358735D02*
D03*
X274717Y346589D02*
D03*
X306606Y346488D02*
D03*
X263988Y348752D02*
D03*
X273339Y351016D02*
D03*
X261134Y346783D02*
D03*
X270484Y342945D02*
D03*
X222551Y360169D02*
D03*
X258870Y329364D02*
D03*
X221862Y363811D02*
D03*
X226390Y361941D02*
D03*
X224124Y365881D02*
D03*
X320096Y391591D02*
D03*
X262413Y330543D02*
D03*
X234658Y393240D02*
D03*
X244303Y350425D02*
D03*
X239421Y365103D02*
D03*
X255952Y374185D02*
D03*
X252374Y389894D02*
D03*
X236429Y333398D02*
D03*
X263102Y364306D02*
D03*
X250799Y337335D02*
D03*
X249421Y368831D02*
D03*
X224126Y350917D02*
D03*
X238791Y374441D02*
D03*
X295598Y449441D02*
D03*
X298158Y451016D02*
D03*
X292843Y447571D02*
D03*
X255228Y449441D02*
D03*
X252472Y447571D02*
D03*
X257787Y451016D02*
D03*
X252625Y455150D02*
D03*
X275110Y435858D02*
D03*
X257625Y455150D02*
D03*
X252625Y440950D02*
D03*
X212255Y445750D02*
D03*
X299126Y418437D02*
D03*
X318417Y384480D02*
D03*
X316055Y366823D02*
D03*
X312018Y384040D02*
D03*
X228108Y328360D02*
D03*
X223043Y342945D02*
D03*
X285346Y378378D02*
D03*
X285543Y370602D02*
D03*
X295180Y380440D02*
D03*
X309559Y345209D02*
D03*
X310581Y336986D02*
D03*
X291449Y317059D02*
D03*
X284756Y311547D02*
D03*
X287906Y320012D02*
D03*
X271173Y311055D02*
D03*
X265169Y310957D02*
D03*
X264677Y316665D02*
D03*
X264579Y321291D02*
D03*
X249224Y312039D02*
D03*
X250307Y316075D02*
D03*
X249716Y320799D02*
D03*
X257591Y316567D02*
D03*
X258181Y312236D02*
D03*
X258378Y320504D02*
D03*
X230228Y311646D02*
D03*
X233476Y314303D02*
D03*
X222703Y312433D02*
D03*
X233378Y383594D02*
D03*
X268417Y375031D02*
D03*
X271862Y385071D02*
D03*
X258421Y385021D02*
D03*
X285543Y341272D02*
D03*
X290169Y337433D02*
D03*
X295189Y332020D02*
D03*
X316154Y331035D02*
D03*
X315360Y373122D02*
D03*
X317994Y375213D02*
D03*
X305679Y384972D02*
D03*
X314382Y400622D02*
D03*
X318319Y399933D02*
D03*
X304933Y392650D02*
D03*
X302079Y389402D02*
D03*
X302009Y394592D02*
D03*
X285740Y392945D02*
D03*
X244303Y418339D02*
D03*
X244205Y414500D02*
D03*
X271249Y379103D02*
D03*
X210445Y460661D02*
D03*
X210642Y470209D02*
D03*
X210543Y477787D02*
D03*
X210839Y486744D02*
D03*
X211035Y492748D02*
D03*
X217531Y487630D02*
D03*
Y492650D02*
D03*
X240361Y426624D02*
D03*
X241154Y435268D02*
D03*
X242039Y462236D02*
D03*
X241547Y473654D02*
D03*
X241350Y481626D02*
D03*
X249323Y462039D02*
D03*
Y473555D02*
D03*
X249027Y481232D02*
D03*
X234264Y487630D02*
D03*
X234165Y492748D02*
D03*
X239972Y487039D02*
D03*
X240169Y492748D02*
D03*
X249126Y487039D02*
D03*
X249027Y492650D02*
D03*
X256902Y486941D02*
D03*
Y492453D02*
D03*
X257492Y435268D02*
D03*
X251291Y435169D02*
D03*
X251882Y421193D02*
D03*
X252079Y415287D02*
D03*
X251685Y407610D02*
D03*
X285346Y426508D02*
D03*
X285543Y416468D02*
D03*
X285642Y407512D02*
D03*
X288201Y435661D02*
D03*
X280524Y435760D02*
D03*
X297017Y434889D02*
D03*
X281803Y460661D02*
D03*
X290169Y460268D02*
D03*
X282394Y473752D02*
D03*
X286232Y463221D02*
D03*
X286134Y477098D02*
D03*
X289972Y473555D02*
D03*
X282591Y481232D02*
D03*
X289972D02*
D03*
X274126Y487925D02*
D03*
X274520Y492748D02*
D03*
X281902Y486744D02*
D03*
X281803Y492748D02*
D03*
X290268Y486941D02*
D03*
X289776Y492748D02*
D03*
X298043Y487138D02*
D03*
X297748Y492354D02*
D03*
X321764Y442846D02*
D03*
X321665Y427591D02*
D03*
Y417158D02*
D03*
X321764Y409579D02*
D03*
X321567Y449441D02*
D03*
X316055Y452591D02*
D03*
X321567Y456429D02*
D03*
X321665Y464894D02*
D03*
Y471685D02*
D03*
X321567Y479067D02*
D03*
X315169Y487335D02*
D03*
X321764Y487039D02*
D03*
X315071Y492650D02*
D03*
X321665Y492453D02*
D03*
X318811Y490189D02*
D03*
X269500Y315976D02*
D03*
X277669Y320307D02*
D03*
X278654Y381315D02*
D03*
X300700Y336449D02*
D03*
X266154Y381724D02*
D03*
X258772Y349146D02*
D03*
X250898Y392650D02*
D03*
X226095Y399146D02*
D03*
X247354Y302000D02*
D03*
X311232Y374539D02*
D03*
X308802Y401325D02*
D03*
X257689Y400130D02*
D03*
X303358Y400425D02*
D03*
X321106Y325567D02*
D03*
Y319614D02*
D03*
Y313661D02*
D03*
X300701Y340583D02*
D03*
X283772Y335169D02*
D03*
X243361Y331658D02*
D03*
X258279Y301902D02*
D03*
X269205Y302000D02*
D03*
X227515Y314433D02*
D03*
X247453Y331823D02*
D03*
X251095Y331921D02*
D03*
X253007Y307445D02*
D03*
X281705Y320110D02*
D03*
X318614Y435760D02*
D03*
X270091Y415878D02*
D03*
X285937Y387827D02*
D03*
X240760Y420701D02*
D03*
X234559Y435169D02*
D03*
X264480Y367158D02*
D03*
X292995Y440950D02*
D03*
X297995Y455150D02*
D03*
X292995D02*
D03*
X217255Y450750D02*
D03*
X212255Y455150D02*
D03*
X217255D02*
D03*
X212255Y440950D02*
D03*
Y450750D02*
D03*
X346272Y340386D02*
D03*
X357492Y346291D02*
D03*
X364480Y381823D02*
D03*
X363595Y384874D02*
D03*
X392926Y384386D02*
D03*
X392039Y393929D02*
D03*
X362512Y317158D02*
D03*
X421272Y308988D02*
D03*
X413201Y324835D02*
D03*
X433212Y313661D02*
D03*
Y325567D02*
D03*
X421272Y316764D02*
D03*
X423929Y326016D02*
D03*
X433212Y319614D02*
D03*
X402177Y307413D02*
D03*
X394795Y325524D02*
D03*
X439382Y332610D02*
D03*
X412610Y357315D02*
D03*
X407886Y357512D02*
D03*
X394508Y357496D02*
D03*
X392433Y359677D02*
D03*
X391646Y356626D02*
D03*
X362512Y393929D02*
D03*
X362315Y407118D02*
D03*
X426821Y358735D02*
D03*
X392827Y346589D02*
D03*
X424717Y346488D02*
D03*
X382098Y348752D02*
D03*
X391449Y351016D02*
D03*
X379244Y346783D02*
D03*
X388595Y342945D02*
D03*
X340661Y360169D02*
D03*
X376980Y329364D02*
D03*
X339972Y363811D02*
D03*
X344500Y361941D02*
D03*
X342234Y365881D02*
D03*
X438206Y391591D02*
D03*
X380524Y330543D02*
D03*
X352768Y393240D02*
D03*
X362413Y350425D02*
D03*
X357532Y365103D02*
D03*
X374062Y374185D02*
D03*
X370484Y389894D02*
D03*
X354539Y333398D02*
D03*
X381212Y364306D02*
D03*
X368910Y337335D02*
D03*
X367531Y368831D02*
D03*
X342236Y350917D02*
D03*
X356902Y374441D02*
D03*
X413709Y449441D02*
D03*
X416268Y451016D02*
D03*
X410953Y447571D02*
D03*
X373339Y449441D02*
D03*
X370583Y447571D02*
D03*
X375898Y451016D02*
D03*
X370735Y455150D02*
D03*
X393220Y435858D02*
D03*
X375735Y455150D02*
D03*
X370735Y440950D02*
D03*
X330365Y445750D02*
D03*
X417236Y418437D02*
D03*
X436527Y384480D02*
D03*
X434165Y366823D02*
D03*
X430129Y384040D02*
D03*
X346219Y328360D02*
D03*
X341154Y342945D02*
D03*
X403457Y378378D02*
D03*
X403653Y370602D02*
D03*
X413290Y380440D02*
D03*
X427669Y345209D02*
D03*
X428692Y336986D02*
D03*
X409559Y317059D02*
D03*
X402866Y311547D02*
D03*
X406016Y320012D02*
D03*
X389283Y311055D02*
D03*
X383279Y310957D02*
D03*
X382787Y316665D02*
D03*
X382689Y321291D02*
D03*
X367335Y312039D02*
D03*
X368417Y316075D02*
D03*
X367827Y320799D02*
D03*
X375701Y316567D02*
D03*
X376291Y312236D02*
D03*
X376488Y320504D02*
D03*
X348339Y311646D02*
D03*
X351587Y314303D02*
D03*
X340813Y312433D02*
D03*
X351488Y383594D02*
D03*
X386527Y375031D02*
D03*
X389972Y385071D02*
D03*
X376532Y385021D02*
D03*
X403653Y341272D02*
D03*
X408280Y337433D02*
D03*
X413299Y332020D02*
D03*
X434264Y331035D02*
D03*
X433471Y373122D02*
D03*
X436104Y375213D02*
D03*
X423789Y384972D02*
D03*
X432492Y400622D02*
D03*
X436429Y399933D02*
D03*
X423043Y392650D02*
D03*
X420189Y389402D02*
D03*
X420120Y394592D02*
D03*
X403850Y392945D02*
D03*
X362413Y418339D02*
D03*
X362315Y414500D02*
D03*
X389360Y379103D02*
D03*
X328555Y460661D02*
D03*
X328752Y470209D02*
D03*
X328654Y477787D02*
D03*
X328949Y486744D02*
D03*
X329146Y492748D02*
D03*
X335642Y487630D02*
D03*
Y492650D02*
D03*
X358471Y426624D02*
D03*
X359264Y435268D02*
D03*
X360150Y462236D02*
D03*
X359658Y473654D02*
D03*
X359461Y481626D02*
D03*
X367433Y462039D02*
D03*
Y473555D02*
D03*
X367138Y481232D02*
D03*
X352374Y487630D02*
D03*
X352276Y492748D02*
D03*
X358083Y487039D02*
D03*
X358279Y492748D02*
D03*
X367236Y487039D02*
D03*
X367138Y492650D02*
D03*
X375012Y486941D02*
D03*
Y492453D02*
D03*
X375602Y435268D02*
D03*
X369402Y435169D02*
D03*
X369992Y421193D02*
D03*
X370189Y415287D02*
D03*
X369795Y407610D02*
D03*
X403457Y426508D02*
D03*
X403653Y416468D02*
D03*
X403752Y407512D02*
D03*
X406311Y435661D02*
D03*
X398634Y435760D02*
D03*
X415127Y434889D02*
D03*
X399913Y460661D02*
D03*
X408280Y460268D02*
D03*
X400504Y473752D02*
D03*
X404343Y463221D02*
D03*
X404244Y477098D02*
D03*
X408083Y473555D02*
D03*
X400701Y481232D02*
D03*
X408083D02*
D03*
X392236Y487925D02*
D03*
X392630Y492748D02*
D03*
X400012Y486744D02*
D03*
X399913Y492748D02*
D03*
X408378Y486941D02*
D03*
X407886Y492748D02*
D03*
X416153Y487138D02*
D03*
X415858Y492354D02*
D03*
X439874Y442846D02*
D03*
X439776Y427591D02*
D03*
Y417158D02*
D03*
X439874Y409579D02*
D03*
X439677Y449441D02*
D03*
X434165Y452591D02*
D03*
X439677Y456429D02*
D03*
X439776Y464894D02*
D03*
Y471685D02*
D03*
X439677Y479067D02*
D03*
X433280Y487335D02*
D03*
X439874Y487039D02*
D03*
X433181Y492650D02*
D03*
X439776Y492453D02*
D03*
X436921Y490189D02*
D03*
X387610Y315976D02*
D03*
X395779Y320307D02*
D03*
X396764Y381315D02*
D03*
X418810Y336449D02*
D03*
X384264Y381724D02*
D03*
X376882Y349146D02*
D03*
X369008Y392650D02*
D03*
X344205Y399146D02*
D03*
X365465Y302000D02*
D03*
X429343Y374539D02*
D03*
X426912Y401325D02*
D03*
X375799Y400130D02*
D03*
X421468Y400425D02*
D03*
X439216Y325567D02*
D03*
Y319614D02*
D03*
Y313661D02*
D03*
X418811Y340583D02*
D03*
X401882Y335169D02*
D03*
X361472Y331658D02*
D03*
X376390Y301902D02*
D03*
X387315Y302000D02*
D03*
X345625Y314433D02*
D03*
X365563Y331823D02*
D03*
X369205Y331921D02*
D03*
X371117Y307445D02*
D03*
X399815Y320110D02*
D03*
X436724Y435760D02*
D03*
X388201Y415878D02*
D03*
X404047Y387827D02*
D03*
X358870Y420701D02*
D03*
X352669Y435169D02*
D03*
X382591Y367158D02*
D03*
X411105Y440950D02*
D03*
X416106Y455150D02*
D03*
X411105D02*
D03*
X335365Y450750D02*
D03*
X330365Y455150D02*
D03*
X335365D02*
D03*
X330365Y440950D02*
D03*
Y450750D02*
D03*
X464382Y340386D02*
D03*
X475602Y346291D02*
D03*
X482590Y381823D02*
D03*
X481705Y384874D02*
D03*
X511036Y384386D02*
D03*
X510150Y393929D02*
D03*
X480622Y317158D02*
D03*
X539382Y308988D02*
D03*
X531311Y324835D02*
D03*
X551322Y313661D02*
D03*
Y325567D02*
D03*
X539382Y316764D02*
D03*
X542039Y326016D02*
D03*
X551322Y319614D02*
D03*
X520287Y307413D02*
D03*
X512906Y325524D02*
D03*
X557492Y332610D02*
D03*
X530721Y357315D02*
D03*
X525996Y357512D02*
D03*
X512618Y357496D02*
D03*
X510543Y359677D02*
D03*
X509756Y356626D02*
D03*
X480622Y393929D02*
D03*
X480425Y407118D02*
D03*
X544931Y358735D02*
D03*
X510937Y346589D02*
D03*
X542827Y346488D02*
D03*
X500209Y348752D02*
D03*
X509559Y351016D02*
D03*
X497354Y346783D02*
D03*
X506705Y342945D02*
D03*
X458772Y360169D02*
D03*
X495090Y329364D02*
D03*
X458083Y363811D02*
D03*
X462610Y361941D02*
D03*
X460344Y365881D02*
D03*
X556316Y391591D02*
D03*
X498634Y330543D02*
D03*
X470878Y393240D02*
D03*
X480524Y350425D02*
D03*
X475642Y365103D02*
D03*
X492172Y374185D02*
D03*
X488594Y389894D02*
D03*
X472650Y333398D02*
D03*
X499323Y364306D02*
D03*
X487020Y337335D02*
D03*
X485642Y368831D02*
D03*
X460347Y350917D02*
D03*
X475012Y374441D02*
D03*
X531819Y449441D02*
D03*
X534378Y451016D02*
D03*
X529063Y447571D02*
D03*
X491449Y449441D02*
D03*
X488693Y447571D02*
D03*
X494008Y451016D02*
D03*
X488846Y455150D02*
D03*
X511331Y435858D02*
D03*
X493846Y455150D02*
D03*
X488846Y440950D02*
D03*
X448476Y445750D02*
D03*
X535347Y418437D02*
D03*
X554638Y384480D02*
D03*
X552276Y366823D02*
D03*
X548239Y384040D02*
D03*
X464329Y328360D02*
D03*
X459264Y342945D02*
D03*
X521567Y378378D02*
D03*
X521764Y370602D02*
D03*
X531400Y380440D02*
D03*
X545780Y345209D02*
D03*
X546802Y336986D02*
D03*
X527669Y317059D02*
D03*
X520976Y311547D02*
D03*
X524126Y320012D02*
D03*
X507394Y311055D02*
D03*
X501390Y310957D02*
D03*
X500898Y316665D02*
D03*
X500799Y321291D02*
D03*
X485445Y312039D02*
D03*
X486527Y316075D02*
D03*
X485937Y320799D02*
D03*
X493811Y316567D02*
D03*
X494402Y312236D02*
D03*
X494598Y320504D02*
D03*
X466449Y311646D02*
D03*
X469697Y314303D02*
D03*
X458923Y312433D02*
D03*
X469598Y383594D02*
D03*
X504638Y375031D02*
D03*
X508083Y385071D02*
D03*
X494642Y385021D02*
D03*
X521764Y341272D02*
D03*
X526390Y337433D02*
D03*
X531409Y332020D02*
D03*
X552374Y331035D02*
D03*
X551581Y373122D02*
D03*
X554214Y375213D02*
D03*
X541899Y384972D02*
D03*
X550602Y400622D02*
D03*
X554539Y399933D02*
D03*
X541153Y392650D02*
D03*
X538299Y389402D02*
D03*
X538230Y394592D02*
D03*
X521961Y392945D02*
D03*
X480524Y418339D02*
D03*
X480425Y414500D02*
D03*
X507470Y379103D02*
D03*
X446665Y460661D02*
D03*
X446862Y470209D02*
D03*
X446764Y477787D02*
D03*
X447059Y486744D02*
D03*
X447256Y492748D02*
D03*
X453752Y487630D02*
D03*
Y492650D02*
D03*
X476581Y426624D02*
D03*
X477374Y435268D02*
D03*
X478260Y462236D02*
D03*
X477768Y473654D02*
D03*
X477571Y481626D02*
D03*
X485543Y462039D02*
D03*
Y473555D02*
D03*
X485248Y481232D02*
D03*
X470484Y487630D02*
D03*
X470386Y492748D02*
D03*
X476193Y487039D02*
D03*
X476390Y492748D02*
D03*
X485347Y487039D02*
D03*
X485248Y492650D02*
D03*
X493122Y486941D02*
D03*
Y492453D02*
D03*
X493713Y435268D02*
D03*
X487512Y435169D02*
D03*
X488102Y421193D02*
D03*
X488299Y415287D02*
D03*
X487906Y407610D02*
D03*
X521567Y426508D02*
D03*
X521764Y416468D02*
D03*
X521862Y407512D02*
D03*
X524421Y435661D02*
D03*
X516744Y435760D02*
D03*
X533237Y434889D02*
D03*
X518024Y460661D02*
D03*
X526390Y460268D02*
D03*
X518614Y473752D02*
D03*
X522453Y463221D02*
D03*
X522354Y477098D02*
D03*
X526193Y473555D02*
D03*
X518811Y481232D02*
D03*
X526193D02*
D03*
X510347Y487925D02*
D03*
X510740Y492748D02*
D03*
X518122Y486744D02*
D03*
X518024Y492748D02*
D03*
X526488Y486941D02*
D03*
X525996Y492748D02*
D03*
X534264Y487138D02*
D03*
X533968Y492354D02*
D03*
X557984Y442846D02*
D03*
X557886Y427591D02*
D03*
Y417158D02*
D03*
X557984Y409579D02*
D03*
X557787Y449441D02*
D03*
X552276Y452591D02*
D03*
X557787Y456429D02*
D03*
X557886Y464894D02*
D03*
Y471685D02*
D03*
X557787Y479067D02*
D03*
X551390Y487335D02*
D03*
X557984Y487039D02*
D03*
X551291Y492650D02*
D03*
X557886Y492453D02*
D03*
X555031Y490189D02*
D03*
X505721Y315976D02*
D03*
X513890Y320307D02*
D03*
X514874Y381315D02*
D03*
X536920Y336449D02*
D03*
X502374Y381724D02*
D03*
X494992Y349146D02*
D03*
X487118Y392650D02*
D03*
X462315Y399146D02*
D03*
X483575Y302000D02*
D03*
X547453Y374539D02*
D03*
X545022Y401325D02*
D03*
X493909Y400130D02*
D03*
X539579Y400425D02*
D03*
X557326Y325567D02*
D03*
Y319614D02*
D03*
Y313661D02*
D03*
X536921Y340583D02*
D03*
X519992Y335169D02*
D03*
X479582Y331658D02*
D03*
X494500Y301902D02*
D03*
X505425Y302000D02*
D03*
X463735Y314433D02*
D03*
X483673Y331823D02*
D03*
X487315Y331921D02*
D03*
X489227Y307445D02*
D03*
X517925Y320110D02*
D03*
X554835Y435760D02*
D03*
X506311Y415878D02*
D03*
X522157Y387827D02*
D03*
X476980Y420701D02*
D03*
X470780Y435169D02*
D03*
X500701Y367158D02*
D03*
X529216Y440950D02*
D03*
X534216Y455150D02*
D03*
X529216D02*
D03*
X453476Y450750D02*
D03*
X448476Y455150D02*
D03*
X453476D02*
D03*
X448476Y440950D02*
D03*
Y450750D02*
D03*
D25*
X278273Y128661D02*
D03*
Y110709D02*
D03*
X253387Y110642D02*
D03*
Y128594D02*
D03*
X396383Y128661D02*
D03*
Y110709D02*
D03*
X371498Y110642D02*
D03*
Y128594D02*
D03*
X514494Y128661D02*
D03*
Y110709D02*
D03*
X489608Y110642D02*
D03*
Y128594D02*
D03*
X278273Y325512D02*
D03*
Y307559D02*
D03*
X253387Y307492D02*
D03*
Y325445D02*
D03*
X396383Y325512D02*
D03*
Y307559D02*
D03*
X371498Y307492D02*
D03*
Y325445D02*
D03*
X514494Y325512D02*
D03*
Y307559D02*
D03*
X489608Y307492D02*
D03*
Y325445D02*
D03*
D26*
X305497Y119764D02*
D03*
X226164Y119539D02*
D03*
X423607Y119764D02*
D03*
X344274Y119539D02*
D03*
X541717Y119764D02*
D03*
X462384Y119539D02*
D03*
X305497Y316614D02*
D03*
X226164Y316390D02*
D03*
X423607Y316614D02*
D03*
X344274Y316390D02*
D03*
X541717Y316614D02*
D03*
X462384Y316390D02*
D03*
D27*
X257079Y247108D02*
D03*
X275031D02*
D03*
X315402Y194388D02*
D03*
X297449D02*
D03*
X257079D02*
D03*
X275031D02*
D03*
X216709D02*
D03*
X234661D02*
D03*
X315402Y247108D02*
D03*
X297449D02*
D03*
X234661D02*
D03*
X216709D02*
D03*
X375189D02*
D03*
X393142D02*
D03*
X433512Y194388D02*
D03*
X415559D02*
D03*
X375189D02*
D03*
X393142D02*
D03*
X334819D02*
D03*
X352771D02*
D03*
X433512Y247108D02*
D03*
X415559D02*
D03*
X352771D02*
D03*
X334819D02*
D03*
X493299D02*
D03*
X511252D02*
D03*
X551622Y194388D02*
D03*
X533669D02*
D03*
X493299D02*
D03*
X511252D02*
D03*
X452929D02*
D03*
X470882D02*
D03*
X551622Y247108D02*
D03*
X533669D02*
D03*
X470882D02*
D03*
X452929D02*
D03*
X257079Y443958D02*
D03*
X275031D02*
D03*
X315402Y391238D02*
D03*
X297449D02*
D03*
X257079D02*
D03*
X275031D02*
D03*
X216709D02*
D03*
X234661D02*
D03*
X315402Y443958D02*
D03*
X297449D02*
D03*
X234661D02*
D03*
X216709D02*
D03*
X375189D02*
D03*
X393142D02*
D03*
X433512Y391238D02*
D03*
X415559D02*
D03*
X375189D02*
D03*
X393142D02*
D03*
X334819D02*
D03*
X352771D02*
D03*
X433512Y443958D02*
D03*
X415559D02*
D03*
X352771D02*
D03*
X334819D02*
D03*
X493299D02*
D03*
X511252D02*
D03*
X551622Y391238D02*
D03*
X533669D02*
D03*
X493299D02*
D03*
X511252D02*
D03*
X452929D02*
D03*
X470882D02*
D03*
X551622Y443958D02*
D03*
X533669D02*
D03*
X470882D02*
D03*
X452929D02*
D03*
D28*
X265977Y274332D02*
D03*
X306347Y221612D02*
D03*
X266055D02*
D03*
X225606D02*
D03*
X306347Y274332D02*
D03*
X225606D02*
D03*
X384087D02*
D03*
X424457Y221612D02*
D03*
X384165D02*
D03*
X343717D02*
D03*
X424457Y274332D02*
D03*
X343717D02*
D03*
X502197D02*
D03*
X542567Y221612D02*
D03*
X502276D02*
D03*
X461827D02*
D03*
X542567Y274332D02*
D03*
X461827D02*
D03*
X265977Y471182D02*
D03*
X306347Y418462D02*
D03*
X266055D02*
D03*
X225606D02*
D03*
X306347Y471182D02*
D03*
X225606D02*
D03*
X384087D02*
D03*
X424457Y418462D02*
D03*
X384165D02*
D03*
X343717D02*
D03*
X424457Y471182D02*
D03*
X343717D02*
D03*
X502197D02*
D03*
X542567Y418462D02*
D03*
X502276D02*
D03*
X461827D02*
D03*
X542567Y471182D02*
D03*
X461827D02*
D03*
D29*
X219106Y153751D02*
D03*
Y177894D02*
D03*
X337216Y153751D02*
D03*
Y177894D02*
D03*
X455327Y153751D02*
D03*
Y177894D02*
D03*
X219106Y350601D02*
D03*
Y374745D02*
D03*
X337216Y350601D02*
D03*
Y374745D02*
D03*
X455327Y350601D02*
D03*
Y374745D02*
D03*
D30*
X254047Y164500D02*
D03*
X254047Y171980D02*
D03*
X243811Y171980D02*
D03*
X243811Y168240D02*
D03*
X243811Y164500D02*
D03*
X372158Y164500D02*
D03*
X372157Y171980D02*
D03*
X361921Y171980D02*
D03*
X361921Y168240D02*
D03*
X361922Y164500D02*
D03*
X490268Y164500D02*
D03*
X490268Y171980D02*
D03*
X480031Y171980D02*
D03*
X480031Y168240D02*
D03*
X480032Y164500D02*
D03*
X254047Y361351D02*
D03*
X254047Y368831D02*
D03*
X243811Y368830D02*
D03*
X243811Y365090D02*
D03*
X243811Y361350D02*
D03*
X372158Y361351D02*
D03*
X372157Y368831D02*
D03*
X361921Y368830D02*
D03*
X361921Y365090D02*
D03*
X361922Y361350D02*
D03*
X490268Y361351D02*
D03*
X490268Y368831D02*
D03*
X480031Y368830D02*
D03*
X480031Y365090D02*
D03*
X480032Y361350D02*
D03*
D31*
X301882Y168633D02*
D03*
Y176115D02*
D03*
X419992Y168633D02*
D03*
Y176115D02*
D03*
X538102Y168633D02*
D03*
Y176115D02*
D03*
X301882Y365484D02*
D03*
Y372965D02*
D03*
X419992Y365484D02*
D03*
Y372965D02*
D03*
X538102Y365484D02*
D03*
Y372965D02*
D03*
D32*
X276067Y140878D02*
D03*
X394177D02*
D03*
X512288D02*
D03*
X276067Y337728D02*
D03*
X394177D02*
D03*
X512288D02*
D03*
D33*
X240053Y125700D02*
D03*
X358164D02*
D03*
X476274D02*
D03*
X240053Y322550D02*
D03*
X358164D02*
D03*
X476274D02*
D03*
D34*
X266080Y124638D02*
D03*
X384190D02*
D03*
X502300D02*
D03*
X266080Y321488D02*
D03*
X384190D02*
D03*
X502300D02*
D03*
D35*
X288064Y125105D02*
D03*
X406174D02*
D03*
X524284D02*
D03*
X288064Y321956D02*
D03*
X406174D02*
D03*
X524284D02*
D03*
D36*
X317612Y131626D02*
D03*
X435722D02*
D03*
X553833D02*
D03*
X317612Y328476D02*
D03*
X435722D02*
D03*
X553833D02*
D03*
D37*
X225606Y290634D02*
D03*
X265977D02*
D03*
X306347D02*
D03*
X343717D02*
D03*
X384087D02*
D03*
X424457D02*
D03*
X461827D02*
D03*
X502197D02*
D03*
X542567D02*
D03*
X225606Y487484D02*
D03*
X265977D02*
D03*
X306347D02*
D03*
X343717D02*
D03*
X384087D02*
D03*
X424457D02*
D03*
X461827D02*
D03*
X502197D02*
D03*
X542567D02*
D03*
D38*
X266154Y119569D02*
D03*
X384264D02*
D03*
X502374D02*
D03*
X266154Y316419D02*
D03*
X384264D02*
D03*
X502374D02*
D03*
D39*
X216712Y198800D02*
D03*
X257083D02*
D03*
X297453D02*
D03*
X334823D02*
D03*
X375193D02*
D03*
X415563D02*
D03*
X452933D02*
D03*
X493303D02*
D03*
X533673D02*
D03*
X216712Y395650D02*
D03*
X257083D02*
D03*
X297453D02*
D03*
X334823D02*
D03*
X375193D02*
D03*
X415563D02*
D03*
X452933D02*
D03*
X493303D02*
D03*
X533673D02*
D03*
D40*
X253985Y203378D02*
D03*
X372095D02*
D03*
X490205D02*
D03*
X253985Y400228D02*
D03*
X372095D02*
D03*
X490205D02*
D03*
D41*
X295445Y251000D02*
D03*
X255075D02*
D03*
X214705D02*
D03*
X413555D02*
D03*
X373185D02*
D03*
X332815D02*
D03*
X531666D02*
D03*
X491296D02*
D03*
X450926D02*
D03*
X295445Y447850D02*
D03*
X255075D02*
D03*
X214705D02*
D03*
X413555D02*
D03*
X373185D02*
D03*
X332815D02*
D03*
X531666D02*
D03*
X491296D02*
D03*
X450926D02*
D03*
M02*
