G04*
G04 #@! TF.GenerationSoftware,Altium Limited,Altium Designer,20.1.11 (218)*
G04*
G04 Layer_Color=16711935*
%FSLAX25Y25*%
%MOIN*%
G70*
G04*
G04 #@! TF.SameCoordinates,9421AAF7-A1CE-47F4-AB83-8062CB6876A7*
G04*
G04*
G04 #@! TF.FilePolarity,Positive*
G04*
G01*
G75*
%ADD19C,0.01000*%
D19*
X560700Y102500D02*
X560800Y102600D01*
Y494900D01*
X207600Y102500D02*
X560700D01*
X207600Y495200D02*
X207600Y102500D01*
X207600Y495200D02*
X560500D01*
X560800Y494900D01*
X443261Y102500D02*
X443261Y495200D01*
X325100D02*
X325100Y102500D01*
X207600Y298800D02*
X560800Y298800D01*
X207000Y298850D02*
X325110D01*
Y102000D02*
Y298850D01*
X207000Y102000D02*
X325110D01*
X207000D02*
Y298850D01*
X325110D02*
X443221D01*
Y102000D02*
Y298850D01*
X325110Y102000D02*
X443221D01*
X325110D02*
Y298850D01*
X443221D02*
X561331D01*
Y102000D02*
Y298850D01*
X443221Y102000D02*
X561331D01*
X443221D02*
Y298850D01*
X207000Y495701D02*
X325110D01*
Y298850D02*
Y495701D01*
X207000Y298850D02*
X325110D01*
X207000D02*
Y495701D01*
X325110D02*
X443221D01*
Y298850D02*
Y495701D01*
X325110Y298850D02*
X443221D01*
X325110D02*
Y495701D01*
X443221D02*
X561331D01*
Y298850D02*
Y495701D01*
X443221Y298850D02*
X561331D01*
X443221D02*
Y495701D01*
M02*
