G04*
G04 #@! TF.GenerationSoftware,Altium Limited,Altium Designer,20.1.11 (218)*
G04*
G04 Layer_Color=255*
%FSLAX25Y25*%
%MOIN*%
G70*
G04*
G04 #@! TF.SameCoordinates,9421AAF7-A1CE-47F4-AB83-8062CB6876A7*
G04*
G04*
G04 #@! TF.FilePolarity,Positive*
G04*
G01*
G75*
%ADD11R,0.03543X0.03150*%
%ADD12R,0.05906X0.05906*%
%ADD13C,0.05906*%
%ADD14R,0.03150X0.03543*%
%ADD25R,0.07874X0.04724*%
%ADD26R,0.26378X0.23622*%
%ADD27R,0.04724X0.07874*%
%ADD28R,0.23622X0.26378*%
%ADD29R,0.13606X0.05049*%
%ADD30R,0.03937X0.02362*%
%ADD31R,0.10630X0.05906*%
%ADD32R,0.05906X0.05906*%
D11*
X291744Y169422D02*
D03*
Y174933D02*
D03*
X305917Y138417D02*
D03*
Y143928D02*
D03*
X409854Y169422D02*
D03*
Y174933D02*
D03*
X424027Y138417D02*
D03*
Y143928D02*
D03*
X527965Y169422D02*
D03*
Y174933D02*
D03*
X542138Y138417D02*
D03*
Y143928D02*
D03*
X291744Y366272D02*
D03*
Y371783D02*
D03*
X305917Y335268D02*
D03*
Y340779D02*
D03*
X409854Y366272D02*
D03*
Y371783D02*
D03*
X424027Y335268D02*
D03*
Y340779D02*
D03*
X527965Y366272D02*
D03*
Y371783D02*
D03*
X542138Y335268D02*
D03*
Y340779D02*
D03*
D12*
X316055Y169972D02*
D03*
X434165D02*
D03*
X552276D02*
D03*
X316055Y366823D02*
D03*
X434165D02*
D03*
X552276D02*
D03*
D13*
X316055Y139972D02*
D03*
Y149972D02*
D03*
Y159972D02*
D03*
X266067Y140878D02*
D03*
X256067D02*
D03*
X434165Y139972D02*
D03*
Y149972D02*
D03*
Y159972D02*
D03*
X384177Y140878D02*
D03*
X374177D02*
D03*
X552276Y139972D02*
D03*
Y149972D02*
D03*
Y159972D02*
D03*
X502288Y140878D02*
D03*
X492288D02*
D03*
X316055Y336823D02*
D03*
Y346823D02*
D03*
Y356823D02*
D03*
X266067Y337728D02*
D03*
X256067D02*
D03*
X434165Y336823D02*
D03*
Y346823D02*
D03*
Y356823D02*
D03*
X384177Y337728D02*
D03*
X374177D02*
D03*
X552276Y336823D02*
D03*
Y346823D02*
D03*
Y356823D02*
D03*
X502288Y337728D02*
D03*
X492288D02*
D03*
D14*
X237019Y157020D02*
D03*
X231508D02*
D03*
Y164402D02*
D03*
X237019D02*
D03*
X246371Y177000D02*
D03*
X251882D02*
D03*
X231607Y171980D02*
D03*
X237118D02*
D03*
X298339Y161350D02*
D03*
X303850D02*
D03*
X305622Y182905D02*
D03*
X300111D02*
D03*
X355130Y157020D02*
D03*
X349619D02*
D03*
Y164402D02*
D03*
X355130D02*
D03*
X364481Y177000D02*
D03*
X369992D02*
D03*
X349717Y171980D02*
D03*
X355228D02*
D03*
X416450Y161350D02*
D03*
X421961D02*
D03*
X423732Y182905D02*
D03*
X418221D02*
D03*
X473240Y157020D02*
D03*
X467729D02*
D03*
Y164402D02*
D03*
X473240D02*
D03*
X482591Y177000D02*
D03*
X488102D02*
D03*
X467827Y171980D02*
D03*
X473338D02*
D03*
X534560Y161350D02*
D03*
X540071D02*
D03*
X541843Y182905D02*
D03*
X536332D02*
D03*
X237019Y353870D02*
D03*
X231508D02*
D03*
Y361252D02*
D03*
X237019D02*
D03*
X246371Y373850D02*
D03*
X251882D02*
D03*
X231607Y368831D02*
D03*
X237118D02*
D03*
X298339Y358201D02*
D03*
X303850D02*
D03*
X305622Y379756D02*
D03*
X300111D02*
D03*
X355130Y353870D02*
D03*
X349619D02*
D03*
Y361252D02*
D03*
X355130D02*
D03*
X364481Y373850D02*
D03*
X369992D02*
D03*
X349717Y368831D02*
D03*
X355228D02*
D03*
X416450Y358201D02*
D03*
X421961D02*
D03*
X423732Y379756D02*
D03*
X418221D02*
D03*
X473240Y353870D02*
D03*
X467729D02*
D03*
Y361252D02*
D03*
X473240D02*
D03*
X482591Y373850D02*
D03*
X488102D02*
D03*
X467827Y368831D02*
D03*
X473338D02*
D03*
X534560Y358201D02*
D03*
X540071D02*
D03*
X541843Y379756D02*
D03*
X536332D02*
D03*
D25*
X278273Y128661D02*
D03*
Y110709D02*
D03*
X253387Y110642D02*
D03*
Y128594D02*
D03*
X396383Y128661D02*
D03*
Y110709D02*
D03*
X371498Y110642D02*
D03*
Y128594D02*
D03*
X514494Y128661D02*
D03*
Y110709D02*
D03*
X489608Y110642D02*
D03*
Y128594D02*
D03*
X278273Y325512D02*
D03*
Y307559D02*
D03*
X253387Y307492D02*
D03*
Y325445D02*
D03*
X396383Y325512D02*
D03*
Y307559D02*
D03*
X371498Y307492D02*
D03*
Y325445D02*
D03*
X514494Y325512D02*
D03*
Y307559D02*
D03*
X489608Y307492D02*
D03*
Y325445D02*
D03*
D26*
X305497Y119764D02*
D03*
X226164Y119539D02*
D03*
X423607Y119764D02*
D03*
X344274Y119539D02*
D03*
X541717Y119764D02*
D03*
X462384Y119539D02*
D03*
X305497Y316614D02*
D03*
X226164Y316390D02*
D03*
X423607Y316614D02*
D03*
X344274Y316390D02*
D03*
X541717Y316614D02*
D03*
X462384Y316390D02*
D03*
D27*
X257079Y247108D02*
D03*
X275031D02*
D03*
X315402Y194388D02*
D03*
X297449D02*
D03*
X257079D02*
D03*
X275031D02*
D03*
X216709D02*
D03*
X234661D02*
D03*
X315402Y247108D02*
D03*
X297449D02*
D03*
X234661D02*
D03*
X216709D02*
D03*
X375189D02*
D03*
X393142D02*
D03*
X433512Y194388D02*
D03*
X415559D02*
D03*
X375189D02*
D03*
X393142D02*
D03*
X334819D02*
D03*
X352771D02*
D03*
X433512Y247108D02*
D03*
X415559D02*
D03*
X352771D02*
D03*
X334819D02*
D03*
X493299D02*
D03*
X511252D02*
D03*
X551622Y194388D02*
D03*
X533669D02*
D03*
X493299D02*
D03*
X511252D02*
D03*
X452929D02*
D03*
X470882D02*
D03*
X551622Y247108D02*
D03*
X533669D02*
D03*
X470882D02*
D03*
X452929D02*
D03*
X257079Y443958D02*
D03*
X275031D02*
D03*
X315402Y391238D02*
D03*
X297449D02*
D03*
X257079D02*
D03*
X275031D02*
D03*
X216709D02*
D03*
X234661D02*
D03*
X315402Y443958D02*
D03*
X297449D02*
D03*
X234661D02*
D03*
X216709D02*
D03*
X375189D02*
D03*
X393142D02*
D03*
X433512Y391238D02*
D03*
X415559D02*
D03*
X375189D02*
D03*
X393142D02*
D03*
X334819D02*
D03*
X352771D02*
D03*
X433512Y443958D02*
D03*
X415559D02*
D03*
X352771D02*
D03*
X334819D02*
D03*
X493299D02*
D03*
X511252D02*
D03*
X551622Y391238D02*
D03*
X533669D02*
D03*
X493299D02*
D03*
X511252D02*
D03*
X452929D02*
D03*
X470882D02*
D03*
X551622Y443958D02*
D03*
X533669D02*
D03*
X470882D02*
D03*
X452929D02*
D03*
D28*
X265977Y274332D02*
D03*
X306347Y221612D02*
D03*
X266055D02*
D03*
X225606D02*
D03*
X306347Y274332D02*
D03*
X225606D02*
D03*
X384087D02*
D03*
X424457Y221612D02*
D03*
X384165D02*
D03*
X343717D02*
D03*
X424457Y274332D02*
D03*
X343717D02*
D03*
X502197D02*
D03*
X542567Y221612D02*
D03*
X502276D02*
D03*
X461827D02*
D03*
X542567Y274332D02*
D03*
X461827D02*
D03*
X265977Y471182D02*
D03*
X306347Y418462D02*
D03*
X266055D02*
D03*
X225606D02*
D03*
X306347Y471182D02*
D03*
X225606D02*
D03*
X384087D02*
D03*
X424457Y418462D02*
D03*
X384165D02*
D03*
X343717D02*
D03*
X424457Y471182D02*
D03*
X343717D02*
D03*
X502197D02*
D03*
X542567Y418462D02*
D03*
X502276D02*
D03*
X461827D02*
D03*
X542567Y471182D02*
D03*
X461827D02*
D03*
D29*
X219106Y153751D02*
D03*
Y177894D02*
D03*
X337216Y153751D02*
D03*
Y177894D02*
D03*
X455327Y153751D02*
D03*
Y177894D02*
D03*
X219106Y350601D02*
D03*
Y374745D02*
D03*
X337216Y350601D02*
D03*
Y374745D02*
D03*
X455327Y350601D02*
D03*
Y374745D02*
D03*
D30*
X254047Y164500D02*
D03*
X254047Y171980D02*
D03*
X243811Y171980D02*
D03*
X243811Y168240D02*
D03*
X243811Y164500D02*
D03*
X372158Y164500D02*
D03*
X372157Y171980D02*
D03*
X361921Y171980D02*
D03*
X361921Y168240D02*
D03*
X361922Y164500D02*
D03*
X490268Y164500D02*
D03*
X490268Y171980D02*
D03*
X480031Y171980D02*
D03*
X480031Y168240D02*
D03*
X480032Y164500D02*
D03*
X254047Y361351D02*
D03*
X254047Y368831D02*
D03*
X243811Y368830D02*
D03*
X243811Y365090D02*
D03*
X243811Y361350D02*
D03*
X372158Y361351D02*
D03*
X372157Y368831D02*
D03*
X361921Y368830D02*
D03*
X361921Y365090D02*
D03*
X361922Y361350D02*
D03*
X490268Y361351D02*
D03*
X490268Y368831D02*
D03*
X480031Y368830D02*
D03*
X480031Y365090D02*
D03*
X480032Y361350D02*
D03*
D31*
X301882Y168633D02*
D03*
Y176115D02*
D03*
X419992Y168633D02*
D03*
Y176115D02*
D03*
X538102Y168633D02*
D03*
Y176115D02*
D03*
X301882Y365484D02*
D03*
Y372965D02*
D03*
X419992Y365484D02*
D03*
Y372965D02*
D03*
X538102Y365484D02*
D03*
Y372965D02*
D03*
D32*
X276067Y140878D02*
D03*
X394177D02*
D03*
X512288D02*
D03*
X276067Y337728D02*
D03*
X394177D02*
D03*
X512288D02*
D03*
M02*
