M48
;Layer_Color=9474304
;FILE_FORMAT=2:5
INCH,TZ
;TYPE=PLATED
T1F00S00C0.01575
%
T01
X222703Y115583
X227515Y117583
X230228Y114795
X233476Y117453
X244402Y120307
X250307Y119224
X249224Y115189
X253007Y110594
X258181Y115386
X257591Y119717
X258378Y123653
X264579Y124441
X264677Y119815
X269500Y119126
X271173Y114205
X265169Y114106
X269205Y105150
X258279Y105051
X247354Y105150
X249716Y123949
X251095Y135071
X247453Y134972
X243361Y134807
X236429Y136547
X228108Y131509
X228161Y143535
X223043Y146095
X224126Y154067
X239382Y149441
X244303Y153575
X258772Y152295
X261134Y149933
X263988Y151902
X273339Y154165
X274717Y149739
X270484Y146095
X285543Y144421
X283772Y138319
X290169Y140583
X295189Y135169
X295091Y127984
X291449Y120209
X287906Y123161
X281705Y123260
X277669Y123457
X276685Y128673
X262413Y133693
X258870Y132513
X250799Y140484
X300700Y139598
X300701Y143732
X306606Y149638
X309559Y148358
X310581Y140136
X305819Y129165
X303161Y119913
Y112138
X284067Y110563
X284756Y114697
X315102Y116811
Y122764
Y128716
X321106
Y122764
Y116811
X321272Y135760
X316154Y134185
X346219Y131509
X346272Y143535
X341154Y146095
X342236Y154067
X357492Y149441
X362413Y153575
X376882Y152295
X379244Y149933
X382098Y151902
X391449Y154165
X392827Y149739
X388595Y146095
X403653Y144421
X401882Y138319
X408280Y140583
X413299Y135169
X413201Y127984
X409559Y120209
X406016Y123161
X399815Y123260
X395779Y123457
X394795Y128673
X382689Y124441
X382787Y119815
X387610Y119126
X389283Y114205
X383279Y114106
X376291Y115386
X375701Y119717
X376488Y123653
X367827Y123949
X368417Y119224
X367335Y115189
X371117Y110594
X376390Y105051
X365465Y105150
X362512Y120307
X351587Y117453
X348339Y114795
X345625Y117583
X340813Y115583
X354539Y136547
X361472Y134807
X365563Y134972
X369205Y135071
X368910Y140484
X376980Y132513
X380524Y133693
X387315Y105150
X402177Y110563
X402866Y114697
X421272Y112138
Y119913
X423929Y129165
X433212Y128716
Y122764
Y116811
X439216
Y122764
Y128716
X439382Y135760
X434264Y134185
X428692Y140136
X427669Y148358
X424717Y149638
X418811Y143732
X418810Y139598
X459264Y146095
X464382Y143535
X464329Y131509
X463735Y117583
X466449Y114795
X458923Y115583
X460347Y154067
X475602Y149441
X480524Y153575
X494992Y152295
X497354Y149933
X500209Y151902
X509559Y154165
X510937Y149739
X506705Y146095
X521764Y144421
X519992Y138319
X526390Y140583
X531409Y135169
X531311Y127984
X527669Y120209
X524126Y123161
X517925Y123260
X513890Y123457
X512906Y128673
X500799Y124441
X500898Y119815
X505721Y119126
X507394Y114205
X501390Y114106
X494402Y115386
X493811Y119717
X494598Y123653
X485937Y123949
X486527Y119224
X485445Y115189
X489227Y110594
X494500Y105051
X483575Y105150
X480622Y120307
X469697Y117453
X472650Y136547
X479582Y134807
X483673Y134972
X487315Y135071
X487020Y140484
X495090Y132513
X498634Y133693
X505425Y105150
X520287Y110563
X520976Y114697
X539382Y112138
Y119913
X542039Y129165
X551322Y128716
Y122764
Y116811
X557326
Y122764
Y128716
X557492Y135760
X552374Y134185
X546802Y140136
X545780Y148358
X542827Y149638
X536921Y143732
X536920Y139598
X530721Y160465
X525996Y160661
X512618Y160646
X509756Y159776
X510543Y162827
X499323Y167456
X500701Y170307
X504638Y178181
X507470Y182253
X508083Y188221
X511036Y187536
X514874Y184465
X521567Y181527
X521764Y173752
X522157Y190976
X521961Y196095
X510150Y197079
X502374Y184874
X494642Y188171
X488594Y193043
X487118Y195799
X480622Y197079
X481705Y188024
X482590Y184972
X469598Y186744
X470878Y196390
X475012Y177591
X475642Y168253
X485642Y171980
X492172Y177335
X493909Y203279
X487906Y210760
X480425Y210268
Y217650
X480524Y221488
X476980Y223850
X476581Y229773
X477374Y238417
X470780Y238319
X487512
X493713Y238417
X488846Y244100
X488693Y250721
X491449Y252590
X494008Y254165
X493846Y258300
X488846
X485543Y265189
X478260Y265386
X477768Y276803
X485543Y276705
X485248Y284382
X485347Y290189
X485248Y295799
X483575Y302000
X494500Y301902
X493122Y295602
Y290090
X476193Y290189
X476390Y295898
X470386
X470484Y290779
X477571Y284776
X489227Y307445
X485445Y312039
X494402Y312236
X501390Y310957
X507394Y311055
X505425Y302000
X510740Y295898
X510347Y291075
X518122Y289894
X518024Y295898
X525996
X526488Y290090
X526193Y284382
X518811
X518614Y276902
X522354Y280248
X526193Y276705
X526390Y263417
X522453Y266370
X518024Y263811
X529216Y258300
X534216
X534378Y254165
X531819Y252590
X529063Y250721
X529216Y244100
X533237Y238039
X524421Y238811
X516744Y238909
X511331Y239008
X521567Y229658
X521764Y219618
X521862Y210661
X506311Y219028
X488299Y218437
X488102Y224342
X535347Y221587
X539579Y203575
X545022Y204474
X550602Y203772
X554539Y203083
X556316Y194741
X554638Y187630
X548239Y187190
X541899Y188122
X538299Y192551
X538230Y197742
X541153Y195799
X531400Y183590
X547453Y177689
X551581Y176272
X554214Y178363
X552276Y169972
X544931Y161885
X557984Y212728
X557886Y220307
Y230740
X554835Y238909
X557984Y245996
X557787Y252590
Y259579
X557886Y268043
Y274835
X557787Y282217
X557984Y290189
X557886Y295602
X555031Y293339
X551291Y295799
X551390Y290484
X534264Y290287
X533968Y295504
X539382Y308988
X520287Y307413
X520976Y311547
X552276Y255740
X453476Y253900
Y258300
X448476
Y253900
Y248900
Y244100
X439874Y245996
X439677Y252590
Y259579
X439776Y268043
Y274835
X439677Y282217
X439874Y290189
X439776Y295602
X436921Y293339
X433181Y295799
X433280Y290484
X447059Y289894
X447256Y295898
X453752Y295799
Y290779
X446764Y280937
X446862Y273358
X446665Y263811
X434165Y255740
X436724Y238909
X439776Y230740
Y220307
X439874Y212728
X436429Y203083
X432492Y203772
X426912Y204474
X421468Y203575
X420120Y197742
X423043Y195799
X420189Y192551
X423789Y188122
X430129Y187190
X436527Y187630
X438206Y194741
X436104Y178363
X433471Y176272
X429343Y177689
X434165Y169972
X426821Y161885
X412610Y160465
X407886Y160661
X394508Y160646
X391646Y159776
X392433Y162827
X381212Y167456
X382591Y170307
X386527Y178181
X389360Y182253
X389972Y188221
X392926Y187536
X396764Y184465
X403457Y181527
X403653Y173752
X404047Y190976
X403850Y196095
X392039Y197079
X384264Y184874
X376532Y188171
X370484Y193043
X369008Y195799
X362512Y197079
X363595Y188024
X364480Y184972
X351488Y186744
X352768Y196390
X344205Y202295
X362315Y210268
Y217650
X362413Y221488
X358870Y223850
X358471Y229773
X359264Y238417
X352669Y238319
X369402
X375602Y238417
X370735Y244100
X370583Y250721
X373339Y252590
X375898Y254165
X375735Y258300
X370735
X367433Y265189
X360150Y265386
X359658Y276803
X367433Y276705
X367138Y284382
X367236Y290189
X367138Y295799
X365465Y302000
X376390Y301902
X375012Y295602
Y290090
X358083Y290189
X358279Y295898
X352276
X352374Y290779
X359461Y284776
X335642Y290779
Y295799
X329146Y295898
X328949Y289894
X321764Y290189
X321665Y295602
X318811Y293339
X315071Y295799
X315169Y290484
X321567Y282217
X321665Y274835
Y268043
X321567Y259579
Y252590
X321764Y245996
X318614Y238909
X321665Y230740
Y220307
X321764Y212728
X318319Y203083
X314382Y203772
X320096Y194741
X318417Y187630
X317994Y178363
X315360Y176272
X316055Y169972
X339972Y166961
X340661Y163319
X344500Y165091
X342234Y169031
X357532Y168253
X356902Y177591
X367531Y171980
X374062Y177335
X375799Y203279
X369795Y210760
X370189Y218437
X369992Y224342
X388201Y219028
X403653Y219618
X403752Y210661
X403457Y229658
X406311Y238811
X398634Y238909
X393220Y239008
X415127Y238039
X411105Y244100
X410953Y250721
X413709Y252590
X416268Y254165
X416106Y258300
X411105
X408280Y263417
X404343Y266370
X399913Y263811
X400504Y276902
X404244Y280248
X408083Y276705
Y284382
X408378Y290090
X407886Y295898
X399913
X400012Y289894
X400701Y284382
X392236Y291075
X392630Y295898
X387315Y302000
X389283Y311055
X383279Y310957
X376291Y312236
X367335Y312039
X371117Y307445
X348339Y311646
X340813Y312433
X328654Y280937
X328752Y273358
X328555Y263811
X330365Y258300
Y253900
Y248900
Y244100
X335365Y253900
Y258300
X316055Y255740
X416153Y290287
X415858Y295504
X421272Y308988
X402177Y307413
X402866Y311547
X458923Y312433
X466449Y311646
X462315Y202295
X460344Y169031
X458083Y166961
X458772Y163319
X462610Y165091
X413290Y183590
X417236Y221587
X299126
X285543Y219618
X285642Y210661
X285740Y196095
X285937Y190976
X285346Y181527
X285543Y173752
X289776Y160661
X294500Y160465
X308710Y161885
X311232Y177689
X312018Y187190
X305679Y188122
X302079Y192551
X302009Y197742
X304933Y195799
X303358Y203575
X308802Y204474
X295180Y183590
X278654Y184465
X274815Y187536
X271862Y188221
X271249Y182253
X268417Y178181
X266154Y184874
X258421Y188171
X252374Y193043
X250898Y195799
X244402Y197079
X245484Y188024
X246370Y184972
X233378Y186744
X234658Y196390
X226095Y202295
X244205Y210268
Y217650
X244303Y221488
X240760Y223850
X240361Y229773
X241154Y238417
X234559Y238319
X251291
X257492Y238417
X252625Y244100
X252472Y250721
X255228Y252590
X257787Y254165
X257625Y258300
X252625
X249323Y265189
X242039Y265386
X241547Y276803
X249323Y276705
X249027Y284382
X249126Y290189
X249027Y295799
X247354Y302000
X258279Y301902
X256902Y295602
Y290090
X239972Y290189
X240169Y295898
X234165
X234264Y290779
X241350Y284776
X217531Y290779
Y295799
X211035Y295898
X210839Y289894
X210543Y280937
X210642Y273358
X210445Y263811
X212255Y258300
Y253900
Y248900
Y244100
X217255Y253900
Y258300
X222703Y312433
X230228Y311646
X249224Y312039
X253007Y307445
X258181Y312236
X265169Y310957
X271173Y311055
X269205Y302000
X274520Y295898
X274126Y291075
X281902Y289894
X281803Y295898
X289776
X290268Y290090
X289972Y284382
X282591
X282394Y276902
X286134Y280248
X289972Y276705
X290169Y263417
X286232Y266370
X281803Y263811
X292995Y258300
X297995
X298158Y254165
X295598Y252590
X292843Y250721
X292995Y244100
X297017Y238039
X288201Y238811
X280524Y238909
X275110Y239008
X285346Y229658
X270091Y219028
X252079Y218437
X251882Y224342
X251685Y210760
X257689Y203279
X273929Y197079
X274323Y162827
X273535Y159776
X276398Y160646
X263102Y167456
X264480Y170307
X255952Y177335
X249421Y171980
X239421Y168253
X238791Y177591
X224124Y169031
X221862Y166961
X222551Y163319
X226390Y165091
X298043Y290287
X297748Y295504
X303161Y308988
X284067Y307413
X284756Y311547
X287906Y320012
X281705Y320110
X277669Y320307
X276685Y325524
X264579Y321291
X264677Y316665
X269500Y315976
X257591Y316567
X258378Y320504
X249716Y320799
X250307Y316075
X244402Y317158
X233476Y314303
X227515Y314433
X228108Y328360
X228161Y340386
X223043Y342945
X224126Y350917
X222551Y360169
X221862Y363811
X224124Y365881
X226390Y361941
X239421Y365103
X238791Y374441
X233378Y383594
X234658Y393240
X244402Y393929
X250898Y392650
X252374Y389894
X258421Y385021
X266154Y381724
X271249Y379103
X271862Y385071
X274815Y384386
X278654Y381315
X285346Y378378
X285543Y370602
X289776Y357512
X294500Y357315
X308710Y358735
X306606Y346488
X309559Y345209
X310581Y336986
X300700Y336449
X300701Y340583
X290169Y337433
X285543Y341272
X283772Y335169
X295189Y332020
X295091Y324835
X291449Y317059
X303161Y316764
X305819Y326016
X262413Y330543
X258870Y329364
X251095Y331921
X247453Y331823
X243361Y331658
X236429Y333398
X239382Y346291
X244303Y350425
X258772Y349146
X261134Y346783
X263988Y348752
X273339Y351016
X274717Y346589
X270484Y342945
X273535Y356626
X276398Y357496
X274323Y359677
X263102Y364306
X264480Y367158
X268417Y375031
X255952Y374185
X249421Y368831
X246370Y381823
X245484Y384874
X244205Y407118
Y414500
X244303Y418339
X240760Y420701
X240361Y426624
X241154Y435268
X234559Y435169
X251291
X257492Y435268
X252625Y440950
X252472Y447571
X255228Y449441
X257787Y451016
X257625Y455150
X252625
X249323Y462039
X242039Y462236
X217255Y455150
Y450750
X212255
Y455150
X210445Y460661
X212255Y445750
Y440950
X226095Y399146
X257689Y400130
X251685Y407610
X252079Y415287
X251882Y421193
X270091Y415878
X285543Y416468
X285642Y407512
X285740Y392945
X285937Y387827
X295180Y380440
X305679Y384972
X312018Y384040
X311232Y374539
X302079Y389402
X302009Y394592
X304933Y392650
X303358Y400425
X308802Y401325
X299126Y418437
X297017Y434889
X288201Y435661
X280524Y435760
X275110Y435858
X285346Y426508
X292995Y440950
X292843Y447571
X295598Y449441
X298158Y451016
X297995Y455150
X292995
X290169Y460268
X286232Y463221
X281803Y460661
X273929Y393929
X250799Y337335
X316154Y331035
X315102Y325567
Y319614
Y313661
X321106
Y319614
Y325567
X321272Y332610
X346219Y328360
X346272Y340386
X341154Y342945
X342236Y350917
X340661Y360169
X339972Y363811
X342234Y365881
X344500Y361941
X357532Y365103
X356902Y374441
X351488Y383594
X352768Y393240
X362512Y393929
X369008Y392650
X370484Y389894
X376532Y385021
X384264Y381724
X389360Y379103
X389972Y385071
X392926Y384386
X396764Y381315
X403457Y378378
X403653Y370602
X407886Y357512
X412610Y357315
X426821Y358735
X424717Y346488
X427669Y345209
X428692Y336986
X418810Y336449
X418811Y340583
X408280Y337433
X403653Y341272
X401882Y335169
X413299Y332020
X413201Y324835
X409559Y317059
X406016Y320012
X399815Y320110
X395779Y320307
X394795Y325524
X382689Y321291
X382787Y316665
X387610Y315976
X375701Y316567
X376488Y320504
X367827Y320799
X368417Y316075
X362512Y317158
X351587Y314303
X345625Y314433
X354539Y333398
X361472Y331658
X365563Y331823
X369205Y331921
X368910Y337335
X376980Y329364
X380524Y330543
X379244Y346783
X376882Y349146
X382098Y348752
X391449Y351016
X392827Y346589
X388595Y342945
X391646Y356626
X394508Y357496
X392433Y359677
X381212Y364306
X382591Y367158
X386527Y375031
X374062Y374185
X367531Y368831
X364480Y381823
X363595Y384874
X362315Y407118
Y414500
X362413Y418339
X358870Y420701
X358471Y426624
X359264Y435268
X352669Y435169
X369402
X375602Y435268
X370735Y440950
X370583Y447571
X373339Y449441
X375898Y451016
X375735Y455150
X370735
X367433Y462039
X360150Y462236
X335365Y455150
Y450750
X330365
Y455150
X328555Y460661
X321665Y464894
X321567Y456429
Y449441
X321764Y442846
X318614Y435760
X321665Y427591
Y417158
X321764Y409579
X318319Y399933
X314382Y400622
X320096Y391591
X318417Y384480
X317994Y375213
X315360Y373122
X316055Y366823
X344205Y399146
X375799Y400130
X369795Y407610
X370189Y415287
X369992Y421193
X388201Y415878
X403653Y416468
X403752Y407512
X403850Y392945
X404047Y387827
X413290Y380440
X423789Y384972
X430129Y384040
X436527Y384480
X438206Y391591
X436429Y399933
X432492Y400622
X426912Y401325
X421468Y400425
X420120Y394592
X423043Y392650
X420189Y389402
X429343Y374539
X433471Y373122
X436104Y375213
X434165Y366823
X458083Y363811
X458772Y360169
X462610Y361941
X460344Y365881
X460347Y350917
X459264Y342945
X464382Y340386
X464329Y328360
X463735Y314433
X439216Y313661
Y319614
Y325567
X433212
Y319614
Y313661
X421272Y316764
X423929Y326016
X434264Y331035
X439382Y332610
X439874Y409579
X439776Y417158
Y427591
X436724Y435760
X439874Y442846
X439677Y449441
Y456429
X439776Y464894
X446665Y460661
X448476Y455150
Y450750
Y445750
Y440950
X453476Y450750
Y455150
X434165Y452591
X416268Y451016
X413709Y449441
X410953Y447571
X411105Y440950
X415127Y434889
X406311Y435661
X398634Y435760
X393220Y435858
X403457Y426508
X417236Y418437
X416106Y455150
X411105
X408280Y460268
X404343Y463221
X399913Y460661
X392039Y393929
X362413Y350425
X357492Y346291
X330365Y440950
Y445750
X316055Y452591
X462315Y399146
X470878Y393240
X480622Y393929
X487118Y392650
X488594Y389894
X494642Y385021
X502374Y381724
X507470Y379103
X508083Y385071
X511036Y384386
X514874Y381315
X521567Y378378
X521764Y370602
X525996Y357512
X530721Y357315
X544931Y358735
X542827Y346488
X545780Y345209
X546802Y336986
X536920Y336449
X536921Y340583
X526390Y337433
X521764Y341272
X519992Y335169
X531409Y332020
X531311Y324835
X527669Y317059
X524126Y320012
X517925Y320110
X513890Y320307
X512906Y325524
X500799Y321291
X500898Y316665
X505721Y315976
X493811Y316567
X494598Y320504
X485937Y320799
X486527Y316075
X480622Y317158
X469697Y314303
X472650Y333398
X479582Y331658
X483673Y331823
X487315Y331921
X487020Y337335
X495090Y329364
X498634Y330543
X497354Y346783
X494992Y349146
X500209Y348752
X509559Y351016
X510937Y346589
X506705Y342945
X509756Y356626
X512618Y357496
X510543Y359677
X499323Y364306
X500701Y367158
X504638Y375031
X492172Y374185
X485642Y368831
X475642Y365103
X475012Y374441
X469598Y383594
X481705Y384874
X482590Y381823
X480425Y407118
Y414500
X480524Y418339
X476980Y420701
X476581Y426624
X477374Y435268
X470780Y435169
X487512
X493713Y435268
X488846Y440950
X488693Y447571
X491449Y449441
X494008Y451016
X493846Y455150
X488846
X485543Y462039
X478260Y462236
X518024Y460661
X522453Y463221
X526390Y460268
X529216Y455150
X534216
X534378Y451016
X531819Y449441
X529063Y447571
X529216Y440950
X533237Y434889
X524421Y435661
X516744Y435760
X511331Y435858
X521567Y426508
X521764Y416468
X521862Y407512
X521961Y392945
X522157Y387827
X531400Y380440
X541899Y384972
X548239Y384040
X554638Y384480
X556316Y391591
X554539Y399933
X550602Y400622
X545022Y401325
X539579Y400425
X538230Y394592
X541153Y392650
X538299Y389402
X547453Y374539
X551581Y373122
X554214Y375213
X552276Y366823
X552374Y331035
X551322Y325567
Y319614
Y313661
X557326
Y319614
Y325567
X557492Y332610
X542039Y326016
X539382Y316764
X480524Y350425
X475602Y346291
X493909Y400130
X487906Y407610
X488299Y415287
X488102Y421193
X506311Y415878
X510150Y393929
X535347Y418437
X557886Y417158
X557984Y409579
X557886Y427591
X554835Y435760
X557984Y442846
X557787Y449441
Y456429
X557886Y464894
X552276Y452591
X557886Y471685
X557787Y479067
X557984Y487039
X557886Y492453
X555031Y490189
X551291Y492650
X551390Y487335
X534264Y487138
X533968Y492354
X525996Y492748
X526488Y486941
X526193Y481232
X518811
X518122Y486744
X518024Y492748
X510740
X510347Y487925
X493122Y486941
Y492453
X485248Y492650
X485347Y487039
X485248Y481232
X485543Y473555
X477768Y473654
X477571Y481626
X476193Y487039
X476390Y492748
X470386
X470484Y487630
X518614Y473752
X522354Y477098
X526193Y473555
X446862Y470209
X446764Y477787
X439677Y479067
X439776Y471685
X439874Y487039
X439776Y492453
X436921Y490189
X433181Y492650
X433280Y487335
X447059Y486744
X447256Y492748
X453752Y492650
Y487630
X416153Y487138
X415858Y492354
X407886Y492748
X408378Y486941
X408083Y481232
X400701
X400012Y486744
X399913Y492748
X392630
X392236Y487925
X375012Y486941
Y492453
X367138Y492650
X367236Y487039
X367138Y481232
X367433Y473555
X359658Y473654
X359461Y481626
X358083Y487039
X358279Y492748
X352276
X352374Y487630
X335642
Y492650
X329146Y492748
X328949Y486744
X321764Y487039
X321665Y492453
X318811Y490189
X315071Y492650
X315169Y487335
X321567Y479067
X321665Y471685
X328752Y470209
X328654Y477787
X400504Y473752
X404244Y477098
X408083Y473555
X289972
X286134Y477098
X282394Y473752
X282591Y481232
X281902Y486744
X281803Y492748
X274520
X274126Y487925
X290268Y486941
X289972Y481232
X289776Y492748
X297748Y492354
X298043Y487138
X256902Y486941
Y492453
X249027Y492650
X249126Y487039
X249027Y481232
X249323Y473555
X241547Y473654
X241350Y481626
X239972Y487039
X240169Y492748
X234165
X234264Y487630
X217531
Y492650
X211035Y492748
X210839Y486744
X210543Y477787
X210642Y470209
M30
